<?xml version="1.0" standalone="no"?>
<!DOCTYPE svg PUBLIC "-//W3C//DTD SVG 1.1//EN" "http://www.w3.org/Graphics/SVG/1.1/DTD/svg11.dtd" >
<svg xmlns="http://www.w3.org/2000/svg">
<metadata></metadata>
<defs>
<font id="mullerbold_italic" horiz-adv-x="1269" >
<font-face units-per-em="2048" ascent="1597" descent="-451" />
<missing-glyph horiz-adv-x="454" />
<glyph horiz-adv-x="0" />
<glyph horiz-adv-x="682" />
<glyph unicode=" "  horiz-adv-x="454" />
<glyph unicode="&#x09;" horiz-adv-x="454" />
<glyph unicode="&#xa0;" horiz-adv-x="454" />
<glyph unicode="!" horiz-adv-x="555" d="M37 160q11 74 61.5 110.5t120.5 36.5q78 0 123.5 -48t34.5 -136q-13 -75 -63.5 -112.5t-120.5 -37.5q-77 0 -123.5 49t-32.5 138zM129 492l131 942h301l-168 -942h-264z" />
<glyph unicode="&#x22;" horiz-adv-x="825" d="M166 985l72 449h254l-125 -449h-201zM553 985l72 449h254l-125 -449h-201z" />
<glyph unicode="#" horiz-adv-x="1409" d="M25 309l32 209h191l141 359h-172l35 208h219l121 310h274l-121 -310h261l120 310h273l-121 -310h137l-33 -208h-188l-139 -359h168l-35 -209h-217l-123 -309h-273l121 309h-258l-123 -309h-272l121 309h-139zM520 518h260l142 359h-260z" />
<glyph unicode="$" horiz-adv-x="1243" d="M12 102l45 287q190 -147 478 -147q274 0 296 139q6 41 -15 75t-62 58.5t-95.5 47.5t-114.5 47t-120 50.5t-112 63.5t-90 82t-54 109.5t-4 142.5q18 106 88.5 185t168.5 121t216 54l39 242h223l-39 -248q198 -25 332 -106l-43 -275q-169 124 -416 121q-112 -2 -182 -30.5 t-80 -88.5q-6 -40 15.5 -72.5t62.5 -57t95.5 -47t115 -46t120.5 -50t112.5 -64t90 -82.5t54 -110.5t4.5 -144.5q-15 -96 -62 -169t-118 -117t-151.5 -68t-174.5 -31l-39 -239h-223l39 243q-223 26 -400 125z" />
<glyph unicode="%" horiz-adv-x="1884" d="M143 1128q25 160 141 247t269 87q74 0 138 -24.5t111.5 -69.5t69 -116.5t7.5 -159.5q-25 -159 -141.5 -246.5t-268.5 -87.5q-75 0 -139.5 24.5t-112 69.5t-68 116.5t-6.5 159.5zM309 -123l1104 1679h209l-1104 -1679h-209zM367 1096q-5 -53 23 -90t93 -37q73 0 118.5 45 t51.5 110q3 55 -24 91t-90 36q-76 0 -121 -44.5t-51 -110.5zM1044 342q17 107 79.5 184.5t148 113.5t184.5 36q73 0 137.5 -24.5t111.5 -70t68 -117t7 -159.5q-17 -107 -79 -184.5t-146.5 -113.5t-182.5 -36q-75 0 -140 24.5t-112.5 70t-68.5 117t-7 159.5zM1270 309 q-5 -53 23 -90t93 -37q73 0 117.5 45t50.5 111q5 55 -22 91t-90 36q-76 0 -121 -45t-51 -111z" />
<glyph unicode="&#x26;" horiz-adv-x="1474" d="M49 381q23 130 115.5 220t234.5 161q-139 170 -110 334q26 164 170.5 265t347.5 101q185 0 303.5 -108t91.5 -262q-10 -59 -41 -112.5t-69.5 -92.5t-97 -78t-104.5 -63.5t-112 -55.5l226 -252q87 117 102 262h278q-12 -117 -68 -233t-147 -213l226 -254h-308l-96 106 q-214 -135 -475 -135q-233 0 -364 115.5t-103 294.5zM340 381q-11 -77 49 -124.5t174 -47.5q139 0 268 74l-278 305q-89 -41 -145 -89.5t-68 -117.5zM553 1061q-13 -83 74 -199q65 27 106 46.5t90 49.5t76.5 65t34.5 75q9 54 -33.5 95.5t-116.5 41.5q-100 0 -160 -48.5 t-71 -125.5z" />
<glyph unicode="'" horiz-adv-x="438" d="M166 985l72 449h254l-125 -449h-201z" />
<glyph unicode="(" horiz-adv-x="645" d="M94 735q38 240 159.5 486.5t293.5 437.5h233q-325 -458 -401 -934q-38 -243 -12 -502t108 -450h-221q-111 206 -155 459t-5 503z" />
<glyph unicode=")" horiz-adv-x="647" d="M-96 -225q149 211 255 455t144 491q39 247 13 497t-107 443h219q111 -205 156 -465t6 -510q-38 -238 -159 -478.5t-294 -432.5h-233z" />
<glyph unicode="*" horiz-adv-x="985" d="M139 1049l127 247l219 -116l9 254h266l-74 -254l246 116l55 -247l-264 -50l154 -184l-234 -153l-90 251l-174 -251l-203 153l209 184z" />
<glyph unicode="+" horiz-adv-x="1101" d="M72 596l39 242h358l57 358h242l-57 -358h358l-39 -242h-358l-58 -358h-239l57 358h-360z" />
<glyph unicode="," horiz-adv-x="542" d="M-125 -297l217 551h305l-288 -551h-234z" />
<glyph unicode="-" horiz-adv-x="989" d="M80 379l39 239h762l-39 -239h-762z" />
<glyph unicode="." horiz-adv-x="509" d="M16 160q11 74 63 111.5t122 37.5q79 0 124.5 -48t32.5 -138q-13 -75 -63.5 -112.5t-120.5 -37.5q-79 0 -125.5 49t-32.5 138z" />
<glyph unicode="/" horiz-adv-x="937" d="M-63 -121l890 1675h211l-891 -1675h-210z" />
<glyph unicode="0" horiz-adv-x="1443" d="M92.5 517q-5.5 95 13.5 198q23 151 79.5 276.5t145.5 223t219 152t290 54.5q126 0 226.5 -37.5t165 -105t104.5 -161t45.5 -204t-11.5 -235.5q-19 -120 -58 -224.5t-102 -194t-144.5 -153t-191 -99.5t-237.5 -36q-105 0 -193 26.5t-150.5 75t-108 116t-66.5 150.5 t-26.5 178zM406 694q-71 -452 245 -452q346 0 416 456q71 453 -246 453q-173 0 -275.5 -113t-139.5 -344z" />
<glyph unicode="1" horiz-adv-x="940" d="M8 0l43 264h262l131 821l-278 -98l43 277l358 129h226l-179 -1129h232l-43 -264h-795z" />
<glyph unicode="2" horiz-adv-x="1218" d="M-12 0l24 145q8 54 25 103.5t35.5 89t49 79t55 67.5t66 60.5t68 51.5t75 47.5t74 42.5t76.5 41q10 5 15 8q160 82 202 111q104 69 122 154l2 14q10 67 -42 103t-153 36q-235 0 -489 -172l45 295q234 145 487 145q103 0 191 -26.5t154 -77.5t96.5 -135t13.5 -191 q-10 -66 -37 -123t-59.5 -97t-88.5 -83.5t-101 -71.5t-122 -71q-35 -20 -85.5 -48t-79.5 -44t-67 -38.5t-59.5 -38.5t-43.5 -35.5t-33 -38t-15 -38.5h686l-43 -264h-1044z" />
<glyph unicode="3" horiz-adv-x="1216" d="M14 68l41 274q183 -102 424 -102q87 1 155.5 19.5t119 63t61.5 111.5q12 81 -39.5 116.5t-161.5 35.5h-249l45 262h186q107 -2 174.5 36.5t77.5 110.5q12 73 -43.5 115.5t-173.5 42.5q-209 0 -445 -129l47 293q201 104 453 104q105 0 193.5 -26.5t153 -75.5t94.5 -127 t16 -174q-17 -102 -83.5 -176t-174.5 -109q109 -36 171.5 -129.5t39.5 -241.5q-16 -103 -72 -180.5t-140 -122.5t-183 -66.5t-212 -21.5q-259 0 -475 97z" />
<glyph unicode="4" horiz-adv-x="1343" d="M-6 254l39 254l858 885h307l-141 -883h211l-39 -256h-211l-41 -254h-293l41 254h-731zM367 510h397l78 491z" />
<glyph unicode="5" horiz-adv-x="1204" d="M12 70l41 270q74 -47 177 -73.5t204 -26.5q156 0 252 50.5t113 155.5q15 97 -55 148t-218 51q-202 0 -391 -63l170 811h885l-43 -263l-615 3l-59 -271q97 19 178 19q100 0 186 -27t153 -81t97.5 -146t12.5 -211q-19 -114 -78.5 -201t-148 -139.5t-194.5 -78.5t-226 -26 q-248 0 -441 99z" />
<glyph unicode="6" horiz-adv-x="1314" d="M106 715q23 146 75 265t123.5 200t162.5 136t190 80t207 25q211 0 381 -88l-41 -258q-131 88 -311 88q-347 0 -461 -346q181 84 367 84q69 0 136 -18.5t126 -58t100.5 -93.5t59.5 -132t4 -167q-18 -113 -72 -202t-133.5 -145t-177.5 -85t-209 -29q-313 0 -448 197 t-79 547zM385 551q-4 -93 12 -159t50 -102.5t78 -52.5t102 -16q115 0 195.5 52.5t99.5 166.5q16 104 -49 154.5t-177 50.5q-154 0 -311 -94z" />
<glyph unicode="7" horiz-adv-x="1159" d="M119 0l731 1130h-719l43 265h1071l-35 -221l-755 -1174h-336z" />
<glyph unicode="8" horiz-adv-x="1341" d="M53 408q15 97 87.5 187.5t183.5 152.5q-148 130 -117 307q10 55 35.5 106t72.5 99t110.5 83t156 56.5t202.5 21.5q120 0 220 -36.5t162 -95.5t92 -133.5t18 -151.5q-13 -93 -67.5 -166t-157.5 -142q66 -39 106.5 -81.5t60.5 -110t5 -152.5q-12 -77 -55 -143.5 t-117 -120.5t-191 -85.5t-264 -31.5q-143 0 -255.5 36.5t-178 98t-94 139.5t-15.5 163zM358 422q-11 -89 59 -149t212 -60q115 0 197 46.5t94 113.5q7 46 -6 78.5t-53 56.5t-72.5 36.5t-100.5 33.5q-96 29 -174 61q-139 -100 -156 -217zM496 1028q-6 -40 7 -71.5t44 -54.5 t65 -38.5t84 -32.5q52 -14 144 -47q130 108 145 224q10 69 -50.5 120.5t-172.5 51.5q-109 0 -181.5 -41.5t-84.5 -110.5z" />
<glyph unicode="9" horiz-adv-x="1312" d="M96 57l41 258q133 -86 316 -86q351 0 460 346q-172 -81 -352 -81q-92 0 -177 30t-151.5 86t-98 147.5t-13.5 203.5q25 150 112 255.5t209.5 155t270.5 49.5q313 0 447.5 -196.5t78.5 -546.5q-28 -182 -100 -320.5t-174 -221.5t-223.5 -124t-260.5 -41q-211 0 -385 86z M426 954q-9 -56 5.5 -97.5t47.5 -66t77 -36t97 -11.5q149 0 305 95q4 94 -12.5 160t-52 102.5t-81 52.5t-105.5 16q-110 0 -186.5 -53.5t-94.5 -161.5z" />
<glyph unicode=":" horiz-adv-x="573" d="M45 160q11 74 62.5 111.5t119.5 37.5q81 0 127 -48t33 -138q-13 -75 -63.5 -112.5t-120.5 -37.5q-79 0 -125.5 49t-32.5 138zM143 782q11 75 62 112.5t121 37.5q80 0 125.5 -49t31.5 -138q-11 -75 -62 -112t-122 -37q-79 0 -124.5 48.5t-31.5 137.5z" />
<glyph unicode=";" horiz-adv-x="598" d="M-102 -297l217 551h305l-289 -551h-233zM166 840q11 73 62 110t120 37q81 0 127 -48t33 -136q-13 -75 -64 -113.5t-120 -38.5q-79 0 -125.5 49.5t-32.5 139.5z" />
<glyph unicode="&#x3c;" horiz-adv-x="1034" d="M76 575l45 283l862 297l-41 -260l-594 -184l537 -176l-41 -256z" />
<glyph unicode="=" horiz-adv-x="1185" d="M88 393l39 240h942l-39 -240h-942zM154 801l36 239h945l-39 -239h-942z" />
<glyph unicode="&#x3e;" horiz-adv-x="1036" d="M90 274l41 261l598 188l-541 176l41 256l770 -297l-47 -283z" />
<glyph unicode="?" horiz-adv-x="1019" d="M150 1085l43 277q192 100 399 100q96 0 179.5 -22t150 -65.5t97.5 -118.5t15 -171q-8 -56 -36.5 -110.5t-67 -99t-84 -88t-90 -83.5t-82.5 -77.5t-64 -78t-32 -77.5h-271q8 56 34 109.5t61.5 97.5t77 85.5t82 79t75 72.5t58.5 71.5t30 70.5q10 75 -42 105t-157 30 q-171 0 -376 -107zM221 160q11 74 63 111.5t122 37.5q79 0 124.5 -48t32.5 -138q-13 -75 -63.5 -112.5t-120.5 -37.5q-79 0 -125.5 49t-32.5 138z" />
<glyph unicode="@" horiz-adv-x="2144" d="M56.5 217q-20.5 137 4.5 299q24 148 87 286t165.5 258t234.5 209.5t303 141t361 51.5q186 0 340 -55.5t254 -147t164.5 -209.5t84.5 -244.5t1 -250.5q-43 -273 -177.5 -408t-344.5 -135q-125 0 -209.5 58t-103.5 149q-109 -156 -306 -156q-119 0 -202 65t-114 165 t-13 213q13 79 48 150.5t89.5 129.5t133.5 92.5t171 34.5q91 0 161 -44t105 -109l21 129h219l-82 -516q-11 -75 13 -112.5t91 -37.5q68 0 119 48.5t80 125t45 181.5q11 55 7 111.5t-15 112.5t-38 109t-61 100t-85 86t-110 67.5t-135 44.5t-161 16q-178 0 -335.5 -59 t-269.5 -159.5t-185.5 -232.5t-96.5 -280q-22 -142 4 -263t90 -206.5t159.5 -146t211 -89.5t244.5 -29q225 0 461 76l-27 -244q-203 -69 -454 -69q-141 0 -271.5 28.5t-245 84.5t-204 140t-148 194t-79 247zM825 479q-13 -87 28 -150t128 -63q78 0 143 44.5t93 105.5l26 159 q-9 58 -52.5 96t-111.5 38q-99 0 -169 -65.5t-85 -164.5z" />
<glyph unicode="A" horiz-adv-x="1513" d="M-88 0l811 1434h334l356 -1434h-309l-64 268h-657l-145 -268h-326zM520 522h463l-115 506q-13 55 -16 123q-27 -76 -51 -123z" />
<glyph unicode="B" horiz-adv-x="1406" d="M59 0l228 1434h606q108 0 196.5 -24.5t152.5 -71t93 -120.5q20 -50 20 -108q0 -28 -5 -59q-36 -226 -267 -299q51 -16 93.5 -44.5t76 -72t47.5 -108.5q7 -33 6 -70q0 -35 -6 -74q-59 -383 -618 -383h-623zM406 250h301q265 0 297 182q4 24 4 44q0 28 -8 50 q-14 38 -47.5 57.5t-71.5 27t-88 7.5h-330zM502 854h303q93 0 157.5 42.5t77.5 119.5q4 20 4 38q0 58 -38 88q-48 40 -152 40h-301z" />
<glyph unicode="C" horiz-adv-x="1331" d="M96 745q23 141 87.5 261.5t153 203t196.5 140.5t217 85t215 27q232 0 403 -104l-43 -275q-126 107 -324 107q-76 0 -151 -16.5t-149.5 -53t-134.5 -90.5t-104 -134.5t-59 -178.5q-7 -45 -7 -86q0 -65 18 -123q29 -92 92.5 -148t145.5 -85t173 -29q220 0 396 116l-50 -305 q-179 -86 -409 -86q-113 0 -219 29.5t-198.5 93t-156.5 153t-90 218.5q-14 67 -14 140q0 68 12 140z" />
<glyph unicode="D" horiz-adv-x="1519" d="M59 0l228 1434h530q239 0 397 -95.5t218 -260.5q39 -107 40 -234q0 -70 -12 -146q-25 -156 -89 -282t-166.5 -220t-252.5 -145t-336 -51h-557zM410 270h223q214 0 348.5 119t169.5 346q10 58 10 109q1 134 -67 212q-92 108 -306 107h-237z" />
<glyph unicode="E" horiz-adv-x="1265" d="M59 0l228 1434h1009l-43 -271h-704l-47 -305h641l-41 -268h-643l-51 -320h716l-43 -270h-1022z" />
<glyph unicode="F" horiz-adv-x="1241" d="M59 0l228 1434h1011l-43 -277h-706l-51 -334h645l-43 -276h-647l-86 -547h-308z" />
<glyph unicode="G" horiz-adv-x="1435" d="M96 741q20 124 68.5 230.5t116 184t150.5 137.5t175.5 96.5t186 54.5t186.5 18q242 0 432 -96l-43 -279q-132 101 -364 101q-96 0 -190 -27.5t-179.5 -83t-147 -151t-81.5 -219.5q-8 -52 -8 -99q0 -49 9 -92q18 -84 58.5 -135t100.5 -83.5t120 -45t125 -12.5q98 0 174 28 l82 510h293l-113 -712q-222 -95 -467 -95q-121 0 -231 28t-204.5 89t-158 149.5t-88.5 218.5q-14 66 -14 140q0 69 12 145z" />
<glyph unicode="H" horiz-adv-x="1566" d="M59 0l228 1434h307l-92 -578h643l92 578h307l-227 -1434h-307l90 578h-643l-90 -578h-308z" />
<glyph unicode="I" horiz-adv-x="616" d="M59 0l228 1434h307l-227 -1434h-308z" />
<glyph unicode="J" horiz-adv-x="1050" d="M-55 51l43 277q119 -72 278 -72q280 0 316 227l106 674h-379l43 277h686l-157 -1004q-16 -101 -53 -179.5t-89.5 -130t-121.5 -85t-144.5 -48t-163.5 -14.5q-230 0 -364 78z" />
<glyph unicode="K" horiz-adv-x="1413" d="M59 0l228 1434h307l-90 -570h237l449 570h340l-569 -721l364 -713h-326l-299 586h-241l-92 -586h-308z" />
<glyph unicode="L" horiz-adv-x="1185" d="M59 0l228 1434h307l-184 -1158h704l-45 -276h-1010z" />
<glyph unicode="M" horiz-adv-x="1857" d="M59 0l228 1434h276l365 -748l596 748h311l-227 -1434h-305l141 889l-451 -563h-207l-276 567l-143 -893h-308z" />
<glyph unicode="N" horiz-adv-x="1566" d="M59 0l228 1434h256l555 -936q7 107 22 200l117 736h307l-227 -1434h-256l-555 936q-2 -66 -19 -191l-120 -745h-308z" />
<glyph unicode="O" horiz-adv-x="1667" d="M87 540q-4 36 -4 73q0 60 11 122q23 144 92 273.5t176 231.5t261.5 162t334.5 60q172 0 309.5 -63.5t219.5 -168.5q81 -106 115 -244q20 -80 20 -165q0 -61 -10 -123q-18 -115 -63.5 -221t-121 -198.5t-173.5 -161t-227.5 -107.5t-276.5 -39q-119 0 -222 29t-178.5 80.5 t-133.5 123t-88 156t-41 180.5zM401 709q-7 -43 -7 -85q0 -44 8 -86q15 -80 58 -143.5t121.5 -101t184.5 -37.5q221 0 363 132t174 337q7 43 7 85q0 44 -8 86q-15 80 -58 143.5t-121.5 101t-184.5 37.5q-219 0 -361 -132t-176 -337z" />
<glyph unicode="P" horiz-adv-x="1368" d="M59 0l228 1434h540q99 0 183.5 -15.5t159.5 -52t123.5 -92.5t68.5 -143q11 -48 12 -102q0 -45 -8 -95q-17 -106 -59 -186.5t-102 -132.5t-142.5 -84.5t-173 -46t-201.5 -13.5h-248l-73 -471h-308zM483 741h250q289 0 324 215q4 23 4 44q0 163 -248 163h-262z" />
<glyph unicode="Q" horiz-adv-x="1667" d="M87 540q-4 36 -4 73q0 60 11 122q23 144 92 273.5t176 231.5t261.5 162t334.5 60q172 0 309.5 -63.5t219.5 -169t115 -243.5q20 -80 20 -165q0 -60 -10 -123q-21 -134 -81 -257t-155 -218l137 -157l-227 -183l-147 172q-179 -84 -389 -84q-119 0 -222 29t-178.5 80.5 t-133.5 123t-88 156t-41 180.5zM401 709q-7 -43 -7 -85q0 -44 8 -86q15 -80 58 -143.5t121.5 -101t184.5 -37.5q93 0 172 31l-143 170l217 190l168 -196q98 112 123 274q7 43 7 85q0 44 -8 86q-15 80 -58 143.5t-121.5 101t-184.5 37.5q-219 0 -361 -132t-176 -337z" />
<glyph unicode="R" horiz-adv-x="1445" d="M59 0l228 1434h581q84 0 160 -14.5t147.5 -50t119.5 -89.5q47 -53 69 -138q12 -49 13 -105q0 -42 -7 -87q-52 -318 -375 -411l334 -539h-332l-301 502h-252l-77 -502h-308zM487 758h289q108 0 187.5 53.5t95.5 155.5q4 23 4 44q-1 71 -47 107q-60 46 -168 45h-297z" />
<glyph unicode="S" horiz-adv-x="1232" d="M18 104l45 283q196 -145 472 -145q274 0 296 139q2 11 2 22q-1 31 -17 59q-22 36 -62 62.5t-94.5 50.5t-114.5 47.5t-120 50.5t-112 64t-89.5 82.5t-53.5 111.5q-9 38 -9 80q0 32 5 66q16 96 70 171.5t133 121t172.5 69t195.5 23.5q130 0 250.5 -32.5t204.5 -86.5 l-41 -274q-168 123 -392 123h-11q-256 -3 -273 -139q-1 -6 -1 -12q0 -36 26 -67q30 -36 81 -60t116.5 -51.5t134 -53.5t131.5 -66t109 -87.5t66 -121.5q12 -41 12 -87q0 -36 -7 -76q-15 -90 -55.5 -160t-96 -114.5t-129.5 -73.5t-151.5 -40.5t-167.5 -11.5q-309 0 -525 133z " />
<glyph unicode="T" horiz-adv-x="1241" d="M117 1157l43 277h1186l-43 -277h-441l-182 -1157h-307l184 1157h-440z" />
<glyph unicode="U" horiz-adv-x="1538" d="M131 547l139 887h308l-142 -887q-7 -43 -7 -79q0 -102 52 -152q70 -68 219 -68q333 0 385 315l138 871h307l-144 -904q-20 -124 -68 -221t-113.5 -159.5t-151 -103.5t-175.5 -58t-192 -17q-97 0 -184 18.5t-165 62.5t-130 108t-74 164q-12 52 -12 111q0 53 10 112z" />
<glyph unicode="V" horiz-adv-x="1454" d="M145 1434h320l213 -1074l557 1074h342l-786 -1434h-316z" />
<glyph unicode="W" horiz-adv-x="2160" d="M145 1434h320l119 -1082l485 1082h266l140 -1074l460 1074h338l-665 -1434h-342l-129 969l-439 -969h-338z" />
<glyph unicode="X" horiz-adv-x="1380" d="M-113 0l650 739l-383 695h344l243 -457l398 457h366l-612 -697l405 -737h-344l-264 504l-436 -504h-367z" />
<glyph unicode="Y" horiz-adv-x="1437" d="M139 1434h332l266 -646l469 646h359l-707 -926l-82 -508h-305l82 508z" />
<glyph unicode="Z" horiz-adv-x="1257" d="M-29 0l33 217l832 940h-650l43 277h1067l-32 -222l-832 -936h705l-43 -276h-1123z" />
<glyph unicode="[" horiz-adv-x="679" d="M-2 -225l297 1884h493l-38 -256h-207l-219 -1370h206l-38 -258h-494z" />
<glyph unicode="\" horiz-adv-x="917" d="M199 1554h200l361 -1675h-201z" />
<glyph unicode="]" horiz-adv-x="677" d="M-70 -225l39 258h209l217 1370h-207l39 256h494l-297 -1884h-494z" />
<glyph unicode="^" horiz-adv-x="1208" d="M90 725l524 709h250l301 -709h-293l-163 426l-306 -426h-313z" />
<glyph unicode="_" horiz-adv-x="993" d="M-150 -354l39 241h992l-39 -241h-992z" />
<glyph unicode="`" horiz-adv-x="518" d="M246 1868h319l137 -303h-282z" />
<glyph unicode="a" d="M53 510q16 98 60.5 187.5t113 160t165.5 112.5t208 42q125 0 209.5 -55.5t128.5 -137.5l27 164h249l-155 -983h-250l22 145q-138 -174 -370 -174q-113 0 -200.5 45t-137.5 120q-51 75 -69 172q-10 51 -9 103q0 49 8 99zM336 485q-4 -28 -4 -54q0 -80 41 -140 q55 -80 168 -80q94 0 172 49.5t123 122.5l38 229q-18 69 -76.5 114.5t-142.5 45.5q-125 0 -211.5 -81t-107.5 -206z" />
<glyph unicode="b" horiz-adv-x="1271" d="M25 0l227 1434h285l-93 -560q141 138 336 138q109 0 195.5 -45t137.5 -120t71 -172q11 -54 11 -110q0 -45 -7 -92q-16 -99 -59 -187.5t-110.5 -159.5t-165.5 -113t-214 -42q-125 0 -209.5 53.5t-124.5 131.5l-29 -156h-251zM367 371q21 -71 76.5 -115.5t138.5 -44.5 q128 0 215 79t106 204q4 29 4 56q-1 82 -41 142q-54 80 -166 80q-92 0 -170.5 -49t-126.5 -123z" />
<glyph unicode="c" horiz-adv-x="1009" d="M51 506q16 107 62.5 194t109 144.5t140 96.5t155.5 56t156 17q177 0 311 -84l-39 -236q-97 72 -241 72q-64 0 -122.5 -16t-110.5 -48.5t-88 -88.5t-48 -130q-4 -27 -3 -51q0 -95 59 -148q75 -67 204 -67q148 0 299 74l-41 -256q-149 -64 -328 -64q-108 0 -200.5 32.5 t-163 95.5t-101.5 169q-18 63 -18 135q0 49 8 103z" />
<glyph unicode="d" d="M53 510q16 98 60.5 187.5t112.5 160t164.5 112.5t205.5 42t189.5 -43.5t125.5 -112.5l93 578h282l-227 -1434h-250l22 145q-128 -174 -370 -174q-113 0 -200.5 45t-137.5 120q-51 75 -69 172q-10 51 -9 103q0 49 8 99zM336 483q-4 -28 -4 -53q0 -78 41 -139 q55 -80 168 -80q94 0 172 49.5t123 122.5l38 235q-20 66 -78 110t-141 44q-125 0 -211.5 -80.5t-107.5 -208.5z" />
<glyph unicode="e" horiz-adv-x="1112" d="M51 512q15 103 57 187.5t99 141.5t127 96.5t141.5 57t142.5 17.5q96 0 174 -25.5t129 -70t83 -104.5q33 -60 43 -128q5 -36 5 -73q0 -34 -4 -68q-9 -73 -36 -146h-695q4 -53 31 -93t70.5 -62.5t94 -33.5t108.5 -11q187 0 321 67l-35 -231q-144 -62 -356 -62 q-113 0 -211.5 36.5t-170.5 102.5q-73 68 -105 172q-21 66 -20 140q0 44 7 90zM346 582h440q6 24 8 52v10q0 22 -10 46q-12 28 -30 52t-54.5 38.5t-85.5 14.5q-99 0 -173.5 -59t-94.5 -154z" />
<glyph unicode="f" horiz-adv-x="823" d="M70 743l39 240h167l19 113q13 84 45 149t74.5 105t97 66t107.5 36t112 10q143 0 238 -45l-35 -223q-63 29 -146 29q-189 0 -213 -156l-14 -84h299l-37 -240h-301l-116 -743h-285l119 743h-170z" />
<glyph unicode="g" horiz-adv-x="1273" d="M20 -379l39 240q146 -101 357 -101q92 0 165.5 25t127.5 86t69 152l15 90q-47 -59 -131 -100.5t-203 -41.5q-113 0 -200.5 45t-137.5 120t-69 172q-9 51 -9 103q0 49 8 99q16 98 61.5 187.5t114 160t165.5 112.5t206 42q236 0 336 -185l27 156h253l-151 -965 q-21 -131 -80 -229t-144.5 -155t-185 -85t-211.5 -28q-246 0 -422 100zM334 483q-4 -28 -4 -53q0 -79 41 -139q55 -80 168 -80q94 0 172 48t123 120l38 239q-20 66 -78 110t-141 44q-125 0 -211.5 -80.5t-107.5 -208.5z" />
<glyph unicode="h" horiz-adv-x="1206" d="M25 0l227 1434h285l-88 -545q66 55 148 89t163 34q123 0 207 -56q83 -56 117 -149q22 -60 23 -130q0 -37 -7 -77l-96 -600h-285l92 580q4 24 4 46q0 60 -30 94q-40 46 -119 46q-72 0 -140 -39t-118 -94l-99 -633h-284z" />
<glyph unicode="i" horiz-adv-x="530" d="M29 0l155 983h285l-156 -983h-284zM213 1325q11 72 60.5 108.5t117.5 36.5q77 0 121 -48q34 -37 34 -95q0 -17 -3 -37q-11 -72 -60.5 -108.5t-117.5 -36.5q-75 0 -120 47q-35 36 -35 96q0 18 3 37z" />
<glyph unicode="j" horiz-adv-x="530" d="M-281 -444l37 233q40 -18 101 -18q67 0 106.5 34t52.5 111l168 1067h285l-182 -1145q-14 -91 -49 -155t-88 -98.5t-111.5 -49t-132.5 -14.5q-105 0 -187 35zM213 1325q11 72 60.5 108.5t117.5 36.5q76 0 121 -48q34 -36 34 -95q0 -18 -3 -37q-11 -72 -60.5 -108.5 t-117.5 -36.5q-75 0 -120 47q-35 36 -35 96q0 18 3 37z" />
<glyph unicode="k" horiz-adv-x="1116" d="M25 0l227 1434h285l-131 -811h122l303 360h328l-422 -491l285 -492h-299l-225 397h-127l-62 -397h-284z" />
<glyph unicode="l" horiz-adv-x="530" d="M29 0l237 1495h285l-238 -1495h-284z" />
<glyph unicode="m" horiz-adv-x="1787" d="M25 0l155 983h250l-18 -119q58 60 149.5 104t190.5 44q193 0 268 -144q169 144 346 144q65 0 119 -17.5t89 -47t61.5 -69t36.5 -84.5q12 -44 16 -90q2 -15 1 -30q0 -30 -6 -60l-98 -614h-282l98 618q2 16 2 30q0 49 -27 79q-35 39 -100 39q-114 0 -217 -107q0 -17 -4 -45 l-99 -614h-282l98 618q2 16 2 30q0 49 -26 79q-34 39 -100.5 39t-129.5 -39t-108 -92l-101 -635h-284z" />
<glyph unicode="n" horiz-adv-x="1206" d="M25 0l155 983h250l-20 -127q78 73 172 114.5t188 41.5q179 0 268 -118q68 -90 69 -212q0 -37 -7 -78l-96 -604h-285l92 580q4 25 4 46q1 60 -29 94q-40 46 -120 46q-72 0 -140 -39t-118 -92l-99 -635h-284z" />
<glyph unicode="o" horiz-adv-x="1214" d="M51 516q19 121 78.5 217.5t144 156.5t184 91t206.5 31q104 0 196.5 -36.5t160.5 -103.5q68 -66 99 -172q18 -63 19 -134q0 -48 -9 -99q-15 -97 -57.5 -179.5t-102.5 -140t-134.5 -98t-154 -59.5t-159.5 -19q-110 0 -203.5 36.5t-161 103.5t-97.5 172q-18 63 -17 133 q0 48 8 100zM334 487q-4 -26 -4 -50q0 -79 42 -137q54 -74 173 -75q120 0 201 74.5t102 196.5q4 26 4 50q0 80 -41 138q-53 74 -170 74q-121 0 -203.5 -74.5t-103.5 -196.5z" />
<glyph unicode="p" d="M-47 -451l227 1434h252l-24 -145q61 78 156.5 126t215.5 48q109 0 195.5 -45t137.5 -120t71 -172q11 -54 11 -110q0 -45 -7 -92q-16 -98 -60.5 -187.5t-113 -160t-165.5 -112.5t-208 -42q-216 0 -313 154l-90 -576h-285zM365 365q20 -67 77.5 -110.5t141.5 -43.5 q125 0 211.5 81.5t107.5 207.5q4 28 4 53q0 79 -41 139q-55 80 -168 80q-93 0 -171 -50.5t-126 -123.5z" />
<glyph unicode="q" d="M53 510q16 98 60.5 187.5t113 160t165.5 112.5t208 42q125 0 211 -56.5t127 -136.5l27 164h249l-227 -1434h-282l88 553q-124 -131 -332 -131q-113 0 -200.5 45t-137.5 120t-69 172q-9 51 -9 103q0 49 8 99zM336 483q-4 -28 -4 -53q0 -79 41 -139q55 -80 168 -80 q95 0 173 50t122 122l38 235q-18 64 -77 109t-142 45q-125 0 -211.5 -81.5t-107.5 -207.5z" />
<glyph unicode="r" horiz-adv-x="804" d="M25 0l155 983h252l-22 -143q118 165 355 164q35 0 73 -3l-43 -274q-46 10 -91 10q-74 0 -140 -28q-107 -45 -167 -142l-88 -567h-284z" />
<glyph unicode="s" horiz-adv-x="978" d="M8 66l37 235q68 -51 164.5 -78.5t191.5 -27.5q171 0 185 77q5 31 -22 55t-74 41.5t-104.5 36t-114 44.5t-101 60t-67.5 90q-16 39 -16 86q0 20 3 42q13 80 58 138t111.5 88.5t136 44.5t145.5 14q199 0 364 -84l-37 -234q-66 45 -153 73t-172 28q-64 0 -109 -19.5 t-51 -60.5q-5 -32 22.5 -56.5t74.5 -42t104.5 -35t113.5 -43t100 -59.5q44 -35 66 -91q14 -37 14 -80q0 -24 -4 -50q-46 -287 -479 -287q-115 0 -217 25t-170 70z" />
<glyph unicode="t" horiz-adv-x="849" d="M47 743l39 240h164l47 285l293 69l-55 -354h311l-39 -240h-311l-64 -393q-3 -21 -4 -39q0 -47 22 -69q30 -32 111 -31q104 0 191 37l-37 -234q-97 -43 -256 -43q-73 0 -133.5 19.5t-107.5 58.5t-67 107q-12 40 -12 86q0 33 6 69l68 432h-166z" />
<glyph unicode="u" horiz-adv-x="1204" d="M76 385l94 598h283l-91 -580q-5 -27 -4 -50q0 -59 28 -91q40 -46 122 -45q77 0 144 37.5t112 93.5l100 635h283l-156 -983h-250l21 127q-64 -74 -151.5 -115t-188.5 -41q-186 0 -280 119q-72 92 -72 217q0 38 6 78z" />
<glyph unicode="v" horiz-adv-x="1153" d="M80 983h291l145 -682l369 682h317l-573 -983h-299z" />
<glyph unicode="w" horiz-adv-x="1677" d="M84 983h283l88 -651l303 651h270l92 -651l285 651h313l-483 -983h-299l-90 639l-307 -639h-295z" />
<glyph unicode="x" horiz-adv-x="1081" d="M-94 0l465 514l-285 469h305l162 -278l242 278h331l-442 -489l299 -494h-303l-178 303l-262 -303h-334z" />
<glyph unicode="y" horiz-adv-x="1153" d="M-53 -446l39 233q50 -20 104 -20q83 0 142.5 55t125.5 176l17 18l-307 967h297l180 -672l321 672h330l-608 -1108q-106 -194 -221 -273t-250 -79q-85 0 -170 31z" />
<glyph unicode="z" horiz-adv-x="987" d="M-31 0l29 184l547 564h-428l37 235h802l-28 -182l-547 -563h487l-39 -238h-860z" />
<glyph unicode="{" horiz-adv-x="727" d="M53 592l41 252q76 -6 118.5 26t55.5 119l62 391q29 182 155 253t334 24l-41 -246q-84 14 -126 -30t-58 -146l-49 -309q-17 -107 -71.5 -154.5t-135.5 -54.5q31 -2 58 -14.5t50 -39.5t30 -69t-1 -102l-49 -312q-15 -95 13.5 -131.5t119.5 -21.5l-39 -256 q-111 -23 -191.5 -9.5t-130.5 56t-69 108t-6 146.5l61 393q7 42 0.5 69t-28 39t-44 15.5t-59.5 3.5z" />
<glyph unicode="|" horiz-adv-x="538" d="M0 -205l295 1864h287l-295 -1864h-287z" />
<glyph unicode="}" horiz-adv-x="727" d="M-53 -223l39 250q85 -18 126.5 20t59.5 141l51 328q16 99 75 150.5t138 54.5q-68 3 -114.5 64t-30.5 161l49 311q16 96 -12 132t-121 22l39 252q109 23 189.5 9.5t131 -56t70 -108t6.5 -146.5l-61 -393q-7 -26 -3 -45.5t7.5 -33t15.5 -23t22 -15t26.5 -8t29.5 -3.5t31 -1 l-39 -250q-148 10 -172 -146l-64 -391q-30 -183 -153.5 -255t-335.5 -21z" />
<glyph unicode="~" horiz-adv-x="1234" d="M115 516q4 169 87 252.5t206 83.5q73 0 154.5 -27t150 -53.5t110.5 -26.5q40 0 64 24.5t24 72.5h242q-3 -166 -86 -251t-213 -85q-67 0 -150.5 28t-153.5 55t-108 25q-39 0 -63.5 -26t-24.5 -72h-239z" />
<glyph unicode="&#xa1;" horiz-adv-x="532" d="M-49 -449l168 943h262l-131 -943h-299zM137 862q11 75 62 112.5t120 37.5q80 0 125 -48.5t31 -138.5q-11 -74 -61.5 -110.5t-120.5 -36.5q-78 0 -124 48t-32 136z" />
<glyph unicode="&#xa2;" horiz-adv-x="1046" d="M55 506q19 124 77 221t139 156t171 91t185 38l35 217h184l-37 -228q107 -23 180 -71l-39 -236q-74 56 -178 68l-86 -539q100 13 213 68l-41 -256q-103 -44 -211 -58l-35 -223h-184l35 221q-97 10 -177.5 47t-140.5 100.5t-85 162.5t-5 221zM340 483q-14 -105 31 -169 t133 -87l82 523q-96 -25 -162 -91.5t-84 -175.5z" />
<glyph unicode="&#xa3;" horiz-adv-x="1234" d="M-14 0l41 250h45q70 0 118 52t60 132l22 137h-163l34 230h164l23 135q20 128 73.5 224t131 152t167 82.5t191.5 26.5q179 0 330 -80l-37 -235q-111 80 -264 80q-122 0 -205 -67t-105 -206l-18 -112h395l-35 -230h-395l-27 -155q-9 -68 -33.5 -107t-72.5 -59h682l-41 -250 h-1081z" />
<glyph unicode="&#xa4;" horiz-adv-x="1165" d="M63 381l142 127q-47 90 -27 227q18 119 94 211l-98 113l154 139l108 -125q94 47 215 47q124 0 209 -53l156 135l125 -145l-144 -129q46 -98 27 -230q-19 -121 -96 -213l100 -110l-158 -139l-106 122q-93 -45 -213 -45t-207 49l-151 -129zM418 698q-8 -71 30.5 -116 t120.5 -45q92 0 149 56t66 142q8 71 -31 116.5t-120 45.5q-92 0 -149 -56.5t-66 -142.5z" />
<glyph unicode="&#xa5;" horiz-adv-x="1468" d="M182 1393h320l243 -623l447 623h340l-520 -680h219l-31 -197h-330l-18 -106h332l-33 -197h-330l-35 -213h-305l35 213h-332l33 197h330l18 106h-332l31 197h221z" />
<glyph unicode="&#xa6;" horiz-adv-x="563" d="M12 -205l121 762h287l-121 -762h-287zM186 897l121 762h287l-121 -762h-287z" />
<glyph unicode="&#xa7;" horiz-adv-x="1064" d="M49 25l35 219q69 -45 157.5 -71t166.5 -26q61 0 99.5 6t65.5 24.5t33 51.5q2 15 -2.5 28t-19 25t-30.5 21.5t-45 21t-53 19.5l-63 21q-53 17 -92.5 33.5t-82 44t-67.5 59.5t-37.5 79.5t-4.5 104.5q10 80 56 141.5t130 116.5q-112 76 -88 234q12 78 55 135.5t107.5 88.5 t135.5 45.5t150 14.5q186 0 355 -88l-35 -217q-54 38 -139.5 63t-165.5 25q-166 0 -176 -84q-2 -15 2 -27.5t17 -23.5t25 -19.5t37 -19t41.5 -16.5t50.5 -18t52 -19q70 -26 113.5 -48t90.5 -58.5t64.5 -88.5t7.5 -118q-23 -147 -182 -250q103 -88 80 -242q-13 -79 -58 -137 t-114 -89t-144 -45t-161 -14q-203 0 -367 97zM375 717q-7 -46 26.5 -72t102.5 -51q58 -18 114 -33q94 51 103 125q5 48 -25 73t-96 50q-111 32 -115 33q-97 -45 -110 -125z" />
<glyph unicode="&#xa8;" horiz-adv-x="708" d="M213 1724q9 56 56 96t104 40q69 0 110.5 -50.5t30.5 -121.5q-9 -56 -56.5 -95t-105.5 -39q-68 0 -108.5 50t-30.5 120zM651 1724q9 56 56 96t104 40q69 0 110.5 -50.5t30.5 -121.5q-9 -56 -56 -95t-105 -39q-68 0 -109 50t-31 120z" />
<glyph unicode="&#xa9;" horiz-adv-x="1732" d="M104 735q23 142 85 262t149.5 204.5t195 144t223 88t232.5 28.5q115 0 223.5 -30.5t201.5 -93.5t158 -152t91.5 -215t3.5 -273q-23 -142 -85 -262t-149.5 -204.5t-195.5 -144t-223.5 -88t-233.5 -28.5q-115 0 -223 30.5t-201 93.5t-157.5 152t-91 215t-3.5 273zM203 707 q-17 -123 6 -229t77.5 -180.5t133 -127.5t171 -78.5t193.5 -25.5q105 0 208.5 26t200.5 80.5t174.5 131.5t132 186t71.5 237q17 123 -7 229t-78.5 180.5t-133 127.5t-171 78.5t-192.5 25.5q-105 0 -209 -26t-200.5 -80.5t-174 -131.5t-131.5 -186t-71 -237zM487 719 q14 86 51.5 157t88.5 118t113.5 79.5t125 47t123.5 14.5q153 0 266 -76l-22 -170q-88 55 -205 55q-52 0 -99.5 -12t-92 -38t-76 -73.5t-41.5 -111.5q-10 -60 4 -104t45.5 -68.5t70.5 -36t85 -11.5q134 0 252 64l-27 -191q-129 -63 -291 -63q-71 0 -141 25.5t-129 74.5 t-88.5 132.5t-12.5 187.5z" />
<glyph unicode="&#xab;" horiz-adv-x="1144" d="M41 465l8 59l316 365h294l-346 -397l213 -398h-280zM508 465l8 59l315 365h295l-346 -397l213 -398h-280z" />
<glyph unicode="&#xac;" horiz-adv-x="1177" d="M115 741l39 242h958l-80 -496h-244l41 254h-714z" />
<glyph unicode="&#xad;" horiz-adv-x="989" d="M80 379l39 239h762l-39 -239h-762z" />
<glyph unicode="&#xae;" horiz-adv-x="1732" d="M104 735q23 142 85 262t149.5 204.5t195 144t223 88t232.5 28.5q115 0 223.5 -30.5t201.5 -93.5t158 -152t91.5 -215t3.5 -273q-23 -142 -85 -262t-149.5 -204.5t-195.5 -144t-223.5 -88t-233.5 -28.5q-115 0 -223 30.5t-201 93.5t-157.5 152t-91 215t-3.5 273zM203 707 q-17 -123 6 -229t77.5 -180.5t133 -127.5t171 -78.5t193.5 -25.5q105 0 208.5 26t200.5 80.5t174.5 131.5t132 186t71.5 237q17 123 -7 229t-78.5 180.5t-133 127.5t-171 78.5t-192.5 25.5q-105 0 -209 -26t-200.5 -80.5t-174 -131.5t-131.5 -186t-71 -237zM506 326l127 800 h366q47 0 91.5 -10t85.5 -32.5t70 -55.5t41.5 -83t2.5 -111q-13 -89 -69 -147t-138 -83l170 -278h-213l-153 262h-19h-127l-39 -262h-196zM768 752h160q28 0 48.5 3t46 12t42 31t22.5 56q8 53 -26 72.5t-90 19.5h-172z" />
<glyph unicode="&#xaf;" horiz-adv-x="737" d="M240 1585l36 225h668l-37 -225h-667z" />
<glyph unicode="&#xb0;" horiz-adv-x="851" d="M147 1139q24 149 139.5 236t260.5 87q152 0 248 -99t71 -261q-25 -156 -138.5 -243t-262.5 -87q-151 0 -247.5 99.5t-70.5 267.5zM352 1106q-6 -63 28.5 -101t98.5 -38q74 0 123 46t55 122q6 60 -27.5 96.5t-97.5 36.5q-74 0 -123.5 -44.5t-56.5 -117.5z" />
<glyph unicode="&#xb1;" horiz-adv-x="1179" d="M18 0l37 242h961l-39 -242h-959zM133 727l39 242h358l56 358h241l-57 -358h360l-38 -242h-359l-57 -358h-240l56 358h-359z" />
<glyph unicode="&#xb4;" horiz-adv-x="491" d="M221 1565l232 303h331l-268 -303h-295z" />
<glyph unicode="&#xb6;" horiz-adv-x="1499" d="M125 1008q31 202 170.5 314t359.5 112h824l-299 -1885h-293l254 1608h-230l-254 -1608h-292l157 996q-218 2 -325 125.5t-72 337.5z" />
<glyph unicode="&#xb7;" horiz-adv-x="536" d="M82 508q11 74 62.5 111.5t121.5 37.5q80 0 125 -48.5t31 -137.5q-11 -75 -61.5 -112t-120.5 -37q-80 0 -126 48.5t-32 137.5z" />
<glyph unicode="&#xb8;" horiz-adv-x="454" d="M-143 -440l28 176q66 -37 162 -37q127 0 135 57q6 38 -49 52.5t-137 1.5l70 190h198l-45 -100q93 -9 135.5 -59.5t30.5 -135.5q-9 -65 -59 -108t-112.5 -59.5t-135.5 -16.5q-126 0 -221 39z" />
<glyph unicode="&#xbb;" horiz-adv-x="1144" d="M-14 94l346 398l-213 397h280l207 -371l-10 -59l-315 -365h-295zM453 94l346 398l-213 397h280l207 -371l-10 -59l-315 -365h-295z" />
<glyph unicode="&#xbc;" horiz-adv-x="1921" d="M88 557l27 172h182l74 465l-187 -59l29 180l238 78h145l-107 -664h154l-27 -172h-528zM334 -29l1173 1491h97l-1174 -1491h-96zM1042 147l27 166l504 523h201l-84 -521h122l-26 -168h-121l-25 -147h-188l23 147h-433zM1284 315h215l45 269z" />
<glyph unicode="&#xbd;" horiz-adv-x="1843" d="M78 557l26 172h183l73 465l-186 -59l29 180l237 78h146l-107 -664h154l-27 -172h-528zM324 -29l1173 1491h96l-1173 -1491h-96zM1051 0l14 96q7 49 23.5 91t43.5 76t51.5 59t65 51t65 40t70.5 38q98 52 142 86t51 73q6 34 -22 52t-78 18q-146 0 -308 -107l31 197 q149 84 297 84q59 0 112 -17t93.5 -49t59 -85t7.5 -119q-7 -39 -24 -72.5t-37 -57t-56.5 -50t-64 -43.5t-76.5 -44q-96 -54 -141.5 -85.5t-52.5 -59.5h389l-27 -172h-628z" />
<glyph unicode="&#xbe;" horiz-adv-x="2027" d="M88 610l29 181q105 -64 245 -64q179 0 195 96q7 46 -22 67t-91 21h-149l29 170h110q132 0 146 84q6 38 -28 59t-93 21q-144 0 -271 -69l29 182q136 63 268 63q83 0 150.5 -28t105 -86t25.5 -136q-18 -120 -152 -167q63 -21 100 -78t23 -148q-19 -119 -116.5 -174 t-243.5 -55q-158 0 -289 61zM446 -29l1174 1491h96l-1173 -1491h-97zM1149 147l27 166l503 523h201l-84 -521h123l-27 -168h-120l-25 -147h-188l22 147h-432zM1391 315h215l45 269z" />
<glyph unicode="&#xbf;" horiz-adv-x="1005" d="M-55 -102q9 56 37.5 110.5t67.5 100t84 89t90 84t82.5 78t64 77t32.5 75.5h269q-10 -63 -44 -125t-77 -109t-93 -96.5t-92 -88.5t-73 -83.5t-37 -83.5q-11 -75 41 -105t158 -30q180 0 376 109l-45 -283q-194 -96 -397 -96q-77 0 -146 13t-129.5 42.5t-102 72.5t-60 107 t-6.5 142zM420 862q11 75 61.5 112.5t120.5 37.5q80 0 126 -49t32 -138q-11 -74 -63 -110.5t-122 -36.5q-80 0 -124.5 47.5t-30.5 136.5z" />
<glyph unicode="&#xc0;" horiz-adv-x="1513" d="M-88 0l811 1434h334l356 -1434h-309l-64 268h-657l-145 -268h-326zM520 522h463l-115 506q-13 55 -16 123q-27 -76 -51 -123zM645 1868h320l137 -303h-283z" />
<glyph unicode="&#xc1;" horiz-adv-x="1513" d="M-88 0l811 1434h334l356 -1434h-309l-64 268h-657l-145 -268h-326zM520 522h463l-115 506q-13 55 -16 123q-27 -76 -51 -123zM735 1565l232 303h331l-268 -303h-295z" />
<glyph unicode="&#xc2;" horiz-adv-x="1513" d="M-88 0l811 1434h334l356 -1434h-309l-64 268h-657l-145 -268h-326zM520 522h463l-115 506q-13 55 -16 123q-27 -76 -51 -123zM530 1550l306 318h249l205 -318h-260l-88 136l-129 -136h-283z" />
<glyph unicode="&#xc3;" horiz-adv-x="1513" d="M-88 0l811 1434h334l356 -1434h-309l-64 268h-657l-145 -268h-326zM520 522h463l-115 506q-13 55 -16 123q-27 -76 -51 -123zM530 1554q-9 128 55.5 206.5t164.5 78.5q55 0 112.5 -21.5t103.5 -43t72 -21.5q34 0 49 25t11 49h205q9 -130 -55.5 -207.5t-166.5 -77.5 q-55 0 -112 21.5t-102.5 43t-71.5 21.5q-33 0 -48.5 -26t-11.5 -48h-205z" />
<glyph unicode="&#xc4;" horiz-adv-x="1513" d="M-88 0l811 1434h334l356 -1434h-309l-64 268h-657l-145 -268h-326zM520 522h463l-115 506q-13 55 -16 123q-27 -76 -51 -123zM565 1724q9 56 56 96t104 40q69 0 110.5 -50.5t30.5 -121.5q-9 -56 -56 -95t-105 -39q-68 0 -109 50t-31 120zM1004 1724q9 56 55.5 96 t103.5 40q69 0 111 -50.5t31 -121.5q-9 -56 -56.5 -95t-105.5 -39q-68 0 -108.5 50t-30.5 120z" />
<glyph unicode="&#xc5;" horiz-adv-x="1513" d="M-88 0l811 1434h334l356 -1434h-309l-64 268h-657l-145 -268h-326zM520 522h463l-115 506q-13 55 -16 123q-27 -76 -51 -123zM692 1772q18 102 98.5 162.5t180.5 60.5q104 0 175.5 -72.5t53.5 -187.5q-18 -106 -97.5 -168t-180.5 -62q-48 0 -93 18.5t-79 51.5t-50.5 84.5 t-7.5 112.5zM860 1755q-6 -41 15.5 -65.5t58.5 -24.5q38 0 66 21.5t34 60.5t-15.5 64.5t-57.5 25.5t-65.5 -22t-35.5 -60z" />
<glyph unicode="&#xc6;" horiz-adv-x="2088" d="M-121 0l1165 1434h1076l-43 -271h-654l-49 -305h592l-41 -268h-594l-51 -320h668l-43 -270h-973l43 276h-545l-221 -276h-330zM629 522h387l96 600z" />
<glyph unicode="&#xc7;" horiz-adv-x="1331" d="M96 745q23 142 87.5 262t153 202.5t196.5 140.5t218 85t216 27q230 0 401 -104l-43 -275q-58 51 -142.5 79t-178.5 28q-76 0 -151.5 -16.5t-150 -53t-134 -90.5t-103.5 -134.5t-59 -178.5q-15 -94 1.5 -173t56.5 -133t98.5 -92t125.5 -55.5t139 -17.5q218 0 394 116 l-47 -305q-163 -78 -365 -84l-31 -73q94 -9 137 -59.5t29 -135.5q-9 -65 -59 -108t-112 -59.5t-134 -16.5q-125 0 -223 39l28 176q66 -37 162 -37q127 0 135 57q6 38 -49 52.5t-135 1.5l64 174q-122 22 -225.5 80t-181.5 150t-111 229.5t-7 301.5z" />
<glyph unicode="&#xc8;" horiz-adv-x="1265" d="M59 0l228 1434h1009l-43 -271h-704l-47 -305h641l-41 -268h-643l-51 -320h716l-43 -270h-1022zM541 1868h319l137 -303h-282z" />
<glyph unicode="&#xc9;" horiz-adv-x="1265" d="M59 0l228 1434h1009l-43 -271h-704l-47 -305h641l-41 -268h-643l-51 -320h716l-43 -270h-1022zM631 1565l231 303h332l-268 -303h-295z" />
<glyph unicode="&#xca;" horiz-adv-x="1265" d="M59 0l228 1434h1009l-43 -271h-704l-47 -305h641l-41 -268h-643l-51 -320h716l-43 -270h-1022zM426 1550l305 318h250l205 -318h-260l-88 136l-129 -136h-283z" />
<glyph unicode="&#xcb;" horiz-adv-x="1265" d="M59 0l228 1434h1009l-43 -271h-704l-47 -305h641l-41 -268h-643l-51 -320h716l-43 -270h-1022zM461 1724q9 56 56 96t104 40q69 0 110.5 -50.5t30.5 -121.5q-9 -56 -56.5 -95t-105.5 -39q-68 0 -108.5 50t-30.5 120zM899 1724q9 56 56 96t104 40q69 0 110.5 -50.5 t30.5 -121.5q-9 -56 -56.5 -95t-105.5 -39q-68 0 -108.5 50t-30.5 120z" />
<glyph unicode="&#xcc;" horiz-adv-x="616" d="M59 0l228 1434h307l-227 -1434h-308zM188 1868h320l137 -303h-283z" />
<glyph unicode="&#xcd;" horiz-adv-x="616" d="M59 0l228 1434h307l-227 -1434h-308zM279 1565l231 303h332l-269 -303h-294z" />
<glyph unicode="&#xce;" horiz-adv-x="616" d="M59 0l228 1434h307l-227 -1434h-308zM74 1550l305 318h250l205 -318h-261l-88 136l-129 -136h-282z" />
<glyph unicode="&#xcf;" horiz-adv-x="616" d="M59 0l228 1434h307l-227 -1434h-308zM109 1724q9 56 55.5 96t103.5 40q69 0 111 -50.5t31 -121.5q-9 -56 -56.5 -95t-105.5 -39q-68 0 -108.5 50t-30.5 120zM547 1724q9 56 56 96t104 40q69 0 110.5 -50.5t30.5 -121.5q-9 -56 -56.5 -95t-105.5 -39q-68 0 -108.5 50 t-30.5 120z" />
<glyph unicode="&#xd0;" horiz-adv-x="1540" d="M27 602l36 227h150l96 605h529q180 0 316 -55t215 -153.5t108.5 -233t3.5 -294.5q-25 -156 -88.5 -281.5t-166 -220t-252.5 -145.5t-337 -51h-555l94 602h-149zM432 270h223q214 0 349 119t170 346q35 213 -57.5 320.5t-305.5 107.5h-238l-53 -334h322l-37 -227h-320z " />
<glyph unicode="&#xd1;" horiz-adv-x="1566" d="M59 0l228 1434h256l555 -936q7 107 22 200l117 736h307l-227 -1434h-256l-555 936q-2 -66 -19 -191l-120 -745h-308zM537 1554q-9 128 55 206.5t164 78.5q55 0 112.5 -21.5t103.5 -43t72 -21.5q34 0 49 25t11 49h205q9 -130 -55.5 -207.5t-166.5 -77.5q-55 0 -112 21.5 t-102.5 43t-71.5 21.5q-33 0 -48.5 -26t-11.5 -48h-204z" />
<glyph unicode="&#xd2;" horiz-adv-x="1667" d="M87 539.5q-11 95.5 7 195.5q23 144 92 273.5t176 231.5t261.5 162t334.5 60q172 0 309.5 -63.5t219.5 -169t115.5 -243.5t9.5 -288q-18 -115 -63.5 -221t-121 -198.5t-173.5 -161t-227.5 -107.5t-276.5 -39q-119 0 -222 29t-178.5 80.5t-133.5 123t-88 156t-41 180z M401 709q-14 -90 1 -170.5t58 -144t121.5 -101t184.5 -37.5q221 0 363 132t174 337q14 90 -1 170.5t-58 144t-121.5 101t-184.5 37.5q-219 0 -361 -132t-176 -337zM709 1868h319l137 -303h-282z" />
<glyph unicode="&#xd3;" horiz-adv-x="1667" d="M87 539.5q-11 95.5 7 195.5q23 144 92 273.5t176 231.5t261.5 162t334.5 60q172 0 309.5 -63.5t219.5 -169t115.5 -243.5t9.5 -288q-18 -115 -63.5 -221t-121 -198.5t-173.5 -161t-227.5 -107.5t-276.5 -39q-119 0 -222 29t-178.5 80.5t-133.5 123t-88 156t-41 180z M401 709q-14 -90 1 -170.5t58 -144t121.5 -101t184.5 -37.5q221 0 363 132t174 337q14 90 -1 170.5t-58 144t-121.5 101t-184.5 37.5q-219 0 -361 -132t-176 -337zM799 1565l231 303h332l-268 -303h-295z" />
<glyph unicode="&#xd4;" horiz-adv-x="1667" d="M87 539.5q-11 95.5 7 195.5q23 144 92 273.5t176 231.5t261.5 162t334.5 60q172 0 309.5 -63.5t219.5 -169t115.5 -243.5t9.5 -288q-18 -115 -63.5 -221t-121 -198.5t-173.5 -161t-227.5 -107.5t-276.5 -39q-119 0 -222 29t-178.5 80.5t-133.5 123t-88 156t-41 180z M401 709q-14 -90 1 -170.5t58 -144t121.5 -101t184.5 -37.5q221 0 363 132t174 337q14 90 -1 170.5t-58 144t-121.5 101t-184.5 37.5q-219 0 -361 -132t-176 -337zM594 1550l305 318h250l205 -318h-260l-88 136l-129 -136h-283z" />
<glyph unicode="&#xd5;" horiz-adv-x="1667" d="M87 539.5q-11 95.5 7 195.5q23 144 92 273.5t176 231.5t261.5 162t334.5 60q172 0 309.5 -63.5t219.5 -169t115.5 -243.5t9.5 -288q-18 -115 -63.5 -221t-121 -198.5t-173.5 -161t-227.5 -107.5t-276.5 -39q-119 0 -222 29t-178.5 80.5t-133.5 123t-88 156t-41 180z M401 709q-14 -90 1 -170.5t58 -144t121.5 -101t184.5 -37.5q221 0 363 132t174 337q14 90 -1 170.5t-58 144t-121.5 101t-184.5 37.5q-219 0 -361 -132t-176 -337zM594 1554q-9 128 55 206.5t164 78.5q55 0 113 -21.5t104 -43t72 -21.5q34 0 48.5 25t10.5 49h205 q9 -130 -55 -207.5t-166 -77.5q-55 0 -112.5 21.5t-103 43t-71.5 21.5q-33 0 -48 -26t-11 -48h-205z" />
<glyph unicode="&#xd6;" horiz-adv-x="1667" d="M87 539.5q-11 95.5 7 195.5q23 144 92 273.5t176 231.5t261.5 162t334.5 60q172 0 309.5 -63.5t219.5 -169t115.5 -243.5t9.5 -288q-18 -115 -63.5 -221t-121 -198.5t-173.5 -161t-227.5 -107.5t-276.5 -39q-119 0 -222 29t-178.5 80.5t-133.5 123t-88 156t-41 180z M401 709q-14 -90 1 -170.5t58 -144t121.5 -101t184.5 -37.5q221 0 363 132t174 337q14 90 -1 170.5t-58 144t-121.5 101t-184.5 37.5q-219 0 -361 -132t-176 -337zM629 1724q9 56 55.5 96t103.5 40q69 0 111 -50.5t31 -121.5q-9 -56 -56.5 -95t-105.5 -39q-68 0 -108.5 50 t-30.5 120zM1067 1724q9 56 56 96t104 40q69 0 110.5 -50.5t30.5 -121.5q-9 -56 -56.5 -95t-105.5 -39q-68 0 -108.5 50t-30.5 120z" />
<glyph unicode="&#xd7;" horiz-adv-x="1032" d="M80 461l297 258l-217 256l180 158l215 -256l299 256l137 -158l-297 -256l217 -258l-180 -158l-215 256l-299 -256z" />
<glyph unicode="&#xd8;" horiz-adv-x="1667" d="M33 -98l223 254q-105 108 -146.5 259t-15.5 320q23 144 92 273.5t176 231.5t261.5 162t334.5 60q207 0 365 -90l141 160h209l-225 -258q106 -107 149 -258.5t15 -317.5q-18 -115 -63.5 -221t-121 -198.5t-173.5 -161t-227.5 -107.5t-276.5 -39q-212 0 -367 90l-139 -159 h-211zM401 709q-14 -89 2 -171.5t60 -144.5l657 748q-73 37 -182 37q-219 0 -361 -132t-176 -337zM586 293q73 -37 180 -37q221 0 363 132t174 337q32 186 -62 315z" />
<glyph unicode="&#xd9;" horiz-adv-x="1538" d="M131 547l139 887h308l-142 -887q-25 -162 45 -230.5t219 -68.5q333 0 385 315l138 871h307l-144 -904q-20 -124 -68 -221t-113.5 -159.5t-151 -103.5t-175.5 -58t-192 -17q-97 0 -184 18.5t-165 62.5t-130 108.5t-74 164t-2 222.5zM631 1868h319l137 -303h-282z" />
<glyph unicode="&#xda;" horiz-adv-x="1538" d="M131 547l139 887h308l-142 -887q-25 -162 45 -230.5t219 -68.5q333 0 385 315l138 871h307l-144 -904q-20 -124 -68 -221t-113.5 -159.5t-151 -103.5t-175.5 -58t-192 -17q-97 0 -184 18.5t-165 62.5t-130 108.5t-74 164t-2 222.5zM721 1565l231 303h332l-268 -303h-295z " />
<glyph unicode="&#xdb;" horiz-adv-x="1538" d="M131 547l139 887h308l-142 -887q-25 -162 45 -230.5t219 -68.5q333 0 385 315l138 871h307l-144 -904q-20 -124 -68 -221t-113.5 -159.5t-151 -103.5t-175.5 -58t-192 -17q-97 0 -184 18.5t-165 62.5t-130 108.5t-74 164t-2 222.5zM516 1550l305 318h250l205 -318h-260 l-88 136l-129 -136h-283z" />
<glyph unicode="&#xdc;" horiz-adv-x="1538" d="M131 547l139 887h308l-142 -887q-25 -162 45 -230.5t219 -68.5q333 0 385 315l138 871h307l-144 -904q-20 -124 -68 -221t-113.5 -159.5t-151 -103.5t-175.5 -58t-192 -17q-97 0 -184 18.5t-165 62.5t-130 108.5t-74 164t-2 222.5zM551 1724q9 56 56 96t104 40 q69 0 110.5 -50.5t30.5 -121.5q-9 -56 -56.5 -95t-105.5 -39q-68 0 -108.5 50t-30.5 120zM989 1724q9 56 56 96t104 40q69 0 110.5 -50.5t30.5 -121.5q-9 -56 -56.5 -95t-105.5 -39q-68 0 -108.5 50t-30.5 120z" />
<glyph unicode="&#xdd;" horiz-adv-x="1437" d="M139 1434h332l266 -646l469 646h359l-707 -926l-82 -508h-305l82 508zM678 1565l231 303h332l-268 -303h-295z" />
<glyph unicode="&#xde;" horiz-adv-x="1359" d="M59 0l228 1434h307l-37 -236h229q97 0 181.5 -15t160.5 -51.5t126 -92.5t71.5 -143t3.5 -198q-17 -106 -59.5 -186t-102.5 -132t-143.5 -84.5t-175 -46t-203.5 -13.5h-242l-36 -236h-308zM446 506h242q140 0 227 49.5t107 173.5q9 57 -7.5 98t-54.5 62t-82 30t-100 9 h-264z" />
<glyph unicode="&#xdf;" horiz-adv-x="1204" d="M25 0l159 1012q71 447 510 450q108 1 190.5 -30t127 -81t63.5 -107.5t10 -113.5t-43.5 -112t-70.5 -93t-68 -80.5t-37 -78.5q-5 -28 14 -61t50 -63t66.5 -71t65 -83t44 -101.5t4.5 -124.5q-12 -73 -53 -130.5t-100.5 -91.5t-128.5 -51.5t-144 -17.5q-139 0 -254 54 l33 213q72 -41 168 -41q77 0 132 33.5t64 91.5q6 37 -16.5 80t-58.5 83.5t-72 83t-57.5 93.5t-14.5 100q7 38 28 75.5t47 68l52 61t47.5 67t28.5 74.5q12 63 -23 97t-102 34q-85 0 -141 -47.5t-68 -130.5l-168 -1061h-284z" />
<glyph unicode="&#xe0;" d="M53 510q16 98 60.5 187.5t113 160t165.5 112.5t208 42q125 0 209.5 -55.5t128.5 -137.5l27 164h249l-155 -983h-250l22 145q-138 -174 -370 -174q-113 0 -200.5 45t-137.5 120t-68.5 172t-1.5 202zM336 485q-18 -114 37 -194t168 -80q94 0 172 49.5t123 122.5l38 229 q-18 69 -76.5 114.5t-142.5 45.5q-125 0 -211.5 -81t-107.5 -206zM430 1432h320l137 -304h-283z" />
<glyph unicode="&#xe1;" d="M53 510q16 98 60.5 187.5t113 160t165.5 112.5t208 42q125 0 209.5 -55.5t128.5 -137.5l27 164h249l-155 -983h-250l22 145q-138 -174 -370 -174q-113 0 -200.5 45t-137.5 120t-68.5 172t-1.5 202zM336 485q-18 -114 37 -194t168 -80q94 0 172 49.5t123 122.5l38 229 q-18 69 -76.5 114.5t-142.5 45.5q-125 0 -211.5 -81t-107.5 -206zM520 1128l232 304h331l-268 -304h-295z" />
<glyph unicode="&#xe2;" d="M53 510q16 98 60.5 187.5t113 160t165.5 112.5t208 42q125 0 209.5 -55.5t128.5 -137.5l27 164h249l-155 -983h-250l22 145q-138 -174 -370 -174q-113 0 -200.5 45t-137.5 120t-68.5 172t-1.5 202zM315 1114l306 318h249l205 -318h-260l-88 135l-129 -135h-283zM336 485 q-18 -114 37 -194t168 -80q94 0 172 49.5t123 122.5l38 229q-18 69 -76.5 114.5t-142.5 45.5q-125 0 -211.5 -81t-107.5 -206z" />
<glyph unicode="&#xe3;" d="M53 510q16 98 60.5 187.5t113 160t165.5 112.5t208 42q125 0 209.5 -55.5t128.5 -137.5l27 164h249l-155 -983h-250l22 145q-138 -174 -370 -174q-113 0 -200.5 45t-137.5 120t-68.5 172t-1.5 202zM315 1118q-9 128 55.5 206.5t164.5 78.5q55 0 112.5 -21.5t103.5 -43 t72 -21.5q34 0 49 25t11 49h204q9 -130 -55 -207.5t-166 -77.5q-55 0 -112 21.5t-102.5 43t-71.5 21.5q-33 0 -48.5 -26t-11.5 -48h-205zM336 485q-18 -114 37 -194t168 -80q94 0 172 49.5t123 122.5l38 229q-18 69 -76.5 114.5t-142.5 45.5q-125 0 -211.5 -81t-107.5 -206z " />
<glyph unicode="&#xe4;" d="M53 510q16 98 60.5 187.5t113 160t165.5 112.5t208 42q125 0 209.5 -55.5t128.5 -137.5l27 164h249l-155 -983h-250l22 145q-138 -174 -370 -174q-113 0 -200.5 45t-137.5 120t-68.5 172t-1.5 202zM336 485q-18 -114 37 -194t168 -80q94 0 172 49.5t123 122.5l38 229 q-18 69 -76.5 114.5t-142.5 45.5q-125 0 -211.5 -81t-107.5 -206zM350 1288q9 56 56 95.5t104 39.5q69 0 110.5 -50.5t30.5 -121.5q-9 -55 -56 -94t-106 -39q-68 0 -108.5 50t-30.5 120zM788 1288q9 56 56 95.5t104 39.5q69 0 111 -50.5t31 -121.5q-9 -55 -56 -94t-106 -39 q-68 0 -109 50t-31 120z" />
<glyph unicode="&#xe5;" d="M53 510q16 98 60.5 187.5t113 160t165.5 112.5t208 42q125 0 209.5 -55.5t128.5 -137.5l27 164h249l-155 -983h-250l22 145q-138 -174 -370 -174q-113 0 -200.5 45t-137.5 120t-68.5 172t-1.5 202zM336 485q-18 -114 37 -194t168 -80q94 0 172 49.5t123 122.5l38 229 q-18 69 -76.5 114.5t-142.5 45.5q-125 0 -211.5 -81t-107.5 -206zM477 1335q18 102 98.5 163t180.5 61q104 0 175.5 -73t53.5 -188q-18 -106 -97.5 -167.5t-180.5 -61.5q-48 0 -93 18.5t-79 51.5t-50.5 84t-7.5 112zM645 1319q-6 -41 15.5 -65.5t58.5 -24.5q38 0 66 21.5 t34 60.5t-16 64.5t-58 25.5t-65 -22t-35 -60z" />
<glyph unicode="&#xe6;" horiz-adv-x="1955" d="M53 512q16 98 60.5 187t113 159.5t165.5 112t208 41.5q125 0 209.5 -54.5t128.5 -136.5l27 162h237l-24 -156q63 93 156.5 139t195.5 46q104 1 181.5 -35t119.5 -97t59.5 -140.5t7.5 -167t-43 -175.5h-706q7 -102 95.5 -151t219.5 -49q173 0 305 69l-34 -231 q-149 -64 -301 -64q-125 0 -220.5 49t-142.5 140l-24 -160h-238l22 147q-136 -176 -370 -176q-113 0 -200.5 45t-137.5 121t-68.5 173t-1.5 202zM334 485q-18 -114 37 -194t168 -80q94 0 172 49.5t123 122.5l38 229q-18 69 -76.5 114.5t-142.5 45.5q-125 0 -211.5 -81 t-107.5 -206zM1190 582h440q5 24 7.5 52t-9 56.5t-30 52t-55 38t-85.5 14.5q-105 0 -176 -58t-92 -155z" />
<glyph unicode="&#xe7;" horiz-adv-x="1009" d="M49 506q17 107 63.5 194t109 144.5t140.5 96.5t156 56t156 17q177 0 311 -84l-39 -236q-97 72 -241 72q-137 0 -242 -70t-127 -213q-11 -67 5.5 -119.5t53.5 -83.5t87.5 -47t111.5 -16q148 0 299 74l-39 -256q-125 -54 -258 -62l-33 -73q93 -9 135.5 -59.5t30.5 -135.5 q-9 -65 -59.5 -108t-113 -59.5t-134.5 -16.5q-126 0 -221 39l28 176q66 -37 162 -37q125 0 133 57q7 38 -47.5 52.5t-136.5 1.5l63 174q-88 17 -158.5 56.5t-121.5 102.5t-71.5 156t-2.5 207z" />
<glyph unicode="&#xe8;" horiz-adv-x="1112" d="M51 512q15 103 57 187.5t99 141.5t127 96.5t141.5 57t142.5 17.5q96 0 174 -25.5t129 -70t83.5 -104t42.5 -128t1 -141.5t-36 -146h-695q4 -53 31 -93t70.5 -62.5t94 -33.5t108.5 -11q187 0 321 67l-35 -231q-144 -62 -356 -62q-113 0 -211.5 36.5t-170.5 103t-104.5 171 t-13.5 230.5zM346 582h440q5 24 7.5 52t-9 56.5t-30 52t-55 38t-85.5 14.5q-99 0 -173.5 -59t-94.5 -154zM365 1417h319l137 -303h-282z" />
<glyph unicode="&#xe9;" horiz-adv-x="1112" d="M51 512q15 103 57 187.5t99 141.5t127 96.5t141.5 57t142.5 17.5q96 0 174 -25.5t129 -70t83.5 -104t42.5 -128t1 -141.5t-36 -146h-695q4 -53 31 -93t70.5 -62.5t94 -33.5t108.5 -11q187 0 321 67l-35 -231q-144 -62 -356 -62q-113 0 -211.5 36.5t-170.5 103t-104.5 171 t-13.5 230.5zM346 582h440q5 24 7.5 52t-9 56.5t-30 52t-55 38t-85.5 14.5q-99 0 -173.5 -59t-94.5 -154zM455 1114l231 303h332l-268 -303h-295z" />
<glyph unicode="&#xea;" horiz-adv-x="1112" d="M51 512q15 103 57 187.5t99 141.5t127 96.5t141.5 57t142.5 17.5q96 0 174 -25.5t129 -70t83.5 -104t42.5 -128t1 -141.5t-36 -146h-695q4 -53 31 -93t70.5 -62.5t94 -33.5t108.5 -11q187 0 321 67l-35 -231q-144 -62 -356 -62q-113 0 -211.5 36.5t-170.5 103t-104.5 171 t-13.5 230.5zM250 1100l305 317h250l205 -317h-260l-88 135l-130 -135h-282zM346 582h440q5 24 7.5 52t-9 56.5t-30 52t-55 38t-85.5 14.5q-99 0 -173.5 -59t-94.5 -154z" />
<glyph unicode="&#xeb;" horiz-adv-x="1112" d="M51 512q15 103 57 187.5t99 141.5t127 96.5t141.5 57t142.5 17.5q96 0 174 -25.5t129 -70t83.5 -104t42.5 -128t1 -141.5t-36 -146h-695q4 -53 31 -93t70.5 -62.5t94 -33.5t108.5 -11q187 0 321 67l-35 -231q-144 -62 -356 -62q-113 0 -211.5 36.5t-170.5 103t-104.5 171 t-13.5 230.5zM285 1274q9 56 55.5 95.5t103.5 39.5q69 0 111 -50.5t31 -121.5q-9 -55 -56 -94t-106 -39q-68 0 -108.5 50t-30.5 120zM346 582h440q5 24 7.5 52t-9 56.5t-30 52t-55 38t-85.5 14.5q-99 0 -173.5 -59t-94.5 -154zM723 1274q9 56 56 95.5t104 39.5 q69 0 110.5 -50.5t30.5 -121.5q-9 -55 -56 -94t-106 -39q-68 0 -108.5 50t-30.5 120z" />
<glyph unicode="&#xec;" horiz-adv-x="530" d="M29 0l155 983h285l-156 -983h-284zM104 1417h320l76 -303h-279z" />
<glyph unicode="&#xed;" horiz-adv-x="530" d="M29 0l155 983h285l-156 -983h-284zM168 1114l231 303h332l-268 -303h-295z" />
<glyph unicode="&#xee;" horiz-adv-x="530" d="M4 1100l264 317h250l164 -317h-260l-53 135l-97 -135h-268zM29 0l155 983h285l-156 -983h-284z" />
<glyph unicode="&#xef;" horiz-adv-x="530" d="M29 0l155 983h285l-156 -983h-284zM37 1272q9 53 52 90t97 37q65 0 103 -47t28 -113q-9 -53 -52.5 -89t-98.5 -36q-63 0 -101 46t-28 112zM420 1272q9 53 52 90t97 37q65 0 103 -47t28 -113q-9 -53 -52.5 -89t-98.5 -36q-63 0 -101 46t-28 112z" />
<glyph unicode="&#xf0;" horiz-adv-x="1191" d="M45 463q19 133 90.5 233t173.5 150.5t219 50.5q112 0 202.5 -46t135.5 -130q4 31 4 86q-12 226 -180 338l-194 -170l-115 131l137 113q-79 20 -205 20l21 215q197 0 368 -68l183 158l112 -131l-133 -117q149 -107 218 -298.5t28 -448.5q-26 -153 -83 -266t-137.5 -180.5 t-176 -99.5t-207.5 -32q-108 0 -199 34t-155 96t-93.5 156t-13.5 206zM330 440q-14 -106 38.5 -166.5t159.5 -60.5t176 59t91 164q14 107 -40.5 171.5t-160.5 64.5q-105 0 -177 -63.5t-87 -168.5z" />
<glyph unicode="&#xf1;" horiz-adv-x="1206" d="M25 0l155 983h250l-20 -127q78 73 172 114.5t188 41.5q179 0 268 -117.5t62 -290.5l-96 -604h-285l92 580q14 95 -25.5 140.5t-119.5 45.5q-72 0 -140 -39t-118 -92l-99 -635h-284zM311 1104q-9 128 55 206.5t164 78.5q55 0 113 -21.5t104 -43t72 -21.5q34 0 49 24.5 t11 48.5h204q9 -130 -55 -207t-166 -77q-55 0 -112.5 21.5t-103 43t-71.5 21.5q-33 0 -48 -26t-11 -48h-205z" />
<glyph unicode="&#xf2;" horiz-adv-x="1214" d="M51 516q19 121 78.5 217.5t144 156.5t184 91t206.5 31q104 0 196.5 -36.5t160.5 -103.5t99 -172.5t10 -232.5q-15 -97 -57.5 -179.5t-102.5 -140t-134.5 -98t-154 -59.5t-159.5 -19q-110 0 -203.5 36.5t-161 103.5t-97 172t-9.5 233zM334 487q-16 -113 38 -187.5 t173 -74.5q120 0 201 74.5t102 196.5q16 113 -37 187.5t-170 74.5q-121 0 -203.5 -74.5t-103.5 -196.5zM406 1405h319l137 -303h-282z" />
<glyph unicode="&#xf3;" horiz-adv-x="1214" d="M51 516q19 121 78.5 217.5t144 156.5t184 91t206.5 31q104 0 196.5 -36.5t160.5 -103.5t99 -172.5t10 -232.5q-15 -97 -57.5 -179.5t-102.5 -140t-134.5 -98t-154 -59.5t-159.5 -19q-110 0 -203.5 36.5t-161 103.5t-97 172t-9.5 233zM334 487q-16 -113 38 -187.5 t173 -74.5q120 0 201 74.5t102 196.5q16 113 -37 187.5t-170 74.5q-121 0 -203.5 -74.5t-103.5 -196.5zM496 1102l231 303h332l-268 -303h-295z" />
<glyph unicode="&#xf4;" horiz-adv-x="1214" d="M51 516q19 121 78.5 217.5t144 156.5t184 91t206.5 31q104 0 196.5 -36.5t160.5 -103.5t99 -172.5t10 -232.5q-15 -97 -57.5 -179.5t-102.5 -140t-134.5 -98t-154 -59.5t-159.5 -19q-110 0 -203.5 36.5t-161 103.5t-97 172t-9.5 233zM291 1087l305 318h250l205 -318h-260 l-89 136l-129 -136h-282zM334 487q-16 -113 38 -187.5t173 -74.5q120 0 201 74.5t102 196.5q16 113 -37 187.5t-170 74.5q-121 0 -203.5 -74.5t-103.5 -196.5z" />
<glyph unicode="&#xf5;" horiz-adv-x="1214" d="M51 516q19 121 78.5 217.5t144 156.5t184 91t206.5 31q104 0 196.5 -36.5t160.5 -103.5t99 -172.5t10 -232.5q-15 -97 -57.5 -179.5t-102.5 -140t-134.5 -98t-154 -59.5t-159.5 -19q-110 0 -203.5 36.5t-161 103.5t-97 172t-9.5 233zM291 1092q-9 128 55 206t164 78 q55 0 113 -21.5t104 -43t72 -21.5q34 0 48.5 25t10.5 49h205q9 -130 -55 -207.5t-166 -77.5q-55 0 -112.5 21.5t-103 43t-71.5 21.5q-33 0 -48 -25.5t-11 -47.5h-205zM334 487q-16 -113 38 -187.5t173 -74.5q120 0 201 74.5t102 196.5q16 113 -37 187.5t-170 74.5 q-121 0 -203.5 -74.5t-103.5 -196.5z" />
<glyph unicode="&#xf6;" horiz-adv-x="1214" d="M51 516q19 121 78.5 217.5t144 156.5t184 91t206.5 31q104 0 196.5 -36.5t160.5 -103.5t99 -172.5t10 -232.5q-15 -97 -57.5 -179.5t-102.5 -140t-134.5 -98t-154 -59.5t-159.5 -19q-110 0 -203.5 36.5t-161 103.5t-97 172t-9.5 233zM326 1262q9 56 55.5 95.5t103.5 39.5 q69 0 111 -50.5t31 -121.5q-9 -55 -56 -94t-106 -39q-68 0 -108.5 50t-30.5 120zM334 487q-16 -113 38 -187.5t173 -74.5q120 0 201 74.5t102 196.5q16 113 -37 187.5t-170 74.5q-121 0 -203.5 -74.5t-103.5 -196.5zM764 1262q9 56 56 95.5t104 39.5q69 0 110.5 -50.5 t30.5 -121.5q-9 -55 -56 -94t-106 -39q-68 0 -108.5 50t-30.5 120z" />
<glyph unicode="&#xf7;" horiz-adv-x="1138" d="M78 596l39 242h983l-39 -242h-983zM346 279q11 73 62 110t120 37q81 0 126.5 -48t31.5 -136q-11 -75 -62 -113.5t-120 -38.5q-79 0 -125.5 49.5t-32.5 139.5zM492 1194q11 73 62 110t120 37q81 0 126 -48t31 -136q-13 -76 -63.5 -113.5t-120.5 -37.5q-79 0 -124 48.5 t-31 139.5z" />
<glyph unicode="&#xf8;" horiz-adv-x="1214" d="M33 -127l164 205q-89 71 -128.5 182t-17.5 256q19 121 78.5 217.5t144 156.5t184 91t206.5 31q127 0 235 -54l123 154h127l-164 -207q89 -71 129 -182.5t16 -255.5q-15 -97 -57.5 -179.5t-102.5 -140t-134.5 -98t-154 -59.5t-159.5 -19q-136 0 -241 54l-119 -152h-129z M336 487q-19 -114 37 -188l356 444q-47 15 -88 15q-121 0 -202.5 -74.5t-102.5 -196.5zM453 242q46 -17 92 -17q120 0 201 74.5t102 196.5q16 117 -39 190z" />
<glyph unicode="&#xf9;" horiz-adv-x="1204" d="M76 385l94 598h283l-91 -580q-16 -95 24.5 -140.5t121.5 -45.5q77 0 144 37.5t112 93.5l100 635h283l-156 -983h-250l21 127q-64 -74 -151.5 -115t-188.5 -41q-186 0 -280 119t-66 295zM406 1417h319l137 -303h-282z" />
<glyph unicode="&#xfa;" horiz-adv-x="1204" d="M76 385l94 598h283l-91 -580q-16 -95 24.5 -140.5t121.5 -45.5q77 0 144 37.5t112 93.5l100 635h283l-156 -983h-250l21 127q-64 -74 -151.5 -115t-188.5 -41q-186 0 -280 119t-66 295zM496 1114l231 303h332l-268 -303h-295z" />
<glyph unicode="&#xfb;" horiz-adv-x="1204" d="M76 385l94 598h283l-91 -580q-16 -95 24.5 -140.5t121.5 -45.5q77 0 144 37.5t112 93.5l100 635h283l-156 -983h-250l21 127q-64 -74 -151.5 -115t-188.5 -41q-186 0 -280 119t-66 295zM291 1100l305 317h250l205 -317h-260l-89 135l-129 -135h-282z" />
<glyph unicode="&#xfc;" horiz-adv-x="1204" d="M76 385l94 598h283l-91 -580q-16 -95 24.5 -140.5t121.5 -45.5q77 0 144 37.5t112 93.5l100 635h283l-156 -983h-250l21 127q-64 -74 -151.5 -115t-188.5 -41q-186 0 -280 119t-66 295zM326 1274q9 56 55.5 95.5t103.5 39.5q69 0 111 -50.5t31 -121.5q-9 -55 -56 -94 t-106 -39q-68 0 -108.5 50t-30.5 120zM764 1274q9 56 56 95.5t104 39.5q69 0 110.5 -50.5t30.5 -121.5q-9 -55 -56 -94t-106 -39q-68 0 -108.5 50t-30.5 120z" />
<glyph unicode="&#xfd;" horiz-adv-x="1153" d="M-53 -446l39 233q50 -20 104 -20q83 0 142.5 55t125.5 176l17 18l-307 967h297l180 -672l321 672h330l-608 -1108q-106 -194 -221 -273t-250 -79q-85 0 -170 31zM451 1114l231 303h332l-269 -303h-294z" />
<glyph unicode="&#xfe;" d="M-47 -451l299 1885h285l-91 -555q136 133 334 133q109 0 195.5 -45t137.5 -120t71 -172t4 -202q-16 -98 -60.5 -187.5t-113 -160t-165.5 -112.5t-208 -42q-216 0 -313 154l-90 -576h-285zM365 365q20 -67 77.5 -110.5t141.5 -43.5q125 0 211.5 81.5t107.5 207.5 q18 112 -37 192t-168 80q-93 0 -171 -50.5t-126 -123.5z" />
<glyph unicode="&#xff;" horiz-adv-x="1153" d="M-53 -446l39 233q50 -20 104 -20q83 0 142.5 55t125.5 176l17 18l-307 967h297l180 -672l321 672h330l-608 -1108q-106 -194 -221 -273t-250 -79q-85 0 -170 31zM281 1274q9 56 55.5 95.5t103.5 39.5q69 0 111 -50.5t31 -121.5q-9 -55 -56 -94t-106 -39q-68 0 -108.5 50 t-30.5 120zM719 1274q9 56 56 95.5t104 39.5q69 0 110.5 -50.5t30.5 -121.5q-9 -55 -56 -94t-106 -39q-68 0 -108.5 50t-30.5 120z" />
<glyph unicode="&#x152;" horiz-adv-x="2136" d="M96 754q23 141 91.5 267.5t174.5 225.5t258 157t328 58q141 0 246 -30l973 2l-43 -271h-656l-49 -305h596l-43 -268h-594l-51 -320h668l-43 -270l-961 -2q-108 -27 -229 -27q-181 0 -322 64t-223 172.5t-114.5 249.5t-6.5 297zM406 725q-35 -209 73.5 -343t313.5 -134 q119 0 231 45l135 856q-75 37 -215 37q-204 0 -354 -128t-184 -333z" />
<glyph unicode="&#x153;" horiz-adv-x="1914" d="M51 518q19 121 78 217.5t142 156t180 91t198 31.5q126 0 222.5 -49t148.5 -142q74 92 180 140.5t227 48.5q115 0 202.5 -36t136.5 -97t72 -140.5t16 -166.5t-39 -175h-695q5 -70 51 -116.5t110 -65t142 -18.5q185 0 322 67l-37 -231q-144 -62 -356 -62q-136 0 -243 51 t-165 146q-75 -96 -188 -145.5t-248 -49.5q-104 0 -195 36t-157 103t-95.5 172.5t-9.5 233.5zM334 487q-16 -113 36.5 -187.5t166.5 -74.5q125 0 207.5 74t103.5 197q16 113 -36.5 187.5t-164.5 74.5q-125 0 -208.5 -74.5t-104.5 -196.5zM1147 582h440q5 24 7.5 52t-9 56.5 t-30 52t-55 38t-85.5 14.5q-99 0 -173.5 -59t-94.5 -154z" />
<glyph unicode="&#x178;" horiz-adv-x="1437" d="M139 1434h332l266 -646l469 646h359l-707 -926l-82 -508h-305l82 508zM508 1724q9 56 56 96t104 40q69 0 110.5 -50.5t30.5 -121.5q-9 -56 -56.5 -95t-105.5 -39q-68 0 -108.5 50t-30.5 120zM946 1724q9 56 56 96t104 40q69 0 110.5 -50.5t30.5 -121.5q-9 -56 -56.5 -95 t-105.5 -39q-68 0 -108.5 50t-30.5 120z" />
<glyph unicode="&#x2c6;" horiz-adv-x="753" d="M197 1550l305 318h250l204 -318h-260l-88 136l-129 -136h-282z" />
<glyph unicode="&#x2dc;" horiz-adv-x="729" d="M201 1554q-9 128 55 206.5t164 78.5q55 0 113 -21.5t104 -43t72 -21.5q34 0 48.5 25t10.5 49h205q9 -130 -55 -207.5t-166 -77.5q-55 0 -112.5 21.5t-103 43t-71.5 21.5q-33 0 -48 -26t-11 -48h-205z" />
<glyph unicode="&#x2000;" horiz-adv-x="997" />
<glyph unicode="&#x2001;" horiz-adv-x="1995" />
<glyph unicode="&#x2002;" horiz-adv-x="997" />
<glyph unicode="&#x2003;" horiz-adv-x="1995" />
<glyph unicode="&#x2004;" horiz-adv-x="665" />
<glyph unicode="&#x2005;" horiz-adv-x="498" />
<glyph unicode="&#x2006;" horiz-adv-x="332" />
<glyph unicode="&#x2007;" horiz-adv-x="332" />
<glyph unicode="&#x2008;" horiz-adv-x="249" />
<glyph unicode="&#x2009;" horiz-adv-x="399" />
<glyph unicode="&#x200a;" horiz-adv-x="110" />
<glyph unicode="&#x2010;" horiz-adv-x="989" d="M80 379l39 239h762l-39 -239h-762z" />
<glyph unicode="&#x2011;" horiz-adv-x="989" d="M80 379l39 239h762l-39 -239h-762z" />
<glyph unicode="&#x2012;" horiz-adv-x="989" d="M80 379l39 239h762l-39 -239h-762z" />
<glyph unicode="&#x2013;" horiz-adv-x="1185" d="M80 379l39 239h958l-39 -239h-958z" />
<glyph unicode="&#x2014;" horiz-adv-x="1587" d="M80 379l39 239h1360l-39 -239h-1360z" />
<glyph unicode="&#x2018;" horiz-adv-x="548" d="M104 883l287 551h234l-217 -551h-304z" />
<glyph unicode="&#x2019;" horiz-adv-x="540" d="M119 883l217 551h303l-287 -551h-233z" />
<glyph unicode="&#x201a;" horiz-adv-x="542" d="M-125 -297l217 551h305l-288 -551h-234z" />
<glyph unicode="&#x201c;" horiz-adv-x="942" d="M104 883l287 551h234l-217 -551h-304zM498 883l286 551h234l-217 -551h-303z" />
<glyph unicode="&#x201d;" horiz-adv-x="933" d="M119 883l217 551h303l-287 -551h-233zM512 883l217 551h303l-287 -551h-233z" />
<glyph unicode="&#x201e;" horiz-adv-x="935" d="M-125 -297l217 551h305l-288 -551h-234zM268 -297l217 551h306l-289 -551h-234z" />
<glyph unicode="&#x2022;" horiz-adv-x="784" d="M156 735q18 115 96.5 172.5t183.5 57.5q116 0 183.5 -69t48.5 -198q-19 -115 -97.5 -173t-185.5 -58q-55 0 -100.5 16.5t-78.5 48.5t-47 84.5t-3 118.5z" />
<glyph unicode="&#x2026;" horiz-adv-x="1513" d="M16 160q11 74 63 111.5t122 37.5q79 0 124.5 -48t32.5 -138q-13 -75 -63.5 -112.5t-120.5 -37.5q-79 0 -125.5 49t-32.5 138zM518 160q11 74 62.5 111.5t121.5 37.5q80 0 125.5 -48t32.5 -138q-13 -75 -63.5 -112.5t-120.5 -37.5q-79 0 -125.5 49t-32.5 138zM1020 160 q11 74 62.5 111.5t119.5 37.5q81 0 127 -48t33 -138q-13 -75 -63.5 -112.5t-120.5 -37.5q-79 0 -125.5 49t-32.5 138z" />
<glyph unicode="&#x202f;" horiz-adv-x="399" />
<glyph unicode="&#x2039;" horiz-adv-x="677" d="M41 465l8 59l316 365h294l-346 -397l213 -398h-280z" />
<glyph unicode="&#x203a;" horiz-adv-x="677" d="M-14 94l346 398l-213 397h280l207 -371l-10 -59l-315 -365h-295z" />
<glyph unicode="&#x205f;" horiz-adv-x="498" />
<glyph unicode="&#x20ac;" horiz-adv-x="1488" d="M51 465l29 182h151q2 51 13 98h-150l29 183h174q51 124 138 220.5t193 155t222.5 88t236.5 29.5q215 0 404 -100l-43 -277q-138 105 -344 105q-147 0 -270.5 -54.5t-198.5 -166.5h532l-28 -183h-582q-11 -42 -14 -98h581l-28 -182h-525q45 -105 146.5 -162t230.5 -57 q106 0 212.5 31t185.5 83l-48 -303q-185 -86 -407 -86q-116 0 -223.5 32t-195.5 92.5t-149.5 155.5t-82.5 214h-189z" />
<glyph unicode="&#x2122;" horiz-adv-x="1392" d="M184 1290l23 144h473l-23 -144h-157l-60 -385h-161l63 385h-158zM668 905l84 529h153l121 -250l188 250h177l-82 -529h-160l43 275l-127 -162h-115l-80 160l-43 -273h-159z" />
<glyph unicode="&#x25fc;" horiz-adv-x="983" d="M0 0v983h983v-983h-983z" />
<glyph unicode="&#xfb01;" horiz-adv-x="1249" d="M70 743l39 240h167l13 74q22 137 97 230t181 134t240 41q181 0 340 -67l-39 -234q-124 62 -270 62q-108 0 -180.5 -46.5t-86.5 -138.5l-10 -55h627l-156 -983h-284l118 743h-344l-116 -743h-285l119 743h-170z" />
<glyph unicode="&#xfb02;" horiz-adv-x="1296" d="M70 743l39 240h167l15 88q16 97 60.5 173.5t109 123t141 70.5t160.5 24q163 0 305 -61l240 41l-228 -1442h-284l188 1188q-80 35 -180 35q-198 0 -232 -176l-10 -64h264l-37 -240h-266l-116 -743h-285l119 743h-170z" />
<glyph unicode="&#xfb03;" horiz-adv-x="1943" d="M70 743l39 240h167l11 68q16 102 62.5 179t114.5 122.5t148.5 67.5t173.5 22q169 0 312 -80q142 133 385 133q174 0 336 -65l-37 -236q-126 63 -271 63q-108 0 -179.5 -47.5t-88.5 -144.5l-14 -82h653l-156 -983h-282l117 743h-369l-119 -743h-282l116 743h-385 l-116 -743h-285l119 743h-170zM561 983h385l17 100q5 41 18 84q-75 41 -182 41q-94 0 -155.5 -45.5t-74.5 -130.5z" />
<glyph unicode="&#xfb04;" horiz-adv-x="1966" d="M70 743l39 240h167l11 68q16 102 63 179t114 122.5t144.5 67.5t163.5 22q176 0 330 -82q126 123 330 123q163 0 307 -62l241 41l-231 -1462h-285l191 1208q-80 35 -174 35q-97 0 -160 -44.5t-80 -137.5l-12 -78h264l-37 -240h-264l-119 -743h-282l116 743h-385l-116 -743 h-285l119 743h-170zM561 983h385l17 100q6 45 18 86q-74 39 -182 39q-92 0 -154.5 -46t-75.5 -130z" />
</font>
</defs>
</svg>
