<?xml version="1.0" standalone="no"?>
<!DOCTYPE svg PUBLIC "-//W3C//DTD SVG 1.1//EN" "http://www.w3.org/Graphics/SVG/1.1/DTD/svg11.dtd" >
<svg xmlns="http://www.w3.org/2000/svg">
<metadata></metadata>
<defs>
<font id="mullerblack_italic" horiz-adv-x="1216" >
<font-face units-per-em="2048" ascent="1597" descent="-451" />
<missing-glyph horiz-adv-x="376" />
<glyph horiz-adv-x="0" />
<glyph horiz-adv-x="682" />
<glyph unicode=" "  horiz-adv-x="376" />
<glyph unicode="&#x09;" horiz-adv-x="376" />
<glyph unicode="&#xa0;" horiz-adv-x="376" />
<glyph unicode="!" horiz-adv-x="634" d="M20 227q16 101 85.5 152t164.5 51q110 0 174 -68.5t45 -191.5q-16 -102 -85.5 -152.5t-165.5 -50.5q-110 0 -174.5 68t-43.5 192zM129 563l90 871h461l-188 -871h-363z" />
<glyph unicode="&#x22;" horiz-adv-x="995" d="M127 887l88 547h375l-158 -547h-305zM614 887l88 547h375l-157 -547h-306z" />
<glyph unicode="#" horiz-adv-x="1497" d="M6 258l47 291h193l114 297h-157l47 291h227l101 258h383l-101 -258h162l100 258h383l-102 -258h121l-47 -291h-191l-115 -297h158l-47 -291h-227l-101 -258h-383l101 258h-160l-102 -258h-383l102 258h-123zM629 549h162l114 297h-162z" />
<glyph unicode="$" horiz-adv-x="1302" d="M2 109l66 409q205 -162 475 -162q187 0 196 68q4 24 -16.5 44.5t-58 36.5t-86.5 32.5t-103 37.5t-107.5 46t-99.5 63t-79 84.5t-46.5 114t-1.5 147.5q17 108 86 191t166.5 130t216.5 64l37 221h324l-35 -227q193 -27 338 -109l-62 -395q-94 68 -208 101.5t-226 33.5 q-154 0 -162 -59q-4 -28 31 -51t93 -43t128 -44t138 -62t121 -88t79 -130t11 -180q-56 -361 -508 -410l-35 -217h-324l35 224q-212 29 -383 129z" />
<glyph unicode="%" horiz-adv-x="1978" d="M129 1106q28 177 154 268.5t299 91.5q84 0 156.5 -26.5t125.5 -77t76.5 -131.5t7.5 -182q-14 -90 -56.5 -160.5t-103.5 -113.5t-134.5 -65t-155.5 -22q-86 0 -159 26.5t-126.5 77t-76.5 132t-7 182.5zM324 -123l1103 1679h267l-1104 -1679h-266zM436 1067q-4 -40 14 -68 t68 -28q58 0 88 34t33 82q4 40 -14 68.5t-68 28.5q-56 0 -86 -34.5t-35 -82.5zM1067.5 234q-12.5 67 1.5 151q28 177 153.5 270t297.5 93q87 0 160 -27t125.5 -78t75.5 -132.5t7 -182.5q-20 -120 -88 -203t-160.5 -120.5t-203.5 -37.5q-69 0 -130 16.5t-111 50t-82.5 83.5 t-45 117zM1374 348q-4 -40 14 -69t68 -29q57 0 86.5 34.5t34.5 82.5q9 98 -82 98q-56 0 -87 -35.5t-34 -81.5z" />
<glyph unicode="&#x26;" horiz-adv-x="1521" d="M25 383q11 68 43.5 127.5t83 106t102 81.5t117.5 68q-140 177 -113 326q26 169 181 271.5t366 102.5q150 0 261.5 -54t161.5 -146t29 -203q-12 -64 -48.5 -122.5t-92 -106.5t-111 -85t-124.5 -73l145 -176q83 107 94 227h373q-13 -123 -81.5 -246t-178.5 -227l213 -254 h-412l-63 74q-225 -107 -463 -107q-249 0 -381.5 113t-101.5 303zM438 389q-5 -48 32 -79t118 -31q82 0 176 32l-193 224q-123 -65 -133 -146zM631 1057q-8 -60 59 -152q89 38 140 76t61 90q7 40 -22 73.5t-85 33.5q-65 0 -106 -34.5t-47 -86.5z" />
<glyph unicode="'" horiz-adv-x="507" d="M127 887l88 547h375l-158 -547h-305z" />
<glyph unicode="(" horiz-adv-x="710" d="M76 745q38 237 162.5 483.5t300.5 434.5h319q-142 -244 -236.5 -470t-134.5 -474q-27 -165 -24 -339t25.5 -327t60.5 -284h-299q-118 211 -166 466.5t-8 509.5z" />
<glyph unicode=")" horiz-adv-x="714" d="M-109 -229q302 514 371 954q36 263 18 501t-79 439h301q117 -209 165 -469.5t9 -515.5q-38 -236 -162 -477.5t-301 -431.5h-322z" />
<glyph unicode="*" horiz-adv-x="1093" d="M109 956l190 357l193 -125l2 246h383l-82 -246l221 125l82 -357l-244 -45l147 -153l-333 -211l-78 246l-156 -246l-287 211l193 153z" />
<glyph unicode="+" horiz-adv-x="1132" d="M51 547l55 344h336l54 334h344l-54 -334h336l-55 -344h-336l-53 -336h-344l53 336h-336z" />
<glyph unicode="," horiz-adv-x="595" d="M-160 -293l244 629h420l-336 -629h-328z" />
<glyph unicode="-" horiz-adv-x="978" d="M47 326l53 333h799l-53 -333h-799z" />
<glyph unicode="." horiz-adv-x="577" d="M-6 227q16 101 85.5 152t164.5 51q110 0 174 -68.5t45 -191.5q-16 -102 -86 -152.5t-166 -50.5q-110 0 -174 68t-43 192z" />
<glyph unicode="/" horiz-adv-x="1036" d="M-74 -125l914 1684h311l-913 -1684h-312z" />
<glyph unicode="0" horiz-adv-x="1441" d="M72.5 490.5q-5.5 111.5 11.5 234.5q18 115 56 217t101 191.5t146.5 153.5t197.5 101t249 37q112 0 204.5 -28t157 -78t112 -120t69 -154t27 -179.5t-12.5 -197.5q-23 -146 -78.5 -269t-145 -221.5t-224.5 -154.5t-302 -56q-134 0 -240.5 40t-173 110t-108 166t-47 207.5z M545 696q-28 -166 4.5 -243.5t126.5 -77.5q99 0 160 75.5t90 245.5q28 166 -4 244t-125 78q-99 0 -160.5 -76t-91.5 -246z" />
<glyph unicode="1" horiz-adv-x="1028" d="M-10 0l61 387h240l88 559l-238 -88l64 402l356 133h344l-160 -1006h216l-62 -387h-909z" />
<glyph unicode="2" horiz-adv-x="1273" d="M-23 2l33 205q14 86 49 160.5t75 125t105 102t112 81t124 72.5q31 17 74 39.5t67.5 35.5t54 30.5t45.5 31.5t28.5 31.5t15.5 35.5q4 34 -23 53t-80 19q-105 0 -238 -48.5t-261 -135.5l67 442q254 143 525 143q109 0 203 -28t167.5 -83.5t107.5 -150t15 -217.5 q-11 -68 -35.5 -121.5t-66 -97.5t-85 -76t-110.5 -73q-27 -16 -78.5 -45.5t-77.5 -45.5t-59 -37t-50 -36t-22 -27h498l-61 -385h-1119z" />
<glyph unicode="3" horiz-adv-x="1236" d="M-4 66l61 391q196 -103 428 -103q94 2 156 27.5t70 77.5q5 35 -18.5 54t-78.5 19h-266l58 351h190q124 0 137 67q6 40 -29 62t-106 22q-105 0 -221.5 -34t-220.5 -95l63 406q208 114 475 114q84 0 160.5 -15.5t143 -49.5t112 -83t66 -121t6.5 -159q-14 -95 -80 -168 t-184 -110q113 -29 178.5 -122t42.5 -241q-14 -86 -55.5 -153.5t-101 -111t-138.5 -72t-162.5 -40.5t-177.5 -12q-281 0 -508 99z" />
<glyph unicode="4" horiz-adv-x="1388" d="M-27 186l60 379l784 828h467l-133 -840h172l-57 -367h-174l-29 -186h-428l31 186h-693zM481 553h242l49 305z" />
<glyph unicode="5" horiz-adv-x="1232" d="M-12 66l57 366q70 -41 163 -63.5t187 -22.5q268 0 287 129q9 58 -49 90.5t-172 32.5q-185 0 -342 -45l174 840h944l-61 -385l-547 2l-29 -140q64 9 115 9q74 0 140.5 -15.5t127 -50.5t101 -87.5t57.5 -132t2 -177.5q-16 -101 -63.5 -179.5t-113 -128.5t-152 -82.5 t-175.5 -45.5t-188 -13q-125 0 -248.5 27t-214.5 72z" />
<glyph unicode="6" horiz-adv-x="1370" d="M86 729q23 146 80.5 264.5t136 197.5t177.5 133t202.5 77.5t212.5 23.5q232 0 420 -98l-55 -348q-139 84 -299 84q-286 0 -388 -219q142 65 301 65q89 0 170.5 -30.5t145 -87.5t93 -150t11.5 -207q-19 -120 -76.5 -211.5t-143.5 -146.5t-188 -82t-218 -27q-227 0 -371 93 t-196 263t-15 406zM514 516q1 -116 42 -159.5t110 -43.5q72 0 124.5 34.5t63.5 105.5q9 60 -28.5 93.5t-102.5 33.5q-97 0 -209 -64z" />
<glyph unicode="7" horiz-adv-x="1212" d="M51 0l639 1008h-581l61 385h1137l-47 -303l-691 -1090h-518z" />
<glyph unicode="8" horiz-adv-x="1363" d="M29 408q16 101 86.5 185.5t165.5 135.5q-132 122 -101 309q12 72 54.5 138.5t115 123.5t188.5 91t259 34q135 0 243 -38t171 -100t91 -137.5t15 -152.5q-16 -92 -67.5 -152.5t-147.5 -119.5q36 -23 63.5 -46t53 -55t37 -68t18 -85t-5.5 -106q-10 -64 -40 -121t-85 -108.5 t-130 -88.5t-181.5 -58.5t-233.5 -21.5q-128 0 -230.5 24.5t-169.5 66.5t-109.5 98.5t-56.5 120t-3 131.5zM483 440q-5 -52 36 -91.5t120 -39.5q71 0 116.5 27.5t53.5 64.5q6 25 0 44.5t-26 34t-40 24t-55 22.5q-39 16 -121 52q-75 -63 -84 -138zM604 993q-6 -39 21 -65.5 t82 -48.5q16 -7 51.5 -19.5t48.5 -17.5q75 62 84 133q3 43 -32 75.5t-103 32.5q-62 0 -103.5 -24.5t-48.5 -65.5z" />
<glyph unicode="9" horiz-adv-x="1368" d="M82 63l57 351q136 -84 307 -84q147 0 240.5 48.5t144.5 172.5q-138 -66 -294 -66q-96 0 -180 30t-148 86.5t-92.5 149t-10.5 207.5q19 120 78 211.5t145 146.5t188.5 82t217.5 27q335 0 486.5 -203t93.5 -558q-23 -147 -77.5 -265t-129.5 -197.5t-171 -133t-200 -77.5 t-219 -24q-249 0 -436 96zM551 944q-10 -62 29.5 -97.5t107.5 -35.5q105 0 203 59q-5 207 -164 207q-70 0 -118.5 -34.5t-57.5 -98.5z" />
<glyph unicode=":" horiz-adv-x="602" d="M10 219q16 97 83.5 146t158.5 49q106 0 168 -66t43 -186q-16 -97 -83.5 -146t-160.5 -49q-105 0 -166.5 66t-42.5 186zM102 788q14 97 81 146t159 49q51 0 93.5 -16t73 -46.5t43 -79t1.5 -108.5q-14 -99 -81.5 -147.5t-160.5 -48.5q-105 0 -166.5 65.5t-42.5 185.5z" />
<glyph unicode=";" horiz-adv-x="628" d="M-150 -293l244 629h420l-336 -629h-328zM119 801q16 102 86 152.5t166 50.5q109 0 173.5 -68t45.5 -191q-16 -103 -86 -153.5t-166 -50.5q-109 0 -173.5 68.5t-45.5 191.5z" />
<glyph unicode="&#x3c;" horiz-adv-x="1048" d="M49 502l68 430l915 274l-59 -381l-537 -118l500 -109l-59 -373z" />
<glyph unicode="=" horiz-adv-x="1282" d="M82 319l53 332h1028l-51 -332h-1030zM156 782l53 332h1028l-51 -332h-1030z" />
<glyph unicode="&#x3e;" horiz-adv-x="1046" d="M53 223l62 383l538 121l-501 113l59 368l825 -276l-67 -430z" />
<glyph unicode="?" horiz-adv-x="1040" d="M129 965l66 415q193 86 403 86q78 0 148 -11.5t136 -41t111 -73.5t65.5 -115t6.5 -160q-10 -61 -44 -121t-78 -105t-95 -91t-94 -81t-74 -72.5t-37 -68.5h-397q11 73 48 138.5t82.5 111t90 84t77.5 73t38 62.5q7 37 -19.5 53.5t-81.5 16.5q-78 0 -175.5 -30t-176.5 -70z M162 227q16 101 85.5 152t164.5 51q110 0 174 -68.5t45 -191.5q-16 -102 -86 -152.5t-166 -50.5q-110 0 -174 68t-43 192z" />
<glyph unicode="@" horiz-adv-x="2136" d="M43 520q23 147 85.5 285t165.5 258t235.5 210t305 141.5t363.5 51.5q190 0 346.5 -56t259 -149t168 -212.5t86.5 -247.5t2 -254q-42 -263 -191 -398t-370 -135q-134 0 -220 52.5t-118 132.5q-100 -131 -274 -131q-78 0 -141 27.5t-100.5 72.5t-63 103.5t-28 121 t4.5 123.5q11 69 41 135t78.5 125t123 95t163.5 36q164 0 252 -135l18 111h311l-76 -484q-17 -104 66 -104q41 0 71.5 21t50 62t31.5 85.5t23 107.5q9 45 5.5 93.5t-11.5 96.5t-30 95t-51 89t-73 77.5t-96.5 61.5t-121.5 40.5t-148 14.5q-158 0 -297 -51t-238.5 -139 t-165 -204.5t-86.5 -248.5q-21 -133 2.5 -242.5t82 -183.5t147 -125t193 -74t223.5 -23q233 0 460 68l-45 -330q-187 -67 -440 -67q-172 0 -329 39t-290 121.5t-224 199t-129 282t-7 359.5zM913 481q-9 -55 15 -100t84 -45q41 0 76.5 19.5t56.5 50.5l29 172q-9 29 -34.5 46 t-60.5 17q-72 0 -114.5 -48.5t-51.5 -111.5z" />
<glyph unicode="A" horiz-adv-x="1566" d="M-100 0l762 1434h509l308 -1434h-461l-33 190h-506l-92 -190h-487zM641 532h289l-51 312q-15 103 -15 184q-35 -113 -69 -182z" />
<glyph unicode="B" horiz-adv-x="1429" d="M12 0l228 1434h698q154 0 264 -42t166 -132q41 -66 40 -153q0 -31 -5 -65q-16 -103 -75 -174t-175 -114q113 -36 169 -132q40 -69 40 -162q0 -37 -6 -77q-14 -91 -55.5 -159t-99.5 -110t-138 -68.5t-161.5 -36t-180.5 -9.5h-709zM541 348h190q69 0 114.5 30t55.5 89 q3 14 3 27q0 36 -22 58q-30 30 -98 30h-206zM623 874l168 -2q60 0 101 30.5t50 78.5q2 11 2 21q0 32 -19 54q-25 30 -85 29h-183z" />
<glyph unicode="C" horiz-adv-x="1320" d="M70 739q24 150 89.5 274.5t154.5 207t198.5 139t219.5 81.5t220 25q239 0 418 -98l-63 -399q-48 39 -128.5 63.5t-168.5 24.5q-78 0 -150 -18.5t-137.5 -57t-112 -108t-61.5 -162.5q-5 -30 -5 -58q0 -45 13 -85q21 -64 66.5 -103.5t106 -60.5t128.5 -21q214 0 383 102 l-70 -438q-175 -80 -405 -80q-121 0 -232 28t-207.5 89.5t-162.5 149.5q-66 89 -92 219q-14 68 -13 144q0 68 11 142z" />
<glyph unicode="D" horiz-adv-x="1521" d="M12 0l228 1434h606q182 0 318 -55.5t213.5 -155t105.5 -235.5q15 -71 14 -149q0 -72 -12 -151q-25 -155 -87.5 -279t-163.5 -216.5t-249.5 -142.5t-335.5 -50h-637zM549 397h123q286 0 336 336q8 49 8 90q0 213 -221 213h-146z" />
<glyph unicode="E" horiz-adv-x="1271" d="M12 0l228 1434h1085l-59 -373h-615l-24 -166h540l-55 -348h-541l-26 -170h624l-59 -377h-1098z" />
<glyph unicode="F" horiz-adv-x="1230" d="M12 0l228 1434h1063l-66 -414h-590l-29 -176h533l-66 -402h-530l-70 -442h-473z" />
<glyph unicode="G" horiz-adv-x="1417" d="M72 745q24 151 89.5 274.5t153.5 205t198 137t221 80t224 24.5q267 0 459 -92l-63 -403q-122 84 -334 84q-82 0 -156.5 -20t-140.5 -60.5t-111.5 -111t-60.5 -163.5q-6 -46 -6 -83q0 -15 1 -27q3 -48 22 -82.5t42 -57.5t55 -36.5t62 -19t61 -5.5q43 0 76 10l66 402h442 l-119 -744q-206 -90 -469 -90q-127 0 -242.5 30t-212.5 93t-162.5 153t-92.5 219q-13 68 -13 143q0 67 11 140z" />
<glyph unicode="H" horiz-adv-x="1548" d="M12 0l228 1434h473l-82 -510h391l80 510h471l-227 -1434h-472l80 510h-389l-80 -510h-473z" />
<glyph unicode="I" horiz-adv-x="688" d="M12 0l228 1434h473l-228 -1434h-473z" />
<glyph unicode="J" horiz-adv-x="1058" d="M-57 43l63 401q103 -41 227 -41q227 0 252 166l72 451h-328l64 414h803l-150 -949q-19 -118 -62.5 -208.5t-101 -147t-134.5 -92t-155.5 -49t-170.5 -13.5q-112 0 -213.5 18.5t-165.5 49.5z" />
<glyph unicode="K" horiz-adv-x="1490" d="M12 0l228 1434h473l-82 -508h125l362 508h529l-555 -725l323 -709h-497l-226 512h-127l-80 -512h-473z" />
<glyph unicode="L" horiz-adv-x="1214" d="M12 0l228 1434h473l-162 -1020h614l-67 -414h-1086z" />
<glyph unicode="M" horiz-adv-x="1855" d="M12 0l228 1434h405l297 -639l488 639h450l-227 -1434h-461l106 666l-278 -363h-268l-170 365l-109 -668h-461z" />
<glyph unicode="N" horiz-adv-x="1560" d="M12 0l228 1434h356l424 -691q3 125 22 242l70 449h473l-227 -1434h-357l-421 688q0 -82 -21 -233l-74 -455h-473z" />
<glyph unicode="O" horiz-adv-x="1648" d="M72 745q24 151 93 280.5t176.5 228.5t262.5 155.5t338 56.5q122 0 227.5 -28t184 -78.5t138.5 -122t91 -158t42 -185.5q4 -35 4 -71q0 -66 -13 -135q-23 -151 -92 -280.5t-177 -228.5t-263.5 -155.5t-338.5 -56.5q-185 0 -327.5 61.5t-225 168t-114.5 247.5 q-18 78 -18 161q0 68 12 140zM551 692q-4 -30 -4 -58q-1 -98 47 -160q60 -80 190 -79q146 0 241 93t114 253q5 33 5 62q0 95 -47 155q-61 80 -192 80q-144 0 -238 -92.5t-116 -253.5z" />
<glyph unicode="P" horiz-adv-x="1409" d="M12 0l228 1434h616q89 0 166 -12.5t148 -39.5t122 -70.5t87.5 -105.5t44.5 -144q3 -31 4 -64q0 -56 -9 -121q-22 -143 -80.5 -242t-152 -155t-207.5 -80.5t-264 -24.5h-170l-60 -375h-473zM606 764h146q184 0 206 145q2 15 2 28q0 47 -31 73q-40 34 -116 34h-162z" />
<glyph unicode="Q" horiz-adv-x="1648" d="M72 745q24 151 93 280.5t176.5 228.5t262.5 155.5t338 56.5q122 0 227.5 -28t184 -78.5t138.5 -122t91 -158t42 -185.5q4 -35 4 -71q0 -66 -13 -135q-39 -250 -195 -432l107 -123l-303 -239l-119 137q-165 -64 -361 -64q-185 0 -327.5 61.5t-225 168t-114.5 247.5 q-18 78 -18 161q0 68 12 140zM541 692q-4 -30 -4 -57q0 -104 53 -169q65 -81 196 -81q29 0 43 2l-100 115l264 233l117 -139q32 70 41 145q3 29 3 56q0 105 -52 170q-67 82 -199 82q-146 0 -244.5 -95.5t-117.5 -261.5z" />
<glyph unicode="R" horiz-adv-x="1492" d="M12 0l228 1434h655q90 0 172 -16.5t158 -56t127.5 -98.5t74.5 -153q13 -52 13 -111q0 -47 -8 -98q-45 -290 -306 -407l281 -494h-500l-221 424h-135l-66 -424h-473zM610 778h172q70 0 120.5 39t60.5 103q2 11 2 22q-1 42 -27 71q-32 36 -96 36h-189z" />
<glyph unicode="S" horiz-adv-x="1294" d="M4 109l66 409q211 -156 473 -156q184 0 194 66q4 26 -16.5 48t-58 39.5t-86.5 35.5t-103 40t-107.5 49t-99.5 66t-78.5 87t-45.5 117q-7 36 -7 75q0 36 6 76q16 99 73 178t141 127.5t185 74t210 25.5q149 0 285.5 -33.5t238.5 -91.5l-62 -395q-94 64 -208 98 q-108 32 -212 31h-12q-156 0 -162 -65q-2 -24 25.5 -46.5t74 -39.5t105.5 -41t120 -50t116.5 -67t96 -90t58.5 -123q10 -41 9 -87q0 -36 -6 -75q-17 -99 -60 -174t-102.5 -121.5t-140.5 -76t-165 -41t-184 -11.5q-330 0 -561 142z" />
<glyph unicode="T" horiz-adv-x="1290" d="M92 1020l66 414h1241l-66 -414h-385l-162 -1020h-471l162 1020h-385z" />
<glyph unicode="U" horiz-adv-x="1517" d="M88 571l137 863h473l-139 -867q-4 -25 -3 -46q0 -61 30 -90q40 -40 131 -40q200 0 235 203l133 840h471l-139 -891q-21 -129 -71.5 -229.5t-120 -165t-160.5 -106t-187 -58.5t-206 -17q-102 0 -193.5 20t-173.5 66t-136.5 114t-77.5 172q-12 56 -12 118q0 54 9 114z" />
<glyph unicode="V" horiz-adv-x="1523" d="M127 1434h481l123 -879l408 879h522l-752 -1434h-483z" />
<glyph unicode="W" horiz-adv-x="2275" d="M137 1434h492l65 -865l363 865h391l82 -865l348 865h524l-659 -1434h-516l-72 723l-309 -723h-504z" />
<glyph unicode="X" horiz-adv-x="1495" d="M-137 0l622 733l-362 701h532l152 -363l278 363h564l-590 -697l379 -737h-533l-170 389l-309 -389h-563z" />
<glyph unicode="Y" horiz-adv-x="1540" d="M123 1434h504l168 -547l335 547h553l-696 -945l-80 -489h-469l80 489z" />
<glyph unicode="Z" horiz-adv-x="1320" d="M-39 0l47 299l639 721h-489l63 414h1149l-47 -301l-639 -719h549l-66 -414h-1206z" />
<glyph unicode="[" horiz-adv-x="790" d="M-25 -225l297 1884h631l-57 -371h-203l-182 -1141h203l-58 -372h-631z" />
<glyph unicode="\" horiz-adv-x="1011" d="M186 1559h297l379 -1684h-297z" />
<glyph unicode="]" horiz-adv-x="788" d="M-76 -225l58 372h202l183 1141h-203l57 371h631l-297 -1884h-631z" />
<glyph unicode="^" horiz-adv-x="1361" d="M63 659l562 775h381l319 -775h-426l-129 367l-250 -367h-457z" />
<glyph unicode="_" horiz-adv-x="1067" d="M-160 -416l56 346h1067l-56 -346h-1067z" />
<glyph unicode="`" horiz-adv-x="729" d="M293 1876h424l147 -336h-375z" />
<glyph unicode="a" horiz-adv-x="1277" d="M24 353q-1 21 -1 43q0 60 8 124q16 99 55 186t101 157.5t154 111.5t202 41q109 0 190 -50.5t121 -127.5l23 145h378l-155 -983h-379l16 106q-112 -139 -323 -139q-90 0 -162 30t-118 82.5t-76 123t-34 150.5zM467 483q-2 -17 -2 -32q0 -51 23 -89q30 -49 94 -49 q87 0 149 76l35 213q-9 30 -38.5 49t-68.5 19q-77 0 -128 -53.5t-64 -133.5z" />
<glyph unicode="b" horiz-adv-x="1277" d="M-12 0l227 1434h432l-84 -519q123 101 271 101q86 0 157 -30t117 -82.5t76 -123t35 -150.5q1 -24 1 -48q0 -58 -8 -119q-15 -99 -53.5 -186t-99.5 -157.5t-151.5 -111.5t-198.5 -41q-112 0 -193.5 48.5t-122.5 121.5l-26 -137h-379zM479 379q27 -66 105 -66q75 0 127 52 t65 129q3 19 3 37q0 49 -20 87q-27 52 -95 52q-83 0 -152 -76z" />
<glyph unicode="c" horiz-adv-x="1003" d="M27 498q14 108 60 197t110 148t145 99t164 58t168 18q175 0 315 -70l-53 -334q-91 48 -201 48q-101 0 -177.5 -43t-90.5 -134q-2 -14 -2 -26q1 -61 45 -93q54 -40 147 -40q138 0 250 53l-55 -361q-149 -51 -309 -51q-121 0 -221.5 34t-173.5 98.5t-106 166.5 q-21 66 -21 144q0 42 6 88z" />
<glyph unicode="d" horiz-adv-x="1275" d="M27 353q-2 25 -2 51q0 57 8 116q15 98 55 185.5t102.5 158t153.5 111.5t199 41q91 0 159.5 -32t108.5 -87l86 537h430l-227 -1434h-379l18 117q-118 -150 -323 -150q-87 0 -158.5 30t-118 82.5t-77 123t-35.5 150.5zM467 483q-2 -17 -2 -32q0 -51 23 -89q30 -48 94 -49h6 q81 0 143 76l35 215q-11 28 -40.5 47t-66.5 19q-77 0 -128.5 -53t-63.5 -134z" />
<glyph unicode="e" horiz-adv-x="1118" d="M31 528q15 102 59 186t103.5 139t132.5 92.5t144.5 54t141.5 16.5q125 0 219 -38.5t145 -101.5q52 -62 76 -144q18 -64 18 -131q0 -19 -2 -37q-6 -86 -38 -171h-610q16 -64 86.5 -94.5t171.5 -30.5q175 0 305 49l-47 -301q-146 -49 -354 -49q-92 0 -177 20t-161.5 64 t-129.5 108q-52 63 -76 159q-14 56 -14 119q0 44 7 91zM442 592h269q5 20 5 38q0 32 -16 58q-26 42 -92 43q-68 0 -113 -42t-53 -97z" />
<glyph unicode="f" horiz-adv-x="860" d="M55 639l56 344h139l14 96q63 387 479 387q144 0 246 -41l-49 -315q-51 23 -109 23t-96 -27t-47 -78l-8 -45h215l-53 -344h-215l-103 -639h-430l101 639h-140z" />
<glyph unicode="g" horiz-adv-x="1277" d="M-8 -393l55 346q160 -86 338 -86q119 0 198 45t95 139l6 41q-91 -102 -264 -102q-90 0 -162.5 29t-119 79t-77 118.5t-35.5 147.5q-1 24 -1 47q0 58 8 119q16 98 57 184.5t104.5 154.5t154 107.5t196.5 39.5q103 0 183.5 -45t125.5 -119l23 131h378l-145 -934 q-18 -115 -63.5 -206.5t-107.5 -151.5t-141.5 -100t-162.5 -57t-174 -17q-272 0 -469 90zM469 489q-2 -17 -2 -32q0 -52 23 -90q30 -49 94 -50q86 0 149 78l35 215q-11 29 -40 47.5t-66 18.5q-77 0 -128.5 -53.5t-64.5 -133.5z" />
<glyph unicode="h" d="M-12 0l227 1434h432l-80 -500q134 82 256 82q94 0 164 -34t107.5 -90.5t51.5 -125.5q7 -37 7 -74q0 -34 -6 -69l-98 -623h-433l91 569q2 11 2 21q0 26 -14 42q-19 22 -56 21q-66 0 -125 -55l-94 -598h-432z" />
<glyph unicode="i" horiz-adv-x="600" d="M-10 0l155 983h433l-156 -983h-432zM190 1325q16 96 82.5 144.5t157.5 48.5q102 0 162 -64q46 -49 46 -127q0 -25 -5 -53q-14 -96 -80.5 -144.5t-157.5 -48.5q-103 0 -163 64q-47 49 -46 130q0 23 4 50z" />
<glyph unicode="j" horiz-adv-x="602" d="M-274 -442l53 340q39 -13 84 -13q59 0 89 27.5t40 91.5l155 979h431l-177 -1114q-15 -96 -55.5 -166t-101 -109.5t-130 -58t-151.5 -18.5q-144 0 -237 41zM193 1325q16 96 82 144.5t157 48.5q102 0 162 -64q46 -49 46 -127q0 -25 -5 -53q-14 -96 -80.5 -144.5 t-157.5 -48.5q-102 0 -162 64q-46 49 -46 129q0 24 4 51z" />
<glyph unicode="k" horiz-adv-x="1218" d="M-12 0l227 1434h432l-123 -766h64l225 315h479l-393 -512l227 -471h-444l-139 332h-72l-51 -332h-432z" />
<glyph unicode="l" horiz-adv-x="602" d="M-10 0l237 1495h432l-237 -1495h-432z" />
<glyph unicode="m" horiz-adv-x="1769" d="M-12 0l155 983h381l-16 -98q49 55 133.5 93t175.5 38q179 0 252 -129q62 59 149.5 94t180.5 35q72 0 129.5 -23t92.5 -62t57 -91q24 -53 26 -113q1 -14 0 -29q0 -46 -6 -94l-96 -604h-426l94 594q4 30 -13.5 45.5t-46.5 15.5q-53 0 -102 -45q0 -12 -4 -32l-92 -578h-426 l94 594q4 30 -13 45.5t-44 15.5q-65 0 -115 -57l-94 -598h-426z" />
<glyph unicode="n" d="M-12 0l155 983h379l-14 -92q148 125 323 125q92 0 160.5 -34t104.5 -90q37 -58 50 -126q7 -36 7 -72q0 -34 -6 -69l-98 -625h-433l91 569q2 11 2 21q0 27 -14 42q-19 21 -56 21q-58 0 -125 -53l-94 -600h-432z" />
<glyph unicode="o" d="M31 524q19 124 75.5 219.5t140 154.5t186.5 88.5t222 29.5q113 0 211 -36t170 -104q74 -67 106 -175q20 -66 19 -141q0 -49 -8 -101q-20 -124 -78.5 -220t-143.5 -154.5t-187.5 -88t-217.5 -29.5q-116 0 -214.5 36t-169.5 103q-72 68 -102 176q-18 64 -18 137q0 50 9 105 zM444 481q-2 -15 -2 -29q0 -50 22 -82q28 -42 97 -42q74 0 120.5 47.5t55.5 126.5q2 15 2 29q0 47 -22 81q-28 42 -96 43q-74 0 -121 -47.5t-56 -126.5z" />
<glyph unicode="p" horiz-adv-x="1280" d="M-84 -451l229 1434h379l-18 -115q58 66 143.5 107t181.5 41q144 0 240.5 -79.5t130.5 -204.5q21 -74 21 -156q0 -55 -9 -113q-16 -100 -54 -186.5t-98.5 -157t-151.5 -111.5t-201 -41q-89 0 -161 33t-116 82l-84 -533h-432zM479 377q28 -64 109 -64q74 0 125 53.5 t65 131.5q3 18 3 35q0 47 -21 85q-27 52 -96 52q-87 0 -150 -78z" />
<glyph unicode="q" horiz-adv-x="1277" d="M24 353q-1 21 -1 43q0 60 8 124q16 99 55 186t101 157.5t154 111.5t202 41t191 -51t120 -125l23 143h378l-227 -1434h-430l80 506q-94 -88 -264 -88q-90 0 -162 30t-118 82.5t-76 123t-34 150.5zM467 483q-2 -17 -2 -32q0 -52 23 -89q30 -49 94 -49h6q82 0 143 76l35 215 q-9 27 -39.5 46.5t-67.5 19.5q-76 0 -127.5 -54t-64.5 -133z" />
<glyph unicode="r" horiz-adv-x="860" d="M-12 0l155 983h381l-16 -106q58 71 158 105q68 24 151 24q38 0 80 -5l-63 -397q-54 18 -110 18q-37 0 -75 -8q-95 -20 -145 -79l-84 -535h-432z" />
<glyph unicode="s" horiz-adv-x="1009" d="M-10 57l53 334q62 -53 154 -81.5t168 -30.5q13 -1 25 -1q86 0 91 33q2 20 -21.5 36.5t-62.5 30.5t-86 31t-93 43.5t-82 60.5q-37 33 -55 89q-12 36 -12 80q0 22 3 45q40 289 485 289q217 0 389 -86l-49 -312q-62 44 -142 72.5t-153 28.5q-85 0 -90 -39q-2 -21 22 -37.5 t63.5 -30.5t87.5 -30t94.5 -42t82.5 -60t53 -90q10 -33 10 -70q0 -27 -5 -56q-11 -71 -46 -125t-83.5 -86t-116 -52t-134 -27t-147.5 -7q-234 0 -403 90z" />
<glyph unicode="t" horiz-adv-x="886" d="M37 639l55 344h137l41 264l449 101l-57 -365h219l-56 -344h-219l-37 -231q-2 -12 -2 -22q0 -32 18 -48q23 -20 74 -21q63 0 134 23l-54 -336q-122 -39 -264 -39q-59 0 -111.5 11t-103 39t-83.5 71q-33 42 -47 112q-7 35 -8 76q0 39 7 82l45 283h-137z" />
<glyph unicode="u" d="M35 365l98 618h432l-90 -563q-2 -14 -3 -26q0 -66 73 -66q72 0 123 55l94 600h432l-156 -983h-381l17 92q-122 -125 -301 -125q-120 0 -204 56q-83 55 -117 145q-22 59 -23 127q0 34 6 70z" />
<glyph unicode="v" horiz-adv-x="1230" d="M66 983h438l65 -571l250 571h473l-544 -983h-457z" />
<glyph unicode="w" horiz-adv-x="1732" d="M74 983h422l32 -539l222 539h329l47 -539l201 539h457l-469 -983h-420l-51 485l-213 -485h-410z" />
<glyph unicode="x" horiz-adv-x="1167" d="M-115 0l426 502l-248 481h433l106 -225l166 225h469l-412 -494l262 -489h-452l-100 227l-179 -227h-471z" />
<glyph unicode="y" horiz-adv-x="1234" d="M-57 -440l55 344q62 -23 127 -23q139 0 221 144l-293 958h436l121 -532l211 532h469l-538 -1053q-61 -119 -131.5 -202t-145 -127t-146 -63t-151.5 -19q-126 0 -235 41z" />
<glyph unicode="z" horiz-adv-x="1034" d="M-39 0l39 252l393 387h-299l53 344h865l-41 -252l-393 -387h360l-53 -344h-924z" />
<glyph unicode="{" horiz-adv-x="841" d="M27 537l59 366q74 -7 115.5 16t54.5 97l47 303q36 231 212 320.5t435 15.5l-53 -340q-160 46 -195 -172l-32 -215q-33 -202 -219 -213q70 -3 117 -66.5t30 -171.5l-35 -213q-14 -92 17 -127t127 -22l-54 -342q-144 -28 -251 -11t-175 70t-96.5 133t-13.5 178l47 291 q5 30 -1 50t-16.5 30.5t-33 15.5t-39 6t-47.5 1z" />
<glyph unicode="|" horiz-adv-x="632" d="M-25 -205l295 1864h428l-295 -1864h-428z" />
<glyph unicode="}" horiz-adv-x="841" d="M-74 -223l54 336q91 -18 134.5 24t61.5 154l33 213q18 103 78 156.5t143 58.5q-68 3 -116.5 69t-32.5 168l34 213q14 92 -16 126.5t-127 21.5l55 348q278 55 424 -55.5t111 -319.5l-47 -295q-6 -36 4 -58t30 -29t46.5 -9.5t54.5 0.5l-57 -364q-69 7 -113 -18t-55 -99 l-50 -303q-36 -231 -206.5 -317t-442.5 -21z" />
<glyph unicode="~" horiz-adv-x="1241" d="M76 475q-2 110 23.5 194t72.5 133.5t106 74t128 24.5q72 0 153.5 -24.5t146 -49t93.5 -24.5q33 0 48.5 20.5t16.5 67.5h334q3 -109 -22 -192.5t-71.5 -133.5t-106.5 -75t-132 -25q-69 0 -152 25t-148 49.5t-91 23.5q-62 0 -65 -88h-334z" />
<glyph unicode="&#xa1;" horiz-adv-x="612" d="M-92 -451l188 871h363l-90 -871h-461zM102 813q16 101 85.5 152t164.5 51q111 0 174.5 -67.5t44.5 -192.5q-16 -102 -86 -152.5t-166 -50.5q-109 0 -173.5 68.5t-43.5 191.5z" />
<glyph unicode="&#xa2;" horiz-adv-x="1050" d="M37 498q14 108 60 197t110 148t145 99t164 58t168 18h16l33 211h182l-36 -236q65 -18 120 -45l-53 -334q-62 30 -121 41l-51 -321q66 10 144 45l-56 -361q-69 -23 -143 -36l-37 -228h-182l32 213q-117 3 -214 38.5t-167 100t-101 165.5t-13 227zM477 485 q-9 -62 22.5 -100t92.5 -51l49 315q-145 -42 -164 -164z" />
<glyph unicode="&#xa3;" horiz-adv-x="1247" d="M-25 0l60 369h43q63 0 101 37t46 94l8 49h-139l49 307h140l12 80q20 128 74.5 224t134.5 153t176.5 84.5t208.5 27.5q191 0 362 -77l-51 -338q-105 63 -244 63q-193 0 -219 -166l-8 -51h338l-49 -307h-336l-10 -53q-12 -95 -84 -127h561l-59 -369h-1115z" />
<glyph unicode="&#xa4;" horiz-adv-x="1142" d="M35 393l133 123q-41 106 -21 229q16 113 86 201l-92 101l189 172l104 -121q90 37 201 37q117 0 205 -45l151 133l156 -179l-139 -126q42 -105 22 -230q-17 -116 -86 -199l94 -100l-192 -172l-103 117q-86 -35 -200 -35q-115 0 -203 45l-147 -129zM485 707 q-5 -36 16 -63.5t70 -27.5q55 0 86.5 33t34.5 78q5 37 -16 64.5t-70 27.5q-55 0 -86.5 -33t-34.5 -79z" />
<glyph unicode="&#xa5;" horiz-adv-x="1566" d="M170 207l35 225h313l14 80h-313l35 225h190l-274 656h481l160 -527l305 527h529l-486 -656h189l-35 -225h-312l-14 -80h311l-34 -225h-314l-32 -207h-469l32 207h-311z" />
<glyph unicode="&#xa6;" horiz-adv-x="651" d="M-16 -205l127 799h428l-127 -799h-428zM154 860l127 799h428l-127 -799h-428z" />
<glyph unicode="&#xa7;" horiz-adv-x="1081" d="M25 23l47 303q69 -44 157.5 -68.5t157.5 -24.5q62 0 89.5 7.5t31.5 29.5q2 18 -18 33.5t-52.5 28t-88.5 31.5q-9 3 -13 4q-45 17 -79.5 33.5t-71.5 44.5t-59 60t-33 79.5t-3 103.5q19 145 184 236q-122 95 -98 256q13 81 59 139.5t117 89t146.5 44t163.5 13.5 q209 0 385 -90l-43 -282q-133 75 -293 75q-90 0 -95 -41q-1 -12 8 -22.5t29.5 -20t42.5 -17t58 -21t65 -25.5q52 -22 90 -46.5t71.5 -61t46.5 -87.5t3 -114q-21 -140 -172 -246q112 -88 86 -246q-14 -86 -65 -146.5t-128 -91.5t-157 -44t-174 -13q-199 0 -395 97zM446 721 q-10 -56 74 -86q17 -6 50.5 -17t47.5 -16q49 27 54 68q5 32 -14.5 52t-59.5 36q-12 5 -44.5 15.5t-47.5 17.5q-52 -27 -60 -70z" />
<glyph unicode="&#xa8;" horiz-adv-x="894" d="M244 1718q9 83 68.5 135t140.5 52q88 0 140.5 -57.5t43.5 -149.5q-9 -84 -68.5 -135.5t-140.5 -51.5q-88 0 -140.5 57.5t-43.5 149.5zM715 1718q9 83 68.5 135t140.5 52q88 0 140.5 -57.5t43.5 -149.5q-9 -84 -68.5 -135.5t-140.5 -51.5q-88 0 -140.5 57.5t-43.5 149.5z " />
<glyph unicode="&#xa9;" horiz-adv-x="1695" d="M78 512.5q-14 106.5 6 232.5q23 141 83.5 260.5t146.5 203.5t193 142.5t222.5 86.5t235.5 28q102 0 198 -22.5t179 -67t149 -110.5t108.5 -152.5t57 -193t-5.5 -232.5q-23 -142 -84 -261t-147 -203t-193 -142.5t-223.5 -86.5t-237.5 -28q-102 0 -197 22.5t-178.5 67 t-148.5 110.5t-107.5 152.5t-56.5 193zM227 707q-21 -142 14.5 -258.5t113 -191t185 -115t232.5 -40.5q132 0 253.5 40t221 116.5t168.5 197t90 271.5q21 142 -14.5 258.5t-112.5 191t-184.5 114.5t-232.5 40q-132 0 -253.5 -40t-221.5 -116t-169 -196.5t-90 -271.5z M453 729q14 86 52 156.5t89.5 116.5t115 77.5t127 45.5t126.5 14q169 0 290 -70l-36 -242q-82 45 -187 45q-55 0 -101 -13t-83 -50.5t-45 -95.5q-10 -73 36.5 -112.5t118.5 -39.5q132 0 226 51l-39 -252q-124 -65 -299 -65q-62 0 -122 15.5t-115.5 50.5t-94.5 84t-56 123 t-3 161z" />
<glyph unicode="&#xab;" horiz-adv-x="1376" d="M31 455l12 84l332 379h438l-371 -426l228 -426h-424zM600 455l12 84l332 379h438l-370 -426l227 -426h-424z" />
<glyph unicode="&#xac;" horiz-adv-x="1183" d="M76 637l55 346h1014l-92 -580h-357l37 234h-657z" />
<glyph unicode="&#xad;" horiz-adv-x="978" d="M47 326l53 333h799l-53 -333h-799z" />
<glyph unicode="&#xae;" horiz-adv-x="1695" d="M78 512.5q-14 106.5 6 232.5q23 141 83.5 260.5t146.5 203.5t193 142.5t222.5 86.5t235.5 28q102 0 198 -22.5t179 -67t149 -110.5t108.5 -152.5t57 -193t-5.5 -232.5q-23 -142 -84 -261t-147 -203t-193 -142.5t-223.5 -86.5t-237.5 -28q-102 0 -197 22.5t-178.5 67 t-148.5 110.5t-107.5 152.5t-56.5 193zM227 707q-21 -142 14.5 -258.5t113 -191t185 -115t232.5 -40.5q132 0 253.5 40t221 116.5t168.5 197t90 271.5q21 142 -14.5 258.5t-112.5 191t-184.5 114.5t-232.5 40q-132 0 -253.5 -40t-221.5 -116t-169 -196.5t-90 -271.5z M467 324l125 798h383q53 0 102 -11t92 -35.5t72 -60.5t41.5 -90t1.5 -120q-26 -158 -174 -221l152 -260h-291l-123 227h-14h-58l-35 -227h-274zM809 758h94q95 0 107 71q3 25 -14 45.5t-50 20.5h-115z" />
<glyph unicode="&#xaf;" horiz-adv-x="737" d="M199 1550l47 297h743l-47 -297h-743z" />
<glyph unicode="&#xb0;" horiz-adv-x="905" d="M117 1112q27 167 151.5 260.5t298.5 93.5q88 0 162 -28t126 -79.5t75 -130t8 -173.5q-28 -178 -152 -272.5t-303 -94.5q-86 0 -159 28t-125 80t-75 134t-7 182zM418 1069q-4 -44 20 -70t68 -26q54 0 86 31.5t37 85.5q5 43 -18 68.5t-68 25.5q-53 0 -86.5 -31.5 t-38.5 -83.5z" />
<glyph unicode="&#xb1;" horiz-adv-x="1191" d="M-4 0l55 344h1014l-53 -344h-1016zM115 752l55 344h334l51 311h344l-51 -311h336l-54 -344h-335l-50 -314h-344l50 314h-336z" />
<glyph unicode="&#xb4;" horiz-adv-x="710" d="M244 1540l254 336h444l-301 -336h-397z" />
<glyph unicode="&#xb6;" horiz-adv-x="1701" d="M111 999q32 206 175.5 320.5t372.5 114.5h1045l-299 -1885h-442l233 1471h-147l-236 -1471h-442l153 965q-221 0 -335 130.5t-78 354.5z" />
<glyph unicode="&#xb7;" horiz-adv-x="593" d="M43 516q16 102 86 152.5t166 50.5q110 0 174 -67.5t43 -190.5q-16 -103 -85.5 -154t-166.5 -51q-108 0 -172 68.5t-45 191.5z" />
<glyph unicode="&#xb8;" horiz-adv-x="471" d="M-178 -442l37 227q67 -39 164 -39q112 0 120 49q5 23 -22 36t-67 13t-83 -6l70 162h252l-45 -90q89 -6 136 -61t34 -140q-8 -54 -41 -93.5t-82.5 -60.5t-101.5 -30.5t-109 -9.5q-154 0 -262 43z" />
<glyph unicode="&#xbb;" horiz-adv-x="1378" d="M-39 66l373 426l-230 426h424l215 -390l-12 -84l-330 -378h-440zM532 66l373 426l-229 426h424l217 -390l-14 -84l-330 -378h-441z" />
<glyph unicode="&#xbc;" horiz-adv-x="1912" d="M66 557l36 231h158l53 336l-157 -51l39 242l229 78h207l-96 -605h141l-37 -231h-573zM326 -33l1183 1499h129l-1183 -1499h-129zM1012 113l35 225l471 498h280l-80 -504h103l-35 -219h-103l-18 -113h-256l16 113h-413zM1317 332h143l31 184z" />
<glyph unicode="&#xbd;" horiz-adv-x="1849" d="M59 557l37 231h158l53 336l-157 -51l38 242l230 78h207l-97 -605h142l-37 -231h-574zM319 -33l1184 1499h129l-1183 -1499h-130zM1028 0l19 121q10 65 36.5 117.5t67.5 92t80.5 66.5t93.5 56q19 10 55 28t50.5 26.5t34.5 21t28 23t10 21.5q4 20 -12 30.5t-45 10.5 q-138 0 -311 -112l43 270q155 84 309 84q64 0 121 -18t102.5 -53t67 -94.5t8.5 -135.5q-12 -75 -54 -120t-126 -97q-19 -12 -50.5 -31t-47.5 -29t-35 -23.5t-31 -25.5h291l-35 -229h-670z" />
<glyph unicode="&#xbe;" horiz-adv-x="2015" d="M70 612l36 234q121 -62 250 -62q58 0 96 15t42 43q3 23 -11 36t-47 13h-157l34 211h111q81 0 86 43q4 22 -16 34.5t-58 12.5q-141 0 -274 -68l39 238q136 65 276 65q63 0 120 -16.5t102 -48t67 -84.5t12 -119q-20 -116 -157 -158q65 -20 105 -78t26 -149 q-38 -223 -371 -223q-186 0 -311 61zM428 -33l1184 1499h129l-1184 -1499h-129zM1114 113l35 225l471 498h281l-80 -504h102l-35 -219h-102l-19 -113h-256l17 113h-414zM1419 332h144l30 184z" />
<glyph unicode="&#xbf;" horiz-adv-x="1028" d="M-61 -82q11 72 56.5 139.5t103 118.5t114 97.5t98.5 94t49 89.5h396q-9 -60 -37 -116t-63 -96.5t-75 -79t-73.5 -66.5t-58 -57.5t-29.5 -53.5q-11 -70 102 -70q85 0 180 27t172 67l-67 -413q-184 -82 -401 -82q-78 0 -148 11.5t-136 41t-111 73.5t-65.5 115t-6.5 160z M375 813q16 101 85.5 152t164.5 51q110 0 174 -68t45 -192q-16 -102 -86 -152.5t-166 -50.5q-109 0 -173.5 68.5t-43.5 191.5z" />
<glyph unicode="&#xc0;" horiz-adv-x="1566" d="M-100 0l762 1434h509l308 -1434h-461l-33 190h-506l-92 -190h-487zM588 1876h424l147 -336h-375zM641 532h289l-51 312q-15 103 -15 184q-35 -113 -69 -182z" />
<glyph unicode="&#xc1;" horiz-adv-x="1566" d="M-100 0l762 1434h509l308 -1434h-461l-33 190h-506l-92 -190h-487zM641 532h289l-51 312q-15 103 -15 184q-35 -113 -69 -182zM694 1540l254 336h445l-301 -336h-398z" />
<glyph unicode="&#xc2;" horiz-adv-x="1566" d="M-100 0l762 1434h509l308 -1434h-461l-33 190h-506l-92 -190h-487zM477 1530l318 350h379l206 -350h-344l-71 123l-113 -123h-375zM641 532h289l-51 312q-15 103 -15 184q-35 -113 -69 -182z" />
<glyph unicode="&#xc3;" horiz-adv-x="1566" d="M-100 0l762 1434h509l308 -1434h-461l-33 190h-506l-92 -190h-487zM510 1526q-20 158 55 262t205 104q58 0 116 -20.5t104 -41t73 -20.5q28 0 42 22.5t9 47.5h277q20 -159 -56 -263t-207 -104q-57 0 -114.5 20.5t-103.5 41t-74 20.5t-42.5 -22t-9.5 -47h-274zM641 532 h289l-51 312q-15 103 -15 184q-35 -113 -69 -182z" />
<glyph unicode="&#xc4;" horiz-adv-x="1566" d="M-100 0l762 1434h509l308 -1434h-461l-33 190h-506l-92 -190h-487zM528 1718q9 83 68.5 135t140.5 52q88 0 141 -57.5t44 -149.5q-9 -84 -68.5 -135.5t-140.5 -51.5q-88 0 -141 57.5t-44 149.5zM641 532h289l-51 312q-15 103 -15 184q-35 -113 -69 -182zM999 1718 q9 83 68.5 135t140.5 52q88 0 141 -57.5t44 -149.5q-9 -84 -68.5 -135.5t-140.5 -51.5q-88 0 -141 57.5t-44 149.5z" />
<glyph unicode="&#xc5;" horiz-adv-x="1566" d="M-100 0l762 1434h509l308 -1434h-461l-33 190h-506l-92 -190h-487zM641 532h289l-51 312q-15 103 -15 184q-35 -113 -69 -182zM690 1794q20 111 106.5 174.5t200.5 63.5q58 0 110.5 -20.5t90.5 -57.5t56.5 -93.5t7.5 -123.5q-13 -78 -59 -133.5t-110 -81t-141 -25.5 q-57 0 -108.5 20t-89.5 56.5t-56 94t-8 126.5zM905 1767q-5 -33 12 -53t50 -20t52.5 18.5t24.5 48.5q6 31 -10 51.5t-51 20.5q-31 0 -52 -18.5t-26 -47.5z" />
<glyph unicode="&#xc6;" horiz-adv-x="2134" d="M-123 0l1106 1434h1204l-59 -373h-561l-25 -166h488l-56 -348h-487l-29 -170h574l-60 -377h-1034l31 195h-439l-145 -195h-508zM776 532h246l70 422z" />
<glyph unicode="&#xc7;" horiz-adv-x="1320" d="M65.5 491q-18.5 112 4.5 248q24 150 89.5 274.5t154.5 207t198.5 139t219.5 81.5t220 25q239 0 418 -98l-63 -399q-48 39 -128.5 63.5t-168.5 24.5q-78 0 -150 -18.5t-137.5 -57t-112 -108t-61.5 -162.5q-13 -79 8 -143t66.5 -103.5t106 -60.5t128.5 -21q214 0 383 102 l-70 -438q-144 -65 -331 -78l-29 -59q89 -6 136 -61t34 -140q-8 -54 -41 -93.5t-82.5 -60.5t-101.5 -30.5t-109 -9.5q-154 0 -262 43l37 227q67 -39 164 -39q113 0 121 49q5 23 -22 36t-67.5 13t-82.5 -6l61 144q-101 19 -187.5 58.5t-160 103t-119 149.5t-64 198z" />
<glyph unicode="&#xc8;" horiz-adv-x="1271" d="M12 0l228 1434h1085l-59 -373h-615l-24 -166h540l-55 -348h-541l-26 -170h624l-59 -377h-1098zM459 1876h424l147 -336h-375z" />
<glyph unicode="&#xc9;" horiz-adv-x="1271" d="M12 0l228 1434h1085l-59 -373h-615l-24 -166h540l-55 -348h-541l-26 -170h624l-59 -377h-1098zM565 1540l254 336h445l-301 -336h-398z" />
<glyph unicode="&#xca;" horiz-adv-x="1271" d="M12 0l228 1434h1085l-59 -373h-615l-24 -166h540l-55 -348h-541l-26 -170h624l-59 -377h-1098zM348 1530l318 350h378l207 -350h-344l-71 123l-113 -123h-375z" />
<glyph unicode="&#xcb;" horiz-adv-x="1271" d="M12 0l228 1434h1085l-59 -373h-615l-24 -166h540l-55 -348h-541l-26 -170h624l-59 -377h-1098zM399 1718q9 83 68.5 135t140.5 52q88 0 141 -57.5t44 -149.5q-9 -84 -68.5 -135.5t-140.5 -51.5q-88 0 -141 57.5t-44 149.5zM870 1718q9 83 68.5 135t140.5 52 q88 0 141 -57.5t44 -149.5q-9 -84 -68.5 -135.5t-140.5 -51.5q-88 0 -141 57.5t-44 149.5z" />
<glyph unicode="&#xcc;" horiz-adv-x="688" d="M12 0l228 1434h473l-228 -1434h-473zM145 1876h424l148 -336h-375z" />
<glyph unicode="&#xcd;" horiz-adv-x="688" d="M12 0l228 1434h473l-228 -1434h-473zM252 1540l254 336h444l-301 -336h-397z" />
<glyph unicode="&#xce;" horiz-adv-x="688" d="M12 0l228 1434h473l-228 -1434h-473zM35 1530l317 350h379l207 -350h-344l-72 123l-112 -123h-375z" />
<glyph unicode="&#xcf;" horiz-adv-x="688" d="M12 0l228 1434h473l-228 -1434h-473zM86 1718q9 83 68.5 135t140.5 52q88 0 140.5 -57.5t43.5 -149.5q-9 -84 -68.5 -135.5t-140.5 -51.5q-88 0 -140.5 57.5t-43.5 149.5zM557 1718q9 83 68.5 135t140.5 52q88 0 140.5 -57.5t43.5 -149.5q-9 -84 -68.5 -135.5 t-140.5 -51.5q-88 0 -140.5 57.5t-43.5 149.5z" />
<glyph unicode="&#xd0;" horiz-adv-x="1550" d="M12 575l45 279h119l92 580h606q241 0 398.5 -96.5t216 -263.5t24.5 -386q-25 -155 -87 -279t-163 -216.5t-249.5 -142.5t-335.5 -50h-637l90 575h-119zM575 397h123q286 0 336 336q51 303 -213 303h-145l-29 -182h209l-45 -279h-207z" />
<glyph unicode="&#xd1;" horiz-adv-x="1560" d="M12 0l228 1434h356l424 -691q3 125 22 242l70 449h473l-227 -1434h-357l-421 688q0 -82 -21 -233l-74 -455h-473zM465 1526q-20 158 55 262t205 104q58 0 116 -20.5t104 -41t73 -20.5q28 0 42 22.5t9 47.5h277q20 -159 -56 -263t-207 -104q-57 0 -114.5 20.5t-103.5 41 t-74 20.5t-42.5 -22t-9.5 -47h-274z" />
<glyph unicode="&#xd2;" horiz-adv-x="1648" d="M72 745q24 151 93 280.5t176.5 228.5t262.5 155.5t338 56.5q122 0 227.5 -28t184 -78.5t138.5 -122t91 -158t42 -185.5t-9 -206q-23 -151 -92 -280.5t-177 -228.5t-263.5 -155.5t-338.5 -56.5q-185 0 -327.5 61.5t-225 168t-114.5 247.5t-6 301zM551 692 q-17 -138 43.5 -217.5t189.5 -79.5q146 0 241 93t114 253q19 138 -42 217.5t-192 79.5q-144 0 -238 -92.5t-116 -253.5zM625 1876h424l147 -336h-375z" />
<glyph unicode="&#xd3;" horiz-adv-x="1648" d="M72 745q24 151 93 280.5t176.5 228.5t262.5 155.5t338 56.5q122 0 227.5 -28t184 -78.5t138.5 -122t91 -158t42 -185.5t-9 -206q-23 -151 -92 -280.5t-177 -228.5t-263.5 -155.5t-338.5 -56.5q-185 0 -327.5 61.5t-225 168t-114.5 247.5t-6 301zM551 692 q-17 -138 43.5 -217.5t189.5 -79.5q146 0 241 93t114 253q19 138 -42 217.5t-192 79.5q-144 0 -238 -92.5t-116 -253.5zM731 1540l254 336h445l-302 -336h-397z" />
<glyph unicode="&#xd4;" horiz-adv-x="1648" d="M72 745q24 151 93 280.5t176.5 228.5t262.5 155.5t338 56.5q122 0 227.5 -28t184 -78.5t138.5 -122t91 -158t42 -185.5t-9 -206q-23 -151 -92 -280.5t-177 -228.5t-263.5 -155.5t-338.5 -56.5q-185 0 -327.5 61.5t-225 168t-114.5 247.5t-6 301zM514 1530l317 350h379 l207 -350h-344l-72 123l-112 -123h-375zM551 692q-17 -138 43.5 -217.5t189.5 -79.5q146 0 241 93t114 253q19 138 -42 217.5t-192 79.5q-144 0 -238 -92.5t-116 -253.5z" />
<glyph unicode="&#xd5;" horiz-adv-x="1648" d="M72 745q24 151 93 280.5t176.5 228.5t262.5 155.5t338 56.5q122 0 227.5 -28t184 -78.5t138.5 -122t91 -158t42 -185.5t-9 -206q-23 -151 -92 -280.5t-177 -228.5t-263.5 -155.5t-338.5 -56.5q-185 0 -327.5 61.5t-225 168t-114.5 247.5t-6 301zM547 1526q-20 158 55 262 t205 104q58 0 116 -20.5t104 -41t73 -20.5q28 0 42 22.5t9 47.5h276q20 -159 -55.5 -263t-206.5 -104q-57 0 -115 20.5t-104 41t-74 20.5t-42 -22t-9 -47h-274zM551 692q-17 -138 43.5 -217.5t189.5 -79.5q146 0 241 93t114 253q19 138 -42 217.5t-192 79.5 q-144 0 -238 -92.5t-116 -253.5z" />
<glyph unicode="&#xd6;" horiz-adv-x="1648" d="M72 745q24 151 93 280.5t176.5 228.5t262.5 155.5t338 56.5q122 0 227.5 -28t184 -78.5t138.5 -122t91 -158t42 -185.5t-9 -206q-23 -151 -92 -280.5t-177 -228.5t-263.5 -155.5t-338.5 -56.5q-185 0 -327.5 61.5t-225 168t-114.5 247.5t-6 301zM551 692 q-17 -138 43.5 -217.5t189.5 -79.5q146 0 241 93t114 253q19 138 -42 217.5t-192 79.5q-144 0 -238 -92.5t-116 -253.5zM565 1718q9 83 68.5 135t140.5 52q88 0 140.5 -57.5t43.5 -149.5q-9 -85 -68 -136t-140 -51q-88 0 -141 57.5t-44 149.5zM1036 1718q9 83 68.5 135 t140.5 52q88 0 141 -57.5t44 -149.5q-9 -84 -68.5 -135.5t-140.5 -51.5q-88 0 -141 57.5t-44 149.5z" />
<glyph unicode="&#xd7;" horiz-adv-x="1077" d="M41 465l291 250l-211 252l254 225l211 -250l291 250l198 -225l-293 -252l213 -250l-256 -225l-209 249l-292 -249z" />
<glyph unicode="&#xd8;" horiz-adv-x="1648" d="M16 -98l217 250q-107 107 -148 260t-13 333q24 151 93 280.5t176.5 228.5t262.5 155.5t338 56.5q214 0 369 -82l129 148h233l-219 -252q107 -107 149 -261t13 -331q-23 -151 -92 -280.5t-177 -228.5t-263.5 -155.5t-338.5 -56.5q-211 0 -368 80l-127 -145h-234zM551 692 q-15 -91 16 -160l430 492q-47 14 -94 14q-144 0 -238 -93t-114 -253zM692 410q51 -15 90 -15q146 0 241 93t114 253q15 88 -17 160z" />
<glyph unicode="&#xd9;" horiz-adv-x="1517" d="M88 571l137 863h473l-139 -867q-14 -96 26.5 -136t131.5 -40q200 0 235 203l133 840h471l-139 -891q-21 -129 -71.5 -229.5t-120 -165t-160.5 -106t-187 -58.5t-206 -17q-102 0 -193.5 20t-173.5 66t-136.5 114t-77.5 172t-3 232zM539 1876h424l147 -336h-375z" />
<glyph unicode="&#xda;" horiz-adv-x="1517" d="M88 571l137 863h473l-139 -867q-14 -96 26.5 -136t131.5 -40q200 0 235 203l133 840h471l-139 -891q-21 -129 -71.5 -229.5t-120 -165t-160.5 -106t-187 -58.5t-206 -17q-102 0 -193.5 20t-173.5 66t-136.5 114t-77.5 172t-3 232zM645 1540l254 336h444l-301 -336h-397z " />
<glyph unicode="&#xdb;" horiz-adv-x="1517" d="M88 571l137 863h473l-139 -867q-14 -96 26.5 -136t131.5 -40q200 0 235 203l133 840h471l-139 -891q-21 -129 -71.5 -229.5t-120 -165t-160.5 -106t-187 -58.5t-206 -17q-102 0 -193.5 20t-173.5 66t-136.5 114t-77.5 172t-3 232zM428 1530l317 350h379l207 -350h-344 l-72 123l-112 -123h-375z" />
<glyph unicode="&#xdc;" horiz-adv-x="1517" d="M88 571l137 863h473l-139 -867q-14 -96 26.5 -136t131.5 -40q200 0 235 203l133 840h471l-139 -891q-21 -129 -71.5 -229.5t-120 -165t-160.5 -106t-187 -58.5t-206 -17q-102 0 -193.5 20t-173.5 66t-136.5 114t-77.5 172t-3 232zM479 1718q9 83 68.5 135t140.5 52 q88 0 140.5 -57.5t43.5 -149.5q-9 -85 -68 -136t-140 -51q-88 0 -141 57.5t-44 149.5zM950 1718q9 83 68.5 135t140.5 52q88 0 140.5 -57.5t43.5 -149.5q-9 -85 -68 -136t-140 -51q-88 0 -141 57.5t-44 149.5z" />
<glyph unicode="&#xdd;" horiz-adv-x="1540" d="M123 1434h504l168 -547l335 547h553l-696 -945l-80 -489h-469l80 489zM659 1540l254 336h445l-301 -336h-398z" />
<glyph unicode="&#xde;" horiz-adv-x="1406" d="M12 0l228 1434h473l-31 -187h143q105 0 194.5 -17.5t168 -59t129.5 -104.5t72 -159.5t2 -218.5q-22 -142 -81.5 -241t-154 -155.5t-210 -81t-267.5 -24.5h-164l-29 -186h-473zM578 578h139q92 0 147 34t68 115q9 63 -31.5 96t-114.5 33h-163z" />
<glyph unicode="&#xdf;" horiz-adv-x="1267" d="M-10 0l155 987q37 235 182 356.5t396 122.5q99 1 181.5 -22.5t136 -61.5t88.5 -87.5t48 -100.5t7 -100q-7 -49 -37 -98t-62 -81.5t-61.5 -75t-34.5 -81.5q-5 -30 17.5 -68.5t57 -81t68.5 -91.5t53.5 -117.5t10.5 -141.5q-11 -96 -71.5 -163.5t-144 -97.5t-181.5 -30 q-141 0 -277 56l49 319q47 -23 107 -23q48 0 75.5 21.5t32.5 52.5q4 27 -13.5 62.5t-45 72t-54 75t-42 84t-8.5 87.5q8 45 41 91.5t66.5 91t41.5 83.5q9 38 -11 59t-56 21q-51 0 -83.5 -29.5t-41.5 -80.5l-158 -1010h-432z" />
<glyph unicode="&#xe0;" horiz-adv-x="1277" d="M24 353q-4 80 7 167q16 99 55 186t101 157.5t154 111.5t202 41q109 0 190 -50.5t121 -127.5l23 145h378l-155 -983h-379l16 106q-112 -139 -323 -139q-90 0 -162 30t-118 82.5t-76 123t-34 150.5zM346 1446h424l148 -336h-375zM467 483q-9 -72 21 -121t94 -49 q87 0 149 76l35 213q-9 30 -38.5 49t-68.5 19q-77 0 -128 -53.5t-64 -133.5z" />
<glyph unicode="&#xe1;" horiz-adv-x="1277" d="M24 353q-4 80 7 167q16 99 55 186t101 157.5t154 111.5t202 41q109 0 190 -50.5t121 -127.5l23 145h378l-155 -983h-379l16 106q-112 -139 -323 -139q-90 0 -162 30t-118 82.5t-76 123t-34 150.5zM453 1110l254 336h444l-301 -336h-397zM467 483q-9 -72 21 -121t94 -49 q87 0 149 76l35 213q-9 30 -38.5 49t-68.5 19q-77 0 -128 -53.5t-64 -133.5z" />
<glyph unicode="&#xe2;" horiz-adv-x="1277" d="M24 353q-4 80 7 167q16 99 55 186t101 157.5t154 111.5t202 41q109 0 190 -50.5t121 -127.5l23 145h378l-155 -983h-379l16 106q-112 -139 -323 -139q-90 0 -162 30t-118 82.5t-76 123t-34 150.5zM236 1100l317 350h379l207 -350h-344l-72 123l-113 -123h-374zM467 483 q-9 -72 21 -121t94 -49q87 0 149 76l35 213q-9 30 -38.5 49t-68.5 19q-77 0 -128 -53.5t-64 -133.5z" />
<glyph unicode="&#xe3;" horiz-adv-x="1277" d="M24 353q-4 80 7 167q16 99 55 186t101 157.5t154 111.5t202 41q109 0 190 -50.5t121 -127.5l23 145h378l-155 -983h-379l16 106q-112 -139 -323 -139q-90 0 -162 30t-118 82.5t-76 123t-34 150.5zM268 1096q-20 158 55 262t205 104q58 0 116 -20.5t104 -41t73 -20.5 q28 0 42 22.5t9 47.5h277q20 -159 -55.5 -263t-206.5 -104q-57 0 -115 20.5t-104 41t-74 20.5t-42 -22t-9 -47h-275zM467 483q-9 -72 21 -121t94 -49q87 0 149 76l35 213q-9 30 -38.5 49t-68.5 19q-77 0 -128 -53.5t-64 -133.5z" />
<glyph unicode="&#xe4;" horiz-adv-x="1277" d="M24 353q-4 80 7 167q16 99 55 186t101 157.5t154 111.5t202 41q109 0 190 -50.5t121 -127.5l23 145h378l-155 -983h-379l16 106q-112 -139 -323 -139q-90 0 -162 30t-118 82.5t-76 123t-34 150.5zM287 1288q9 83 68.5 135t140.5 52q88 0 140.5 -57.5t43.5 -149.5 q-9 -84 -68.5 -135.5t-140.5 -51.5q-88 0 -140.5 57.5t-43.5 149.5zM467 483q-9 -72 21 -121t94 -49q87 0 149 76l35 213q-9 30 -38.5 49t-68.5 19q-77 0 -128 -53.5t-64 -133.5zM758 1288q9 83 68.5 135t140.5 52q88 0 140.5 -57.5t43.5 -149.5q-9 -84 -68.5 -135.5 t-140.5 -51.5q-88 0 -140.5 57.5t-43.5 149.5z" />
<glyph unicode="&#xe5;" horiz-adv-x="1277" d="M24 353q-4 80 7 167q16 99 55 186t101 157.5t154 111.5t202 41q109 0 190 -50.5t121 -127.5l23 145h378l-155 -983h-379l16 106q-112 -139 -323 -139q-90 0 -162 30t-118 82.5t-76 123t-34 150.5zM449 1364q20 111 106.5 174.5t200.5 63.5q58 0 110 -20.5t90.5 -57.5 t56.5 -93.5t7 -123.5q-19 -117 -105 -178.5t-204 -61.5q-57 0 -108.5 20t-89.5 56.5t-56 94t-8 126.5zM467 483q-9 -72 21 -121t94 -49q87 0 149 76l35 213q-9 30 -38.5 49t-68.5 19q-77 0 -128 -53.5t-64 -133.5zM664 1337q-5 -33 11.5 -53t49.5 -20t53 18.5t25 48.5 q6 31 -10.5 51.5t-51.5 20.5q-30 0 -51 -18t-26 -48z" />
<glyph unicode="&#xe6;" horiz-adv-x="1892" d="M24 353q-4 80 7 167q16 99 55 186t101 157.5t154 111.5t202 41q109 0 190 -50t121 -126l23 143h346l-21 -131q55 85 138.5 124.5t175.5 39.5q118 1 198 -50t113 -138t26.5 -200t-53.5 -237h-618q32 -121 254 -121q150 0 278 41l-45 -299q-127 -45 -254 -45 q-114 0 -198.5 40t-131.5 112l-18 -119h-346l16 109q-112 -142 -323 -142q-90 0 -162 30t-118 82.5t-76 123t-34 150.5zM463 483q-9 -73 21 -122t94 -50q84 0 149 76l35 213q-9 30 -38.5 49t-68.5 19q-76 0 -127.5 -53t-64.5 -132zM1212 592h269q15 54 -11.5 96.5 t-91.5 42.5q-72 0 -115 -41.5t-51 -97.5z" />
<glyph unicode="&#xe7;" horiz-adv-x="1003" d="M27 498q14 108 60 197t110 148t145 99t164 58t168 18q176 0 313 -70l-53 -334q-88 48 -201 48q-63 0 -117.5 -16t-97 -57.5t-51.5 -103.5q-11 -80 41.5 -119.5t146.5 -39.5q137 0 252 53l-57 -361q-117 -38 -229 -47l-29 -61q88 -6 135.5 -61t34.5 -140 q-9 -54 -42.5 -93.5t-83 -60.5t-101.5 -30.5t-109 -9.5q-152 0 -260 43l35 227q70 -39 166 -39q112 0 120 49q4 23 -23 36t-67.5 13t-83.5 -6l64 148q-89 19 -159 61t-118.5 104.5t-68 151.5t-4.5 195z" />
<glyph unicode="&#xe8;" horiz-adv-x="1118" d="M31 528q15 102 59 186t103.5 139t132.5 92.5t144.5 54t141.5 16.5q125 0 219 -38.5t145.5 -101.5t75 -144.5t17 -168t-38.5 -170.5h-610q16 -64 86.5 -94.5t171.5 -30.5q175 0 305 49l-47 -301q-146 -49 -354 -49q-92 0 -177 20t-161.5 64t-129 108t-76.5 159.5t-7 209.5 zM283 1425h424l147 -335h-375zM442 592h269q15 54 -11.5 96.5t-91.5 42.5q-68 0 -113 -42t-53 -97z" />
<glyph unicode="&#xe9;" horiz-adv-x="1118" d="M31 528q15 102 59 186t103.5 139t132.5 92.5t144.5 54t141.5 16.5q125 0 219 -38.5t145.5 -101.5t75 -144.5t17 -168t-38.5 -170.5h-610q16 -64 86.5 -94.5t171.5 -30.5q175 0 305 49l-47 -301q-146 -49 -354 -49q-92 0 -177 20t-161.5 64t-129 108t-76.5 159.5t-7 209.5 zM389 1090l254 335h444l-301 -335h-397zM442 592h269q15 54 -11.5 96.5t-91.5 42.5q-68 0 -113 -42t-53 -97z" />
<glyph unicode="&#xea;" horiz-adv-x="1118" d="M31 528q15 102 59 186t103.5 139t132.5 92.5t144.5 54t141.5 16.5q125 0 219 -38.5t145.5 -101.5t75 -144.5t17 -168t-38.5 -170.5h-610q16 -64 86.5 -94.5t171.5 -30.5q175 0 305 49l-47 -301q-146 -49 -354 -49q-92 0 -177 20t-161.5 64t-129 108t-76.5 159.5t-7 209.5 zM172 1079l317 351h379l207 -351h-344l-72 123l-112 -123h-375zM442 592h269q15 54 -11.5 96.5t-91.5 42.5q-68 0 -113 -42t-53 -97z" />
<glyph unicode="&#xeb;" horiz-adv-x="1118" d="M31 528q15 102 59 186t103.5 139t132.5 92.5t144.5 54t141.5 16.5q125 0 219 -38.5t145.5 -101.5t75 -144.5t17 -168t-38.5 -170.5h-610q16 -64 86.5 -94.5t171.5 -30.5q175 0 305 49l-47 -301q-146 -49 -354 -49q-92 0 -177 20t-161.5 64t-129 108t-76.5 159.5t-7 209.5 zM223 1268q9 83 68.5 134.5t140.5 51.5q88 0 140.5 -57.5t43.5 -149.5q-9 -84 -68 -135t-140 -51q-88 0 -141 57.5t-44 149.5zM442 592h269q15 54 -11.5 96.5t-91.5 42.5q-68 0 -113 -42t-53 -97zM694 1268q9 83 68.5 134.5t140.5 51.5q88 0 140.5 -57.5t43.5 -149.5 q-9 -84 -68 -135t-140 -51q-88 0 -141 57.5t-44 149.5z" />
<glyph unicode="&#xec;" horiz-adv-x="600" d="M-10 0l155 983h433l-156 -983h-432zM74 1425h434l76 -335h-387z" />
<glyph unicode="&#xed;" horiz-adv-x="600" d="M-10 0l155 983h433l-156 -983h-432zM137 1090l254 335h445l-301 -335h-398z" />
<glyph unicode="&#xee;" horiz-adv-x="600" d="M-35 1079l277 351h379l165 -351h-350l-35 123l-75 -123h-361zM-10 0l155 983h433l-156 -983h-432z" />
<glyph unicode="&#xef;" horiz-adv-x="600" d="M-10 0l155 983h433l-156 -983h-432zM0 1266q9 80 65 129t134 49q83 0 133 -54.5t41 -142.5q-9 -80 -65 -128t-134 -48q-83 0 -133 53.5t-41 141.5zM430 1266q9 80 65 129t134 49q83 0 133 -54.5t41 -142.5q-9 -80 -65 -128t-134 -48q-83 0 -133 53.5t-41 141.5z" />
<glyph unicode="&#xf0;" horiz-adv-x="1171" d="M18 469q13 101 57 180.5t107 127.5t136.5 72.5t152.5 24.5q88 0 163 -32t120 -92q8 46 2 98q-9 138 -119 215l-164 -145l-123 141l103 82q-70 19 -181 16l31 332q243 0 432 -92l162 139l123 -139l-121 -105q139 -128 196.5 -311.5t20.5 -415.5q-22 -133 -66 -236.5 t-101 -171t-131.5 -111t-152 -61.5t-165.5 -18q-105 0 -198 33t-163 94t-103.5 158.5t-17.5 216.5zM416 432q-7 -68 23 -104.5t89 -36.5q61 0 101 36.5t49 104.5q6 68 -24 104.5t-91 36.5t-100.5 -36.5t-46.5 -104.5z" />
<glyph unicode="&#xf1;" d="M-12 0l155 983h379l-14 -92q148 125 323 125q92 0 160.5 -34t105 -90.5t49.5 -125t1 -141.5l-98 -625h-433l91 569q7 42 -12 63t-56 21q-58 0 -125 -53l-94 -600h-432zM246 1075q-20 159 55 263t205 104q58 0 116 -20.5t104 -41t73 -20.5q28 0 42 22.5t9 47.5h276 q20 -159 -55.5 -263t-206.5 -104q-57 0 -115 20.5t-104 41t-74 20.5t-42 -22.5t-9 -47.5h-274z" />
<glyph unicode="&#xf2;" d="M31 524q19 124 75.5 219.5t140 154.5t186.5 88.5t222 29.5q113 0 211 -36t170.5 -103.5t105 -175.5t11.5 -242q-20 -124 -78.5 -220t-143.5 -154.5t-187.5 -88t-217.5 -29.5q-116 0 -214.5 36t-169.5 103.5t-101.5 175.5t-9.5 242zM317 1417h424l148 -336h-375zM444 481 q-8 -68 20.5 -110.5t96.5 -42.5q74 0 120.5 47.5t55.5 126.5q8 68 -20 110.5t-96 42.5q-74 0 -121 -47.5t-56 -126.5z" />
<glyph unicode="&#xf3;" d="M31 524q19 124 75.5 219.5t140 154.5t186.5 88.5t222 29.5q113 0 211 -36t170.5 -103.5t105 -175.5t11.5 -242q-20 -124 -78.5 -220t-143.5 -154.5t-187.5 -88t-217.5 -29.5q-116 0 -214.5 36t-169.5 103.5t-101.5 175.5t-9.5 242zM424 1081l254 336h444l-301 -336h-397z M444 481q-8 -68 20.5 -110.5t96.5 -42.5q74 0 120.5 47.5t55.5 126.5q8 68 -20 110.5t-96 42.5q-74 0 -121 -47.5t-56 -126.5z" />
<glyph unicode="&#xf4;" d="M31 524q19 124 75.5 219.5t140 154.5t186.5 88.5t222 29.5q113 0 211 -36t170.5 -103.5t105 -175.5t11.5 -242q-20 -124 -78.5 -220t-143.5 -154.5t-187.5 -88t-217.5 -29.5q-116 0 -214.5 36t-169.5 103.5t-101.5 175.5t-9.5 242zM207 1071l317 350h379l207 -350h-344 l-72 123l-112 -123h-375zM444 481q-8 -68 20.5 -110.5t96.5 -42.5q74 0 120.5 47.5t55.5 126.5q8 68 -20 110.5t-96 42.5q-74 0 -121 -47.5t-56 -126.5z" />
<glyph unicode="&#xf5;" d="M31 524q19 124 75.5 219.5t140 154.5t186.5 88.5t222 29.5q113 0 211 -36t170.5 -103.5t105 -175.5t11.5 -242q-20 -124 -78.5 -220t-143.5 -154.5t-187.5 -88t-217.5 -29.5q-116 0 -214.5 36t-169.5 103.5t-101.5 175.5t-9.5 242zM240 1067q-20 159 55 263t205 104 q58 0 116 -20.5t104 -41t73 -20.5q28 0 42 22t9 47h276q20 -159 -55.5 -262.5t-206.5 -103.5q-57 0 -115 20.5t-104 41t-74 20.5t-42 -22.5t-9 -47.5h-274zM444 481q-8 -68 20.5 -110.5t96.5 -42.5q74 0 120.5 47.5t55.5 126.5q8 68 -20 110.5t-96 42.5q-74 0 -121 -47.5 t-56 -126.5z" />
<glyph unicode="&#xf6;" d="M31 524q19 124 75.5 219.5t140 154.5t186.5 88.5t222 29.5q113 0 211 -36t170.5 -103.5t105 -175.5t11.5 -242q-20 -124 -78.5 -220t-143.5 -154.5t-187.5 -88t-217.5 -29.5q-116 0 -214.5 36t-169.5 103.5t-101.5 175.5t-9.5 242zM258 1260q9 83 68.5 134.5t140.5 51.5 q88 0 140.5 -57.5t43.5 -149.5q-9 -84 -68 -135t-141 -51q-88 0 -140.5 57.5t-43.5 149.5zM444 481q-8 -68 20.5 -110.5t96.5 -42.5q74 0 120.5 47.5t55.5 126.5q8 68 -20 110.5t-96 42.5q-74 0 -121 -47.5t-56 -126.5zM729 1260q9 83 68.5 134.5t140.5 51.5 q88 0 140.5 -57.5t43.5 -149.5q-9 -84 -68 -135t-141 -51q-88 0 -140.5 57.5t-43.5 149.5z" />
<glyph unicode="&#xf7;" horiz-adv-x="1142" d="M49 551l53 334h1031l-54 -334h-1030zM281 266q16 100 85.5 150.5t163.5 50.5q111 0 175 -67.5t45 -190.5q-16 -102 -86 -152.5t-166 -50.5q-110 0 -174 68t-43 192zM434 1229q16 101 85.5 151t164.5 50q111 0 174.5 -68t44.5 -191q-16 -102 -86 -152t-166 -50 q-110 0 -174 68t-43 192z" />
<glyph unicode="&#xf8;" d="M31 524q19 124 75.5 219.5t140 154.5t186.5 88.5t222 29.5q145 0 258 -55l121 151h105l-154 -192q100 -73 146.5 -189.5t21.5 -271.5q-20 -124 -78.5 -220t-143.5 -154.5t-187.5 -88t-217.5 -29.5q-145 0 -256 51l-118 -149h-107l154 192q-101 71 -147 188.5t-21 274.5z M442 481q-7 -59 15 -96l209 264q-42 6 -48 6q-72 0 -118.5 -47.5t-57.5 -126.5zM520 334q18 -6 41 -6q74 0 119.5 47t54.5 127q10 49 -10 90z" />
<glyph unicode="&#xf9;" d="M35 365l98 618h432l-90 -563q-15 -92 70 -92q72 0 123 55l94 600h432l-156 -983h-381l17 92q-122 -125 -301 -125q-120 0 -204 56t-117.5 145.5t-16.5 196.5zM326 1425h424l147 -335h-375z" />
<glyph unicode="&#xfa;" d="M35 365l98 618h432l-90 -563q-15 -92 70 -92q72 0 123 55l94 600h432l-156 -983h-381l17 92q-122 -125 -301 -125q-120 0 -204 56t-117.5 145.5t-16.5 196.5zM432 1090l254 335h444l-301 -335h-397z" />
<glyph unicode="&#xfb;" d="M35 365l98 618h432l-90 -563q-15 -92 70 -92q72 0 123 55l94 600h432l-156 -983h-381l17 92q-122 -125 -301 -125q-120 0 -204 56t-117.5 145.5t-16.5 196.5zM215 1079l317 351h379l207 -351h-344l-72 123l-112 -123h-375z" />
<glyph unicode="&#xfc;" d="M35 365l98 618h432l-90 -563q-15 -92 70 -92q72 0 123 55l94 600h432l-156 -983h-381l17 92q-122 -125 -301 -125q-120 0 -204 56t-117.5 145.5t-16.5 196.5zM266 1268q9 83 68.5 134.5t140.5 51.5q88 0 140.5 -57.5t43.5 -149.5q-9 -84 -68 -135t-140 -51 q-88 0 -141 57.5t-44 149.5zM737 1268q9 83 68.5 134.5t140.5 51.5q88 0 140.5 -57.5t43.5 -149.5q-9 -84 -68 -135t-140 -51q-88 0 -141 57.5t-44 149.5z" />
<glyph unicode="&#xfd;" horiz-adv-x="1234" d="M-57 -440l55 344q62 -23 127 -23q139 0 221 144l-293 958h436l121 -532l211 532h469l-538 -1053q-61 -119 -131.5 -202t-145 -127t-146 -63t-151.5 -19q-126 0 -235 41zM432 1090l254 335h444l-301 -335h-397z" />
<glyph unicode="&#xfe;" horiz-adv-x="1280" d="M-84 -451l301 1885h430l-82 -512q121 94 266 94q144 0 240.5 -79.5t131 -204t11.5 -269.5q-16 -100 -54 -186.5t-98.5 -157t-151.5 -111.5t-201 -41q-89 0 -161 33t-116 82l-84 -533h-432zM479 377q28 -64 109 -64q74 0 125 53.5t65 131.5q10 68 -17.5 120t-96.5 52 q-87 0 -150 -78z" />
<glyph unicode="&#xff;" horiz-adv-x="1234" d="M-57 -440l55 344q62 -23 127 -23q139 0 221 144l-293 958h436l121 -532l211 532h469l-538 -1053q-61 -119 -131.5 -202t-145 -127t-146 -63t-151.5 -19q-126 0 -235 41zM266 1268q9 83 68.5 134.5t140.5 51.5q88 0 140.5 -57.5t43.5 -149.5q-9 -84 -68 -135t-140 -51 q-88 0 -141 57.5t-44 149.5zM737 1268q9 83 68.5 134.5t140.5 51.5q88 0 140.5 -57.5t43.5 -149.5q-9 -84 -68 -135t-140 -51q-88 0 -141 57.5t-44 149.5z" />
<glyph unicode="&#x152;" horiz-adv-x="2099" d="M72 745q24 150 91 280t170 229t248.5 155.5t315.5 56.5q130 0 242 -32h1013l-59 -373h-539l-24 -166h465l-56 -348h-464l-27 -170h549l-60 -377h-1007q-103 -33 -232 -33q-172 0 -305 61.5t-210.5 167.5t-107 247.5t-3.5 301.5zM549 705q-22 -145 48.5 -229.5 t178.5 -84.5q121 0 211 53l90 562q-63 36 -162 36q-60 0 -117.5 -19t-109.5 -58t-89 -106t-50 -154z" />
<glyph unicode="&#x153;" horiz-adv-x="1847" d="M29 326q-16 89 2 200q16 100 55.5 181.5t96 138.5t129.5 96t153.5 57.5t169.5 18.5q221 0 342 -139q152 137 379 137q112 1 200.5 -33t141.5 -94t79.5 -139t21 -170.5t-41.5 -186.5h-610q16 -64 86.5 -94.5t171.5 -30.5q175 0 305 49l-47 -301q-146 -49 -352 -49 q-124 0 -230 38t-176 112q-153 -150 -409 -150q-86 0 -163.5 22.5t-140.5 68t-105 112.5t-58 156zM446 481q-8 -62 18.5 -107.5t92.5 -45.5q83 0 128.5 48.5t53.5 129.5q7 62 -19 105.5t-91 43.5q-83 0 -129 -47.5t-54 -126.5zM1171 594h269q15 54 -11.5 96.5t-91.5 42.5 q-68 0 -113 -42t-53 -97z" />
<glyph unicode="&#x178;" horiz-adv-x="1540" d="M123 1434h504l168 -547l335 547h553l-696 -945l-80 -489h-469l80 489zM494 1718q9 83 68 135t140 52q88 0 141 -57.5t44 -149.5q-9 -84 -68.5 -135.5t-140.5 -51.5q-88 0 -140.5 57.5t-43.5 149.5zM965 1718q9 83 68.5 135t140.5 52q88 0 140.5 -57.5t43.5 -149.5 q-9 -84 -68.5 -135.5t-140.5 -51.5q-88 0 -140.5 57.5t-43.5 149.5z" />
<glyph unicode="&#x2c6;" horiz-adv-x="856" d="M172 1530l317 350h379l207 -350h-344l-72 123l-112 -123h-375z" />
<glyph unicode="&#x2dc;" horiz-adv-x="860" d="M215 1526q-20 158 55 262t205 104q58 0 116 -20.5t104 -41t73 -20.5q28 0 42 22.5t9 47.5h277q20 -159 -55.5 -263t-206.5 -104q-57 0 -115 20.5t-104 41t-74 20.5t-42.5 -22t-9.5 -47h-274z" />
<glyph unicode="&#x2000;" horiz-adv-x="1016" />
<glyph unicode="&#x2001;" horiz-adv-x="2032" />
<glyph unicode="&#x2002;" horiz-adv-x="1016" />
<glyph unicode="&#x2003;" horiz-adv-x="2032" />
<glyph unicode="&#x2004;" horiz-adv-x="677" />
<glyph unicode="&#x2005;" horiz-adv-x="508" />
<glyph unicode="&#x2006;" horiz-adv-x="338" />
<glyph unicode="&#x2007;" horiz-adv-x="338" />
<glyph unicode="&#x2008;" horiz-adv-x="254" />
<glyph unicode="&#x2009;" horiz-adv-x="406" />
<glyph unicode="&#x200a;" horiz-adv-x="112" />
<glyph unicode="&#x2010;" horiz-adv-x="978" d="M47 326l53 333h799l-53 -333h-799z" />
<glyph unicode="&#x2011;" horiz-adv-x="978" d="M47 326l53 333h799l-53 -333h-799z" />
<glyph unicode="&#x2012;" horiz-adv-x="978" d="M47 326l53 333h799l-53 -333h-799z" />
<glyph unicode="&#x2013;" horiz-adv-x="1193" d="M47 326l53 333h1014l-53 -333h-1014z" />
<glyph unicode="&#x2014;" horiz-adv-x="1615" d="M47 326l53 333h1436l-53 -333h-1436z" />
<glyph unicode="&#x2018;" horiz-adv-x="618" d="M57 805l336 629h330l-246 -629h-420z" />
<glyph unicode="&#x2019;" horiz-adv-x="610" d="M76 805l246 629h419l-338 -629h-327z" />
<glyph unicode="&#x201a;" horiz-adv-x="595" d="M-160 -293l244 629h420l-336 -629h-328z" />
<glyph unicode="&#x201c;" horiz-adv-x="1103" d="M57 805l336 629h330l-246 -629h-420zM543 805l336 629h329l-245 -629h-420z" />
<glyph unicode="&#x201d;" horiz-adv-x="1093" d="M76 805l246 629h419l-338 -629h-327zM559 805l246 629h420l-338 -629h-328z" />
<glyph unicode="&#x201e;" horiz-adv-x="1077" d="M-160 -293l244 629h420l-336 -629h-328zM324 -293l245 629h420l-338 -629h-327z" />
<glyph unicode="&#x2022;" horiz-adv-x="894" d="M121 745q18 105 76.5 176t135 100.5t167.5 29.5q75 0 137 -22.5t106 -65.5t62 -114t4 -161q-17 -106 -74 -177.5t-133.5 -101.5t-169.5 -30q-74 0 -135.5 22.5t-106.5 66t-64 115t-5 162.5z" />
<glyph unicode="&#x2026;" horiz-adv-x="1810" d="M-6 227q16 101 85.5 152t164.5 51q110 0 174 -68.5t45 -191.5q-16 -102 -86 -152.5t-166 -50.5q-110 0 -174 68t-43 192zM610 227q16 101 85.5 152t164.5 51q110 0 174 -68.5t45 -191.5q-16 -102 -86 -152.5t-166 -50.5q-110 0 -174 68t-43 192zM1227 227 q16 101 85.5 152t164.5 51q110 0 174 -68.5t45 -191.5q-16 -102 -86 -152.5t-166 -50.5q-110 0 -174 68t-43 192z" />
<glyph unicode="&#x202f;" horiz-adv-x="406" />
<glyph unicode="&#x2039;" horiz-adv-x="806" d="M31 455l12 84l332 379h438l-371 -426l228 -426h-424z" />
<glyph unicode="&#x203a;" horiz-adv-x="806" d="M-39 66l373 426l-230 426h424l215 -390l-12 -84l-330 -378h-440z" />
<glyph unicode="&#x205f;" horiz-adv-x="508" />
<glyph unicode="&#x20ac;" horiz-adv-x="1478" d="M39 479l29 183h137q0 33 8 69h-135l28 182h158q51 132 140 233t198.5 160.5t227 89t239.5 29.5q233 0 428 -92l-63 -389q-58 39 -142 61.5t-172 22.5q-205 0 -323 -115h389l-29 -182h-459q-10 -31 -10 -69h459l-29 -183h-385q77 -108 254 -108q208 0 371 98l-66 -422 q-178 -80 -401 -80q-100 0 -193 19.5t-176 60.5t-148 100.5t-109 144.5t-58 187h-168z" />
<glyph unicode="&#x2122;" horiz-adv-x="1458" d="M160 1225l33 209h505l-32 -209h-136l-53 -330h-235l53 330h-135zM659 895l86 539h226l100 -230l166 230h250l-86 -539h-232l37 225l-88 -123h-135l-55 129l-37 -231h-232z" />
<glyph unicode="&#x25fc;" horiz-adv-x="983" d="M0 0v983h983v-983h-983z" />
<glyph unicode="&#xfb01;" horiz-adv-x="1378" d="M55 639l56 344h139l10 70q19 114 73.5 200t136 136.5t176.5 75t204 24.5q210 0 399 -72l-53 -327q-143 51 -278 51q-102 0 -162.5 -39t-71.5 -107l-4 -12h676l-156 -983h-432l102 639h-243l-103 -639h-430l101 639h-140z" />
<glyph unicode="&#xfb02;" horiz-adv-x="1423" d="M55 639l56 344h139l12 78q17 107 68 190.5t124 134.5t160 77t183 26q166 0 317 -53l365 39l-234 -1475h-432l178 1120q-68 20 -119 17q-73 0 -124.5 -35t-63.5 -103l-4 -16h184l-55 -344h-182l-103 -639h-430l101 639h-140z" />
<glyph unicode="&#xfb03;" horiz-adv-x="2111" d="M55 639l56 344h139l10 61q13 82 47.5 149.5t85 114.5t115.5 79.5t137.5 47.5t151.5 15q194 0 340 -80q161 137 430 137q216 0 399 -71l-53 -328q-143 51 -277 51q-103 0 -163.5 -38.5t-71.5 -108.5l-6 -29h694l-156 -983h-432l103 639h-263l-102 -639h-430l100 639h-282 l-103 -639h-430l101 639h-140zM680 983h285l8 57q1 15 12 62q-53 22 -131 22q-73 0 -118 -34.5t-54 -90.5z" />
<glyph unicode="&#xfb04;" horiz-adv-x="2140" d="M55 639l56 344h139l10 61q16 102 65 181t121 127.5t158.5 73t183.5 24.5q195 0 351 -80q144 127 374 127q169 0 320 -53l362 39l-235 -1483h-432l178 1130q-65 20 -113 17q-76 0 -130 -36.5t-64 -102.5l-4 -25h184l-55 -344h-183l-102 -639h-430l100 639h-282l-103 -639 h-430l101 639h-140zM680 983h285l8 57q3 25 12 62q-50 22 -131 22q-73 0 -118 -34.5t-54 -90.5z" />
</font>
</defs>
</svg>
