<?xml version="1.0" standalone="no"?>
<!DOCTYPE svg PUBLIC "-//W3C//DTD SVG 1.1//EN" "http://www.w3.org/Graphics/SVG/1.1/DTD/svg11.dtd" >
<svg xmlns="http://www.w3.org/2000/svg">
<metadata></metadata>
<defs>
<font id="mullerthin" horiz-adv-x="1691" >
<font-face units-per-em="2048" ascent="1597" descent="-451" />
<missing-glyph horiz-adv-x="546" />
<glyph horiz-adv-x="0" />
<glyph horiz-adv-x="682" />
<glyph unicode=" "  horiz-adv-x="546" />
<glyph unicode="&#x09;" horiz-adv-x="546" />
<glyph unicode="&#xa0;" horiz-adv-x="546" />
<glyph unicode="!" horiz-adv-x="397" d="M154 33q0 20 13 32.5t32 12.5q20 0 32.5 -12.5t12.5 -32.5t-12.5 -32.5t-32.5 -12.5q-19 0 -32 12.5t-13 32.5zM174 1434h51l-4 -1088h-45z" />
<glyph unicode="&#x22;" horiz-adv-x="507" d="M141 1163v271h52l-15 -271h-37zM326 1163v271h51l-15 -271h-36z" />
<glyph unicode="#" horiz-adv-x="1325" d="M84 389v45h207l127 527h-232v45h242l92 389h49l-90 -389h512l92 389h52l-93 -389h197v-45h-207l-125 -527h230v-45h-240l-92 -389h-51l92 389h-514l-92 -389h-50l91 389h-197zM342 434h514l125 527h-514z" />
<glyph unicode="$" horiz-adv-x="1163" d="M115 98v52q103 -58 231.5 -89.5t253.5 -31.5q90 0 163.5 15.5t133.5 49t93.5 92.5t33.5 138q0 76 -31 134t-83 94.5t-120 64.5t-143 49t-149.5 42.5t-142.5 50.5t-120 67.5t-83 99.5t-31 141q0 85 36.5 152t99.5 107.5t141 62.5t167 24v246h45v-246q103 -3 203 -28 t176 -68v-51q-82 46 -192 72.5t-211 25.5q-85 0 -157.5 -17t-131 -52t-92 -93.5t-33.5 -134.5q0 -92 50 -156t129.5 -99.5t175.5 -63t192.5 -57.5t176 -71t129.5 -115t50 -179q0 -91 -37 -159t-102 -108t-146.5 -59.5t-177.5 -19.5v-246h-45v246q-259 10 -452 118z" />
<glyph unicode="%" horiz-adv-x="1785" d="M74 1161q0 93 44 161.5t111 100t148 31.5q126 0 213.5 -77t87.5 -216t-87.5 -216t-213.5 -77q-81 0 -148 31.5t-111 100t-44 161.5zM121 1161q0 -116 73.5 -182t182.5 -66q108 0 181 66t73 182t-73 182t-181 66q-109 0 -182.5 -66t-73.5 -182zM449 -123l837 1679h51 l-837 -1679h-51zM1108 272q0 139 88 216t215 77q125 0 213 -77t88 -216t-88 -215.5t-213 -76.5q-127 0 -215 76.5t-88 215.5zM1155 272q0 -116 73.5 -181.5t182.5 -65.5q108 0 181 66t73 181q0 116 -73 182t-181 66q-109 0 -182.5 -66t-73.5 -182z" />
<glyph unicode="&#x26;" horiz-adv-x="1394" d="M115 330q0 58 19.5 111.5t50 96t77 84t91.5 72.5t102 64q-207 199 -207 360q0 138 110.5 237t294.5 99q154 0 250 -76.5t96 -199.5q0 -36 -12.5 -70t-30 -61.5t-51 -58.5t-60.5 -52t-74.5 -50t-77 -45.5t-83.5 -46.5t-80 -44q22 -22 54 -50l491 -440q127 171 127 381h51 q0 -110 -36.5 -217.5t-106.5 -196.5l256 -227h-61l-222 197q-91 -102 -220.5 -159.5t-293.5 -57.5q-211 0 -332.5 99.5t-121.5 250.5zM166 332q0 -132 108 -218.5t297 -86.5q151 0 272 53.5t204 146.5l-504 449l-56 49q-70 -42 -121 -79.5t-100 -86.5t-74.5 -106.5 t-25.5 -120.5zM297 1116q0 -143 199 -334q28 16 77 42.5t80 44t75 43.5t72 46.5t59.5 48t49 52.5t29.5 55.5t12 61.5q0 103 -82.5 167t-214.5 64q-164 0 -260 -86t-96 -205z" />
<glyph unicode="'" horiz-adv-x="323" d="M141 1163v271h52l-15 -271h-37z" />
<glyph unicode="(" horiz-adv-x="503" d="M104 717q0 243 82.5 491t223.5 447h51q-140 -196 -221.5 -445.5t-81.5 -492.5t81.5 -492.5t221.5 -445.5h-51q-141 199 -223.5 447t-82.5 491z" />
<glyph unicode=")" horiz-adv-x="503" d="M43 -221q141 195 222 444.5t81 493.5t-81 493.5t-222 444.5h51q141 -199 223 -447t82 -491q0 -242 -82.5 -491t-222.5 -447h-51z" />
<glyph unicode="*" horiz-adv-x="870" d="M123 1208l16 45l277 -98l-4 279h47l-4 -279l276 98l17 -45l-279 -90l178 -235l-39 -27l-172 242l-174 -242l-39 27l178 235z" />
<glyph unicode="+" horiz-adv-x="1099" d="M115 692v49h411v412h47v-412h412v-49h-412v-411h-47v411h-411z" />
<glyph unicode="," horiz-adv-x="348" d="M66 -291l102 438h51l-110 -438h-43z" />
<glyph unicode="-" horiz-adv-x="993" d="M145 473v47h703v-47h-703z" />
<glyph unicode="." horiz-adv-x="346" d="M127 33q0 20 14 32.5t33 12.5t32 -12.5t13 -32.5t-13 -32.5t-32 -12.5t-33 12.5t-14 32.5z" />
<glyph unicode="/" horiz-adv-x="821" d="M86 -117l608 1667h41l-608 -1667h-41z" />
<glyph unicode="0" horiz-adv-x="1437" d="M121 696q0 159 37.5 289.5t110 226.5t187.5 148.5t263 52.5t263 -52.5t187.5 -148.5t110 -226.5t37.5 -289.5t-37.5 -289t-110 -226t-187.5 -148.5t-263 -52.5t-263 52.5t-187.5 148.5t-110 226t-37.5 289zM172 696q0 -151 33.5 -272t100 -210t171.5 -137t242 -48t242 48 t171.5 137t100 210t33.5 272q0 202 -58.5 350t-183 233t-305.5 85t-305.5 -85t-183 -233t-58.5 -350z" />
<glyph unicode="1" horiz-adv-x="821" d="M113 0v49h321v1286l-321 -121v50l338 129h32v-1344h293v-49h-663z" />
<glyph unicode="2" horiz-adv-x="1142" d="M100 0v33q0 68 14.5 129t35 107.5t59 92.5t70 76t86 67.5t89 58.5t95.5 56q6 3 9 5t8 5t9 5q166 98 229 149q144 117 156 262q1 14 1 29q0 133 -109 212t-287 79q-217 0 -413 -129v51q183 125 415 125q198 0 320.5 -91t122.5 -247q0 -50 -12.5 -96t-30.5 -82t-52.5 -74 t-62.5 -63t-78 -59t-81 -52.5t-89 -52.5q-165 -96 -219 -135q-159 -116 -207 -259q-23 -70 -24 -153h874v-49h-928z" />
<glyph unicode="3" horiz-adv-x="1202" d="M131 70v49q202 -92 483 -92q189 0 304.5 89.5t115.5 250.5q0 86 -34 150.5t-94 103t-135 57t-165 18.5h-200v49h196q95 0 169 25t117 68t65 95t22 111q0 136 -106.5 229t-290.5 93q-218 0 -422 -92v49q188 90 428 90q201 0 320.5 -105.5t119.5 -260.5q0 -115 -71 -205.5 t-208 -116.5q149 -25 243.5 -114.5t94.5 -243.5q0 -183 -129.5 -285t-337.5 -102q-300 0 -485 90z" />
<glyph unicode="4" horiz-adv-x="1302" d="M57 348v45l822 1000h55v-996h299v-49h-299v-348h-51v348h-826zM125 397h758v924z" />
<glyph unicode="5" horiz-adv-x="1173" d="M129 74v49q194 -96 440 -96q209 0 329 99t120 265q0 93 -37.5 163.5t-104 112.5t-149 62.5t-180.5 20.5q-192 0 -383 -68l45 711h788v-50h-741l-39 -600q171 54 342 54q104 0 193.5 -23.5t161.5 -70.5t113.5 -127t41.5 -185q0 -185 -134 -298t-362 -113q-258 0 -444 94z " />
<glyph unicode="6" horiz-adv-x="1234" d="M123 653q0 199 43.5 347t125 237.5t191 132.5t248.5 43q161 0 293 -74v-49q-130 74 -293 74q-102 0 -186 -24.5t-153.5 -78.5t-117 -136t-74 -202t-26.5 -272v-47q104 112 236.5 174t273.5 62q90 0 171 -26.5t145.5 -77.5t102.5 -134t38 -188q0 -134 -63.5 -234 t-168.5 -150t-235 -50q-269 0 -410 179t-141 494zM178 547q22 -248 148 -384t344 -136q184 0 302 101.5t118 283.5q0 96 -34 170t-92 119t-131 67.5t-157 22.5q-139 0 -271 -64.5t-227 -179.5z" />
<glyph unicode="7" horiz-adv-x="1052" d="M78 1343v50h938v-41l-660 -1352h-53l653 1343h-878z" />
<glyph unicode="8" horiz-adv-x="1312" d="M119 371q0 131 73.5 238.5t208.5 168.5q-110 48 -170.5 120t-60.5 181q0 65 29 123.5t85.5 106.5t152 76t218.5 28q114 0 209 -31t155 -82t92.5 -113t33.5 -128q0 -127 -64.5 -228.5t-179.5 -162.5q139 -51 217 -129.5t78 -204.5q0 -69 -34 -131.5t-98 -112.5t-169 -80 t-236 -30q-260 0 -400 110.5t-140 280.5zM168 375q0 -155 125.5 -251.5t363.5 -96.5q230 0 358 89t128 216q0 47 -13 87t-36 70.5t-57 56t-71.5 44t-85.5 36t-93.5 30.5t-99.5 28q-20 5 -30 8q-155 43 -211 66q-131 -54 -204.5 -156.5t-73.5 -226.5zM219 1079 q0 -63 29 -114.5t59 -81t102 -61t102.5 -41t114.5 -32.5q18 -6 27 -8q143 -39 199 -55q113 57 177.5 152.5t64.5 214.5q0 58 -29 113t-82.5 100t-139.5 72.5t-190 27.5q-211 0 -322.5 -83.5t-111.5 -203.5z" />
<glyph unicode="9" horiz-adv-x="1234" d="M94 979q0 134 63 234t168 150t236 50q269 0 410 -179.5t141 -494.5q0 -199 -43.5 -347t-125 -237t-191 -132t-248.5 -43q-165 0 -295 73v49q128 -73 293 -73q129 0 229 39.5t175 122.5t115 222t40 328v47q-104 -111 -237 -173t-273 -62q-90 0 -171 26.5t-145.5 77.5 t-102.5 134t-38 188zM145 981q0 -96 33.5 -170t91.5 -119t131.5 -67.5t157.5 -22.5q139 0 271 64.5t227 179.5q-22 248 -148.5 384t-345.5 136q-182 0 -300 -102t-118 -283z" />
<glyph unicode=":" horiz-adv-x="382" d="M145 33q0 20 13.5 32.5t31.5 12.5q21 0 34.5 -12.5t13.5 -32.5t-13.5 -32.5t-34.5 -12.5q-18 0 -31.5 12.5t-13.5 32.5zM145 831q0 20 13.5 33t31.5 13q20 0 34 -13t14 -33t-13.5 -32.5t-34.5 -12.5q-18 0 -31.5 12.5t-13.5 32.5z" />
<glyph unicode=";" horiz-adv-x="542" d="M164 -291l102 438h51l-110 -438h-43zM223 920q0 20 13.5 32.5t31.5 12.5q20 0 33.5 -12.5t13.5 -32.5t-13.5 -33t-33.5 -13q-18 0 -31.5 13t-13.5 33z" />
<glyph unicode="&#x3c;" horiz-adv-x="991" d="M98 690v53l729 330v-51l-677 -305l677 -305v-52z" />
<glyph unicode="=" horiz-adv-x="1099" d="M152 508v47h796v-47h-796zM152 879v47h796v-47h-796z" />
<glyph unicode="&#x3e;" horiz-adv-x="991" d="M164 360v52l678 305l-678 305v51l729 -330v-53z" />
<glyph unicode="?" horiz-adv-x="999" d="M80 1290v49q174 115 393 115q199 0 318.5 -88t119.5 -240q0 -70 -30.5 -141t-75.5 -127.5t-98.5 -118.5t-98.5 -115t-75.5 -117t-30.5 -124h-49q0 76 42 154t101.5 145.5t119.5 135.5t102 148t42 158q0 131 -105 206t-286 75q-204 0 -389 -115zM430 33q0 20 14 32.5 t33 12.5t32 -12.5t13 -32.5t-13 -32.5t-32 -12.5t-33 12.5t-14 32.5z" />
<glyph unicode="@" horiz-adv-x="2166" d="M106 492q0 149 41 289.5t124.5 262.5t200.5 213.5t278 144t348 52.5q151 0 286 -38t237.5 -103.5t185 -152.5t135 -185.5t80.5 -201.5t28 -202q0 -268 -100 -409.5t-262 -141.5q-126 0 -199.5 68.5t-79.5 200.5q-51 -100 -146 -160.5t-214 -60.5q-173 0 -286.5 115 t-113.5 304t113.5 304.5t286.5 115.5q120 0 214 -61t142 -158v201h47v-586q0 -112 61.5 -174.5t176.5 -62.5q140 0 224.5 131t84.5 374q0 114 -37 230.5t-113 225t-181 193t-253 135t-317 50.5q-176 0 -329 -49.5t-263.5 -136t-190 -202t-118.5 -249t-39 -276.5 q0 -171 52 -319.5t144 -256t216 -185t269 -115.5t302 -38q254 0 456 74v-49q-202 -74 -458 -74q-163 0 -315 40t-282.5 121t-227.5 194.5t-152.5 269.5t-55.5 338zM698 487q0 -170 100 -271t253 -101q126 0 221.5 72.5t130.5 181.5v237q-35 109 -130.5 181.5t-221.5 72.5 q-153 0 -253 -101.5t-100 -271.5z" />
<glyph unicode="A" horiz-adv-x="1441" d="M33 0l659 1434h60l657 -1434h-55l-203 440h-860l-203 -440h-55zM313 489h820l-396 863q-6 12 -14 32q-8 -20 -14 -32z" />
<glyph unicode="B" horiz-adv-x="1380" d="M215 0v1434h516q220 0 349.5 -89.5t129.5 -269.5q0 -68 -24 -125.5t-65 -96.5t-91 -64t-106 -35q48 -8 91 -23t90.5 -44t82 -68t57 -99.5t23.5 -134.5q0 -71 -18.5 -128.5t-50 -96.5t-77.5 -69t-93 -47t-105 -27t-106.5 -13.5t-102.5 -3.5h-500zM266 49h443 q54 0 98.5 2.5t98.5 11t96.5 23.5t84.5 40.5t69.5 60.5t44 86.5t16.5 115.5q-1 83 -32.5 146.5t-77 98.5t-108 57t-113.5 29t-104 7h-516v-678zM266 776h537q92 0 172 33.5t132 102.5t52 159q0 161 -114 237t-316 76h-463v-608z" />
<glyph unicode="C" horiz-adv-x="1347" d="M109 698q0 146 42.5 271t114 212.5t166 150t199.5 92.5t213 30q230 0 401 -98v-51q-173 100 -395 100q-102 0 -200.5 -27.5t-187.5 -85.5t-156 -140t-106.5 -199.5t-39.5 -254.5q0 -133 40 -245t107 -189t156.5 -131t188.5 -79t202 -25q238 0 410 102v-51 q-171 -100 -418 -100q-109 0 -213.5 27t-199.5 85.5t-167 141t-114.5 202.5t-42.5 262z" />
<glyph unicode="D" horiz-adv-x="1495" d="M215 0v1434h408q152 0 277 -35t214 -98.5t150 -153t90.5 -197.5t29.5 -233t-29.5 -233t-90.5 -197.5t-150 -153t-214 -98.5t-277 -35h-408zM266 49h357q177 0 313.5 49.5t222.5 139t130 210.5t44 269t-44 269t-130 210.5t-222.5 138.5t-313.5 49h-357v-1335z" />
<glyph unicode="E" horiz-adv-x="1286" d="M215 0v1434h932v-50h-881v-639h819v-49h-819v-647h899v-49h-950z" />
<glyph unicode="F" horiz-adv-x="1212" d="M215 0v1434h934v-50h-883v-653h824v-49h-824v-682h-51z" />
<glyph unicode="G" horiz-adv-x="1454" d="M111 717q0 150 43 274.5t115 209t169.5 142.5t204.5 84.5t221 26.5q231 0 414 -94v-51q-86 45 -194.5 70.5t-215.5 25.5t-207 -24t-191.5 -78t-159.5 -132t-108 -195t-40 -259q0 -143 41 -260t109.5 -195.5t162 -131.5t195 -77t211.5 -24q213 0 385 82v637h51v-672 q-203 -96 -438 -96q-118 0 -227 26t-208.5 83.5t-172.5 141.5t-116.5 209t-43.5 277z" />
<glyph unicode="H" horiz-adv-x="1570" d="M215 0v1434h51v-689h1039v689h51v-1434h-51v696h-1039v-696h-51z" />
<glyph unicode="I" horiz-adv-x="481" d="M215 0v1434h51v-1434h-51z" />
<glyph unicode="J" horiz-adv-x="1069" d="M68 68v51q139 -90 360 -90q178 0 284.5 87.5t106.5 260.5v1007h-473v50h524v-1057q0 -195 -120 -296t-316 -101q-229 0 -366 88z" />
<glyph unicode="K" horiz-adv-x="1339" d="M215 0v1434h51v-674h443l503 674h60l-520 -699l577 -735h-61l-561 711h-441v-711h-51z" />
<glyph unicode="L" horiz-adv-x="1179" d="M215 0v1434h51v-1385h877v-49h-928z" />
<glyph unicode="M" horiz-adv-x="1837" d="M215 0v1434h39l664 -969l665 969h39v-1434h-51v1331l-637 -930h-31l-637 930v-1331h-51z" />
<glyph unicode="N" horiz-adv-x="1570" d="M215 0v1434h43l1047 -1344v123v1221h51v-1434h-45l-1045 1346v-123v-1223h-51z" />
<glyph unicode="O" d="M106 717q0 108 28.5 212.5t89.5 199.5t146.5 167.5t208.5 115t267 42.5t266.5 -42.5t208.5 -115t146.5 -167.5t89 -199.5t28.5 -212.5t-28.5 -212.5t-89 -199.5t-146.5 -167.5t-208.5 -115t-266.5 -42.5t-267 42.5t-208.5 115t-146.5 167.5t-89.5 199.5t-28.5 212.5z M158 717q0 -102 27 -200t83 -186.5t136 -155.5t194 -106.5t248 -39.5t248 39.5t194 106.5t136 155.5t83 186.5t27 200t-27 200t-83 186.5t-136 155.5t-194 106.5t-248 39.5t-248 -39.5t-194 -106.5t-136 -155.5t-83 -186.5t-27 -200z" />
<glyph unicode="P" horiz-adv-x="1333" d="M215 0v1434h444q100 0 184.5 -13t162.5 -44.5t132.5 -81t86.5 -127.5t32 -179q0 -444 -598 -444h-393v-545h-51zM266 594h396q544 0 544 395t-544 395h-396v-790z" />
<glyph unicode="Q" d="M106 717q0 108 28.5 212.5t89.5 199.5t146.5 167.5t208.5 115t267 42.5t266.5 -42.5t208.5 -115t146.5 -167.5t89 -199.5t28.5 -212.5q0 -158 -60.5 -306t-178.5 -253l243 -244l-33 -33l-247 246q-191 -147 -463 -147q-144 0 -267 42.5t-208.5 115t-146.5 167.5 t-89.5 199.5t-28.5 212.5zM158 717q0 -102 27 -200t83 -186.5t136 -155.5t194 -106.5t248 -39.5q253 0 428 135l-332 332l33 32l334 -333q110 97 167.5 235.5t57.5 286.5q0 102 -27 200t-83 186.5t-136 155.5t-194 106.5t-248 39.5t-248 -39.5t-194 -106.5t-136 -155.5 t-83 -186.5t-27 -200z" />
<glyph unicode="R" horiz-adv-x="1396" d="M215 0v1434h539q74 0 143.5 -13.5t135.5 -45t115 -78t79 -118.5t30 -161q0 -104 -39.5 -184t-106.5 -127.5t-145.5 -72.5t-166.5 -30l549 -604h-64l-545 602h-473v-602h-51zM266 651h490q84 0 160 19.5t143 60t107 114.5t40 173q0 79 -27 143t-70.5 104.5t-103 68 t-121.5 39t-128 11.5h-490v-733z" />
<glyph unicode="S" horiz-adv-x="1153" d="M106 98v52q103 -58 230.5 -89.5t253.5 -31.5q90 0 165 16t136 49t95 92t34 138q0 76 -31 135.5t-83 98t-119 69.5t-142 55.5t-149.5 49.5t-141.5 57.5t-119 73t-83 103t-31 142.5q0 87 38 155.5t102 109t142 61t164 20.5q108 0 217 -26t189 -70v-51q-79 46 -190 73 q-103 25 -200 25h-14q-78 0 -147 -17t-126 -51.5t-90.5 -93.5t-33.5 -135q0 -72 31 -128.5t83 -93.5t119 -67t142 -54t149.5 -49t141.5 -59t119 -76.5t83 -107.5t31 -147q0 -91 -39 -160t-106.5 -109t-151.5 -59q-79 -18 -170 -18h-10q-131 0 -259.5 31t-228.5 87z" />
<glyph unicode="T" horiz-adv-x="1214" d="M31 1384v50h1153v-50h-551v-1384h-51v1384h-551z" />
<glyph unicode="U" horiz-adv-x="1533" d="M197 494v940h51v-938q0 -127 38.5 -219t110 -145.5t163.5 -78t208 -24.5t207 24.5t162.5 78t110 145.5t38.5 219v938h51v-940q0 -112 -29 -200t-79.5 -146.5t-123.5 -96.5t-156 -54.5t-181 -16.5q-99 0 -182.5 16.5t-156 54.5t-123.5 96.5t-80 146.5t-29 200z" />
<glyph unicode="V" horiz-adv-x="1386" d="M41 1434h55l598 -1377l598 1377h54l-627 -1434h-51z" />
<glyph unicode="W" horiz-adv-x="2021" d="M57 1434h56l430 -1364l444 1347h47l443 -1347l430 1364h57l-459 -1434h-55l-440 1333l-439 -1333h-55z" />
<glyph unicode="X" horiz-adv-x="1241" d="M23 0l567 737l-537 697h62l506 -658l507 658h60l-537 -697l568 -737h-60l-538 696l-537 -696h-61z" />
<glyph unicode="Y" horiz-adv-x="1280" d="M49 1434h57l533 -803l532 803h58l-563 -852v-582h-52v582z" />
<glyph unicode="Z" horiz-adv-x="1165" d="M49 0v45l975 1339h-934v50h1000v-45l-977 -1340h991v-49h-1055z" />
<glyph unicode="[" horiz-adv-x="481" d="M160 -225v1884h282v-49h-231v-1786h231v-49h-282z" />
<glyph unicode="\" horiz-adv-x="821" d="M86 1550h41l608 -1667h-41z" />
<glyph unicode="]" horiz-adv-x="481" d="M39 -176h231v1786h-231v49h283v-1884h-283v49z" />
<glyph unicode="^" horiz-adv-x="991" d="M117 827l356 607h45l356 -607h-53l-325 553l-324 -553h-55z" />
<glyph unicode="_" horiz-adv-x="874" d="M0 -211h874v-49h-874v49z" />
<glyph unicode="`" horiz-adv-x="337" d="M43 1866h61l181 -273h-58z" />
<glyph unicode="a" horiz-adv-x="1103" d="M82 260q0 82 36 143.5t97.5 96.5t134 52t154.5 17q176 0 356 -61v106q0 159 -91.5 251.5t-262.5 92.5q-184 0 -348 -61v49q163 58 350 58q193 0 297 -105t104 -289v-467q0 -100 107 -100q41 0 76 14v-43q-43 -16 -86 -16q-61 0 -103.5 34.5t-42.5 108.5v74 q-69 -112 -188 -173.5t-256 -61.5q-87 0 -160.5 28.5t-123.5 94t-50 157.5zM131 262q0 -78 43.5 -134t108 -80.5t141.5 -24.5q135 0 253.5 67t182.5 191v182q-171 61 -352 61q-74 0 -138.5 -14t-119.5 -43.5t-87 -82t-32 -122.5z" />
<glyph unicode="b" horiz-adv-x="1255" d="M172 0v1434h49v-703q60 120 179 196.5t268 76.5q213 0 350 -140t137 -372t-137 -372t-350 -140q-150 0 -269 77t-182 199v-256h-45zM221 342q47 -137 167.5 -227t275.5 -90q194 0 318 126.5t124 340.5q0 215 -124 340.5t-318 125.5q-155 0 -275.5 -90t-167.5 -227v-299z " />
<glyph unicode="c" horiz-adv-x="1009" d="M100 483q0 106 30.5 194.5t82 148t120 100.5t143 59.5t153.5 18.5q168 0 286 -80v-47q-118 81 -282 81q-92 0 -176 -28t-154 -83.5t-111.5 -149.5t-41.5 -214q0 -113 38.5 -203t103.5 -144.5t145.5 -82.5t170.5 -28q181 0 318 79v-49q-136 -75 -322 -75q-77 0 -149 18.5 t-137 58.5t-113 98t-76.5 142.5t-28.5 185.5z" />
<glyph unicode="d" horiz-adv-x="1255" d="M100 492q0 232 137.5 372t350.5 140q149 0 267.5 -76.5t178.5 -196.5v703h49v-1434h-45v256q-63 -122 -181.5 -199t-268.5 -77q-213 0 -350.5 140t-137.5 372zM150 492q0 -214 124.5 -340.5t317.5 -126.5q156 0 275 90t167 227v299q-48 137 -167 227t-275 90 q-193 0 -317.5 -125.5t-124.5 -340.5z" />
<glyph unicode="e" horiz-adv-x="1116" d="M100 492q0 120 40.5 218.5t108 161.5t153 97.5t178.5 34.5q75 0 140 -18t111.5 -49t84.5 -73t59 -91t35 -102q14 -51 14 -102q0 -52 -6 -106h-868q3 -113 44.5 -199t111 -137t154 -76.5t181.5 -25.5q185 0 317 77v-49q-125 -73 -323 -73q-108 0 -202 30t-169.5 90 t-119.5 161t-44 231zM150 508h825q2 24 2 47q0 37 -5 73q-9 60 -37 120t-72.5 106.5t-117 75t-163.5 28.5q-85 0 -161 -29.5t-136 -85t-96.5 -142t-38.5 -193.5z" />
<glyph unicode="f" horiz-adv-x="710" d="M49 936v47h168v170q0 80 26 140.5t71 94.5t98.5 50t115.5 16q145 0 234 -47v-47q-38 22 -100 35.5t-125 13.5q-119 0 -195 -61.5t-76 -196.5v-168h436v-47h-436v-936h-49v936h-168z" />
<glyph unicode="g" horiz-adv-x="1255" d="M100 492q0 232 137.5 372t350.5 140q149 0 268 -77t182 -200v256h45v-983q0 -97 -28 -176.5t-76.5 -133.5t-114.5 -90.5t-140 -53.5t-155 -17q-203 0 -385 92v49q187 -96 381 -96q95 0 177 25t149 74.5t105 133.5q38 82 38 187v6v254q-60 -121 -178 -197.5t-268 -76.5 q-213 0 -350.5 140t-137.5 372zM150 492q0 -214 124.5 -340.5t317.5 -126.5q156 0 275 88.5t167 224.5v303q-48 137 -167 227t-275 90q-193 0 -317.5 -125.5t-124.5 -340.5z" />
<glyph unicode="h" horiz-adv-x="1175" d="M172 0v1434h49v-668q28 42 65 80t88.5 75.5t120 60t142.5 22.5q165 0 273 -108t108 -292v-604h-49v600q0 168 -95 263t-241 95q-75 0 -142.5 -23.5t-118 -63.5t-87.5 -84t-64 -93v-694h-49z" />
<glyph unicode="i" horiz-adv-x="405" d="M162 1260q0 19 12.5 29.5t28.5 10.5t28.5 -10.5t12.5 -29.5t-12 -29t-29 -10t-29 10t-12 29zM178 0v983h49v-983h-49z" />
<glyph unicode="j" horiz-adv-x="405" d="M-152 -401q64 -23 132 -23q40 0 73.5 9.5t62.5 30.5t45.5 59.5t16.5 91.5v1216h49v-1221q0 -65 -20.5 -112t-56 -72.5t-75.5 -37t-87 -11.5q-76 0 -140 22v48zM162 1260q0 19 12.5 29.5t28.5 10.5q18 0 29.5 -10.5t11.5 -29.5q0 -39 -41 -39q-17 0 -29 10t-12 29z" />
<glyph unicode="k" horiz-adv-x="1003" d="M172 0v1434h49v-902h268l390 451h59l-410 -477l467 -506h-59l-451 485h-264v-485h-49z" />
<glyph unicode="l" horiz-adv-x="405" d="M178 0v1495h49v-1495h-49z" />
<glyph unicode="m" horiz-adv-x="1830" d="M172 0v983h45v-209q26 40 62 77t85 73t112.5 58t131.5 22q117 0 203.5 -60.5t120.5 -163.5q67 91 167 157.5t224 66.5q156 0 252 -101.5t96 -261.5v-641h-49v639q0 139 -82.5 229t-220.5 90q-120 0 -215 -68t-156 -163q8 -36 8 -86v-641h-49v639q0 139 -82.5 229 t-220.5 90q-66 0 -128.5 -23t-110 -61.5t-83 -80t-61.5 -86.5v-707h-49z" />
<glyph unicode="n" horiz-adv-x="1175" d="M172 0v983h45v-221q27 42 64.5 81.5t90 77t121.5 60.5t144 23q165 0 273 -108t108 -292v-604h-49v600q0 168 -95 263t-241 95q-75 0 -142.5 -23.5t-118 -63.5t-87.5 -84t-64 -93v-694h-49z" />
<glyph unicode="o" horiz-adv-x="1212" d="M100 492q0 119 42 217.5t112.5 162t161 98t190.5 34.5q101 0 191.5 -34.5t161 -98t112 -162t41.5 -217.5t-41.5 -217.5t-112 -162t-161 -98t-191.5 -34.5q-100 0 -190.5 34.5t-161 98t-112.5 162t-42 217.5zM150 492q0 -108 37 -197.5t100 -147t145 -89t174 -31.5 t174.5 31.5t145.5 89t100 147t37 197.5q0 143 -64 250.5t-166.5 160.5t-226.5 53t-226.5 -53t-166 -160t-63.5 -251z" />
<glyph unicode="p" horiz-adv-x="1255" d="M172 -451v1434h45v-256q63 123 182 200t269 77q213 0 350 -140t137 -372t-137 -372t-350 -140q-149 0 -268 76.5t-179 195.5v-703h-49zM221 342q47 -137 167.5 -227t275.5 -90q194 0 318 126t124 341q0 214 -123.5 340t-318.5 126q-155 0 -275.5 -90t-167.5 -227v-299z " />
<glyph unicode="q" horiz-adv-x="1255" d="M100 492q0 232 137.5 372t350.5 140q149 0 268 -77t182 -200v256h45v-1434h-49v703q-60 -120 -178.5 -196t-267.5 -76q-213 0 -350.5 140t-137.5 372zM150 492q0 -215 125 -341t317 -126q156 0 275 90t167 227v299q-48 137 -167 227t-275 90q-193 0 -317.5 -126 t-124.5 -340z" />
<glyph unicode="r" horiz-adv-x="688" d="M172 0v983h45v-301q51 137 169 230q117 92 277 92h3v-50h-6q-86 0 -161 -30q-78 -31 -133 -84.5t-91.5 -118.5t-53.5 -137v-584h-49z" />
<glyph unicode="s" horiz-adv-x="925" d="M100 78v49q71 -47 173.5 -74.5t199.5 -27.5q138 0 229 51.5t91 152.5q0 64 -37.5 109.5t-98 70.5t-133.5 44.5t-146 41t-133.5 50.5t-98 82t-37.5 127q0 65 30 114.5t80.5 78.5t109.5 43t124 14q90 0 179 -23t154 -61v-50q-61 39 -152 63.5t-179 24.5q-77 0 -141.5 -19.5 t-109 -66.5t-44.5 -116q0 -58 29.5 -101t77.5 -67t109 -45t125 -35t125 -37t109 -50.5t77.5 -76t29.5 -113.5q0 -86 -53.5 -144.5t-133.5 -82.5t-180 -24q-99 0 -204.5 27t-170.5 71z" />
<glyph unicode="t" horiz-adv-x="741" d="M27 936v47h184v324l49 16v-340h438v-47h-438v-657q0 -250 252 -250q121 0 211 49v-47q-84 -49 -221 -49q-139 0 -215 75t-76 215v664h-184z" />
<glyph unicode="u" horiz-adv-x="1175" d="M158 379v604h49v-600q0 -169 93.5 -263.5t242.5 -94.5q75 0 142.5 23.5t118 63.5t87 84t63.5 93v694h50v-983h-46v221q-27 -42 -64.5 -81t-89.5 -77t-121 -60.5t-144 -22.5q-167 0 -274 107t-107 292z" />
<glyph unicode="v" horiz-adv-x="1069" d="M45 983h55l435 -928l434 928h55l-463 -983h-53z" />
<glyph unicode="w" horiz-adv-x="1634" d="M55 983h54l350 -920l334 904h49l336 -904l350 920h51l-377 -983h-49l-336 903l-334 -903h-49z" />
<glyph unicode="x" horiz-adv-x="987" d="M35 0l430 504l-408 479h60l377 -442l378 442h58l-406 -479l428 -504h-59l-399 469l-400 -469h-59z" />
<glyph unicode="y" horiz-adv-x="1085" d="M35 983h53l479 -932l418 932h53l-522 -1163q-70 -158 -148 -224.5t-178 -66.5q-48 0 -100 12v45q50 -12 96 -12q92 0 160.5 64t128.5 204l68 154z" />
<glyph unicode="z" horiz-adv-x="907" d="M61 0v41l695 897h-666v45h729v-41l-694 -897h717v-45h-781z" />
<glyph unicode="{" horiz-adv-x="530" d="M57 694v45q72 -2 130.5 52.5t58.5 152.5v529q0 226 207 186v-45q-88 14 -122 -25t-34 -131v-516q0 -94 -43 -152t-107 -73q64 -15 107 -73t43 -152v-517q0 -92 34 -130.5t122 -24.5v-45q-207 -37 -207 186v528q0 98 -58.5 152.5t-130.5 52.5z" />
<glyph unicode="|" horiz-adv-x="370" d="M160 -205v1864h51v-1864h-51z" />
<glyph unicode="}" horiz-adv-x="530" d="M78 -180q88 -14 121.5 24.5t33.5 130.5v517q0 94 43 152t107 73q-64 15 -107 73t-43 152v516q0 92 -33.5 131t-121.5 25v45q106 21 156.5 -29.5t50.5 -156.5v-529q0 -99 57.5 -153t130.5 -52v-45q-73 2 -130.5 -52t-57.5 -153v-528q0 -106 -50.5 -156t-156.5 -30v45z" />
<glyph unicode="~" horiz-adv-x="1181" d="M160 600q-2 76 44.5 123t123.5 47q65 0 165.5 -36t199.5 -71.5t161 -35.5q59 0 93 33t34 88h47q0 -74 -46 -121t-124 -47q-51 0 -126 22.5t-139 49t-138 49t-123 22.5q-60 0 -93.5 -34t-31.5 -89h-47z" />
<glyph unicode="&#xa1;" horiz-adv-x="368" d="M139 958q0 20 13 33t32 13q20 0 32.5 -13t12.5 -33t-12.5 -32.5t-32.5 -12.5q-19 0 -32 12.5t-13 32.5zM160 -442l2 1089h45l4 -1089h-51z" />
<glyph unicode="&#xa2;" horiz-adv-x="1046" d="M109 483q0 126 41.5 225t112 160t155.5 94.5t180 38.5v228h45v-225q162 0 281 -80v-47q-118 81 -281 81v-933q167 7 291 79v-49q-123 -68 -291 -75v-226h-45v226q-76 2 -146 21.5t-133 60t-109.5 98t-73.5 140.5t-27 183zM158 483q0 -110 36.5 -198t99 -143t140 -84.5 t164.5 -32.5v931q-87 -6 -163.5 -37.5t-139.5 -87t-100 -145.5t-37 -203z" />
<glyph unicode="&#xa3;" horiz-adv-x="1247" d="M78 0v49h63q78 0 123 52t45 147v422h-166v49h166v233q0 119 37.5 210.5t102 144.5t141.5 79.5t164 26.5q167 0 286 -80v-49q-125 80 -282 80q-80 0 -149 -23.5t-126 -71t-90 -129.5t-33 -190v-231h525v-49h-525v-422q0 -152 -96 -199h881v-49h-1067z" />
<glyph unicode="&#xa4;" horiz-adv-x="1173" d="M166 324l131 131q-104 104 -104 262t104 262l-131 131l35 35l133 -133q109 86 252 86q145 0 254 -86l133 133l35 -35l-131 -131q104 -109 104 -262t-104 -262l131 -131l-35 -35l-133 133q-109 -86 -254 -86q-143 0 -252 86l-133 -133zM242 717q0 -148 101.5 -241 t244.5 -93q92 0 170.5 40.5t127 118t48.5 175.5q0 148 -101.5 241t-244.5 93q-144 0 -245 -92.5t-101 -241.5z" />
<glyph unicode="&#xa5;" horiz-adv-x="1273" d="M74 1393h57l506 -762l506 762h57l-512 -770h363v-45h-387v-201h387v-45h-387v-332h-52v332h-389v45h389v201h-389v45h363z" />
<glyph unicode="&#xa6;" horiz-adv-x="407" d="M178 -205v703h51v-703h-51zM178 956v703h51v-703h-51z" />
<glyph unicode="&#xa7;" horiz-adv-x="989" d="M125 705q0 96 63 164.5t150 107.5q-92 36 -142.5 89.5t-50.5 141.5q0 77 47.5 134t122 84.5t164.5 27.5q88 0 175 -22t143 -58v-47q-59 37 -145.5 59.5t-170.5 22.5q-122 0 -204 -54t-82 -147q0 -44 19.5 -79.5t43.5 -57t75 -42.5t83 -30.5t99 -27.5q20 -5 30 -8 q62 -17 100 -29t88 -36t78 -50.5t48 -68.5t20 -95q0 -171 -230 -266q97 -36 152 -93.5t55 -152.5q0 -114 -102 -178t-252 -64q-98 0 -191 24.5t-155 68.5v45q64 -43 157.5 -68t186.5 -25q132 0 219.5 53t87.5 144q0 33 -10 61.5t-24 49.5t-41.5 40t-49 30.5t-62 25.5 t-64.5 21t-71 20q-43 12 -59.5 16.5t-56 17t-57 20.5t-49.5 23t-47 28t-36 33t-30.5 41t-17 48t-7.5 58zM172 711q0 -26 6.5 -49t15 -41t27 -35t32 -28.5t42 -24.5t44.5 -19.5t52 -17.5t51.5 -15.5t55.5 -15.5q52 -13 94 -27q237 77 237 240q0 45 -17.5 80.5t-42 58.5 t-68 43.5t-79 31.5t-92.5 26q-104 28 -137 38q-36 -11 -72 -31t-71 -49.5t-56.5 -72.5t-21.5 -92z" />
<glyph unicode="&#xa8;" horiz-adv-x="565" d="M31 1710q0 20 14 33.5t33 13.5q20 0 33.5 -13.5t13.5 -33.5q0 -19 -13.5 -33t-33.5 -14q-19 0 -33 14t-14 33zM442 1710q0 20 14 33.5t33 13.5q20 0 34 -13.5t14 -33.5q0 -19 -14 -33t-34 -14q-19 0 -33 14t-14 33z" />
<glyph unicode="&#xa9;" horiz-adv-x="1751" d="M115 717q0 142 44.5 264t120 207.5t173.5 146.5t205.5 90t215.5 29q109 0 216 -29t206 -90t174.5 -146.5t120.5 -207.5t45 -264t-45 -264t-120.5 -207.5t-174.5 -146.5t-206 -90t-216 -29q-108 0 -215.5 29t-205.5 90t-173.5 146.5t-120 207.5t-44.5 264zM143 717 q0 -137 43 -254t115.5 -199.5t167 -141t197.5 -86.5t208 -28t209 28t198.5 86.5t166.5 141t115 199.5t43 254t-43 254t-115 199t-166.5 140.5t-198.5 86.5t-209 28q-87 0 -173.5 -20t-168.5 -58.5t-152.5 -99t-123.5 -137t-83 -178t-30 -215.5zM502 700q0 108 37 192 t98.5 133.5t135 75t153.5 25.5q141 0 245 -69v-43q-106 71 -241 71q-57 0 -111 -13.5t-104 -43.5t-87 -73.5t-59 -108.5t-22 -144q0 -89 30.5 -158.5t82 -111t115 -63t134.5 -21.5q138 0 262 70v-41q-124 -70 -270 -70q-75 0 -145 24t-127.5 70t-92 123.5t-34.5 175.5z" />
<glyph unicode="&#xab;" horiz-adv-x="847" d="M106 483v17l242 342h55l-247 -350l247 -351h-55zM412 483v17l241 342h56l-248 -350l248 -351h-56z" />
<glyph unicode="&#xac;" horiz-adv-x="1179" d="M154 936v47h870v-365h-49v318h-821z" />
<glyph unicode="&#xad;" horiz-adv-x="993" d="M145 473v47h703v-47h-703z" />
<glyph unicode="&#xae;" horiz-adv-x="1751" d="M115 717q0 142 44.5 264t120 207.5t173.5 146.5t205.5 90t215.5 29q109 0 216 -29t206 -90t174.5 -146.5t120.5 -207.5t45 -264t-45 -264t-120.5 -207.5t-174.5 -146.5t-206 -90t-216 -29q-108 0 -215.5 29t-205.5 90t-173.5 146.5t-120 207.5t-44.5 264zM143 717 q0 -137 43 -254t115.5 -199.5t167 -141t197.5 -86.5t208 -28t209 28t198.5 86.5t166.5 141t115 199.5t43 254t-43 254t-115 199t-166.5 140.5t-198.5 86.5t-209 28q-87 0 -173.5 -20t-168.5 -58.5t-152.5 -99t-123.5 -137t-83 -178t-30 -215.5zM610 305v809h310 q36 0 71.5 -5.5t77 -22.5t72.5 -43.5t52 -72.5t21 -106q0 -101 -54 -153t-136 -68l238 -338h-45l-234 332q-25 -4 -68 -4h-264v-328h-41zM651 674h264q259 0 259 190q0 52 -18.5 91.5t-45.5 61t-64 35t-67.5 17.5t-63.5 4h-264v-399z" />
<glyph unicode="&#xaf;" horiz-adv-x="606" d="M45 1661v47h516v-47h-516z" />
<glyph unicode="&#xb0;" horiz-adv-x="794" d="M102 1182q0 131 87.5 209.5t207.5 78.5t207.5 -78.5t87.5 -209.5t-87.5 -210t-207.5 -79t-207.5 79t-87.5 210zM143 1182q0 -113 75 -181.5t179 -68.5t179 68.5t75 181.5t-75 181.5t-179 68.5t-179 -68.5t-75 -181.5z" />
<glyph unicode="&#xb1;" horiz-adv-x="1196" d="M162 0v47h870v-47h-870zM162 707v47h411v411h48v-411h411v-47h-411v-412h-48v412h-411z" />
<glyph unicode="&#xb4;" horiz-adv-x="337" d="M59 1593l181 273h61l-184 -273h-58z" />
<glyph unicode="&#xb6;" horiz-adv-x="1208" d="M74 1020q0 194 116.5 304t321.5 110h518v-1885h-51v1835h-416v-1835h-51v1057q-205 0 -321.5 110t-116.5 304z" />
<glyph unicode="&#xb7;" horiz-adv-x="382" d="M145 489q0 20 14 33t34 13q19 0 32 -13t13 -33t-13 -32.5t-32 -12.5q-21 0 -34.5 12.5t-13.5 32.5z" />
<glyph unicode="&#xb8;" horiz-adv-x="430" d="M0 -383q83 -45 197 -45q96 0 144 32t46 83q-1 65 -83 85.5t-177 -8.5l57 236h45l-49 -197q97 23 174 -9.5t78 -108.5q2 -71 -58 -113.5t-173 -42.5q-116 0 -201 45v43z" />
<glyph unicode="&#xbb;" horiz-adv-x="847" d="M139 141l248 351l-248 350h56l241 -342v-17l-241 -342h-56zM444 141l248 351l-248 350h56l241 -342v-17l-241 -342h-56z" />
<glyph unicode="&#xbc;" horiz-adv-x="1875" d="M115 557v43h211v743l-191 -71v43l203 78h33v-793h159v-43h-415zM381 -23l934 1477h35l-934 -1477h-35zM1090 205v39l485 592h49v-590h178v-41h-178v-205h-45v205h-489zM1147 246h432v526z" />
<glyph unicode="&#xbd;" horiz-adv-x="1779" d="M106 557v43h211v743l-190 -71v43l203 78h32v-793h160v-43h-416zM373 -23l934 1477h34l-933 -1477h-35zM1122 0v27q0 56 16 103.5t38.5 80t62 65.5t69 52t78.5 48q4 2 6.5 3.5t6 3.5t6.5 4q113 68 149 100q76 67 76 154q0 76 -61.5 120t-163.5 44q-136 0 -252 -78v45 q113 76 254 76q121 0 194.5 -55t73.5 -152q0 -51 -18.5 -93.5t-58 -79t-73 -59.5t-91.5 -57q-115 -68 -148 -94q-108 -83 -115 -201v-14h515v-43h-564z" />
<glyph unicode="&#xbe;" horiz-adv-x="1976" d="M125 606v45q116 -55 289 -55q111 0 177 49.5t66 142.5q0 96 -68.5 141.5t-176.5 45.5h-123v43h119q107 0 161 50t54 122q0 78 -61.5 129t-168.5 51q-135 0 -254 -55v45q112 53 258 53q123 0 196 -63t73 -158q0 -69 -40 -122t-118 -69q84 -17 138 -70t54 -145 q0 -111 -78.5 -172t-205.5 -61q-179 0 -291 53zM532 -23l934 1477h35l-934 -1477h-35zM1188 205v39l485 592h49v-590h179v-41h-179v-205h-45v205h-489zM1245 246h432v526z" />
<glyph unicode="&#xbf;" horiz-adv-x="976" d="M74 -135q0 70 30.5 141t75.5 127.5t98.5 118.5t98.5 115t75.5 117t30.5 124h49q0 -56 -22.5 -112.5t-58.5 -105.5t-79.5 -99t-86.5 -100t-79 -99.5t-58.5 -107.5t-22.5 -115q0 -132 105.5 -207.5t287.5 -75.5q194 0 387 115v-49q-183 -115 -393 -115q-199 0 -318.5 88 t-119.5 240zM463 958q0 20 13 33t32 13t33 -13t14 -33t-14 -32.5t-33 -12.5t-32 12.5t-13 32.5z" />
<glyph unicode="&#xc0;" horiz-adv-x="1441" d="M33 0l659 1434h60l657 -1434h-55l-203 440h-860l-203 -440h-55zM313 489h820l-396 863q-6 12 -14 32q-8 -20 -14 -32zM547 1866h61l180 -273h-57z" />
<glyph unicode="&#xc1;" horiz-adv-x="1441" d="M33 0l659 1434h60l657 -1434h-55l-203 440h-860l-203 -440h-55zM313 489h820l-396 863q-6 12 -14 32q-8 -20 -14 -32zM645 1593l180 273h62l-185 -273h-57z" />
<glyph unicode="&#xc2;" horiz-adv-x="1441" d="M33 0l659 1434h60l657 -1434h-55l-203 440h-860l-203 -440h-55zM313 489h820l-396 863q-6 12 -14 32q-8 -20 -14 -32zM442 1593l258 256h43l261 -256h-60l-221 217l-221 -217h-60z" />
<glyph unicode="&#xc3;" horiz-adv-x="1441" d="M33 0l659 1434h60l657 -1434h-55l-203 440h-860l-203 -440h-55zM313 489h820l-396 863q-6 12 -14 32q-8 -20 -14 -32zM430 1626q-9 64 24.5 107t92.5 43q56 0 177.5 -57.5t166.5 -57.5q90 0 80 102h45q8 -66 -23.5 -106.5t-93.5 -40.5q-47 0 -113 29t-129 57.5t-102 28.5 q-42 0 -64 -29.5t-16 -75.5h-45z" />
<glyph unicode="&#xc4;" horiz-adv-x="1441" d="M33 0l659 1434h60l657 -1434h-55l-203 440h-860l-203 -440h-55zM313 489h820l-396 863q-6 12 -14 32q-8 -20 -14 -32zM467 1710q0 20 14 33.5t33 13.5q20 0 33.5 -13.5t13.5 -33.5q0 -19 -13.5 -33t-33.5 -14q-19 0 -33 14t-14 33zM879 1710q0 20 14 33.5t33 13.5 q20 0 33.5 -13.5t13.5 -33.5q0 -19 -13.5 -33t-33.5 -14q-19 0 -33 14t-14 33z" />
<glyph unicode="&#xc5;" horiz-adv-x="1441" d="M33 0l659 1434h60l657 -1434h-55l-203 440h-860l-203 -440h-55zM313 489h820l-396 863q-6 12 -14 32q-8 -20 -14 -32zM547 1720q0 73 52 120.5t122 47.5t121 -47.5t51 -120.5q0 -74 -51 -121t-121 -47t-122 47t-52 121zM588 1720q0 -58 39.5 -93.5t93.5 -35.5 q53 0 92 35.5t39 93.5q0 57 -39 93t-92 36t-93 -36.5t-40 -92.5z" />
<glyph unicode="&#xc6;" horiz-adv-x="2029" d="M-23 0l1027 1434h892v-50h-821v-639h760v-49h-760v-647h834v-49h-883v442h-672l-317 -442h-60zM385 489h639v891z" />
<glyph unicode="&#xc7;" horiz-adv-x="1347" d="M109 698q0 146 42.5 271t114 212.5t166 150t199.5 92.5t213 30q230 0 401 -98v-51q-173 100 -395 100q-102 0 -200.5 -27.5t-187.5 -85.5t-156 -140t-106.5 -199.5t-39.5 -254.5q0 -133 40 -245t107 -189t156.5 -131t188.5 -79t202 -25q238 0 410 102v-51 q-163 -94 -396 -100l-45 -177q97 23 174 -9.5t78 -108.5q2 -71 -58 -113.5t-173 -42.5q-116 0 -201 45v43q83 -45 197 -45q96 0 144 32t46 83q-1 65 -83 85.5t-177 -8.5l53 216q-107 3 -208.5 32t-194 87.5t-161.5 141t-109.5 200.5t-40.5 257z" />
<glyph unicode="&#xc8;" horiz-adv-x="1286" d="M215 0v1434h932v-50h-881v-639h819v-49h-819v-647h899v-49h-950zM508 1866h61l181 -273h-58z" />
<glyph unicode="&#xc9;" horiz-adv-x="1286" d="M215 0v1434h932v-50h-881v-639h819v-49h-819v-647h899v-49h-950zM606 1593l180 273h62l-184 -273h-58z" />
<glyph unicode="&#xca;" horiz-adv-x="1286" d="M215 0v1434h932v-50h-881v-639h819v-49h-819v-647h899v-49h-950zM403 1593l259 256h43l260 -256h-60l-221 217l-221 -217h-60z" />
<glyph unicode="&#xcb;" horiz-adv-x="1286" d="M215 0v1434h932v-50h-881v-639h819v-49h-819v-647h899v-49h-950zM428 1710q0 20 14 33.5t33 13.5q20 0 33.5 -13.5t13.5 -33.5q0 -19 -13.5 -33t-33.5 -14q-19 0 -33 14t-14 33zM840 1710q0 20 14 33.5t33 13.5q20 0 33.5 -13.5t13.5 -33.5q0 -19 -13.5 -33t-33.5 -14 q-19 0 -33 14t-14 33z" />
<glyph unicode="&#xcc;" horiz-adv-x="481" d="M68 1866h61l180 -273h-57zM215 0v1434h51v-1434h-51z" />
<glyph unicode="&#xcd;" horiz-adv-x="481" d="M166 1593l180 273h62l-185 -273h-57zM215 0v1434h51v-1434h-51z" />
<glyph unicode="&#xce;" horiz-adv-x="481" d="M-37 1593l258 256h43l260 -256h-59l-221 217l-221 -217h-60zM215 0v1434h51v-1434h-51z" />
<glyph unicode="&#xcf;" horiz-adv-x="481" d="M-12 1710q0 20 14 33.5t33 13.5q20 0 33.5 -13.5t13.5 -33.5q0 -19 -13.5 -33t-33.5 -14q-19 0 -33 14t-14 33zM215 0v1434h51v-1434h-51zM399 1710q0 20 14 33.5t33 13.5q20 0 34 -13.5t14 -33.5q0 -19 -14 -33t-34 -14q-19 0 -33 14t-14 33z" />
<glyph unicode="&#xd0;" horiz-adv-x="1495" d="M51 692v47h164v695h408q152 0 277 -35t214 -98.5t150 -153t90.5 -197.5t29.5 -233t-29.5 -233t-90.5 -197.5t-150 -153t-214 -98.5t-277 -35h-408v692h-164zM266 49h357q177 0 313.5 49.5t222.5 139t130 210.5t44 269t-44 269t-130 210.5t-222.5 138.5t-313.5 49h-357 v-645h496v-47h-496v-643z" />
<glyph unicode="&#xd1;" horiz-adv-x="1570" d="M215 0v1434h43l1047 -1344v123v1221h51v-1434h-45l-1045 1346v-123v-1223h-51zM494 1626q-9 64 24 107t92 43q56 0 177.5 -57.5t166.5 -57.5q90 0 80 102h45q8 -66 -23 -106.5t-93 -40.5q-47 0 -113.5 29t-129.5 57.5t-102 28.5q-42 0 -63.5 -29.5t-15.5 -75.5h-45z" />
<glyph unicode="&#xd2;" d="M106 717q0 108 28.5 212.5t89.5 199.5t146.5 167.5t208.5 115t267 42.5t266.5 -42.5t208.5 -115t146.5 -167.5t89 -199.5t28.5 -212.5t-28.5 -212.5t-89 -199.5t-146.5 -167.5t-208.5 -115t-266.5 -42.5t-267 42.5t-208.5 115t-146.5 167.5t-89.5 199.5t-28.5 212.5z M158 717q0 -102 27 -200t83 -186.5t136 -155.5t194 -106.5t248 -39.5t248 39.5t194 106.5t136 155.5t83 186.5t27 200t-27 200t-83 186.5t-136 155.5t-194 106.5t-248 39.5t-248 -39.5t-194 -106.5t-136 -155.5t-83 -186.5t-27 -200zM672 1866h61l180 -273h-57z" />
<glyph unicode="&#xd3;" d="M106 717q0 108 28.5 212.5t89.5 199.5t146.5 167.5t208.5 115t267 42.5t266.5 -42.5t208.5 -115t146.5 -167.5t89 -199.5t28.5 -212.5t-28.5 -212.5t-89 -199.5t-146.5 -167.5t-208.5 -115t-266.5 -42.5t-267 42.5t-208.5 115t-146.5 167.5t-89.5 199.5t-28.5 212.5z M158 717q0 -102 27 -200t83 -186.5t136 -155.5t194 -106.5t248 -39.5t248 39.5t194 106.5t136 155.5t83 186.5t27 200t-27 200t-83 186.5t-136 155.5t-194 106.5t-248 39.5t-248 -39.5t-194 -106.5t-136 -155.5t-83 -186.5t-27 -200zM770 1593l180 273h62l-185 -273h-57z " />
<glyph unicode="&#xd4;" d="M106 717q0 108 28.5 212.5t89.5 199.5t146.5 167.5t208.5 115t267 42.5t266.5 -42.5t208.5 -115t146.5 -167.5t89 -199.5t28.5 -212.5t-28.5 -212.5t-89 -199.5t-146.5 -167.5t-208.5 -115t-266.5 -42.5t-267 42.5t-208.5 115t-146.5 167.5t-89.5 199.5t-28.5 212.5z M158 717q0 -102 27 -200t83 -186.5t136 -155.5t194 -106.5t248 -39.5t248 39.5t194 106.5t136 155.5t83 186.5t27 200t-27 200t-83 186.5t-136 155.5t-194 106.5t-248 39.5t-248 -39.5t-194 -106.5t-136 -155.5t-83 -186.5t-27 -200zM567 1593l258 256h43l260 -256h-59 l-221 217l-221 -217h-60z" />
<glyph unicode="&#xd5;" d="M106 717q0 108 28.5 212.5t89.5 199.5t146.5 167.5t208.5 115t267 42.5t266.5 -42.5t208.5 -115t146.5 -167.5t89 -199.5t28.5 -212.5t-28.5 -212.5t-89 -199.5t-146.5 -167.5t-208.5 -115t-266.5 -42.5t-267 42.5t-208.5 115t-146.5 167.5t-89.5 199.5t-28.5 212.5z M158 717q0 -102 27 -200t83 -186.5t136 -155.5t194 -106.5t248 -39.5t248 39.5t194 106.5t136 155.5t83 186.5t27 200t-27 200t-83 186.5t-136 155.5t-194 106.5t-248 39.5t-248 -39.5t-194 -106.5t-136 -155.5t-83 -186.5t-27 -200zM555 1626q-9 64 24.5 107t92.5 43 q56 0 177.5 -57.5t166.5 -57.5q90 0 80 102h45q8 -66 -23.5 -106.5t-93.5 -40.5q-47 0 -113 29t-129 57.5t-102 28.5q-42 0 -64 -29.5t-16 -75.5h-45z" />
<glyph unicode="&#xd6;" d="M106 717q0 108 28.5 212.5t89.5 199.5t146.5 167.5t208.5 115t267 42.5t266.5 -42.5t208.5 -115t146.5 -167.5t89 -199.5t28.5 -212.5t-28.5 -212.5t-89 -199.5t-146.5 -167.5t-208.5 -115t-266.5 -42.5t-267 42.5t-208.5 115t-146.5 167.5t-89.5 199.5t-28.5 212.5z M158 717q0 -102 27 -200t83 -186.5t136 -155.5t194 -106.5t248 -39.5t248 39.5t194 106.5t136 155.5t83 186.5t27 200t-27 200t-83 186.5t-136 155.5t-194 106.5t-248 39.5t-248 -39.5t-194 -106.5t-136 -155.5t-83 -186.5t-27 -200zM592 1710q0 20 14 33.5t33 13.5 q20 0 33.5 -13.5t13.5 -33.5q0 -19 -13.5 -33t-33.5 -14q-19 0 -33 14t-14 33zM1004 1710q0 20 14 33.5t33 13.5q20 0 33.5 -13.5t13.5 -33.5q0 -19 -13.5 -33t-33.5 -14q-19 0 -33 14t-14 33z" />
<glyph unicode="&#xd7;" horiz-adv-x="911" d="M147 442l275 275l-275 276l33 33l277 -274l274 274l33 -33l-275 -276l275 -275l-33 -34l-274 276l-277 -276z" />
<glyph unicode="&#xd8;" d="M106 717q0 108 28.5 212.5t89.5 199.5t146.5 167.5t208.5 115t267 42.5q249 0 430 -125l147 203h54l-166 -227q133 -106 203.5 -263t70.5 -325q0 -108 -28.5 -212.5t-89 -199.5t-146.5 -167.5t-208.5 -115t-266.5 -42.5q-240 0 -416 114l-139 -192h-53l157 217 q-140 104 -214.5 265t-74.5 333zM158 717q0 -163 68.5 -312.5t199.5 -244.5l821 1130q-166 115 -401 115q-134 0 -248 -39.5t-194 -106.5t-136 -155.5t-83 -186.5t-27 -200zM461 135q161 -106 385 -106q135 0 249.5 39.5t194 106.5t136 155.5t83.5 186.5t27 200 q0 158 -65 304t-189 243z" />
<glyph unicode="&#xd9;" horiz-adv-x="1533" d="M197 494v940h51v-938q0 -127 38.5 -219t110 -145.5t163.5 -78t208 -24.5t207 24.5t162.5 78t110 145.5t38.5 219v938h51v-940q0 -112 -29 -200t-79.5 -146.5t-123.5 -96.5t-156 -54.5t-181 -16.5q-99 0 -182.5 16.5t-156 54.5t-123.5 96.5t-80 146.5t-29 200zM600 1866 h62l180 -273h-58z" />
<glyph unicode="&#xda;" horiz-adv-x="1533" d="M197 494v940h51v-938q0 -127 38.5 -219t110 -145.5t163.5 -78t208 -24.5t207 24.5t162.5 78t110 145.5t38.5 219v938h51v-940q0 -112 -29 -200t-79.5 -146.5t-123.5 -96.5t-156 -54.5t-181 -16.5q-99 0 -182.5 16.5t-156 54.5t-123.5 96.5t-80 146.5t-29 200zM698 1593 l181 273h61l-184 -273h-58z" />
<glyph unicode="&#xdb;" horiz-adv-x="1533" d="M197 494v940h51v-938q0 -127 38.5 -219t110 -145.5t163.5 -78t208 -24.5t207 24.5t162.5 78t110 145.5t38.5 219v938h51v-940q0 -112 -29 -200t-79.5 -146.5t-123.5 -96.5t-156 -54.5t-181 -16.5q-99 0 -182.5 16.5t-156 54.5t-123.5 96.5t-80 146.5t-29 200zM496 1593 l258 256h43l260 -256h-60l-221 217l-221 -217h-59z" />
<glyph unicode="&#xdc;" horiz-adv-x="1533" d="M197 494v940h51v-938q0 -127 38.5 -219t110 -145.5t163.5 -78t208 -24.5t207 24.5t162.5 78t110 145.5t38.5 219v938h51v-940q0 -112 -29 -200t-79.5 -146.5t-123.5 -96.5t-156 -54.5t-181 -16.5q-99 0 -182.5 16.5t-156 54.5t-123.5 96.5t-80 146.5t-29 200zM520 1710 q0 20 14 33.5t33 13.5q20 0 33.5 -13.5t13.5 -33.5q0 -19 -13.5 -33t-33.5 -14q-19 0 -33 14t-14 33zM932 1710q0 20 14 33.5t33 13.5q20 0 33.5 -13.5t13.5 -33.5q0 -19 -13.5 -33t-33.5 -14q-19 0 -33 14t-14 33z" />
<glyph unicode="&#xdd;" horiz-adv-x="1280" d="M49 1434h57l533 -803l532 803h58l-563 -852v-582h-52v582zM565 1593l180 273h62l-184 -273h-58z" />
<glyph unicode="&#xde;" horiz-adv-x="1331" d="M215 0v1434h51v-273h393q100 0 184.5 -12.5t162.5 -44.5t132.5 -81t86.5 -127t32 -179t-32 -179t-86.5 -127.5t-132.5 -81t-162.5 -44.5t-184.5 -13h-393v-272h-51zM266 322h396q544 0 544 395t-544 395h-396v-790z" />
<glyph unicode="&#xdf;" horiz-adv-x="1204" d="M172 0v1032q0 197 118.5 309.5t309.5 112.5q165 1 264 -88.5t99 -202.5q0 -50 -17 -93.5t-41 -73.5t-48 -57t-41 -58.5t-17 -65.5q0 -38 33.5 -80.5t81.5 -85t95.5 -91t81 -114t33.5 -137.5q0 -83 -33.5 -147t-91.5 -102.5t-131 -58t-157 -19.5q-164 0 -269 65v45 q111 -65 263 -65q105 0 186 28t132.5 93.5t51.5 162.5q0 66 -33.5 127.5t-81.5 107.5t-95.5 89t-81 88.5t-33.5 87.5q0 37 17 71.5t41 62.5t47.5 57.5t40.5 70.5t17 88q0 98 -85 174t-228 76q-169 0 -274 -98.5t-105 -272.5v-1038h-49z" />
<glyph unicode="&#xe0;" horiz-adv-x="1103" d="M82 260q0 82 36 143.5t97.5 96.5t134 52t154.5 17q176 0 356 -61v106q0 159 -91.5 251.5t-262.5 92.5q-184 0 -348 -61v49q163 58 350 58q193 0 297 -105t104 -289v-467q0 -100 107 -100q41 0 76 14v-43q-43 -16 -86 -16q-61 0 -103.5 34.5t-42.5 108.5v74 q-69 -112 -188 -173.5t-256 -61.5q-87 0 -160.5 28.5t-123.5 94t-50 157.5zM131 262q0 -78 43.5 -134t108 -80.5t141.5 -24.5q135 0 253.5 67t182.5 191v182q-171 61 -352 61q-74 0 -138.5 -14t-119.5 -43.5t-87 -82t-32 -122.5zM340 1415h61l181 -272h-58z" />
<glyph unicode="&#xe1;" horiz-adv-x="1103" d="M82 260q0 82 36 143.5t97.5 96.5t134 52t154.5 17q176 0 356 -61v106q0 159 -91.5 251.5t-262.5 92.5q-184 0 -348 -61v49q163 58 350 58q193 0 297 -105t104 -289v-467q0 -100 107 -100q41 0 76 14v-43q-43 -16 -86 -16q-61 0 -103.5 34.5t-42.5 108.5v74 q-69 -112 -188 -173.5t-256 -61.5q-87 0 -160.5 28.5t-123.5 94t-50 157.5zM131 262q0 -78 43.5 -134t108 -80.5t141.5 -24.5q135 0 253.5 67t182.5 191v182q-171 61 -352 61q-74 0 -138.5 -14t-119.5 -43.5t-87 -82t-32 -122.5zM438 1143l180 272h62l-184 -272h-58z" />
<glyph unicode="&#xe2;" horiz-adv-x="1103" d="M82 260q0 82 36 143.5t97.5 96.5t134 52t154.5 17q176 0 356 -61v106q0 159 -91.5 251.5t-262.5 92.5q-184 0 -348 -61v49q163 58 350 58q193 0 297 -105t104 -289v-467q0 -100 107 -100q41 0 76 14v-43q-43 -16 -86 -16q-61 0 -103.5 34.5t-42.5 108.5v74 q-69 -112 -188 -173.5t-256 -61.5q-87 0 -160.5 28.5t-123.5 94t-50 157.5zM131 262q0 -78 43.5 -134t108 -80.5t141.5 -24.5q135 0 253.5 67t182.5 191v182q-171 61 -352 61q-74 0 -138.5 -14t-119.5 -43.5t-87 -82t-32 -122.5zM236 1143l258 256h43l260 -256h-60l-221 217 l-221 -217h-59z" />
<glyph unicode="&#xe3;" horiz-adv-x="1103" d="M82 260q0 82 36 143.5t97.5 96.5t134 52t154.5 17q176 0 356 -61v106q0 159 -91.5 251.5t-262.5 92.5q-184 0 -348 -61v49q163 58 350 58q193 0 297 -105t104 -289v-467q0 -100 107 -100q41 0 76 14v-43q-43 -16 -86 -16q-61 0 -103.5 34.5t-42.5 108.5v74 q-69 -112 -188 -173.5t-256 -61.5q-87 0 -160.5 28.5t-123.5 94t-50 157.5zM131 262q0 -78 43.5 -134t108 -80.5t141.5 -24.5q135 0 253.5 67t182.5 191v182q-171 61 -352 61q-74 0 -138.5 -14t-119.5 -43.5t-87 -82t-32 -122.5zM223 1176q-9 64 24.5 106.5t92.5 42.5 q56 0 177.5 -57.5t166.5 -57.5t65 27t15 76h45q8 -66 -23.5 -107t-93.5 -41q-47 0 -113 28.5t-129 57.5t-102 29q-42 0 -64 -29t-16 -75h-45z" />
<glyph unicode="&#xe4;" horiz-adv-x="1103" d="M82 260q0 82 36 143.5t97.5 96.5t134 52t154.5 17q176 0 356 -61v106q0 159 -91.5 251.5t-262.5 92.5q-184 0 -348 -61v49q163 58 350 58q193 0 297 -105t104 -289v-467q0 -100 107 -100q41 0 76 14v-43q-43 -16 -86 -16q-61 0 -103.5 34.5t-42.5 108.5v74 q-69 -112 -188 -173.5t-256 -61.5q-87 0 -160.5 28.5t-123.5 94t-50 157.5zM131 262q0 -78 43.5 -134t108 -80.5t141.5 -24.5q135 0 253.5 67t182.5 191v182q-171 61 -352 61q-74 0 -138.5 -14t-119.5 -43.5t-87 -82t-32 -122.5zM260 1260q0 20 14 33.5t33 13.5 q20 0 33.5 -13.5t13.5 -33.5q0 -19 -13.5 -33.5t-33.5 -14.5q-19 0 -33 14.5t-14 33.5zM672 1260q0 20 14 33.5t33 13.5q20 0 33.5 -13.5t13.5 -33.5q0 -19 -13.5 -33.5t-33.5 -14.5q-19 0 -33 14.5t-14 33.5z" />
<glyph unicode="&#xe5;" horiz-adv-x="1103" d="M82 260q0 82 36 143.5t97.5 96.5t134 52t154.5 17q176 0 356 -61v106q0 159 -91.5 251.5t-262.5 92.5q-184 0 -348 -61v49q163 58 350 58q193 0 297 -105t104 -289v-467q0 -100 107 -100q41 0 76 14v-43q-43 -16 -86 -16q-61 0 -103.5 34.5t-42.5 108.5v74 q-69 -112 -188 -173.5t-256 -61.5q-87 0 -160.5 28.5t-123.5 94t-50 157.5zM131 262q0 -78 43.5 -134t108 -80.5t141.5 -24.5q135 0 253.5 67t182.5 191v182q-171 61 -352 61q-74 0 -138.5 -14t-119.5 -43.5t-87 -82t-32 -122.5zM340 1270q0 73 52 120.5t122 47.5t121 -47.5 t51 -120.5q0 -74 -51 -121t-121 -47t-122 47t-52 121zM381 1270q0 -58 39.5 -93.5t93.5 -35.5q53 0 92 35.5t39 93.5q0 57 -39 93t-92 36t-93 -36.5t-40 -92.5z" />
<glyph unicode="&#xe6;" horiz-adv-x="1855" d="M82 260q0 82 36 143.5t98 96.5t135 52t157 17q186 0 362 -63v108q0 159 -91.5 251.5t-272.5 92.5q-184 0 -348 -61v49q163 58 350 58q182 0 284 -87.5t117 -242.5q43 154 165.5 242t268.5 88q82 0 151 -23.5t115.5 -64t81.5 -94.5t49.5 -115t20 -126t-7.5 -128h-833 q3 -88 31 -160t73.5 -121t106 -82.5t126.5 -49t136 -15.5q74 0 157 20.5t144 56.5v-47q-63 -36 -146.5 -55.5t-161.5 -19.5q-145 0 -269.5 64.5t-188.5 191.5q-88 -125 -223 -190.5t-285 -65.5q-66 0 -125 17t-107.5 50t-77 88t-28.5 125zM131 262q0 -116 85.5 -177.5 t209.5 -61.5q140 0 267 63.5t214 185.5q-34 84 -37 191q-175 61 -358 61q-76 0 -141.5 -14t-120.5 -43.5t-87 -82t-32 -122.5zM920 498h790q9 82 -7 160.5t-57.5 147t-120 110.5t-184.5 42q-82 0 -156 -30t-132.5 -86t-94.5 -145t-38 -199z" />
<glyph unicode="&#xe7;" horiz-adv-x="1011" d="M100 483q0 106 30.5 194.5t82 148t120 100.5t143 59.5t153.5 18.5q168 0 286 -80v-47q-118 81 -282 81q-92 0 -176 -28t-154 -83.5t-111.5 -149.5t-41.5 -214q0 -113 38.5 -203t103.5 -144.5t145.5 -82.5t170.5 -28q181 0 318 79v-49q-129 -72 -303 -75l-43 -177 q64 12 119 5.5t92 -39.5t38 -84q2 -71 -58 -113.5t-173 -42.5q-116 0 -201 45v43q83 -45 199 -45q95 0 142.5 32t47.5 83q-1 65 -83 85.5t-177 -8.5l54 216q-95 4 -179.5 36.5t-152.5 92t-108 156t-40 218.5z" />
<glyph unicode="&#xe8;" horiz-adv-x="1116" d="M100 492q0 120 40.5 218.5t108 161.5t153 97.5t178.5 34.5q75 0 140 -18t111.5 -49t84.5 -73t59 -91t35.5 -102t14 -105.5t-6.5 -102.5h-868q3 -113 44.5 -199t111 -137t154 -76.5t181.5 -25.5q185 0 317 77v-49q-125 -73 -323 -73q-108 0 -202 30t-169.5 90t-119.5 161 t-44 231zM150 508h825q6 59 -3 119.5t-37 120.5t-72.5 106.5t-117 75t-163.5 28.5q-85 0 -161 -29.5t-136 -85t-96.5 -142t-38.5 -193.5zM403 1415h62l180 -272h-57z" />
<glyph unicode="&#xe9;" horiz-adv-x="1116" d="M100 492q0 120 40.5 218.5t108 161.5t153 97.5t178.5 34.5q75 0 140 -18t111.5 -49t84.5 -73t59 -91t35.5 -102t14 -105.5t-6.5 -102.5h-868q3 -113 44.5 -199t111 -137t154 -76.5t181.5 -25.5q185 0 317 77v-49q-125 -73 -323 -73q-108 0 -202 30t-169.5 90t-119.5 161 t-44 231zM150 508h825q6 59 -3 119.5t-37 120.5t-72.5 106.5t-117 75t-163.5 28.5q-85 0 -161 -29.5t-136 -85t-96.5 -142t-38.5 -193.5zM502 1143l180 272h61l-184 -272h-57z" />
<glyph unicode="&#xea;" horiz-adv-x="1116" d="M100 492q0 120 40.5 218.5t108 161.5t153 97.5t178.5 34.5q75 0 140 -18t111.5 -49t84.5 -73t59 -91t35.5 -102t14 -105.5t-6.5 -102.5h-868q3 -113 44.5 -199t111 -137t154 -76.5t181.5 -25.5q185 0 317 77v-49q-125 -73 -323 -73q-108 0 -202 30t-169.5 90t-119.5 161 t-44 231zM150 508h825q6 59 -3 119.5t-37 120.5t-72.5 106.5t-117 75t-163.5 28.5q-85 0 -161 -29.5t-136 -85t-96.5 -142t-38.5 -193.5zM299 1143l258 256h43l260 -256h-59l-221 217l-222 -217h-59z" />
<glyph unicode="&#xeb;" horiz-adv-x="1116" d="M100 492q0 120 40.5 218.5t108 161.5t153 97.5t178.5 34.5q75 0 140 -18t111.5 -49t84.5 -73t59 -91t35.5 -102t14 -105.5t-6.5 -102.5h-868q3 -113 44.5 -199t111 -137t154 -76.5t181.5 -25.5q185 0 317 77v-49q-125 -73 -323 -73q-108 0 -202 30t-169.5 90t-119.5 161 t-44 231zM150 508h825q6 59 -3 119.5t-37 120.5t-72.5 106.5t-117 75t-163.5 28.5q-85 0 -161 -29.5t-136 -85t-96.5 -142t-38.5 -193.5zM324 1260q0 20 14 33.5t33 13.5q20 0 33.5 -13.5t13.5 -33.5q0 -19 -13.5 -33.5t-33.5 -14.5q-19 0 -33 14.5t-14 33.5zM735 1260 q0 20 14 33.5t33 13.5q20 0 33.5 -13.5t13.5 -33.5q0 -19 -13.5 -33.5t-33.5 -14.5q-19 0 -33 14.5t-14 33.5z" />
<glyph unicode="&#xec;" horiz-adv-x="407" d="M68 1415h55l172 -272h-51zM180 0v983h49v-983h-49z" />
<glyph unicode="&#xed;" horiz-adv-x="407" d="M127 1143l180 272h62l-185 -272h-57zM178 0v983h49v-983h-49z" />
<glyph unicode="&#xee;" horiz-adv-x="409" d="M-14 1143l198 235h43l201 -235h-55l-166 196l-166 -196h-55zM180 0v983h49v-983h-49z" />
<glyph unicode="&#xef;" horiz-adv-x="409" d="M12 1260q0 19 13 32t32 13q20 0 32.5 -13t12.5 -32q0 -18 -13 -32t-32 -14q-18 0 -31.5 14t-13.5 32zM180 0v983h49v-983h-49zM309 1260q0 19 13 32t32 13q20 0 32.5 -13t12.5 -32q0 -18 -12.5 -32t-32.5 -14q-18 0 -31.5 14t-13.5 32z" />
<glyph unicode="&#xf0;" horiz-adv-x="1220" d="M100 459q0 100 38.5 186.5t103.5 146.5t152.5 94t183.5 34q80 0 156.5 -24.5t142.5 -71t113 -122t63 -170.5v50q-2 129 -31.5 239.5t-75.5 189t-110.5 142t-131.5 103t-143 67.5l-244 -244l-30 31l229 227q-150 49 -309 49v48q179 0 346 -60l172 174l31 -30l-160 -162 q81 -32 150.5 -76.5t136 -114t113.5 -155.5t75.5 -205.5t28.5 -259.5q0 -258 -138.5 -411.5t-365.5 -153.5q-218 0 -357 131t-139 348zM150 459q0 -197 124 -314.5t322 -117.5q177 0 293 102.5t149 278.5q-2 114 -42 205t-105 146t-144 84t-165 29q-181 0 -306.5 -115.5 t-125.5 -297.5z" />
<glyph unicode="&#xf1;" horiz-adv-x="1175" d="M172 0v983h45v-221q27 42 64.5 81.5t90 77t121.5 60.5t144 23q165 0 273 -108t108 -292v-604h-49v600q0 168 -95 263t-241 95q-75 0 -142.5 -23.5t-118 -63.5t-87.5 -84t-64 -93v-694h-49zM293 1176q-9 64 24.5 106.5t92.5 42.5q56 0 177.5 -57.5t166.5 -57.5t65 27 t15 76h45q8 -66 -23.5 -107t-93.5 -41q-47 0 -113 28.5t-129 57.5t-102 29q-42 0 -64 -29t-16 -75h-45z" />
<glyph unicode="&#xf2;" horiz-adv-x="1212" d="M100 492q0 119 42 217.5t112.5 162t161 98t190.5 34.5q101 0 191.5 -34.5t161 -98t112 -162t41.5 -217.5t-41.5 -217.5t-112 -162t-161 -98t-191.5 -34.5q-100 0 -190.5 34.5t-161 98t-112.5 162t-42 217.5zM150 492q0 -108 37 -197.5t100 -147t145 -89t174 -31.5 t174.5 31.5t145.5 89t100 147t37 197.5q0 143 -64 250.5t-166.5 160.5t-226.5 53t-226.5 -53t-166 -160t-63.5 -251zM432 1399h62l180 -273h-58z" />
<glyph unicode="&#xf3;" horiz-adv-x="1212" d="M100 492q0 119 42 217.5t112.5 162t161 98t190.5 34.5q101 0 191.5 -34.5t161 -98t112 -162t41.5 -217.5t-41.5 -217.5t-112 -162t-161 -98t-191.5 -34.5q-100 0 -190.5 34.5t-161 98t-112.5 162t-42 217.5zM150 492q0 -108 37 -197.5t100 -147t145 -89t174 -31.5 t174.5 31.5t145.5 89t100 147t37 197.5q0 143 -64 250.5t-166.5 160.5t-226.5 53t-226.5 -53t-166 -160t-63.5 -251zM530 1126l181 273h61l-184 -273h-58z" />
<glyph unicode="&#xf4;" horiz-adv-x="1212" d="M100 492q0 119 42 217.5t112.5 162t161 98t190.5 34.5q101 0 191.5 -34.5t161 -98t112 -162t41.5 -217.5t-41.5 -217.5t-112 -162t-161 -98t-191.5 -34.5q-100 0 -190.5 34.5t-161 98t-112.5 162t-42 217.5zM150 492q0 -108 37 -197.5t100 -147t145 -89t174 -31.5 t174.5 31.5t145.5 89t100 147t37 197.5q0 143 -64 250.5t-166.5 160.5t-226.5 53t-226.5 -53t-166 -160t-63.5 -251zM328 1126l258 256h43l260 -256h-60l-221 217l-221 -217h-59z" />
<glyph unicode="&#xf5;" horiz-adv-x="1212" d="M100 492q0 119 42 217.5t112.5 162t161 98t190.5 34.5q101 0 191.5 -34.5t161 -98t112 -162t41.5 -217.5t-41.5 -217.5t-112 -162t-161 -98t-191.5 -34.5q-100 0 -190.5 34.5t-161 98t-112.5 162t-42 217.5zM150 492q0 -108 37 -197.5t100 -147t145 -89t174 -31.5 t174.5 31.5t145.5 89t100 147t37 197.5q0 143 -64 250.5t-166.5 160.5t-226.5 53t-226.5 -53t-166 -160t-63.5 -251zM315 1159q-9 64 24.5 107t92.5 43q56 0 177.5 -57.5t166.5 -57.5q90 0 80 102h45q8 -66 -23.5 -106.5t-93.5 -40.5q-47 0 -113 28.5t-129 57.5t-102 29 q-42 0 -64 -29.5t-16 -75.5h-45z" />
<glyph unicode="&#xf6;" horiz-adv-x="1212" d="M100 492q0 119 42 217.5t112.5 162t161 98t190.5 34.5q101 0 191.5 -34.5t161 -98t112 -162t41.5 -217.5t-41.5 -217.5t-112 -162t-161 -98t-191.5 -34.5q-100 0 -190.5 34.5t-161 98t-112.5 162t-42 217.5zM150 492q0 -108 37 -197.5t100 -147t145 -89t174 -31.5 t174.5 31.5t145.5 89t100 147t37 197.5q0 143 -64 250.5t-166.5 160.5t-226.5 53t-226.5 -53t-166 -160t-63.5 -251zM352 1243q0 20 14 33.5t33 13.5q20 0 33.5 -13.5t13.5 -33.5q0 -19 -13.5 -33t-33.5 -14q-19 0 -33 14t-14 33zM764 1243q0 20 14 33.5t33 13.5 q20 0 33.5 -13.5t13.5 -33.5q0 -19 -13.5 -33t-33.5 -14q-19 0 -33 14t-14 33z" />
<glyph unicode="&#xf7;" horiz-adv-x="1314" d="M166 692v49h983v-49h-983zM610 256q0 20 13 32.5t32 12.5q20 0 33.5 -12.5t13.5 -32.5t-13.5 -32.5t-33.5 -12.5q-19 0 -32 12.5t-13 32.5zM610 1171q0 20 13 33t32 13q20 0 33.5 -13t13.5 -33t-13.5 -32.5t-33.5 -12.5q-19 0 -32 12.5t-13 32.5z" />
<glyph unicode="&#xf8;" horiz-adv-x="1212" d="M100 492q0 119 42 217.5t112.5 162t161 98t190.5 34.5q140 0 260 -66l111 174h45l-123 -194q99 -66 156 -174.5t57 -251.5q0 -119 -41.5 -217.5t-112 -162t-161 -98t-191.5 -34.5q-145 0 -264 67l-104 -166h-48l119 189q-97 66 -153 173.5t-56 248.5zM150 492 q0 -127 49.5 -224.5t136.5 -158.5l504 790q-108 57 -234 57q-124 0 -226.5 -53t-166 -160t-63.5 -251zM371 88q104 -61 237 -61q123 0 225.5 53t167 161t64.5 251q0 129 -51 227.5t-140 159.5z" />
<glyph unicode="&#xf9;" horiz-adv-x="1175" d="M158 379v604h49v-600q0 -169 93.5 -263.5t242.5 -94.5q75 0 142.5 23.5t118 63.5t87 84t63.5 93v694h50v-983h-46v221q-27 -42 -64.5 -81t-89.5 -77t-121 -60.5t-144 -22.5q-167 0 -274 107t-107 292zM422 1415h61l181 -272h-58z" />
<glyph unicode="&#xfa;" horiz-adv-x="1175" d="M158 379v604h49v-600q0 -169 93.5 -263.5t242.5 -94.5q75 0 142.5 23.5t118 63.5t87 84t63.5 93v694h50v-983h-46v221q-27 -42 -64.5 -81t-89.5 -77t-121 -60.5t-144 -22.5q-167 0 -274 107t-107 292zM520 1143l180 272h62l-184 -272h-58z" />
<glyph unicode="&#xfb;" horiz-adv-x="1175" d="M158 379v604h49v-600q0 -169 93.5 -263.5t242.5 -94.5q75 0 142.5 23.5t118 63.5t87 84t63.5 93v694h50v-983h-46v221q-27 -42 -64.5 -81t-89.5 -77t-121 -60.5t-144 -22.5q-167 0 -274 107t-107 292zM317 1143l258 256h43l261 -256h-60l-221 217l-221 -217h-60z" />
<glyph unicode="&#xfc;" horiz-adv-x="1175" d="M158 379v604h49v-600q0 -169 93.5 -263.5t242.5 -94.5q75 0 142.5 23.5t118 63.5t87 84t63.5 93v694h50v-983h-46v221q-27 -42 -64.5 -81t-89.5 -77t-121 -60.5t-144 -22.5q-167 0 -274 107t-107 292zM342 1260q0 20 14 33.5t33 13.5q20 0 33.5 -13.5t13.5 -33.5 q0 -19 -13.5 -33.5t-33.5 -14.5q-19 0 -33 14.5t-14 33.5zM754 1260q0 20 14 33.5t33 13.5q20 0 33.5 -13.5t13.5 -33.5q0 -19 -13.5 -33.5t-33.5 -14.5q-19 0 -33 14.5t-14 33.5z" />
<glyph unicode="&#xfd;" horiz-adv-x="1085" d="M35 983h53l479 -932l418 932h53l-522 -1163q-70 -158 -148 -224.5t-178 -66.5q-48 0 -100 12v45q50 -12 96 -12q92 0 160.5 64t128.5 204l68 154zM453 1143l180 272h61l-184 -272h-57z" />
<glyph unicode="&#xfe;" horiz-adv-x="1255" d="M172 -451v1885h49v-703q60 120 179 196.5t268 76.5q213 0 350 -140t137 -372t-137 -372t-350 -140q-149 0 -268 76.5t-179 195.5v-703h-49zM221 342q47 -137 167.5 -227t275.5 -90q194 0 318 126t124 341q0 214 -123.5 340t-318.5 126q-155 0 -275.5 -90t-167.5 -227 v-299z" />
<glyph unicode="&#xff;" horiz-adv-x="1085" d="M35 983h53l479 -932l418 932h53l-522 -1163q-70 -158 -148 -224.5t-178 -66.5q-48 0 -100 12v45q50 -12 96 -12q92 0 160.5 64t128.5 204l68 154zM274 1260q0 20 14.5 33.5t33.5 13.5q20 0 33.5 -13.5t13.5 -33.5q0 -19 -13.5 -33.5t-33.5 -14.5q-19 0 -33.5 14.5 t-14.5 33.5zM686 1260q0 20 14 33.5t33 13.5q20 0 33.5 -13.5t13.5 -33.5q0 -19 -13.5 -33.5t-33.5 -14.5q-19 0 -33 14.5t-14 33.5z" />
<glyph unicode="&#x152;" horiz-adv-x="2099" d="M106 717q0 108 28.5 212.5t89.5 199.5t146.5 167.5t208.5 115t267 42.5q152 0 250 -20h870v-50h-819v-639h758v-49h-758v-647h831v-49h-882q-98 -20 -250 -20q-144 0 -267 42.5t-208.5 115t-146.5 167.5t-89.5 199.5t-28.5 212.5zM160 717q0 -103 27.5 -202t84.5 -187 t137.5 -154.5t194 -105.5t246.5 -39q155 0 248 22v1331q-97 23 -248 23q-133 0 -246.5 -39t-194 -105.5t-137.5 -154.5t-84.5 -187t-27.5 -202z" />
<glyph unicode="&#x153;" horiz-adv-x="2035" d="M100 492q0 159 69 277t180.5 176.5t246.5 58.5q173 0 302 -96.5t171 -270.5q42 168 167.5 267.5t276.5 99.5q74 0 137 -18t108.5 -49t81.5 -73.5t56.5 -92t34 -103.5t12 -108.5t-7.5 -106.5h-839q2 -87 30.5 -159.5t74.5 -121.5t106.5 -82.5t125.5 -49t134 -15.5 q177 0 309 77v-47q-129 -75 -315 -75q-64 0 -126 13t-121.5 41.5t-108 70t-84.5 102.5t-52 135q-43 -171 -171.5 -266.5t-301.5 -95.5q-135 0 -246.5 58.5t-180.5 176.5t-69 277zM150 492q0 -144 60.5 -251t160.5 -160.5t225 -53.5t226 53.5t161.5 160.5t60.5 251 q0 109 -35 197.5t-96 146.5t-142.5 89t-174.5 31t-173.5 -31t-141.5 -89t-96 -146.5t-35 -197.5zM1096 498h798q6 63 -1.5 125t-34 123.5t-69.5 108t-112.5 75t-158.5 28.5q-80 0 -153.5 -30t-133 -86t-96.5 -145t-39 -199z" />
<glyph unicode="&#x178;" horiz-adv-x="1280" d="M49 1434h57l533 -803l532 803h58l-563 -852v-582h-52v582zM387 1710q0 20 14 33.5t33 13.5q20 0 33.5 -13.5t13.5 -33.5q0 -19 -13.5 -33t-33.5 -14q-19 0 -33 14t-14 33zM799 1710q0 20 14 33.5t33 13.5q20 0 33.5 -13.5t13.5 -33.5q0 -19 -13.5 -33t-33.5 -14 q-19 0 -33 14t-14 33z" />
<glyph unicode="&#x2c6;" horiz-adv-x="528" d="M-16 1593l258 256h43l260 -256h-60l-221 217l-221 -217h-59z" />
<glyph unicode="&#x2dc;" horiz-adv-x="630" d="M20 1626q-9 64 24.5 107t92.5 43q56 0 177.5 -57.5t166.5 -57.5q90 0 80 102h45q8 -66 -23.5 -106.5t-93.5 -40.5q-47 0 -113 29t-129 57.5t-102 28.5q-42 0 -63.5 -29.5t-15.5 -75.5h-46z" />
<glyph unicode="&#x2000;" horiz-adv-x="944" />
<glyph unicode="&#x2001;" horiz-adv-x="1888" />
<glyph unicode="&#x2002;" horiz-adv-x="944" />
<glyph unicode="&#x2003;" horiz-adv-x="1888" />
<glyph unicode="&#x2004;" horiz-adv-x="629" />
<glyph unicode="&#x2005;" horiz-adv-x="472" />
<glyph unicode="&#x2006;" horiz-adv-x="314" />
<glyph unicode="&#x2007;" horiz-adv-x="314" />
<glyph unicode="&#x2008;" horiz-adv-x="236" />
<glyph unicode="&#x2009;" horiz-adv-x="377" />
<glyph unicode="&#x200a;" horiz-adv-x="104" />
<glyph unicode="&#x2010;" horiz-adv-x="993" d="M145 473v47h703v-47h-703z" />
<glyph unicode="&#x2011;" horiz-adv-x="993" d="M145 473v47h703v-47h-703z" />
<glyph unicode="&#x2012;" horiz-adv-x="993" d="M145 473v47h703v-47h-703z" />
<glyph unicode="&#x2013;" horiz-adv-x="1161" d="M145 473v47h871v-47h-871z" />
<glyph unicode="&#x2014;" horiz-adv-x="1533" d="M145 473v47h1244v-47h-1244z" />
<glyph unicode="&#x2018;" horiz-adv-x="370" d="M121 995l110 439h43l-102 -439h-51z" />
<glyph unicode="&#x2019;" horiz-adv-x="368" d="M123 995l102 439h51l-110 -439h-43z" />
<glyph unicode="&#x201a;" horiz-adv-x="348" d="M66 -291l102 438h51l-110 -438h-43z" />
<glyph unicode="&#x201c;" horiz-adv-x="624" d="M121 995l110 439h43l-102 -439h-51zM375 995l110 439h43l-102 -439h-51z" />
<glyph unicode="&#x201d;" horiz-adv-x="622" d="M123 995l102 439h51l-110 -439h-43zM377 995l102 439h51l-110 -439h-43z" />
<glyph unicode="&#x201e;" horiz-adv-x="602" d="M66 -291l102 438h51l-110 -438h-43zM319 -291l103 438h51l-111 -438h-43z" />
<glyph unicode="&#x2022;" horiz-adv-x="573" d="M203 717q0 36 24 59t58 23q35 0 59.5 -23t24.5 -59t-24.5 -59t-59.5 -23q-34 0 -58 23t-24 59z" />
<glyph unicode="&#x2026;" horiz-adv-x="894" d="M127 33q0 20 14 32.5t33 12.5t32 -12.5t13 -32.5t-13 -32.5t-32 -12.5t-33 12.5t-14 32.5zM401 33q0 20 14.5 32.5t33.5 12.5t32 -12.5t13 -32.5t-13 -32.5t-32 -12.5t-33.5 12.5t-14.5 32.5zM674 33q0 20 13.5 32.5t31.5 12.5q20 0 33.5 -12.5t13.5 -32.5t-13.5 -32.5 t-33.5 -12.5q-18 0 -31.5 12.5t-13.5 32.5z" />
<glyph unicode="&#x202f;" horiz-adv-x="377" />
<glyph unicode="&#x2039;" horiz-adv-x="542" d="M106 483v17l242 342h55l-247 -350l247 -351h-55z" />
<glyph unicode="&#x203a;" horiz-adv-x="542" d="M139 141l248 351l-248 350h56l241 -342v-17l-241 -342h-56z" />
<glyph unicode="&#x205f;" horiz-adv-x="472" />
<glyph unicode="&#x20ac;" horiz-adv-x="1517" d="M96 524v45h172q-10 62 -10 119q0 70 12 135h-174v45h183q23 104 72.5 193t117 153t150 109.5t173 67.5t183.5 22q228 0 399 -98v-51q-173 100 -395 100q-108 0 -211 -32t-190.5 -93t-152.5 -156.5t-93 -214.5h809v-45h-819q-13 -70 -13 -135q0 -57 10 -119h822v-45h-813 q21 -99 68 -181t110 -139.5t141.5 -97.5t162.5 -58.5t173 -18.5q219 0 391 102v-51q-171 -100 -399 -100q-95 0 -185.5 21t-174.5 65t-152 107.5t-117.5 153.5t-71.5 197h-178z" />
<glyph unicode="&#x2122;" horiz-adv-x="1341" d="M96 1399v35h418v-35h-190v-479h-37v479h-191zM625 920v514h41l231 -322l233 322h39v-514h-34v460l-226 -311h-24l-223 311v-460h-37z" />
<glyph unicode="&#x25fc;" horiz-adv-x="983" d="M0 0v983h983v-983h-983z" />
<glyph unicode="&#xfb01;" horiz-adv-x="1073" d="M49 936v47h168v156q0 152 95 233.5t239 81.5q168 0 321 -92v-51q-155 98 -319 98q-130 0 -208.5 -71.5t-78.5 -198.5v-156h629v-983h-49v936h-580v-936h-49v936h-168z" />
<glyph unicode="&#xfb02;" horiz-adv-x="1093" d="M49 936v47h168v156q0 152 95 233.5t239 81.5q171 0 315 -80v51l49 17v-1442h-49v1327q-144 82 -313 82q-130 0 -208.5 -71.5t-78.5 -198.5v-156h400v-47h-400v-936h-49v936h-168z" />
<glyph unicode="&#xfb03;" horiz-adv-x="1708" d="M49 936v47h168v119q0 154 97.5 234.5t252.5 80.5q94 0 169 -25.5t155 -80.5q42 72 120.5 109.5t174.5 37.5q168 0 321 -92v-51q-155 98 -319 98q-129 0 -208 -69.5t-79 -188.5v-172h629v-983h-49v936h-580v-936h-49v936h-586v-936h-49v936h-168zM266 983h586v172 q0 59 20 117q-72 50 -142.5 75t-160.5 25q-141 0 -222 -71t-81 -199v-119z" />
<glyph unicode="&#xfb04;" horiz-adv-x="1728" d="M49 936v47h168v119q0 154 97.5 234.5t252.5 80.5q94 0 170.5 -26t157.5 -82q40 74 117.5 111.5t173.5 37.5q171 0 315 -80v52l49 16v-1446h-49v1331q-144 82 -313 82q-130 0 -208.5 -72t-78.5 -202v-156h399v-47h-399v-936h-49v936h-586v-936h-49v936h-168zM266 983h586 v156q0 73 25 131q-75 51 -146 76.5t-162 25.5q-141 0 -222 -71t-81 -199v-119z" />
</font>
</defs>
</svg>
