<?xml version="1.0" standalone="no"?>
<!DOCTYPE svg PUBLIC "-//W3C//DTD SVG 1.1//EN" "http://www.w3.org/Graphics/SVG/1.1/DTD/svg11.dtd" >
<svg xmlns="http://www.w3.org/2000/svg">
<metadata></metadata>
<defs>
<font id="mullermedium_italic" horiz-adv-x="1269" >
<font-face units-per-em="2048" ascent="1597" descent="-451" />
<missing-glyph horiz-adv-x="487" />
<glyph horiz-adv-x="0" />
<glyph horiz-adv-x="682" />
<glyph unicode=" "  horiz-adv-x="487" />
<glyph unicode="&#x09;" horiz-adv-x="487" />
<glyph unicode="&#xa0;" horiz-adv-x="487" />
<glyph unicode="!" horiz-adv-x="509" d="M45 123q10 58 50 88.5t93 30.5q62 0 98.5 -39.5t26.5 -108.5q-9 -58 -48.5 -88.5t-94.5 -30.5q-62 0 -98.5 39.5t-26.5 108.5zM133 451l139 983h232l-172 -983h-199z" />
<glyph unicode="&#x22;" horiz-adv-x="733" d="M184 1028l66 406h201l-113 -406h-154zM506 1028l65 406h201l-113 -406h-153z" />
<glyph unicode="#" horiz-adv-x="1374" d="M33 332l26 174h195l152 383h-181l27 174h221l131 330h213l-127 -330h320l129 330h215l-131 -330h149l-29 -174h-190l-152 -383h179l-27 -174h-219l-131 -332h-215l131 332h-320l-131 -332h-213l129 332h-151zM467 506h319l152 383h-320z" />
<glyph unicode="$" horiz-adv-x="1224" d="M25 102l34 222q189 -138 476 -138q92 0 162 16t121.5 57t62.5 106q7 48 -15 86.5t-65 66t-101 52t-122.5 48.5t-128.5 50.5t-120 63t-97 81.5t-58.5 110.5t-5.5 145.5q18 105 91.5 183t174 117t219.5 46l39 244h180l-38 -246q199 -26 327 -106l-33 -213 q-161 112 -417 112q-80 0 -144 -14.5t-109.5 -50.5t-54.5 -90q-8 -49 13.5 -89t64.5 -68.5t101 -54t122.5 -49.5t128.5 -50.5t120.5 -62t97.5 -79.5t59 -107.5t6 -140.5t-46 -139t-82 -104t-111 -71t-129 -43t-140 -18l-39 -241h-180l39 246q-237 22 -403 122z" />
<glyph unicode="%" horiz-adv-x="1861" d="M150 1139q17 102 77 176t141.5 109.5t174.5 35.5q69 0 129.5 -23.5t105 -66.5t65 -110.5t7.5 -149.5q-24 -151 -136 -236.5t-255 -85.5q-70 0 -131 23.5t-105.5 67t-65 111t-7.5 149.5zM305 -123l1104 1679h186l-1103 -1679h-187zM334 1118q-8 -65 25 -110t108 -45 q82 0 134 47.5t63 119.5q7 65 -26.5 110.5t-105.5 45.5q-84 0 -136.5 -47.5t-61.5 -120.5zM1049 324q25 151 138 236t257 85q68 0 128.5 -23.5t104.5 -66.5t64.5 -111t7.5 -149q-24 -151 -136 -236.5t-255 -85.5q-69 0 -130 23.5t-106 67t-65.5 111.5t-7.5 149zM1235 303 q-8 -65 25 -110.5t108 -45.5q82 0 134 48t61 120q8 65 -24.5 110.5t-104.5 45.5q-84 0 -137 -47.5t-62 -120.5z" />
<glyph unicode="&#x26;" horiz-adv-x="1447" d="M57 373q10 69 45.5 129.5t89.5 108t106.5 81t117.5 66.5q-144 179 -115 350q25 154 164.5 253t329.5 99q111 0 203 -45t140.5 -126.5t32.5 -178.5q-7 -43 -27 -84t-44 -73t-63.5 -65.5t-70.5 -55.5t-81.5 -50t-79.5 -42.5t-80 -39.5l279 -305q99 136 116 289h219 q-31 -244 -202 -436l227 -248h-248l-117 125q-216 -152 -489 -152q-229 0 -355 114.5t-98 285.5zM283 365q-15 -88 57.5 -143.5t206.5 -55.5q179 0 321 102l-323 348q-69 -31 -118 -61.5t-92.5 -81t-51.5 -108.5zM510 1073q-15 -100 88 -231q52 21 91.5 39.5t90 46.5 t84 55.5t60 63.5t32.5 73q12 64 -41.5 108t-132.5 44q-121 0 -191 -55.5t-81 -143.5z" />
<glyph unicode="'" horiz-adv-x="411" d="M184 1028l66 406h201l-113 -406h-154z" />
<glyph unicode="(" horiz-adv-x="616" d="M102 731q40 242 159.5 488.5t289.5 439.5h194q-156 -206 -265 -452.5t-146 -491.5q-40 -238 -11 -493.5t119 -446.5h-184q-108 204 -151 455.5t-5 500.5z" />
<glyph unicode=")" horiz-adv-x="616" d="M-92 -225q156 203 265.5 452.5t148.5 497.5q38 239 9 490.5t-118 443.5h184q108 -204 150.5 -459t3.5 -504q-38 -239 -157.5 -482t-289.5 -439h-196z" />
<glyph unicode="*" horiz-adv-x="935" d="M154 1094l98 190l229 -106l19 256h202l-65 -256l260 106l41 -190l-272 -60l149 -200l-180 -117l-103 248l-182 -248l-155 117l206 200z" />
<glyph unicode="+" horiz-adv-x="1095" d="M84 618l31 197h370l58 369h194l-57 -369h369l-31 -197h-371l-57 -368h-195l58 368h-369z" />
<glyph unicode="," horiz-adv-x="489" d="M-115 -303l203 508h234l-256 -508h-181z" />
<glyph unicode="-" horiz-adv-x="993" d="M94 406l31 196h745l-30 -196h-746z" />
<glyph unicode="." horiz-adv-x="468" d="M29 125q8 59 49 89t96 30q63 0 99.5 -38.5t25.5 -107.5q-9 -60 -49 -90.5t-96 -30.5q-62 0 -99 39.5t-26 108.5z" />
<glyph unicode="/" horiz-adv-x="901" d="M-55 -121l882 1675h166l-882 -1675h-166z" />
<glyph unicode="0" horiz-adv-x="1439" d="M103.5 475.5q-5.5 110.5 11.5 235.5q24 153 80.5 280t145 224t216 150.5t283.5 53.5q123 0 221 -37t161 -103.5t102.5 -158.5t45 -202.5t-11.5 -235.5q-19 -122 -58.5 -227.5t-102 -194.5t-143.5 -152.5t-189 -99t-234 -35.5q-122 0 -219.5 37t-160.5 103.5t-102.5 159 t-45 203zM344 696q-38 -244 35.5 -377t263.5 -133q403 0 485 510q38 244 -35.5 377t-265.5 133q-401 0 -483 -510z" />
<glyph unicode="1" horiz-adv-x="907" d="M12 0l35 211h279l149 942l-295 -104l35 215l358 129h172l-188 -1182h248l-35 -211h-758z" />
<glyph unicode="2" horiz-adv-x="1198" d="M-4 0l18 115q9 55 25.5 105.5t36 91t49.5 79.5t57 68.5t67.5 61t71 52.5t79 48t80 43.5t83.5 42.5q165 85 220 124q126 90 145 203q12 85 -51 129.5t-189 44.5q-232 0 -479 -161l37 233q222 139 475 139q101 0 186.5 -26.5t147 -76t90 -127.5t12.5 -175 q-11 -67 -39.5 -125t-64 -101.5t-94 -88.5t-110 -77t-130.5 -75q-26 -14 -76.5 -41.5t-75 -41t-66 -38t-63.5 -40t-51 -39t-44 -43t-28 -44t-18 -49.5h743l-34 -211h-1010z" />
<glyph unicode="3" horiz-adv-x="1212" d="M23 70l32 213q183 -102 434 -99q95 0 172.5 22.5t133.5 75.5t69 132q16 108 -51.5 153t-202.5 45h-231l35 207h188q128 0 207.5 53.5t93.5 143.5q14 92 -52 142t-204 50q-215 0 -444 -116l35 227q205 100 454 100q136 0 241 -47t159 -138t36 -210q-17 -104 -85 -183 t-171 -112q38 -12 71.5 -31.5t64 -50t49 -71t27 -93t-2.5 -116.5q-16 -99 -71 -176.5t-135.5 -124t-176.5 -70t-202 -23.5q-262 0 -473 97z" />
<glyph unicode="4" horiz-adv-x="1327" d="M2 285l31 198l885 910h243l-145 -906h237l-30 -202h-238l-45 -285h-227l45 285h-756zM303 487h488l94 598z" />
<glyph unicode="5" horiz-adv-x="1193" d="M20 70l33 209q74 -45 178.5 -70t210.5 -25q168 0 278 63t128 187q22 127 -66 186.5t-254 59.5q-189 0 -381 -66l164 779h856l-32 -209h-646l-75 -334q96 22 209 22q78 0 149 -16t134.5 -51.5t107 -88t62 -132t3.5 -176.5q-17 -107 -74 -191.5t-142 -137t-188 -79.5 t-218 -27q-251 0 -437 97z" />
<glyph unicode="6" horiz-adv-x="1292" d="M115 698q29 184 100.5 324.5t172 226t220.5 128t256 42.5q194 0 353 -86l-33 -203q-133 82 -312 82q-83 0 -157 -23t-142.5 -72t-122.5 -135.5t-85 -203.5q199 107 409 107q86 0 167 -30t144.5 -85.5t94.5 -145.5t14 -198q-23 -145 -108 -249t-205.5 -154t-262.5 -50 q-298 0 -428 193t-75 532zM328 557q-25 -383 286 -383q65 0 121 14.5t103.5 44.5t79.5 82.5t43 122.5q20 127 -55.5 184.5t-207.5 57.5q-194 0 -370 -123z" />
<glyph unicode="7" horiz-adv-x="1130" d="M141 1184l35 209h1034l-28 -185l-768 -1208h-256l753 1184h-770z" />
<glyph unicode="8" horiz-adv-x="1335" d="M63 406q14 97 87 190t196 160q-161 124 -129 305q11 68 49.5 130t104.5 114t170 83t233 31q117 0 214.5 -35.5t158.5 -94t90.5 -132.5t19.5 -151q-24 -186 -235 -320q215 -121 180 -346q-12 -75 -54 -139.5t-114.5 -116t-185 -81.5t-252.5 -30q-141 0 -251.5 36 t-175.5 96.5t-92.5 138t-13.5 162.5zM295 412q-15 -109 70.5 -174.5t255.5 -65.5q140 0 237.5 53t110.5 137q6 43 -5 77t-33 57t-60 42.5t-75 33t-89 29.5q-11 3 -17 5q-105 29 -182 60q-188 -105 -213 -254zM442 1042q-8 -52 8.5 -90.5t61.5 -66.5t79.5 -42t100.5 -36 q63 -15 156 -47q158 111 180 246q13 89 -59 152t-211 63q-131 0 -217.5 -50t-98.5 -129z" />
<glyph unicode="9" horiz-adv-x="1290" d="M106 57l31 205q131 -82 314 -82q86 0 161 23t143 72t121.5 135t84.5 204q-201 -104 -406 -104q-89 0 -171 29.5t-146.5 84.5t-95.5 144.5t-13 198.5q24 145 109.5 249t206 153.5t262.5 49.5q297 0 426.5 -193t74.5 -532q-23 -148 -74 -268t-121 -203.5t-159 -140.5 t-187.5 -83t-207.5 -26q-195 0 -353 84zM362 958q-10 -68 6.5 -117t56 -76t89.5 -39.5t113 -12.5q193 0 368 123q22 381 -293 381q-133 0 -225.5 -64t-114.5 -195z" />
<glyph unicode=":" horiz-adv-x="518" d="M47 125q8 59 49.5 89t96.5 30q63 0 99.5 -38.5t24.5 -107.5q-9 -60 -49 -90.5t-96 -30.5q-62 0 -99 39.5t-26 108.5zM154 797q8 59 48.5 88.5t94.5 29.5q65 0 101.5 -38.5t25.5 -108.5q-10 -60 -50 -89.5t-98 -29.5q-61 0 -97 39t-25 109z" />
<glyph unicode=";" horiz-adv-x="581" d="M-72 -303l203 508h234l-256 -508h-181zM190 862q10 59 51.5 89t96.5 30q64 0 100 -38t25 -107q-9 -61 -49 -91t-97 -30q-62 0 -99.5 38.5t-27.5 108.5z" />
<glyph unicode="&#x3c;" horiz-adv-x="1032" d="M88 608l35 219l840 306l-33 -207l-619 -211l551 -209l-31 -205z" />
<glyph unicode="=" horiz-adv-x="1163" d="M104 426l31 195h901l-30 -195h-902zM166 813l31 197h901l-31 -197h-901z" />
<glyph unicode="&#x3e;" horiz-adv-x="1032" d="M106 301l33 205l621 215l-553 207l31 205l743 -306l-35 -219z" />
<glyph unicode="?" horiz-adv-x="1011" d="M158 1135l35 219q193 106 403 106q75 0 142.5 -13.5t125 -43t97.5 -71.5t57 -103.5t4 -134.5q-9 -57 -38 -112.5t-69.5 -101.5t-87.5 -91t-93.5 -87t-85.5 -82.5t-66 -85.5t-33 -88h-213q10 67 45.5 132.5t82 114.5t100.5 101.5t100 95.5t80 94t42 99q14 90 -48.5 127 t-192.5 37q-179 0 -387 -112zM256 125q8 59 49 89t96 30q63 0 99.5 -38.5t25.5 -107.5q-9 -60 -49 -90.5t-96 -30.5q-62 0 -99 39.5t-26 108.5z" />
<glyph unicode="@" horiz-adv-x="2152" d="M72 520q30 185 123.5 353.5t238 299.5t349 209t438.5 78q182 0 333 -55t250 -146.5t163.5 -209t85 -243t1.5 -247.5q-43 -271 -175 -408t-327 -137q-124 0 -204 57t-97 154q-117 -164 -317 -164q-113 0 -197.5 60.5t-121 161t-17.5 217.5q27 175 152 294t301 119 q92 0 163.5 -46t104.5 -113l22 139h187l-84 -531q-13 -87 15 -130.5t108 -43.5q111 0 180.5 107t97.5 285q15 95 -0.5 191t-64.5 184.5t-125 156.5t-191 109t-254 41q-188 0 -352.5 -61.5t-282 -166.5t-194.5 -243t-102 -293q-28 -182 19.5 -331.5t152 -245.5t249.5 -148 t314 -52q226 0 465 76l-29 -205q-206 -69 -453 -69q-167 0 -318.5 41.5t-275.5 125t-208.5 201t-118.5 279.5t-4 350zM795 483q-15 -104 36 -174.5t148 -70.5q93 0 168.5 53t107.5 125l25 153q-10 72 -62.5 121t-138.5 49q-106 0 -185.5 -71t-98.5 -185z" />
<glyph unicode="A" horiz-adv-x="1490" d="M-84 0l834 1434h258l376 -1434h-239l-78 309h-721l-176 -309h-254zM461 514h557l-154 608q-8 31 -14 88q-17 -49 -41 -90z" />
<glyph unicode="B" horiz-adv-x="1413" d="M80 0l227 1434h594q139 0 245 -42q106 -40 162 -128q42 -65 43 -150q0 -28 -5 -59q-21 -120 -94.5 -195.5t-178.5 -105.5q48 -15 89.5 -42t78.5 -70.5t52 -109.5q8 -37 8 -79q0 -33 -5 -70q-15 -91 -59.5 -161t-104 -111t-137.5 -67t-149.5 -35t-151.5 -9h-614zM346 205 h350q43 0 79 3t78 10.5t74.5 23.5t62.5 39.5t49.5 61t27.5 85.5q4 23 4 44q0 27 -7 50q-12 40 -37.5 62.5t-65 35.5t-74.5 17t-78 4h-393zM449 840l378 -2q113 0 189.5 50t93.5 150q4 22 4 42q0 70 -51 106q-65 46 -197 45h-356z" />
<glyph unicode="C" horiz-adv-x="1325" d="M100 514q-6 46 -6 95q0 68 12 143q22 136 85 253t150.5 199.5t193.5 141t216.5 86.5t217.5 28q228 0 391 -100l-33 -217q-123 102 -330 102q-107 0 -211.5 -32t-197.5 -93t-159 -163t-87 -230q-9 -53 -9 -102q1 -74 21 -139q34 -107 105.5 -170t162 -95.5t189.5 -32.5 q218 0 391 111l-37 -242q-172 -84 -409 -84q-90 0 -177 21.5t-167.5 64.5t-145 107.5t-108.5 152t-58 195.5z" />
<glyph unicode="D" horiz-adv-x="1515" d="M80 0l227 1434h496q238 0 397 -96q158 -96 220 -260q40 -106 40 -231q0 -69 -12 -145q-25 -156 -89.5 -282.5t-168.5 -221t-256.5 -146.5t-341.5 -52h-512zM348 213h262q252 0 408 135.5t194 382.5q10 63 10 117q0 154 -80 247q-110 126 -362 126h-272z" />
<glyph unicode="E" d="M80 0l227 1434h987l-34 -213h-754l-62 -392h693l-33 -213h-692l-64 -403h764l-33 -213h-999z" />
<glyph unicode="F" horiz-adv-x="1241" d="M80 0l227 1434h989l-34 -215h-756l-66 -420h697l-35 -217h-696l-93 -582h-233z" />
<glyph unicode="G" horiz-adv-x="1441" d="M104 745q19 121 67 226t115.5 182t150 136.5t174 96.5t184 55.5t184.5 18.5q243 0 424 -96l-33 -219q-129 100 -371 100q-85 0 -167.5 -17.5t-164.5 -58.5t-148 -100.5t-114 -150t-65 -201.5q-9 -61 -9 -114q0 -34 4 -65q9 -78 43 -137t79.5 -100t105.5 -66.5t119.5 -37 t122.5 -11.5q138 0 231 43l86 541h232l-111 -702q-226 -95 -465 -95q-116 0 -223 27.5t-201 89t-158 149.5t-90 219q-14 67 -14 141q0 70 12 146z" />
<glyph unicode="H" horiz-adv-x="1570" d="M80 0l227 1434h234l-97 -609h756l96 609h234l-227 -1434h-234l96 610h-755l-97 -610h-233z" />
<glyph unicode="I" horiz-adv-x="581" d="M80 0l227 1434h234l-228 -1434h-233z" />
<glyph unicode="J" horiz-adv-x="1044" d="M-55 61l35 218q116 -82 294 -82q310 0 353 262l118 760h-401l35 215h637l-160 -1010q-19 -121 -69 -209.5t-125 -140t-163 -75.5t-192 -24q-226 0 -362 86z" />
<glyph unicode="K" horiz-adv-x="1382" d="M80 0l227 1434h234l-95 -598h285l492 598h262l-582 -713l385 -721h-248l-333 621h-295l-99 -621h-233z" />
<glyph unicode="L" horiz-adv-x="1181" d="M80 0l227 1434h234l-193 -1217h754l-35 -217h-987z" />
<glyph unicode="M" horiz-adv-x="1857" d="M80 0l227 1434h211l402 -822l657 822h240l-228 -1434h-233l162 1018l-551 -686h-154l-336 688l-164 -1020h-233z" />
<glyph unicode="N" horiz-adv-x="1570" d="M80 0l227 1434h197l631 -1057q10 102 20 170l141 887h234l-227 -1434h-197l-631 1057q-6 -88 -18 -164l-144 -893h-233z" />
<glyph unicode="O" horiz-adv-x="1673" d="M102 731q18 113 64 219t122 199t174 162t227 109t274 40q115 0 215 -29.5t174.5 -81t132.5 -123t88.5 -156t42.5 -178.5q5 -37 5 -75q0 -57 -11 -115q-19 -114 -63.5 -219t-119 -198.5t-171.5 -162.5t-228 -109t-280 -40q-173 0 -309 64t-215.5 170t-111.5 242 q-19 80 -20 163q0 58 10 119zM332 586q6 -64 22.5 -121t53 -107t84.5 -86.5t117.5 -57.5t152.5 -21q128 0 237 42.5t185 115.5t124.5 167.5t65.5 202.5q8 46 8 91q0 50 -10 98q-18 91 -67 166t-141.5 120t-215.5 45q-128 0 -236.5 -42.5t-184 -115.5t-124 -167.5 t-65.5 -202.5q-9 -42 -9 -84q1 -22 3 -43z" />
<glyph unicode="P" horiz-adv-x="1361" d="M80 0l227 1434h522q95 0 176.5 -14.5t155.5 -50t122 -89.5t69 -139q12 -47 11 -101q0 -44 -7 -92q-13 -87 -45 -157t-79.5 -119.5t-106 -85t-131.5 -56t-149.5 -29.5t-164.5 -9h-289l-78 -492h-233zM426 705h289q83 0 148 12.5t120.5 41.5t91 82.5t47.5 129.5q4 26 4 49 q0 31 -8 57q-14 46 -41.5 72.5t-71.5 43.5t-89 22.5t-99 5.5h-309z" />
<glyph unicode="Q" horiz-adv-x="1673" d="M102 731q18 113 64 219t122 199t174 162t227 109t274 40q115 0 215 -29.5t174.5 -81t132.5 -123t88.5 -156t42.5 -178.5q5 -37 5 -75q0 -57 -11 -115q-51 -304 -262 -501l153 -181l-170 -139l-162 193q-191 -101 -421 -101q-173 0 -309 64t-215.5 170t-111.5 242 q-20 80 -20 163q0 58 10 119zM332 586q6 -63 22.5 -120.5t53 -107.5t84.5 -86.5t117.5 -57.5t152.5 -21q145 0 256 57l-180 213l166 141l196 -231q142 139 174 348q8 46 8 91q0 50 -10 98q-18 91 -67 166t-141.5 120t-215.5 45q-128 0 -236.5 -42.5t-184 -115.5t-124 -167.5 t-65.5 -202.5q-9 -42 -9 -84q0 -21 3 -43z" />
<glyph unicode="R" horiz-adv-x="1435" d="M80 0l227 1434h570q82 0 156.5 -14t142.5 -48.5t114 -85.5q46 -52 66 -133q12 -45 11 -97q0 -40 -7 -85q-51 -328 -412 -410l363 -561h-262l-342 537h-308l-86 -537h-233zM434 743h346q85 0 154.5 22.5t123 79.5t68.5 144q4 24 4 46q0 37 -11 67q-17 48 -57 72.5 t-89 35.5t-111 11h-352z" />
<glyph unicode="S" horiz-adv-x="1208" d="M23 102l34 220q196 -136 469 -136q319 0 346 179q2 15 2 29q0 36 -14 66q-20 42 -62.5 72.5t-99 57t-120 51.5t-126 52t-118 63.5t-95.5 80.5q-39 44 -57 109q-10 39 -11 82q0 30 5 62q15 93 68 166t130.5 116.5t168 65.5t188.5 22q124 0 239.5 -32t194.5 -87l-32 -215 q-77 61 -183 92q-99 29 -202 29h-13q-298 0 -323 -176q-2 -12 -2 -23q0 -35 17 -64q22 -39 64.5 -67t99.5 -53t120.5 -49.5t126.5 -51.5t117.5 -64.5t94 -83.5t56.5 -112q10 -37 9 -80q0 -32 -5 -67q-14 -86 -53.5 -153t-94 -109.5t-127 -70.5t-147 -39t-158.5 -11 q-296 0 -507 129z" />
<glyph unicode="T" horiz-adv-x="1232" d="M123 1219l35 215h1181l-34 -215h-474l-192 -1219h-233l192 1219h-475z" />
<glyph unicode="U" horiz-adv-x="1542" d="M147 539l144 895h233l-141 -897q-8 -49 -8 -90q-1 -41 7 -75q16 -68 60.5 -107t106.5 -57t147 -18q388 0 447 361l139 883h234l-144 -910q-20 -122 -67 -217.5t-110.5 -157.5t-146.5 -102t-170 -57t-186 -17t-186 18.5t-162.5 61.5t-125.5 107t-70 161q-10 50 -10 106 q0 53 9 112z" />
<glyph unicode="V" horiz-adv-x="1429" d="M150 1434h243l260 -1164l633 1164h260l-805 -1434h-241z" />
<glyph unicode="W" horiz-adv-x="2107" d="M154 1434h241l154 -1153l536 1153h199l168 -1139l510 1139h254l-666 -1434h-264l-156 1051l-491 -1051h-266z" />
<glyph unicode="X" horiz-adv-x="1347" d="M-104 0l665 743l-395 691h260l293 -514l457 514h286l-628 -703l419 -731h-260l-315 555l-496 -555h-286z" />
<glyph unicode="Y" horiz-adv-x="1384" d="M147 1434h250l310 -689l528 689h270l-706 -908l-86 -526h-234l86 526z" />
<glyph unicode="Z" horiz-adv-x="1226" d="M-25 0l27 184l920 1035h-727l32 215h1037l-29 -187l-918 -1030h783l-35 -217h-1090z" />
<glyph unicode="[" horiz-adv-x="628" d="M6 -225l299 1884h432l-30 -207h-209l-236 -1470h209l-31 -207h-434z" />
<glyph unicode="\" horiz-adv-x="888" d="M209 1554h158l352 -1675h-158z" />
<glyph unicode="]" horiz-adv-x="628" d="M-70 -225l31 207h211l234 1470h-209l30 207h435l-297 -1884h-435z" />
<glyph unicode="^" horiz-adv-x="1140" d="M109 754l501 680h193l289 -680h-230l-180 450l-326 -450h-247z" />
<glyph unicode="_" horiz-adv-x="958" d="M-145 -328l30 195h959l-31 -195h-958z" />
<glyph unicode="`" horiz-adv-x="444" d="M233 1874h256l138 -303h-224z" />
<glyph unicode="a" d="M59 506q17 103 65.5 195t120 160.5t168 108.5t203.5 40q129 0 218 -54.5t141 -138.5l24 166h197l-156 -983h-196l26 158q-160 -185 -397 -185q-145 0 -248 73q-103 72 -145 194q-28 80 -29 170q0 47 8 96zM276 489q-5 -33 -6 -64q0 -97 54 -167q70 -92 200 -92 q112 0 206.5 61t148.5 150l39 239q-22 85 -94 143t-177 58q-138 0 -242.5 -90.5t-128.5 -237.5z" />
<glyph unicode="b" horiz-adv-x="1267" d="M41 0l227 1434h219l-94 -582q158 158 371 158q143 0 246.5 -73t145.5 -195q28 -79 28 -167q0 -48 -8 -98q-15 -104 -61.5 -195.5t-116.5 -160t-168 -108.5t-209 -40q-88 0 -161 28.5t-117.5 68.5t-76.5 92l-30 -162h-195zM317 367q26 -87 97 -144t174 -57q147 0 247.5 88 t125.5 238q5 34 5 65q0 98 -53 168q-70 92 -198 92q-114 0 -207.5 -60t-149.5 -151z" />
<glyph unicode="c" horiz-adv-x="1013" d="M61 312q-8 44 -8.5 93t8.5 101q17 106 62 192.5t106.5 143t138 95.5t153.5 56t155 17q174 0 307 -86l-33 -193q-100 84 -254 84q-71 0 -136.5 -18.5t-124 -56t-100 -102.5t-54.5 -151q-5 -33 -6 -63q-1 -44 11 -80q18 -62 61 -100t101.5 -57t129.5 -19q143 0 307 82 l-33 -209q-151 -68 -326 -68q-84 0 -159.5 20.5t-139 63.5t-106.5 104.5t-60 150.5z" />
<glyph unicode="d" d="M59 506q23 139 97.5 253t193 182.5t258.5 68.5q123 0 210.5 -48t133.5 -122l97 594h219l-228 -1434h-194l24 162q-146 -189 -397 -189q-145 0 -248 73q-103 72 -145 194q-28 80 -29 170q0 47 8 96zM276 487q-5 -33 -6 -63q0 -96 54 -166q70 -92 200 -92q112 0 206.5 61 t148.5 150l41 241q-23 84 -96 141.5t-177 57.5q-138 0 -242.5 -90.5t-128.5 -239.5z" />
<glyph unicode="e" horiz-adv-x="1116" d="M59 504q15 100 57 185t99 143t127 99t142 60t143 19q112 0 197.5 -35.5t133.5 -95.5q49 -59 72 -137q18 -60 18 -127q0 -19 -2 -37q-6 -86 -38 -172h-742q-1 -65 27.5 -114t76.5 -77t105 -41.5t121 -13.5q192 0 338 76l-33 -197q-145 -66 -352 -66q-84 0 -162 21 t-145 65.5t-113 106.5q-45 60 -65 148q-11 49 -12 104q0 42 7 86zM291 569h547q6 30 8 64q0 5 1 11q1 30 -11 58q-14 34 -37 62t-68.5 45.5t-105.5 17.5q-119 0 -213.5 -70.5t-120.5 -187.5z" />
<glyph unicode="f" horiz-adv-x="800" d="M76 791l30 192h179l20 131q12 78 43.5 139.5t72 99.5t93 62.5t104 34.5t107.5 10q131 0 233 -45l-30 -184q-76 37 -168 37q-97 0 -160.5 -39t-79.5 -139l-16 -107h336l-31 -192h-336l-125 -791h-219l125 791h-178z" />
<glyph unicode="g" horiz-adv-x="1271" d="M29 -377l30 195q145 -103 365 -103q75 0 140 17t119.5 51.5t91 93.5t48.5 137l21 117q-61 -68 -154.5 -113t-216.5 -45q-145 0 -248 73t-145 194q-29 81 -29 170q0 47 8 96q23 138 99 252.5t196.5 183t261.5 68.5q239 0 355 -195l28 168h199l-156 -979 q-19 -126 -76.5 -221t-140.5 -150.5t-179.5 -82.5t-203.5 -27q-252 0 -413 100zM276 487q-5 -33 -5 -63q0 -97 53 -166q71 -92 200 -92q111 0 206 59t149 144l43 252q-25 83 -97.5 139.5t-177.5 56.5q-138 0 -242.5 -90.5t-128.5 -239.5z" />
<glyph unicode="h" horiz-adv-x="1202" d="M41 0l227 1434h219l-90 -568q70 64 160.5 104t181.5 40q182 0 275 -116q71 -89 71 -215q0 -38 -6 -79l-94 -600h-221l92 586q5 31 5 59q-1 72 -37 113q-50 57 -150 57q-86 0 -170 -50t-144 -122l-100 -643h-219z" />
<glyph unicode="i" horiz-adv-x="501" d="M47 0l156 983h219l-156 -983h-219zM229 1315q9 59 49.5 89t96.5 30q59 0 95 -39q28 -30 28 -79q0 -14 -2 -28q-10 -58 -49.5 -87.5t-94.5 -29.5q-62 0 -98 38q-28 30 -27 78q0 13 2 28z" />
<glyph unicode="j" horiz-adv-x="499" d="M-283 -444l31 186q44 -23 102 -23q153 0 177 160l176 1104h219l-184 -1159q-13 -85 -47.5 -146t-84 -93.5t-102.5 -47t-115 -14.5q-90 0 -172 33zM227 1315q9 59 49.5 89t96.5 30q60 0 95 -39q28 -30 28 -79q0 -13 -2 -28q-10 -58 -49.5 -87.5t-94.5 -29.5q-62 0 -98 38 q-27 30 -27 78q0 13 2 28z" />
<glyph unicode="k" horiz-adv-x="1085" d="M41 0l227 1434h219l-131 -826h168l334 375h256l-436 -485l309 -498h-235l-260 422h-164l-68 -422h-219z" />
<glyph unicode="l" horiz-adv-x="501" d="M47 0l238 1495h219l-238 -1495h-219z" />
<glyph unicode="m" horiz-adv-x="1806" d="M41 0l156 983h194l-22 -129q61 63 153.5 109.5t196.5 46.5t174.5 -41t105.5 -113q183 154 367 154q93 0 162 -34t105.5 -91.5t48.5 -128.5q6 -36 7 -75q0 -37 -6 -75l-96 -606h-219l98 618q3 22 3 42q1 63 -31 103q-42 52 -129 52q-78 0 -149 -42t-124 -99q0 -34 -6 -68 l-96 -606h-219l98 618q3 22 3 42q0 64 -32 103q-42 52 -129 52q-84 0 -159 -47.5t-131 -112.5l-105 -655h-219z" />
<glyph unicode="n" horiz-adv-x="1202" d="M41 0l156 983h194l-22 -141q78 76 175.5 122t200.5 46q179 0 271 -116q70 -89 69 -213q0 -38 -6 -79l-96 -602h-219l92 586q5 32 5 59q0 71 -36 113q-50 56 -151 57q-85 0 -169.5 -50t-144.5 -120l-100 -645h-219z" />
<glyph unicode="o" horiz-adv-x="1210" d="M59 508q19 121 78.5 218.5t143 158.5t182 93t201.5 32q102 0 192 -35.5t156 -101.5q67 -65 97 -169q18 -61 17 -130q0 -48 -8 -99q-18 -121 -78 -218.5t-144 -158.5t-182 -93t-200 -32q-103 0 -193.5 35.5t-156.5 101.5t-96 170q-18 62 -17 130q0 47 8 98zM276 483 q-5 -33 -5 -62q0 -95 54 -161q71 -86 207 -86q141 0 243.5 89t127.5 237q5 33 5 63q0 96 -54 161q-70 85 -207 85q-140 0 -243.5 -89t-127.5 -237z" />
<glyph unicode="p" horiz-adv-x="1267" d="M-31 -451l228 1434h194l-24 -160q154 187 397 187q143 0 246.5 -73t145.5 -195q28 -78 28 -167q0 -47 -8 -98q-32 -212 -187 -358t-368 -146q-231 0 -338 177l-95 -601h-219zM317 365q25 -85 96.5 -142t176.5 -57q138 0 242.5 91t128.5 239q5 33 5 63q0 97 -54 167 q-70 91 -199 91q-112 0 -206.5 -61.5t-150.5 -151.5z" />
<glyph unicode="q" d="M59 506q17 103 65.5 195t120 160.5t168 108.5t203.5 40q127 0 217.5 -56t139.5 -143l26 172h197l-227 -1434h-219l92 582q-143 -158 -369 -158q-145 0 -248 73t-145 194q-29 81 -29 170q0 47 8 96zM276 487q-5 -33 -5 -63q0 -97 53 -166q71 -92 200 -92q112 0 208 61.5 t147 149.5l41 244q-23 83 -96 139.5t-177 56.5q-139 0 -242.5 -91t-128.5 -239z" />
<glyph unicode="r" horiz-adv-x="776" d="M41 0l156 983h194l-24 -158q130 182 379 181q31 0 63 -2l-35 -220q-42 8 -82 8q-84 0 -162 -37q-114 -55 -176 -165l-94 -590h-219z" />
<glyph unicode="s" horiz-adv-x="964" d="M16 72l31 194q68 -51 162 -79.5t190 -28.5q214 0 232 106q1 6 1 11q0 29 -24 53q-28 28 -78.5 47t-111.5 38t-121 44.5t-108 58.5q-47 34 -73 90q-18 40 -19 88q0 19 3 39q11 75 54 131t105.5 86.5t131 45t141.5 14.5q197 0 351 -86l-29 -189q-63 42 -149 68t-173 26 q-83 0 -142 -26.5t-66 -81.5q-1 -5 -1 -11q-1 -31 25 -54q30 -28 80 -47t111 -37.5t121 -44t108 -59.5q48 -33 72 -89q16 -38 16 -83q0 -22 -4 -46q-13 -78 -56 -133.5t-108 -86t-137.5 -44t-157.5 -13.5q-229 0 -377 99z" />
<glyph unicode="t" horiz-adv-x="841" d="M57 791l31 192h176l47 293l226 59l-56 -352h357l-31 -192h-356l-74 -459q-4 -26 -4 -48q1 -56 27 -82q36 -36 130 -36q109 0 211 47l-30 -193q-106 -47 -258 -47q-71 0 -129.5 20t-101 59.5t-60.5 104.5q-11 38 -11 83q0 31 5 65l77 486h-176z" />
<glyph unicode="u" horiz-adv-x="1200" d="M88 385l94 598h219l-92 -586q-5 -31 -5 -58q0 -74 36 -115q50 -56 154 -56q94 0 173 48t136 122l102 645h219l-155 -983h-193l23 141q-66 -75 -161.5 -121.5t-199.5 -46.5q-186 1 -282 117q-75 90 -74 218q0 37 6 77z" />
<glyph unicode="v" horiz-adv-x="1124" d="M86 983h227l183 -743l424 743h245l-583 -983h-232z" />
<glyph unicode="w" horiz-adv-x="1644" d="M86 983h219l115 -719l354 719h205l123 -719l336 719h239l-485 -983h-234l-118 702l-351 -702h-231z" />
<glyph unicode="x" horiz-adv-x="1038" d="M-82 0l465 510l-283 473h240l186 -326l287 326h258l-444 -485l303 -498h-240l-205 350l-309 -350h-258z" />
<glyph unicode="y" horiz-adv-x="1122" d="M-59 -453l28 181q47 -15 90 -15q83 0 149.5 58.5t135.5 181.5l37 55l-307 975h225l215 -745l397 745h248l-637 -1122q-104 -182 -212.5 -259t-229.5 -77q-71 0 -139 22z" />
<glyph unicode="z" horiz-adv-x="966" d="M-27 0l27 164l625 633h-498l29 186h778l-27 -164l-624 -633h553l-29 -186h-834z" />
<glyph unicode="{" horiz-adv-x="673" d="M59 618l33 197q77 -2 121.5 33.5t58.5 124.5l70 438q25 158 132 222t286 24l-31 -191q-83 13 -124 -28t-56 -144l-60 -376q-27 -177 -176 -203q59 -5 93 -58t18 -157l-62 -377q-14 -94 13.5 -131.5t116.5 -24.5l-31 -194q-183 -40 -271.5 37.5t-64.5 232.5l70 436 q3 31 3.5 53t-9.5 37.5t-20 25t-29 14.5t-37.5 7t-43.5 2z" />
<glyph unicode="|" horiz-adv-x="495" d="M8 -205l295 1864h225l-295 -1864h-225z" />
<glyph unicode="}" horiz-adv-x="673" d="M-47 -223l31 196q82 -18 123 17.5t55 132.5l65 405q14 92 64.5 141.5t124.5 55.5q-64 6 -101.5 63t-23.5 150l61 379q16 96 -11.5 132t-119.5 21l31 191q182 40 271 -38t65 -232l-68 -435q-7 -45 1 -75t29 -44.5t45 -20t56 -5.5l-30 -195q-155 7 -181 -155l-69 -434 q-25 -161 -130 -227t-288 -23z" />
<glyph unicode="~" horiz-adv-x="1226" d="M131 543q4 141 80.5 213.5t187.5 72.5q69 0 152 -27t158.5 -54t128.5 -27q43 0 68.5 22.5t25.5 69.5h194q-3 -139 -78.5 -213t-191.5 -74q-65 0 -149.5 28t-161.5 56t-125 27q-41 0 -67.5 -25t-26.5 -69h-195z" />
<glyph unicode="&#xa1;" horiz-adv-x="485" d="M-39 -449l172 984h199l-139 -984h-232zM152 891q8 59 48.5 89t94.5 30q62 0 98 -39.5t25 -108.5q-10 -58 -50 -87.5t-94 -29.5q-62 0 -97.5 38.5t-24.5 107.5z" />
<glyph unicode="&#xa2;" horiz-adv-x="1048" d="M72 506q15 96 54.5 176.5t92.5 136.5t120 96.5t136.5 62t142.5 28.5l35 223h162l-35 -225q118 -18 213 -80l-32 -193q-84 72 -211 82l-103 -641q123 14 248 78l-33 -209q-116 -52 -246 -64l-34 -223h-162l35 223q-93 13 -169 51.5t-131.5 102.5t-78 160.5t-4.5 214.5z M291 487q-21 -127 34 -205t162 -104l99 623q-113 -27 -193.5 -105.5t-101.5 -208.5z" />
<glyph unicode="&#xa3;" horiz-adv-x="1236" d="M-12 0l32 205h60q66 0 114.5 51t59.5 127l33 207h-168l28 192h170l25 160q21 127 74.5 222t130 149t163 80t183.5 26q172 0 313 -80l-28 -194q-119 82 -277 82q-127 0 -218.5 -74.5t-117.5 -230.5l-22 -140h426l-29 -192h-428l-35 -221q-11 -68 -34.5 -107.5t-71.5 -60.5 l729 4l-33 -205h-1079z" />
<glyph unicode="&#xa4;" horiz-adv-x="1177" d="M78 373l145 127q-53 98 -33 231q22 129 101 217l-101 117l142 125l108 -127q99 51 219 51q118 0 213 -55l154 133l113 -129l-148 -129q51 -97 31 -232q-22 -128 -100 -217l102 -116l-141 -125l-111 127q-96 -52 -217 -52q-123 0 -211 56l-154 -133zM389 702 q-12 -90 35 -143t143 -53q104 0 174 62.5t82 162.5q15 90 -32.5 144.5t-143.5 54.5q-104 0 -174 -63.5t-84 -164.5z" />
<glyph unicode="&#xa5;" horiz-adv-x="1421" d="M186 1393h246l287 -664l500 664h260l-549 -705h246l-27 -168h-338l-18 -110h337l-26 -168h-338l-39 -242h-233l38 242h-337l26 168h338l19 110h-338l26 168h246z" />
<glyph unicode="&#xa6;" horiz-adv-x="524" d="M23 -205l118 746h226l-119 -746h-225zM201 913l116 746h226l-117 -746h-225z" />
<glyph unicode="&#xa7;" horiz-adv-x="1046" d="M47 27l29 182q67 -46 157 -73t166 -27q107 0 170 24.5t74 87.5q2 15 -0.5 28t-11.5 24.5t-18.5 20.5t-29 19t-34 16.5t-41.5 16t-45 15.5t-51 16q-56 18 -94.5 32.5t-83.5 41.5t-70 57.5t-38 77.5t-5 104q21 147 196 260q-122 77 -98 232q12 74 54.5 130t105 87t131 46 t143.5 15q176 0 334 -88l-26 -180q-54 40 -135.5 65t-163.5 25q-54 0 -100.5 -11t-81 -38.5t-40.5 -67.5q-4 -28 7.5 -50t50 -41.5t62.5 -28.5t89 -30q22 -7 33 -11q57 -18 94.5 -33t82.5 -41.5t69 -57t37 -76.5t4 -102q-22 -144 -195 -258q112 -79 86 -231 q-12 -76 -54.5 -131.5t-107 -85.5t-136.5 -44t-156 -14q-97 0 -193 26t-166 71zM330 707q-4 -26 3.5 -47t19.5 -35t38 -28t46 -22t55 -20q16 -5 56.5 -15.5t59.5 -17.5q60 27 100 72.5t46 89.5q3 26 -4.5 47t-19 34t-38 27.5t-44.5 21.5t-54 20q-21 8 -61 18.5t-54 15.5 q-62 -25 -102.5 -70.5t-46.5 -90.5z" />
<glyph unicode="&#xa8;" horiz-adv-x="659" d="M217 1724q9 48 49 82.5t90 34.5q58 0 93 -43t26 -102q-8 -48 -48.5 -82.5t-90.5 -34.5q-57 0 -92.5 43.5t-26.5 101.5zM643 1724q9 48 49 82.5t90 34.5q58 0 93 -43t26 -102q-8 -48 -48.5 -82.5t-90.5 -34.5q-57 0 -92.5 43.5t-26.5 101.5z" />
<glyph unicode="&#xa9;" horiz-adv-x="1738" d="M109.5 501q-15.5 105 3.5 230q23 142 85.5 262.5t150 205t196 144.5t223 88.5t229.5 28.5q112 0 218 -30t198 -93t156.5 -151t91.5 -213t4 -271q-23 -142 -85.5 -262.5t-150.5 -205t-196 -144.5t-222 -88.5t-229 -28.5q-93 0 -183 21.5t-172 63.5t-147.5 105.5t-110 148 t-60 189.5zM190 717q-19 -127 4 -236.5t78.5 -187t135.5 -133t174.5 -82.5t195.5 -27q106 0 210.5 25.5t204 79.5t180 131t137.5 188t77 242q19 127 -4 236t-78.5 187t-135.5 133t-175 82t-197 27q-105 0 -209.5 -25.5t-204 -79.5t-180 -130.5t-137.5 -187.5t-76 -242z M496 715q17 107 69 190.5t123.5 131.5t149.5 72t157 24q152 0 256 -74l-16 -144q-94 62 -211 62q-58 0 -111.5 -14.5t-103 -45t-84.5 -86t-47 -129.5q-11 -68 4 -117.5t50.5 -76t79.5 -39t97 -12.5q127 0 258 67l-18 -157q-135 -66 -289 -66q-58 0 -114.5 15t-107.5 48.5 t-87.5 80.5t-52 117t-2.5 153z" />
<glyph unicode="&#xab;" horiz-adv-x="1071" d="M57 471l9 47l307 356h233l-336 -382l209 -383h-223zM479 471l8 47l308 356h233l-334 -382l207 -383h-223z" />
<glyph unicode="&#xac;" horiz-adv-x="1177" d="M133 788l31 195h934l-72 -459h-201l41 264h-733z" />
<glyph unicode="&#xad;" horiz-adv-x="993" d="M94 406l31 196h745l-30 -196h-746z" />
<glyph unicode="&#xae;" horiz-adv-x="1738" d="M109.5 501q-15.5 105 3.5 230q23 142 85.5 262.5t150 205t196 144.5t223 88.5t229.5 28.5q112 0 218 -30t198 -93t156.5 -151t91.5 -213t4 -271q-23 -142 -85.5 -262.5t-150.5 -205t-196 -144.5t-222 -88.5t-229 -28.5q-93 0 -183 21.5t-172 63.5t-147.5 105.5t-110 148 t-60 189.5zM190 717q-19 -127 4 -236.5t78.5 -187t135.5 -133t174.5 -82.5t195.5 -27q106 0 210.5 25.5t204 79.5t180 131t137.5 188t77 242q19 127 -4 236t-78.5 187t-135.5 133t-175 82t-197 27q-105 0 -209.5 -25.5t-204 -79.5t-180 -130.5t-137.5 -187.5t-76 -242z M522 319l127 805h352q44 0 86 -8.5t82.5 -29t69 -51t41 -79.5t2.5 -110q-27 -172 -209 -225l172 -302h-174l-156 285h-22h-170l-43 -285h-158zM745 743h185q27 0 46 1.5t46.5 8.5t46.5 19.5t35 37t22 58.5q5 30 -3 51t-21.5 32t-37.5 17.5t-41.5 7.5t-43.5 1h-197z" />
<glyph unicode="&#xaf;" horiz-adv-x="737" d="M258 1595l31 185h639l-31 -185h-639z" />
<glyph unicode="&#xb0;" horiz-adv-x="825" d="M160 1151q24 142 133 225.5t244 83.5q67 0 126 -23.5t101 -66t61 -107t6 -141.5q-24 -148 -130.5 -230.5t-245.5 -82.5q-66 0 -124.5 23t-101.5 65.5t-62.5 108.5t-6.5 145zM317 1130q-9 -75 31 -120t115 -45q84 0 141.5 47.5t67.5 130.5q9 74 -30 118t-114 44 q-83 0 -141 -47t-70 -128z" />
<glyph unicode="&#xb1;" horiz-adv-x="1179" d="M33 0l30 195h934l-30 -195h-934zM145 717l31 194h371l57 371h195l-58 -371h369l-31 -194h-368l-60 -369h-194l59 369h-371z" />
<glyph unicode="&#xb4;" horiz-adv-x="432" d="M240 1571l233 303h264l-264 -303h-233z" />
<glyph unicode="&#xb6;" horiz-adv-x="1396" d="M129 1012q32 200 170 311t354 111h715l-299 -1885h-227l264 1670h-254l-264 -1670h-226l160 1012q-215 0 -321 120.5t-72 330.5z" />
<glyph unicode="&#xb7;" horiz-adv-x="509" d="M102 504q8 59 49.5 89t96.5 30q64 0 100 -39t25 -109q-10 -60 -50 -89.5t-96 -29.5q-62 0 -99 39t-26 109z" />
<glyph unicode="&#xb8;" horiz-adv-x="446" d="M-131 -438l27 153q76 -39 172 -39q136 0 145 62q7 42 -57.5 56.5t-149.5 -1.5l76 207h166l-47 -111q95 -2 143.5 -50t36.5 -132q-13 -92 -95.5 -138t-197.5 -46q-116 0 -219 39z" />
<glyph unicode="&#xbb;" horiz-adv-x="1073" d="M10 109l334 383l-207 382h221l201 -362l-6 -47l-311 -356h-232zM432 109l334 383l-207 382h221l201 -362l-6 -47l-311 -356h-232z" />
<glyph unicode="&#xbc;" horiz-adv-x="1923" d="M96 557l25 152h178l80 514l-182 -66l26 158l226 78h122l-108 -684h147l-22 -152h-492zM332 -29l1173 1489h86l-1175 -1489h-84zM1049 162l22 145l514 529h174l-84 -527h135l-24 -147h-133l-25 -162h-162l25 162h-442zM1268 309h248l49 305z" />
<glyph unicode="&#xbd;" horiz-adv-x="1841" d="M86 557l25 152h178l80 514l-183 -66l27 158l225 78h123l-108 -684h147l-22 -152h-492zM322 -29l1173 1489h86l-1175 -1489h-84zM1057 0l12 84q5 37 15.5 69.5t28 60.5t33 49.5t43.5 44.5t45 36.5t52 34t51 29t54 28.5q98 49 147.5 90t58.5 90q8 43 -24.5 63.5t-89.5 20.5 q-149 0 -301 -100l26 170q131 82 287 82q80 0 145 -28t101.5 -88t21.5 -140q-16 -88 -83.5 -153t-182.5 -126q-54 -29 -81 -44t-61.5 -38t-51.5 -43t-21 -40h414l-25 -152h-614z" />
<glyph unicode="&#xbe;" horiz-adv-x="2031" d="M96 610l27 158q108 -63 250 -63q193 0 211 116q9 55 -26.5 78t-106.5 23h-144l25 151h110q70 0 113.5 26.5t52.5 78.5q7 44 -31.5 66t-105.5 22q-137 0 -268 -70l24 164q124 59 267 59q126 0 208 -67.5t64 -175.5q-18 -123 -148 -172q59 -20 96 -75.5t23 -144.5 q-18 -118 -115.5 -175.5t-238.5 -57.5q-166 0 -287 59zM455 -29l1173 1489h86l-1175 -1489h-84zM1157 162l23 145l514 529h174l-84 -527h135l-25 -147h-133l-24 -162h-162l24 162h-442zM1376 309h248l49 305z" />
<glyph unicode="&#xbf;" horiz-adv-x="1003" d="M-49 -111q13 78 63.5 154.5t115 138.5t128 120t111.5 119t57 116h211q-10 -64 -46 -127.5t-82.5 -113t-100 -102.5t-99 -97.5t-79.5 -96.5t-42 -100q-13 -90 50 -127t192 -37q198 0 389 114l-37 -225q-199 -102 -401 -102q-76 0 -144 13.5t-125.5 43t-97.5 71.5 t-57 103.5t-6 134.5zM449 889q9 61 48.5 91t96.5 30q62 0 99 -39.5t26 -108.5q-10 -60 -51 -89.5t-97 -29.5q-62 0 -98 39t-24 107z" />
<glyph unicode="&#xc0;" horiz-adv-x="1490" d="M-84 0l834 1434h258l376 -1434h-239l-78 309h-721l-176 -309h-254zM461 514h557l-154 608q-8 31 -14 88q-17 -49 -41 -90zM659 1874h256l138 -303h-224z" />
<glyph unicode="&#xc1;" horiz-adv-x="1490" d="M-84 0l834 1434h258l376 -1434h-239l-78 309h-721l-176 -309h-254zM461 514h557l-154 608q-8 31 -14 88q-17 -49 -41 -90zM756 1571l233 303h264l-264 -303h-233z" />
<glyph unicode="&#xc2;" horiz-adv-x="1490" d="M-84 0l834 1434h258l376 -1434h-239l-78 309h-721l-176 -309h-254zM461 514h557l-154 608q-8 31 -14 88q-17 -49 -41 -90zM535 1567l311 307h194l215 -307h-215l-110 155l-162 -155h-233z" />
<glyph unicode="&#xc3;" horiz-adv-x="1490" d="M-84 0l834 1434h258l376 -1434h-239l-78 309h-721l-176 -309h-254zM461 514h557l-154 608q-8 31 -14 88q-17 -49 -41 -90zM535 1565q-3 118 56.5 184t147.5 66q54 0 112 -21.5t105.5 -43t75.5 -21.5q37 0 54 21.5t14 51.5h170q4 -118 -56 -184t-149 -66q-54 0 -112 21.5 t-105.5 43t-75.5 21.5q-34 0 -51.5 -22t-15.5 -51h-170z" />
<glyph unicode="&#xc4;" horiz-adv-x="1490" d="M-84 0l834 1434h258l376 -1434h-239l-78 309h-721l-176 -309h-254zM461 514h557l-154 608q-8 31 -14 88q-17 -49 -41 -90zM573 1724q9 48 49.5 82.5t90.5 34.5q58 0 92.5 -43t25.5 -102q-8 -48 -48.5 -82.5t-90.5 -34.5q-57 0 -92.5 43.5t-26.5 101.5zM999 1724 q9 48 49.5 82.5t90.5 34.5q58 0 92.5 -43t25.5 -102q-8 -48 -48.5 -82.5t-90.5 -34.5q-57 0 -92.5 43.5t-26.5 101.5z" />
<glyph unicode="&#xc5;" horiz-adv-x="1490" d="M-84 0l834 1434h258l376 -1434h-239l-78 309h-721l-176 -309h-254zM461 514h557l-154 608q-8 31 -14 88q-17 -49 -41 -90zM690 1765q17 99 95 159.5t176 60.5q47 0 90 -17.5t74 -49t46 -78.5t7 -101q-18 -103 -95.5 -163t-175.5 -60q-100 0 -167.5 69t-49.5 180z M831 1751q-7 -44 17.5 -73t64.5 -29q44 0 79 25.5t42 72.5q7 44 -17.5 73t-64.5 29q-44 0 -79 -25.5t-42 -72.5z" />
<glyph unicode="&#xc6;" horiz-adv-x="2082" d="M-109 0l1194 1434h1022l-32 -213h-695l-63 -392h635l-35 -213h-633l-65 -403h708l-33 -213h-944l51 315h-585l-262 -315h-263zM575 514h455l109 680z" />
<glyph unicode="&#xc7;" horiz-adv-x="1325" d="M102 498.5q-20 114.5 4 253.5q22 136 85 253t150.5 199.5t193.5 141t216.5 86.5t217.5 28q228 0 391 -100l-35 -217q-123 102 -330 102q-106 0 -210.5 -32t-197.5 -93t-159.5 -163t-87.5 -230q-17 -109 2 -200t64.5 -152.5t111.5 -104.5t140 -62.5t153 -19.5 q218 0 391 111l-39 -242q-148 -74 -362 -84l-37 -84q95 -2 143.5 -50t36.5 -132q-13 -92 -95.5 -138t-197.5 -46q-116 0 -219 39l27 153q76 -39 172 -39q136 0 145 62q7 42 -57.5 56.5t-149.5 -1.5l70 191q-97 15 -184 54t-162 103.5t-123 153.5t-68 203.5z" />
<glyph unicode="&#xc8;" d="M80 0l227 1434h987l-34 -213h-754l-62 -392h693l-33 -213h-692l-64 -403h764l-33 -213h-999zM582 1874h256l137 -303h-223z" />
<glyph unicode="&#xc9;" d="M80 0l227 1434h987l-34 -213h-754l-62 -392h693l-33 -213h-692l-64 -403h764l-33 -213h-999zM678 1571l233 303h265l-265 -303h-233z" />
<glyph unicode="&#xca;" d="M80 0l227 1434h987l-34 -213h-754l-62 -392h693l-33 -213h-692l-64 -403h764l-33 -213h-999zM457 1567l311 307h195l215 -307h-215l-111 155l-162 -155h-233z" />
<glyph unicode="&#xcb;" d="M80 0l227 1434h987l-34 -213h-754l-62 -392h693l-33 -213h-692l-64 -403h764l-33 -213h-999zM496 1724q9 48 49 82.5t90 34.5q58 0 93 -43t26 -102q-8 -48 -48.5 -82.5t-91.5 -34.5q-57 0 -92 43t-26 102zM922 1724q9 48 49 82.5t90 34.5q58 0 93 -43t26 -102 q-8 -48 -48.5 -82.5t-91.5 -34.5q-57 0 -92 43t-26 102z" />
<glyph unicode="&#xcc;" horiz-adv-x="581" d="M80 0l227 1434h234l-228 -1434h-233zM205 1874h256l137 -303h-223z" />
<glyph unicode="&#xcd;" horiz-adv-x="581" d="M80 0l227 1434h234l-228 -1434h-233zM301 1571l234 303h264l-264 -303h-234z" />
<glyph unicode="&#xce;" horiz-adv-x="581" d="M80 0l227 1434h234l-228 -1434h-233zM80 1567l311 307h195l215 -307h-215l-111 155l-162 -155h-233z" />
<glyph unicode="&#xcf;" horiz-adv-x="581" d="M80 0l227 1434h234l-228 -1434h-233zM119 1724q9 48 49 82.5t90 34.5q58 0 93 -43t26 -102q-8 -48 -48.5 -82.5t-90.5 -34.5q-57 0 -92.5 43.5t-26.5 101.5zM545 1724q9 48 49 82.5t90 34.5q58 0 93 -43t26 -102q-8 -48 -48.5 -82.5t-90.5 -34.5q-57 0 -92.5 43.5 t-26.5 101.5z" />
<glyph unicode="&#xd0;" horiz-adv-x="1527" d="M31 621l30 188h158l100 625h496q179 0 315 -55t215.5 -153t109.5 -231.5t5 -292.5q-25 -156 -89.5 -282.5t-168.5 -221t-256.5 -146.5t-341.5 -52h-512l96 621h-157zM358 213h263q252 0 408 135.5t194 382.5q39 238 -70.5 364t-361.5 126h-273l-65 -412h381l-31 -188 h-381z" />
<glyph unicode="&#xd1;" horiz-adv-x="1570" d="M80 0l227 1434h197l631 -1057q10 102 20 170l141 887h234l-227 -1434h-197l-631 1057q-6 -88 -18 -164l-144 -893h-233zM569 1565q-3 117 57 183.5t148 66.5q54 0 112 -21.5t105.5 -43t75.5 -21.5q37 0 54 21.5t14 51.5h170q4 -118 -56 -184t-149 -66q-54 0 -112 21.5 t-105.5 43t-75.5 21.5q-34 0 -52 -22t-16 -51h-170z" />
<glyph unicode="&#xd2;" horiz-adv-x="1673" d="M102 731q18 113 64 219t122 199t174 162t227 109t274 40q115 0 215 -29.5t174.5 -81t132.5 -123t88.5 -156t42.5 -178t-6 -190.5q-19 -114 -63.5 -219t-119 -198.5t-171.5 -162.5t-228 -109t-280 -40q-173 0 -309 64t-215.5 170t-112 242t-9.5 282zM331.5 586.5 q6.5 -63.5 23 -121t53 -107.5t84.5 -86.5t117.5 -57.5t152.5 -21q128 0 237 42.5t185 115.5t124.5 167.5t65.5 202.5q16 98 -2 189t-67 166t-141.5 120t-215.5 45q-128 0 -236.5 -42.5t-184 -115.5t-124 -167.5t-65.5 -202.5q-13 -63 -6.5 -126.5zM743 1874h256l138 -303 h-224z" />
<glyph unicode="&#xd3;" horiz-adv-x="1673" d="M102 731q18 113 64 219t122 199t174 162t227 109t274 40q115 0 215 -29.5t174.5 -81t132.5 -123t88.5 -156t42.5 -178t-6 -190.5q-19 -114 -63.5 -219t-119 -198.5t-171.5 -162.5t-228 -109t-280 -40q-173 0 -309 64t-215.5 170t-112 242t-9.5 282zM331.5 586.5 q6.5 -63.5 23 -121t53 -107.5t84.5 -86.5t117.5 -57.5t152.5 -21q128 0 237 42.5t185 115.5t124.5 167.5t65.5 202.5q16 98 -2 189t-67 166t-141.5 120t-215.5 45q-128 0 -236.5 -42.5t-184 -115.5t-124 -167.5t-65.5 -202.5q-13 -63 -6.5 -126.5zM840 1571l233 303h264 l-264 -303h-233z" />
<glyph unicode="&#xd4;" horiz-adv-x="1673" d="M102 731q18 113 64 219t122 199t174 162t227 109t274 40q115 0 215 -29.5t174.5 -81t132.5 -123t88.5 -156t42.5 -178t-6 -190.5q-19 -114 -63.5 -219t-119 -198.5t-171.5 -162.5t-228 -109t-280 -40q-173 0 -309 64t-215.5 170t-112 242t-9.5 282zM331.5 586.5 q6.5 -63.5 23 -121t53 -107.5t84.5 -86.5t117.5 -57.5t152.5 -21q128 0 237 42.5t185 115.5t124.5 167.5t65.5 202.5q16 98 -2 189t-67 166t-141.5 120t-215.5 45q-128 0 -236.5 -42.5t-184 -115.5t-124 -167.5t-65.5 -202.5q-13 -63 -6.5 -126.5zM618 1567l312 307h194 l215 -307h-215l-110 155l-162 -155h-234z" />
<glyph unicode="&#xd5;" horiz-adv-x="1673" d="M102 731q18 113 64 219t122 199t174 162t227 109t274 40q115 0 215 -29.5t174.5 -81t132.5 -123t88.5 -156t42.5 -178t-6 -190.5q-19 -114 -63.5 -219t-119 -198.5t-171.5 -162.5t-228 -109t-280 -40q-173 0 -309 64t-215.5 170t-112 242t-9.5 282zM331.5 586.5 q6.5 -63.5 23 -121t53 -107.5t84.5 -86.5t117.5 -57.5t152.5 -21q128 0 237 42.5t185 115.5t124.5 167.5t65.5 202.5q16 98 -2 189t-67 166t-141.5 120t-215.5 45q-128 0 -236.5 -42.5t-184 -115.5t-124 -167.5t-65.5 -202.5q-13 -63 -6.5 -126.5zM618 1565q-3 117 57 183.5 t148 66.5q54 0 112 -21.5t105.5 -43t75.5 -21.5q37 0 54 21.5t14 51.5h170q4 -118 -56 -184t-149 -66q-54 0 -112 21.5t-105.5 43t-75.5 21.5q-34 0 -52 -22t-16 -51h-170z" />
<glyph unicode="&#xd6;" horiz-adv-x="1673" d="M102 731q18 113 64 219t122 199t174 162t227 109t274 40q115 0 215 -29.5t174.5 -81t132.5 -123t88.5 -156t42.5 -178t-6 -190.5q-19 -114 -63.5 -219t-119 -198.5t-171.5 -162.5t-228 -109t-280 -40q-173 0 -309 64t-215.5 170t-112 242t-9.5 282zM331.5 586.5 q6.5 -63.5 23 -121t53 -107.5t84.5 -86.5t117.5 -57.5t152.5 -21q128 0 237 42.5t185 115.5t124.5 167.5t65.5 202.5q16 98 -2 189t-67 166t-141.5 120t-215.5 45q-128 0 -236.5 -42.5t-184 -115.5t-124 -167.5t-65.5 -202.5q-13 -63 -6.5 -126.5zM657 1724q9 48 49.5 82.5 t90.5 34.5q58 0 92.5 -43t25.5 -102q-8 -48 -48.5 -82.5t-90.5 -34.5q-57 0 -92.5 43.5t-26.5 101.5zM1083 1724q9 48 49.5 82.5t90.5 34.5q58 0 92.5 -43t25.5 -102q-8 -48 -48.5 -82.5t-90.5 -34.5q-57 0 -92.5 43.5t-26.5 101.5z" />
<glyph unicode="&#xd7;" horiz-adv-x="1011" d="M96 461l301 258l-219 260l148 129l217 -258l299 258l112 -129l-299 -260l219 -258l-147 -131l-217 260l-301 -260z" />
<glyph unicode="&#xd8;" horiz-adv-x="1673" d="M43 -98l225 256q-105 107 -148.5 258.5t-17.5 314.5q18 113 64 219t122 199t174 162t227 109t274 40q209 0 368 -96l150 168h188l-227 -256q105 -108 149 -259t19 -315q-19 -114 -63.5 -219t-119 -198.5t-171.5 -162.5t-227 -109t-279 -40q-207 0 -371 97l-148 -168h-188 zM338 713q-18 -104 4.5 -204t83.5 -173l752 852q-98 53 -230 53q-128 0 -236.5 -42.5t-184 -115.5t-124 -167.5t-65.5 -202.5zM532 246q98 -53 230 -53q128 0 237 42.5t184.5 115.5t124 167.5t64.5 202.5q18 104 -4 204t-82 173z" />
<glyph unicode="&#xd9;" horiz-adv-x="1542" d="M147 539l144 895h233l-141 -897q-16 -96 -0.5 -164.5t60 -107.5t106.5 -57t147 -18q388 0 447 361l139 883h234l-144 -910q-20 -122 -67 -217.5t-110.5 -157.5t-146.5 -102t-170 -57t-186 -17t-186 18.5t-162.5 61.5t-125.5 107t-70 161t-1 218zM664 1874h256l137 -303 h-223z" />
<glyph unicode="&#xda;" horiz-adv-x="1542" d="M147 539l144 895h233l-141 -897q-16 -96 -0.5 -164.5t60 -107.5t106.5 -57t147 -18q388 0 447 361l139 883h234l-144 -910q-20 -122 -67 -217.5t-110.5 -157.5t-146.5 -102t-170 -57t-186 -17t-186 18.5t-162.5 61.5t-125.5 107t-70 161t-1 218zM760 1571l233 303h264 l-264 -303h-233z" />
<glyph unicode="&#xdb;" horiz-adv-x="1542" d="M147 539l144 895h233l-141 -897q-16 -96 -0.5 -164.5t60 -107.5t106.5 -57t147 -18q388 0 447 361l139 883h234l-144 -910q-20 -122 -67 -217.5t-110.5 -157.5t-146.5 -102t-170 -57t-186 -17t-186 18.5t-162.5 61.5t-125.5 107t-70 161t-1 218zM539 1567l311 307h194 l216 -307h-216l-110 155l-162 -155h-233z" />
<glyph unicode="&#xdc;" horiz-adv-x="1542" d="M147 539l144 895h233l-141 -897q-16 -96 -0.5 -164.5t60 -107.5t106.5 -57t147 -18q388 0 447 361l139 883h234l-144 -910q-20 -122 -67 -217.5t-110.5 -157.5t-146.5 -102t-170 -57t-186 -17t-186 18.5t-162.5 61.5t-125.5 107t-70 161t-1 218zM578 1724q9 48 49 82.5 t90 34.5q58 0 93 -43t26 -102q-8 -48 -48.5 -82.5t-91.5 -34.5q-57 0 -92 43t-26 102zM1004 1724q9 48 49 82.5t90 34.5q58 0 93 -43t26 -102q-8 -48 -48.5 -82.5t-91.5 -34.5q-57 0 -92 43t-26 102z" />
<glyph unicode="&#xdd;" horiz-adv-x="1384" d="M147 1434h250l310 -689l528 689h270l-706 -908l-86 -526h-234l86 526zM684 1571l234 303h264l-264 -303h-234z" />
<glyph unicode="&#xde;" horiz-adv-x="1353" d="M80 0l227 1434h234l-39 -246h280q96 0 179 -14.5t158 -50t124 -89.5t71 -139t5 -193q-17 -104 -60 -184t-104.5 -131t-145 -83t-173.5 -45t-199 -13h-283l-41 -246h-233zM387 459h285q83 0 148 12.5t121.5 41.5t92.5 83t49 131q10 59 -3 103.5t-41 71.5t-71.5 44 t-89.5 23t-102 6h-307z" />
<glyph unicode="&#xdf;" horiz-adv-x="1210" d="M41 0l162 1018q34 214 161.5 327t335.5 115q84 1 152.5 -18.5t112.5 -52t72.5 -75t37.5 -87t2 -88.5q-10 -57 -43.5 -113.5t-68 -93t-65.5 -80.5t-36 -80q-6 -34 20 -73.5t66.5 -80t80 -87.5t62 -114t11.5 -141q-13 -77 -56 -137t-104.5 -95t-132.5 -53t-147 -18 q-137 0 -254 52l28 176q83 -47 187 -47q101 0 175 42.5t87 125.5q7 45 -16.5 92.5t-61 89l-75 83t-61 89t-16.5 92.5q8 46 38 93t63 81.5t64 85t40 102.5q12 69 -33 109.5t-133 40.5q-107 0 -179 -61t-89 -168l-168 -1051h-219z" />
<glyph unicode="&#xe0;" d="M59 506q17 103 65.5 195t120 160.5t168 108.5t203.5 40q129 0 218 -54.5t141 -138.5l24 166h197l-156 -983h-196l26 158q-160 -185 -397 -185q-145 0 -248 73t-145.5 194.5t-20.5 265.5zM276 489q-22 -140 48.5 -231.5t199.5 -91.5q112 0 206.5 61t148.5 150l39 239 q-22 85 -94 143t-177 58q-138 0 -242.5 -90.5t-128.5 -237.5zM455 1430h256l137 -304h-223z" />
<glyph unicode="&#xe1;" d="M59 506q17 103 65.5 195t120 160.5t168 108.5t203.5 40q129 0 218 -54.5t141 -138.5l24 166h197l-156 -983h-196l26 158q-160 -185 -397 -185q-145 0 -248 73t-145.5 194.5t-20.5 265.5zM276 489q-22 -140 48.5 -231.5t199.5 -91.5q112 0 206.5 61t148.5 150l39 239 q-22 85 -94 143t-177 58q-138 0 -242.5 -90.5t-128.5 -237.5zM551 1126l233 304h265l-265 -304h-233z" />
<glyph unicode="&#xe2;" d="M59 506q17 103 65.5 195t120 160.5t168 108.5t203.5 40q129 0 218 -54.5t141 -138.5l24 166h197l-156 -983h-196l26 158q-160 -185 -397 -185q-145 0 -248 73t-145.5 194.5t-20.5 265.5zM276 489q-22 -140 48.5 -231.5t199.5 -91.5q112 0 206.5 61t148.5 150l39 239 q-22 85 -94 143t-177 58q-138 0 -242.5 -90.5t-128.5 -237.5zM330 1122l311 308h195l215 -308h-215l-111 156l-162 -156h-233z" />
<glyph unicode="&#xe3;" d="M59 506q17 103 65.5 195t120 160.5t168 108.5t203.5 40q129 0 218 -54.5t141 -138.5l24 166h197l-156 -983h-196l26 158q-160 -185 -397 -185q-145 0 -248 73t-145.5 194.5t-20.5 265.5zM276 489q-22 -140 48.5 -231.5t199.5 -91.5q112 0 206.5 61t148.5 150l39 239 q-22 85 -94 143t-177 58q-138 0 -242.5 -90.5t-128.5 -237.5zM330 1120q-3 117 57 183.5t148 66.5q54 0 112 -21.5t105 -43t75 -21.5q37 0 54 21.5t14 52.5h170q4 -118 -56 -184t-149 -66q-54 0 -112 21.5t-105.5 43t-75.5 21.5q-34 0 -51.5 -22.5t-15.5 -51.5h-170z" />
<glyph unicode="&#xe4;" d="M59 506q17 103 65.5 195t120 160.5t168 108.5t203.5 40q129 0 218 -54.5t141 -138.5l24 166h197l-156 -983h-196l26 158q-160 -185 -397 -185q-145 0 -248 73t-145.5 194.5t-20.5 265.5zM276 489q-22 -140 48.5 -231.5t199.5 -91.5q112 0 206.5 61t148.5 150l39 239 q-22 85 -94 143t-177 58q-138 0 -242.5 -90.5t-128.5 -237.5zM369 1280q9 48 49 82.5t90 34.5q58 0 93 -43.5t26 -102.5q-8 -48 -48.5 -82t-91.5 -34q-57 0 -92 43t-26 102zM795 1280q9 48 49 82.5t90 34.5q58 0 93 -43.5t26 -102.5q-8 -48 -48.5 -82t-91.5 -34 q-57 0 -92 43t-26 102z" />
<glyph unicode="&#xe5;" d="M59 506q17 103 65.5 195t120 160.5t168 108.5t203.5 40q129 0 218 -54.5t141 -138.5l24 166h197l-156 -983h-196l26 158q-160 -185 -397 -185q-145 0 -248 73t-145.5 194.5t-20.5 265.5zM276 489q-22 -140 48.5 -231.5t199.5 -91.5q112 0 206.5 61t148.5 150l39 239 q-22 85 -94 143t-177 58q-138 0 -242.5 -90.5t-128.5 -237.5zM485 1321q17 99 95 159t176 60q47 0 90 -17.5t74 -49t46 -78.5t7 -101q-18 -103 -95.5 -163t-175.5 -60q-100 0 -167.5 69.5t-49.5 180.5zM627 1307q-7 -44 17.5 -73.5t64.5 -29.5q44 0 78.5 26t41.5 73 q7 44 -17 73t-64 29q-44 0 -79 -25.5t-42 -72.5z" />
<glyph unicode="&#xe6;" horiz-adv-x="1984" d="M59 506q17 103 65.5 195t120 160.5t168 108.5t203.5 40q129 0 218 -54.5t141 -138.5l24 166h191l-27 -160q69 93 167.5 140t205.5 47q89 0 159.5 -25t115.5 -68t72 -101t33.5 -125.5t-3.5 -140t-37 -144.5h-750q0 -64 28.5 -113t77 -77t106.5 -42t124 -14q182 0 324 76 l-31 -195q-142 -68 -323 -68q-119 0 -221 52.5t-150 148.5l-27 -174h-190l26 158q-160 -185 -397 -185q-145 0 -248 73t-145.5 194.5t-20.5 265.5zM274 489q-22 -140 48.5 -231.5t199.5 -91.5q112 0 206.5 61t148.5 150l38 239q-22 85 -93.5 143t-176.5 58 q-138 0 -242.5 -90.5t-128.5 -237.5zM1157 569h547q6 30 8.5 64t-11 68.5t-36.5 62.5t-68.5 45.5t-105.5 17.5q-122 0 -215 -70t-119 -188z" />
<glyph unicode="&#xe7;" horiz-adv-x="1011" d="M61 506q16 106 61 192.5t106 143t137.5 95.5t153.5 56t155 17q174 0 307 -86l-33 -193q-97 84 -254 84q-71 0 -136 -18.5t-123.5 -56t-100 -102.5t-55.5 -151q-23 -157 63 -238t236 -81q141 0 305 82l-33 -209q-123 -57 -272 -66l-35 -86q95 -2 143.5 -50t36.5 -132 q-10 -63 -54 -105.5t-104.5 -60.5t-134.5 -18q-116 0 -219 39l25 153q76 -39 172 -39q64 0 103.5 16t43.5 46q7 42 -57.5 56.5t-149.5 -1.5l70 191q-87 15 -159 54.5t-123.5 103t-72 157t-2.5 207.5z" />
<glyph unicode="&#xe8;" horiz-adv-x="1116" d="M59 504q15 100 57 185t99 143t127 99t142 60t143 19q112 0 197.5 -35.5t134 -95.5t71.5 -137.5t16.5 -163.5t-38.5 -172h-742q-1 -65 27.5 -114t76.5 -77t105 -41.5t121 -13.5q192 0 338 76l-33 -197q-145 -66 -352 -66q-84 0 -162 21t-145 65.5t-113 106t-65.5 149 t-4.5 189.5zM291 569h547q6 30 8.5 64t-11 68.5t-36.5 62.5t-68.5 45.5t-105.5 17.5q-119 0 -213.5 -70.5t-120.5 -187.5zM403 1423h256l138 -303h-224z" />
<glyph unicode="&#xe9;" horiz-adv-x="1116" d="M59 504q15 100 57 185t99 143t127 99t142 60t143 19q112 0 197.5 -35.5t134 -95.5t71.5 -137.5t16.5 -163.5t-38.5 -172h-742q-1 -65 27.5 -114t76.5 -77t105 -41.5t121 -13.5q192 0 338 76l-33 -197q-145 -66 -352 -66q-84 0 -162 21t-145 65.5t-113 106t-65.5 149 t-4.5 189.5zM291 569h547q6 30 8.5 64t-11 68.5t-36.5 62.5t-68.5 45.5t-105.5 17.5q-119 0 -213.5 -70.5t-120.5 -187.5zM500 1120l233 303h264l-264 -303h-233z" />
<glyph unicode="&#xea;" horiz-adv-x="1116" d="M59 504q15 100 57 185t99 143t127 99t142 60t143 19q112 0 197.5 -35.5t134 -95.5t71.5 -137.5t16.5 -163.5t-38.5 -172h-742q-1 -65 27.5 -114t76.5 -77t105 -41.5t121 -13.5q192 0 338 76l-33 -197q-145 -66 -352 -66q-84 0 -162 21t-145 65.5t-113 106t-65.5 149 t-4.5 189.5zM279 1116l311 307h194l215 -307h-215l-110 156l-162 -156h-233zM291 569h547q6 30 8.5 64t-11 68.5t-36.5 62.5t-68.5 45.5t-105.5 17.5q-119 0 -213.5 -70.5t-120.5 -187.5z" />
<glyph unicode="&#xeb;" horiz-adv-x="1116" d="M59 504q15 100 57 185t99 143t127 99t142 60t143 19q112 0 197.5 -35.5t134 -95.5t71.5 -137.5t16.5 -163.5t-38.5 -172h-742q-1 -65 27.5 -114t76.5 -77t105 -41.5t121 -13.5q192 0 338 76l-33 -197q-145 -66 -352 -66q-84 0 -162 21t-145 65.5t-113 106t-65.5 149 t-4.5 189.5zM291 569h547q6 30 8.5 64t-11 68.5t-36.5 62.5t-68.5 45.5t-105.5 17.5q-119 0 -213.5 -70.5t-120.5 -187.5zM317 1274q9 48 49.5 82.5t90.5 34.5q58 0 92.5 -43.5t25.5 -102.5q-8 -48 -48.5 -82.5t-90.5 -34.5q-57 0 -92.5 43.5t-26.5 102.5zM743 1274 q9 48 49.5 82.5t90.5 34.5q58 0 92.5 -43.5t25.5 -102.5q-8 -48 -48.5 -82.5t-90.5 -34.5q-57 0 -92.5 43.5t-26.5 102.5z" />
<glyph unicode="&#xec;" horiz-adv-x="501" d="M47 0l156 983h219l-156 -983h-219zM131 1423h256l76 -303h-217z" />
<glyph unicode="&#xed;" horiz-adv-x="501" d="M47 0l156 983h219l-156 -983h-219zM190 1120l234 303h264l-264 -303h-234z" />
<glyph unicode="&#xee;" horiz-adv-x="501" d="M8 1116l271 307h194l174 -307h-215l-74 156l-122 -156h-228zM47 0l156 983h219l-156 -983h-219z" />
<glyph unicode="&#xef;" horiz-adv-x="501" d="M47 0l156 983h219l-156 -983h-219zM53 1274q8 43 45 74.5t84 31.5q54 0 86 -39.5t23 -93.5q-6 -44 -44 -76t-85 -32q-53 0 -85.5 40t-23.5 95zM408 1274q9 44 46 75t83 31q54 0 85.5 -39.5t22.5 -93.5q-6 -44 -44 -76t-85 -32q-53 0 -85 40t-23 95z" />
<glyph unicode="&#xf0;" horiz-adv-x="1202" d="M57 463q30 196 176.5 318t331.5 122q127 0 226 -53.5t137 -142.5q4 25 4 69q-6 141 -67 242.5t-163 159.5l-208 -183l-97 111l154 131q-92 23 -232 23l19 184q201 0 367 -68l196 168l96 -110l-153 -131q159 -104 233 -292.5t29 -463.5q-23 -145 -78.5 -256.5t-135.5 -180 t-176.5 -103t-207.5 -34.5q-109 0 -199.5 35t-152 97.5t-89 155t-10.5 202.5zM276 442q-19 -126 48 -200t200 -74q131 0 215.5 71.5t118.5 194.5q17 126 -52.5 205.5t-199.5 79.5q-128 0 -219 -76.5t-111 -200.5z" />
<glyph unicode="&#xf1;" horiz-adv-x="1202" d="M41 0l156 983h194l-22 -141q78 76 175.5 122t200.5 46q179 0 270.5 -116t63.5 -292l-96 -602h-219l92 586q19 116 -31 172.5t-151 56.5q-85 0 -169.5 -50t-144.5 -120l-100 -645h-219zM332 1114q-3 117 57 183.5t148 66.5q54 0 112 -21.5t105 -43t75 -21.5q37 0 54 21.5 t14 52.5h170q4 -118 -56 -184t-149 -66q-54 0 -112 21.5t-105.5 43t-75.5 21.5q-34 0 -51.5 -22.5t-15.5 -51.5h-170z" />
<glyph unicode="&#xf2;" horiz-adv-x="1210" d="M59 508q19 121 78.5 218.5t143 158.5t182 93t201.5 32q102 0 192 -35.5t156.5 -101.5t96.5 -169.5t9 -228.5q-18 -121 -78 -218.5t-144 -158.5t-182 -93t-200 -32q-103 0 -193.5 35.5t-156.5 101.5t-95.5 169.5t-9.5 228.5zM276 483q-22 -138 49 -223.5t207 -85.5 q141 0 243.5 89t127.5 237q22 139 -48.5 224t-207.5 85q-140 0 -243.5 -89t-127.5 -237zM434 1417h256l137 -303h-223z" />
<glyph unicode="&#xf3;" horiz-adv-x="1210" d="M59 508q19 121 78.5 218.5t143 158.5t182 93t201.5 32q102 0 192 -35.5t156.5 -101.5t96.5 -169.5t9 -228.5q-18 -121 -78 -218.5t-144 -158.5t-182 -93t-200 -32q-103 0 -193.5 35.5t-156.5 101.5t-95.5 169.5t-9.5 228.5zM276 483q-22 -138 49 -223.5t207 -85.5 q141 0 243.5 89t127.5 237q22 139 -48.5 224t-207.5 85q-140 0 -243.5 -89t-127.5 -237zM530 1114l234 303h264l-264 -303h-234z" />
<glyph unicode="&#xf4;" horiz-adv-x="1210" d="M59 508q19 121 78.5 218.5t143 158.5t182 93t201.5 32q102 0 192 -35.5t156.5 -101.5t96.5 -169.5t9 -228.5q-18 -121 -78 -218.5t-144 -158.5t-182 -93t-200 -32q-103 0 -193.5 35.5t-156.5 101.5t-95.5 169.5t-9.5 228.5zM276 483q-22 -138 49 -223.5t207 -85.5 q141 0 243.5 89t127.5 237q22 139 -48.5 224t-207.5 85q-140 0 -243.5 -89t-127.5 -237zM309 1110l312 307h194l215 -307h-215l-110 156l-162 -156h-234z" />
<glyph unicode="&#xf5;" horiz-adv-x="1210" d="M59 508q19 121 78.5 218.5t143 158.5t182 93t201.5 32q102 0 192 -35.5t156.5 -101.5t96.5 -169.5t9 -228.5q-18 -121 -78 -218.5t-144 -158.5t-182 -93t-200 -32q-103 0 -193.5 35.5t-156.5 101.5t-95.5 169.5t-9.5 228.5zM276 483q-22 -138 49 -223.5t207 -85.5 q141 0 243.5 89t127.5 237q22 139 -48.5 224t-207.5 85q-140 0 -243.5 -89t-127.5 -237zM309 1108q-3 117 57 183.5t148 66.5q54 0 112 -21.5t105.5 -43t75.5 -21.5q37 0 53.5 21.5t13.5 52.5h170q4 -118 -55.5 -184t-148.5 -66q-54 0 -112 21.5t-105.5 43t-75.5 21.5 q-34 0 -52 -22.5t-16 -51.5h-170z" />
<glyph unicode="&#xf6;" horiz-adv-x="1210" d="M59 508q19 121 78.5 218.5t143 158.5t182 93t201.5 32q102 0 192 -35.5t156.5 -101.5t96.5 -169.5t9 -228.5q-18 -121 -78 -218.5t-144 -158.5t-182 -93t-200 -32q-103 0 -193.5 35.5t-156.5 101.5t-95.5 169.5t-9.5 228.5zM276 483q-22 -138 49 -223.5t207 -85.5 q141 0 243.5 89t127.5 237q22 139 -48.5 224t-207.5 85q-140 0 -243.5 -89t-127.5 -237zM348 1268q9 48 49 82t90 34q58 0 93 -43t26 -102q-8 -48 -48.5 -82.5t-90.5 -34.5q-57 0 -92.5 43.5t-26.5 102.5zM774 1268q9 48 49 82t90 34q58 0 93 -43t26 -102 q-8 -48 -48.5 -82.5t-90.5 -34.5q-57 0 -92.5 43.5t-26.5 102.5z" />
<glyph unicode="&#xf7;" horiz-adv-x="1196" d="M111 618l30 197h983l-30 -197h-983zM412 272q8 59 49 89t96 30q63 0 99 -38t26 -107q-10 -61 -49.5 -91t-95.5 -30q-64 0 -100 38.5t-25 108.5zM557 1188q8 59 49 89t96 30q63 0 99 -38.5t24 -107.5q-9 -61 -48 -91t-97 -30q-62 0 -98 39t-25 109z" />
<glyph unicode="&#xf8;" horiz-adv-x="1210" d="M18 -125l172 213q-81 69 -117 176.5t-14 243.5q19 121 78.5 218.5t143 158.5t182 93t201.5 32q125 0 233 -54l125 156h139l-174 -215q81 -71 117.5 -178t15.5 -244q-19 -121 -79 -218.5t-144.5 -158.5t-182.5 -93t-200 -32q-126 0 -235 56l-121 -154h-140zM276 483 q-24 -140 52 -225l434 530q-61 21 -115 21q-141 0 -244.5 -89t-126.5 -237zM416 195q61 -21 116 -21q141 0 243.5 89t127.5 237q24 144 -53 227z" />
<glyph unicode="&#xf9;" horiz-adv-x="1200" d="M88 385l94 598h219l-92 -586q-18 -117 31.5 -173t153.5 -56q94 0 173 48t136 122l102 645h219l-155 -983h-193l23 141q-66 -75 -161.5 -121.5t-199.5 -46.5q-185 0 -281.5 116.5t-68.5 295.5zM426 1423h256l137 -303h-223z" />
<glyph unicode="&#xfa;" horiz-adv-x="1200" d="M88 385l94 598h219l-92 -586q-18 -117 31.5 -173t153.5 -56q94 0 173 48t136 122l102 645h219l-155 -983h-193l23 141q-66 -75 -161.5 -121.5t-199.5 -46.5q-185 0 -281.5 116.5t-68.5 295.5zM522 1120l234 303h264l-264 -303h-234z" />
<glyph unicode="&#xfb;" horiz-adv-x="1200" d="M88 385l94 598h219l-92 -586q-18 -117 31.5 -173t153.5 -56q94 0 173 48t136 122l102 645h219l-155 -983h-193l23 141q-66 -75 -161.5 -121.5t-199.5 -46.5q-185 0 -281.5 116.5t-68.5 295.5zM301 1116l311 307h195l215 -307h-215l-111 156l-161 -156h-234z" />
<glyph unicode="&#xfc;" horiz-adv-x="1200" d="M88 385l94 598h219l-92 -586q-18 -117 31.5 -173t153.5 -56q94 0 173 48t136 122l102 645h219l-155 -983h-193l23 141q-66 -75 -161.5 -121.5t-199.5 -46.5q-185 0 -281.5 116.5t-68.5 295.5zM340 1274q9 48 49 82.5t90 34.5q58 0 93 -43.5t26 -102.5q-8 -48 -48.5 -82.5 t-90.5 -34.5q-57 0 -92.5 43.5t-26.5 102.5zM766 1274q9 48 49 82.5t90 34.5q58 0 93 -43.5t26 -102.5q-8 -48 -48.5 -82.5t-90.5 -34.5q-57 0 -92.5 43.5t-26.5 102.5z" />
<glyph unicode="&#xfd;" horiz-adv-x="1122" d="M-59 -453l28 181q47 -15 90 -15q83 0 149.5 58.5t135.5 181.5l37 55l-307 975h225l215 -745l397 745h248l-637 -1122q-104 -182 -212.5 -259t-229.5 -77q-71 0 -139 22zM469 1120l233 303h265l-265 -303h-233z" />
<glyph unicode="&#xfe;" horiz-adv-x="1267" d="M-31 -451l299 1885h219l-94 -584q153 160 371 160q143 0 246.5 -73t146 -194.5t19.5 -265.5q-32 -212 -187 -358t-368 -146q-231 0 -338 177l-95 -601h-219zM317 365q25 -85 96.5 -142t176.5 -57q138 0 242.5 91t128.5 239q22 138 -48.5 229.5t-199.5 91.5 q-112 0 -206.5 -61.5t-150.5 -151.5z" />
<glyph unicode="&#xff;" horiz-adv-x="1122" d="M-59 -453l28 181q47 -15 90 -15q83 0 149.5 58.5t135.5 181.5l37 55l-307 975h225l215 -745l397 745h248l-637 -1122q-104 -182 -212.5 -259t-229.5 -77q-71 0 -139 22zM287 1274q9 48 49 82.5t90 34.5q58 0 93 -43.5t26 -102.5q-8 -48 -48.5 -82.5t-90.5 -34.5 q-57 0 -92.5 43.5t-26.5 102.5zM713 1274q9 48 49 82.5t90 34.5q58 0 93 -43.5t26 -102.5q-8 -48 -48.5 -82.5t-91.5 -34.5q-57 0 -92 43.5t-26 102.5z" />
<glyph unicode="&#x152;" horiz-adv-x="2113" d="M97.5 592q-1.5 85 11.5 174q23 136 91 259.5t172.5 221t253 155.5t318.5 58q142 0 242 -28l954 2l-35 -213h-696l-61 -392h637l-35 -213h-637l-64 -403h709l-33 -213l-936 -2q-106 -25 -215 -25q-103 0 -195.5 22t-164.5 62.5t-131 97t-97 125.5t-62.5 148t-26 164z M342 743q-27 -154 17.5 -279t157.5 -199.5t276 -74.5q119 0 223 37l153 981q-74 35 -231 35q-230 0 -394 -143.5t-202 -356.5z" />
<glyph unicode="&#x153;" horiz-adv-x="1959" d="M59 510q15 97 57 179t100.5 140.5t131 99.5t151 61t158.5 20q131 0 234 -57t153 -162q75 106 189 162.5t240 56.5q112 0 197 -35.5t133.5 -95.5t70.5 -137.5t15 -163.5t-40 -172h-741q-1 -65 27.5 -114t76.5 -77t105 -41.5t121 -13.5q186 0 338 76l-31 -197 q-151 -66 -361 -66q-141 0 -252 57.5t-163 168.5q-80 -111 -200.5 -168.5t-260.5 -57.5q-101 0 -190 36t-154.5 102t-95 170t-9.5 229zM276 483q-22 -138 48 -223.5t204 -85.5q144 0 247 89t128 237q22 139 -48 224t-204 85q-142 0 -246 -89t-129 -237zM1135 569h546 q6 30 8.5 64t-11 68.5t-36.5 62.5t-68.5 45.5t-105.5 17.5q-119 0 -213 -70.5t-120 -187.5z" />
<glyph unicode="&#x178;" horiz-adv-x="1384" d="M147 1434h250l310 -689l528 689h270l-706 -908l-86 -526h-234l86 526zM502 1724q9 48 49 82.5t90 34.5q58 0 93 -43t26 -102q-8 -48 -48.5 -82.5t-90.5 -34.5q-57 0 -92.5 43.5t-26.5 101.5zM928 1724q9 48 49 82.5t90 34.5q58 0 93 -43t26 -102q-8 -48 -48.5 -82.5 t-90.5 -34.5q-57 0 -92.5 43.5t-26.5 101.5z" />
<glyph unicode="&#x2c6;" horiz-adv-x="710" d="M197 1567l311 307h194l216 -307h-216l-110 155l-162 -155h-233z" />
<glyph unicode="&#x2dc;" horiz-adv-x="722" d="M215 1565q-3 117 57 183.5t148 66.5q54 0 112 -21.5t105.5 -43t75.5 -21.5q37 0 53.5 21t13.5 52h170q4 -118 -56 -184t-149 -66q-54 0 -112 21.5t-105 43t-75 21.5q-34 0 -52 -22t-16 -51h-170z" />
<glyph unicode="&#x2000;" horiz-adv-x="992" />
<glyph unicode="&#x2001;" horiz-adv-x="1985" />
<glyph unicode="&#x2002;" horiz-adv-x="992" />
<glyph unicode="&#x2003;" horiz-adv-x="1985" />
<glyph unicode="&#x2004;" horiz-adv-x="661" />
<glyph unicode="&#x2005;" horiz-adv-x="496" />
<glyph unicode="&#x2006;" horiz-adv-x="330" />
<glyph unicode="&#x2007;" horiz-adv-x="330" />
<glyph unicode="&#x2008;" horiz-adv-x="248" />
<glyph unicode="&#x2009;" horiz-adv-x="397" />
<glyph unicode="&#x200a;" horiz-adv-x="110" />
<glyph unicode="&#x2010;" horiz-adv-x="993" d="M94 406l31 196h745l-30 -196h-746z" />
<glyph unicode="&#x2011;" horiz-adv-x="993" d="M94 406l31 196h745l-30 -196h-746z" />
<glyph unicode="&#x2012;" horiz-adv-x="993" d="M94 406l31 196h745l-30 -196h-746z" />
<glyph unicode="&#x2013;" horiz-adv-x="1181" d="M94 406l31 196h936l-33 -196h-934z" />
<glyph unicode="&#x2014;" horiz-adv-x="1574" d="M94 406l31 196h1327l-31 -196h-1327z" />
<glyph unicode="&#x2018;" horiz-adv-x="497" d="M127 926l256 508h180l-201 -508h-235z" />
<glyph unicode="&#x2019;" horiz-adv-x="489" d="M137 926l201 508h235l-256 -508h-180z" />
<glyph unicode="&#x201a;" horiz-adv-x="489" d="M-115 -303l203 508h234l-256 -508h-181z" />
<glyph unicode="&#x201c;" horiz-adv-x="833" d="M127 926l256 508h180l-201 -508h-235zM463 926l256 508h180l-201 -508h-235z" />
<glyph unicode="&#x201d;" horiz-adv-x="825" d="M137 926l201 508h235l-256 -508h-180zM473 926l201 508h235l-256 -508h-180z" />
<glyph unicode="&#x201e;" horiz-adv-x="825" d="M-115 -303l203 508h234l-256 -508h-181zM221 -303l203 508h233l-256 -508h-180z" />
<glyph unicode="&#x2022;" horiz-adv-x="727" d="M172 731q14 93 78.5 141t148.5 48q95 0 149 -57t38 -161q-14 -93 -78 -140.5t-152 -47.5q-92 0 -146 56.5t-38 160.5z" />
<glyph unicode="&#x2026;" horiz-adv-x="1343" d="M29 125q8 59 49 89t96 30q63 0 99.5 -38.5t25.5 -107.5q-9 -60 -49 -90.5t-96 -30.5q-62 0 -99 39.5t-26 108.5zM467 125q8 59 49 89t96 30q63 0 99.5 -38.5t25.5 -107.5q-9 -60 -49 -90.5t-96 -30.5q-62 0 -99 39.5t-26 108.5zM903 125q8 59 49.5 89t96.5 30 q63 0 99.5 -38.5t25.5 -107.5q-9 -60 -49.5 -90.5t-96.5 -30.5q-62 0 -99 39.5t-26 108.5z" />
<glyph unicode="&#x202f;" horiz-adv-x="397" />
<glyph unicode="&#x2039;" horiz-adv-x="649" d="M57 471l9 47l307 356h233l-336 -382l209 -383h-223z" />
<glyph unicode="&#x203a;" horiz-adv-x="651" d="M10 109l334 383l-207 382h221l201 -362l-6 -47l-311 -356h-232z" />
<glyph unicode="&#x205f;" horiz-adv-x="496" />
<glyph unicode="&#x20ac;" horiz-adv-x="1480" d="M55 477l27 162h154q0 51 12 115h-150l27 161h168q50 126 137 224.5t194 158.5t224.5 90.5t238.5 30.5q215 0 390 -102l-35 -213q-138 100 -346 100q-177 0 -323 -70.5t-226 -218.5h622l-26 -161h-656q-14 -61 -14 -115h653l-26 -162h-606q42 -136 159 -212.5t269 -76.5 q108 0 217 28.5t190 78.5l-37 -238q-187 -84 -411 -84q-156 0 -289.5 58.5t-227 174.5t-120.5 271h-189z" />
<glyph unicode="&#x2122;" horiz-adv-x="1382" d="M195 1319l18 115h459l-19 -115h-166l-65 -410h-127l65 410h-165zM672 909l84 525h129l131 -265l207 265h145l-84 -525h-125l53 330l-172 -207h-82l-106 207l-53 -330h-127z" />
<glyph unicode="&#x25fc;" horiz-adv-x="983" d="M0 0v983h983v-983h-983z" />
<glyph unicode="&#xfb01;" horiz-adv-x="1200" d="M76 791l30 192h179l16 107q30 183 155.5 276.5t311.5 93.5q171 0 322 -71l-33 -193q-129 72 -271 72q-109 0 -180 -47.5t-88 -145.5l-14 -92h616l-155 -983h-220l125 791h-397l-125 -791h-219l125 791h-178z" />
<glyph unicode="&#xfb02;" horiz-adv-x="1232" d="M76 791l30 192h179l18 113q28 177 153 270.5t298 93.5q149 0 280 -61l191 39l-228 -1438h-219l195 1225q-92 43 -201 43q-102 0 -169 -45.5t-83 -143.5l-16 -96h287l-31 -192h-287l-125 -791h-219l125 791h-178z" />
<glyph unicode="&#xfb03;" horiz-adv-x="1861" d="M76 791l30 192h179l14 94q28 178 155 270.5t308 92.5q162 0 311 -86q133 133 354 133q160 0 314 -72l-31 -194q-123 73 -268 73q-109 0 -181 -50t-90 -157l-18 -104h629l-156 -983h-219l125 791h-410l-125 -791h-219l125 791h-430l-125 -791h-219l125 791h-178zM502 983 h432l18 119q10 57 25 94q-91 55 -209 55q-103 0 -171.5 -47.5t-82.5 -142.5z" />
<glyph unicode="&#xfb04;" horiz-adv-x="1882" d="M76 791l30 192h179l14 94q28 177 156 270t301 93q165 0 317 -86q124 127 328 127q155 0 285 -62l192 39l-231 -1458h-220l197 1245q-87 43 -194 43q-105 0 -174 -49t-87 -154l-16 -102h289l-31 -192h-289l-125 -791h-219l125 791h-430l-125 -791h-219l125 791h-178z M502 983h432l18 119q10 57 25 94q-88 55 -209 55q-99 0 -169.5 -48t-84.5 -142z" />
</font>
</defs>
</svg>
