<?xml version="1.0" standalone="no"?>
<!DOCTYPE svg PUBLIC "-//W3C//DTD SVG 1.1//EN" "http://www.w3.org/Graphics/SVG/1.1/DTD/svg11.dtd" >
<svg xmlns="http://www.w3.org/2000/svg">
<metadata></metadata>
<defs>
<font id="mullerthin_italic" horiz-adv-x="1255" >
<font-face units-per-em="2048" ascent="1597" descent="-451" />
<missing-glyph horiz-adv-x="555" />
<glyph horiz-adv-x="0" />
<glyph horiz-adv-x="682" />
<glyph unicode=" "  horiz-adv-x="555" />
<glyph unicode="&#x09;" horiz-adv-x="555" />
<glyph unicode="&#xa0;" horiz-adv-x="555" />
<glyph unicode="!" horiz-adv-x="399" d="M68 37q1 18 16 29.5t31 11.5q22 0 34 -13.5t9 -35.5q-4 -19 -18.5 -30t-33.5 -11q-21 0 -31.5 14t-6.5 35zM139 346l170 1088h51l-176 -1088h-45z" />
<glyph unicode="&#x22;" horiz-adv-x="509" d="M227 1163l43 271h52l-58 -271h-37zM412 1163l43 271h51l-57 -271h-37z" />
<glyph unicode="#" horiz-adv-x="1325" d="M51 389l8 45h199l209 527h-221l6 45h231l154 389h51l-153 -389h530l154 389h51l-154 -389h187l-7 -45h-196l-209 -527h219l-6 -45h-232l-153 -389h-51l153 389h-528l-156 -389h-49l154 389h-191zM311 434h529l207 527h-529z" />
<glyph unicode="$" horiz-adv-x="1155" d="M33 98l6 52q95 -58 218 -89.5t245 -31.5q86 0 162.5 16t144 49t112 92t56.5 138q11 71 -11.5 127t-69.5 93t-110.5 67t-135 54.5l-143 49t-134 57t-108.5 72.5t-67 101t-8 138q13 81 63.5 145.5t122.5 103.5t154 59.5t166 21.5l37 246h45l-37 -246q206 -10 355 -98 l-9 -49q-78 46 -182 72t-207 26q-74 0 -147 -17t-139 -50t-112 -90t-58 -130q-12 -69 10 -123.5t68.5 -90.5t109.5 -65.5t134.5 -54t142.5 -49.5t134.5 -57.5t109.5 -74t67.5 -103.5t9.5 -140q-11 -71 -46 -129t-84.5 -96.5t-114 -64.5t-132 -37.5t-139.5 -11.5l-37 -246 h-45l37 246q-265 13 -434 118z" />
<glyph unicode="%" horiz-adv-x="1787" d="M166 1169q22 137 120.5 211t223.5 74q123 0 202 -80.5t56 -220.5q-21 -137 -119 -211t-223 -74q-122 0 -202 81t-58 220zM211 1165q-18 -114 46 -183t169 -69q109 0 193.5 64t103.5 180q18 114 -46.5 183t-166.5 69q-111 0 -195.5 -63.5t-103.5 -180.5zM334 -123 l1104 1679h53l-1104 -1679h-53zM1057 281q22 137 120 210.5t224 73.5q122 0 202 -81t58 -220q-22 -137 -120.5 -210.5t-221.5 -73.5q-58 0 -109.5 20t-90 56.5t-56 95t-6.5 129.5zM1106 276q-19 -114 44.5 -182.5t168.5 -68.5q109 0 193.5 63.5t103.5 179.5 q18 114 -46.5 183t-166.5 69q-112 0 -195.5 -64t-101.5 -180z" />
<glyph unicode="&#x26;" horiz-adv-x="1384" d="M72 336q9 58 37 111.5t65 95.5t90.5 83.5t102 71.5t110.5 64q-176 201 -149 362q23 136 147 233t305 97q151 0 240.5 -79.5t69.5 -203.5q-6 -35 -24 -68.5t-40.5 -60.5t-60.5 -57t-69.5 -51.5t-82.5 -50t-84.5 -45.5t-90.5 -46t-87 -44l45 -48l422 -438q154 168 186 379 h49q-33 -233 -202 -414l219 -227h-62l-188 197q-224 -217 -543 -217q-212 0 -320.5 101t-84.5 255zM121 330q-19 -131 76.5 -217t283.5 -86q297 0 506 202l-432 449l-45 47q-77 -40 -135 -78t-115 -87t-92.5 -107t-46.5 -123zM377 1114q-22 -147 141 -330h2q28 14 84.5 42 t88 44t82 43t80 47t66.5 48t58.5 53t38.5 55.5t22 61.5q15 102 -58.5 165.5t-201.5 63.5q-169 0 -277 -85t-126 -208z" />
<glyph unicode="'" horiz-adv-x="325" d="M227 1163l43 271h52l-58 -271h-37z" />
<glyph unicode="(" horiz-adv-x="505" d="M123 721q38 243 158.5 490.5t291.5 443.5h54q-171 -197 -292 -447t-159 -495q-38 -243 3.5 -491t150.5 -443h-51q-109 199 -152 448t-4 494z" />
<glyph unicode=")" horiz-adv-x="507" d="M-84 -221q172 195 293 445t160 497q38 242 -4 490t-150 444h51q108 -200 151.5 -449t4.5 -493q-38 -240 -159 -488.5t-292 -445.5h-55z" />
<glyph unicode="*" horiz-adv-x="866" d="M215 1208l23 45l260 -98l41 279h47l-49 -279l292 98l9 -45l-293 -90l141 -235l-43 -27l-131 240l-215 -240l-35 27l217 235z" />
<glyph unicode="+" horiz-adv-x="1097" d="M131 692l6 49h412l65 412h50l-68 -412h412l-7 -49h-411l-66 -411h-47l66 411h-412z" />
<glyph unicode="," horiz-adv-x="342" d="M-66 -291l172 438h52l-181 -438h-43z" />
<glyph unicode="-" horiz-adv-x="997" d="M129 473l6 47h705l-9 -47h-702z" />
<glyph unicode="." horiz-adv-x="342" d="M49 37q1 18 16 29.5t33 11.5q22 0 33 -12.5t8 -34.5q-3 -18 -17 -30.5t-32 -12.5q-21 0 -33 14t-8 35z" />
<glyph unicode="/" horiz-adv-x="831" d="M-23 -117l873 1667h43l-875 -1667h-41z" />
<glyph unicode="0" horiz-adv-x="1441" d="M125.5 471.5q-4.5 110.5 13.5 237.5q26 158 83.5 286.5t144.5 222t209 144.5t270 51q120 0 214 -35.5t153.5 -100t95.5 -155t40 -201t-14 -237.5q-53 -324 -234.5 -514t-473.5 -190q-120 0 -213 35.5t-153 100t-95.5 155t-40 201zM176 480.5q3 -102.5 34.5 -186 t85.5 -142.5t139 -91t194 -32q272 0 439 176.5t216 484.5q26 148 10 272t-66.5 213t-148 139t-233.5 50q-272 0 -439.5 -177t-216.5 -485q-17 -119 -14 -221.5z" />
<glyph unicode="1" horiz-adv-x="815" d="M20 0l9 49h321l203 1286l-340 -121l8 50l359 129h34l-213 -1344h291l-8 -49h-664z" />
<glyph unicode="2" horiz-adv-x="1140" d="M8 0l6 35q9 55 25.5 105.5t36.5 91.5t51.5 80.5t59 69t70 61.5t73.5 53.5t81 49.5t82 45t85 44q3 1 4 2q59 30 93.5 48.5t85.5 49.5t82 54.5t68.5 58t60 67.5t41 75.5t25.5 88.5q20 130 -75.5 208.5t-270.5 78.5q-214 0 -438 -129l8 53q208 123 434 123q193 0 305.5 -93 t88.5 -249q-8 -49 -28 -94.5t-43.5 -81t-63 -73t-72 -63t-86 -59t-89.5 -53.5t-98 -53q-184 -97 -237 -131q-172 -108 -245 -244q-41 -76 -58 -170h876l-10 -49h-928z" />
<glyph unicode="3" horiz-adv-x="1202" d="M51 70l6 49q179 -92 449 -92q201 0 333.5 90t159.5 254q13 82 -10.5 145.5t-77 102t-126 58t-160.5 19.5h-201l8 47h195q185 0 293 89t129 215q21 134 -72.5 226.5t-271.5 92.5q-221 0 -441 -92l8 51q202 88 439 88q195 0 303 -107.5t84 -263.5q-19 -115 -103.5 -204 t-226.5 -115q67 -12 122.5 -40t96.5 -71t58 -107.5t4 -142.5q-29 -182 -176 -282t-365 -100q-290 0 -457 90z" />
<glyph unicode="4" horiz-adv-x="1304" d="M25 348l6 43l979 1002h57l-160 -996h299l-6 -49h-299l-55 -348h-51l55 348h-825zM100 397h756l150 924z" />
<glyph unicode="5" horiz-adv-x="1183" d="M53 74l6 47q183 -94 422 -94q204 0 344 100t166 266q15 92 -11 162.5t-85 112t-138.5 62t-176.5 20.5q-196 0 -394 -68l154 711h790l-8 -50h-741l-133 -600q168 54 344 54q102 0 188.5 -24t152 -71.5t95.5 -129t14 -187.5q-29 -181 -183 -293t-374 -112q-122 0 -237.5 25 t-194.5 69z" />
<glyph unicode="6" horiz-adv-x="1236" d="M133 655q32 199 98 346t161.5 236.5t211 132.5t254.5 43q162 0 285 -74l-8 -49q-118 74 -277 74q-103 0 -191.5 -24.5t-167.5 -78.5t-140.5 -136.5t-107 -203.5t-69.5 -274l-6 -41q121 111 262.5 172.5t280.5 61.5q89 0 165.5 -26.5t134 -78t83.5 -135.5t10 -190 q-33 -199 -183 -314.5t-349 -115.5q-267 0 -382 180.5t-65 494.5zM170 545q-18 -247 86 -382.5t322 -135.5q120 0 221 44t172 133.5t90 211.5q15 95 -7 168.5t-72.5 117.5t-119 66.5t-151.5 22.5q-140 0 -283.5 -65.5t-257.5 -180.5z" />
<glyph unicode="7" horiz-adv-x="1046" d="M186 1343l9 50h929l-6 -41l-864 -1352h-57l860 1343h-871z" />
<glyph unicode="8" horiz-adv-x="1312" d="M86 393q41 244 346 387q-101 49 -150.5 121t-31.5 182q10 64 49 122t103.5 105t162.5 75t217 28q114 0 205 -33t143 -87.5t75 -121t12 -135.5q-34 -212 -302 -372q127 -50 193.5 -130t46.5 -208q-11 -67 -54 -128.5t-112.5 -110.5t-174 -78t-228.5 -29 q-134 0 -237.5 33.5t-164 90.5t-86 131t-12.5 158zM139 389q-25 -154 92.5 -258t358.5 -104q218 0 356 90t158 217q10 65 -9 117.5t-49 84.5t-96.5 63t-112.5 46t-136 41l-21 6q-132 38 -201 66q-143 -61 -232 -156.5t-108 -212.5zM301 1077q-10 -62 9 -113t49.5 -82 t90 -60.5t98.5 -42.5t108 -33q16 -5 24 -7l190 -55q263 150 297 354q10 60 -9.5 118t-65 105t-126 76t-184.5 29q-209 0 -335.5 -84t-145.5 -205z" />
<glyph unicode="9" horiz-adv-x="1234" d="M125 53l8 49q116 -73 277 -73q129 0 236 39.5t196 123t151 223t92 330.5l7 41q-121 -111 -262.5 -172t-280.5 -61q-91 0 -168 26.5t-134 78t-82 135.5t-9 190q33 199 183 314.5t349 115.5q265 0 381 -181.5t66 -494.5q-32 -199 -98 -346t-161.5 -236t-211 -132 t-254.5 -43q-164 0 -285 73zM207 977q-15 -94 7 -167.5t72.5 -118t119 -67t151.5 -22.5q140 0 283.5 65.5t257.5 180.5q18 247 -86 382.5t-322 135.5q-120 0 -221 -44t-172 -133.5t-90 -211.5z" />
<glyph unicode=":" horiz-adv-x="387" d="M59 37q1 18 16.5 29.5t33.5 11.5q22 0 33 -12.5t8 -34.5q-3 -18 -17.5 -30.5t-32.5 -12.5q-21 0 -33 14t-8 35zM186 836q3 18 17.5 29.5t32.5 11.5q22 0 34 -13.5t9 -36.5q-3 -18 -17.5 -29.5t-32.5 -11.5q-21 0 -33.5 13.5t-9.5 36.5z" />
<glyph unicode=";" horiz-adv-x="538" d="M4 -291l172 438h51l-180 -438h-43zM256 924q3 18 18 29.5t33 11.5q22 0 33 -13.5t8 -36.5q-3 -18 -17 -29.5t-32 -11.5q-21 0 -33.5 14.5t-9.5 35.5z" />
<glyph unicode="&#x3c;" horiz-adv-x="989" d="M113 692l8 51l780 330l-6 -51l-727 -305l629 -305l-9 -52z" />
<glyph unicode="=" horiz-adv-x="1114" d="M141 508l6 47h797l-6 -47h-797zM199 879l8 47h797l-9 -47h-796z" />
<glyph unicode="&#x3e;" horiz-adv-x="989" d="M125 360l8 52l727 305l-631 305l9 51l677 -332l-8 -51z" />
<glyph unicode="?" horiz-adv-x="1003" d="M190 1288l9 53q199 113 409 113q196 0 304.5 -89t82.5 -243q-10 -60 -42 -120t-76 -111t-95.5 -101.5t-103 -100t-95 -97.5t-75 -102t-39.5 -107h-49q9 58 40.5 115.5t75 107t95 99t103 99.5t95.5 99.5t76 107t41 115.5q22 131 -71.5 205t-274.5 74q-205 0 -410 -117z M344 37q1 18 16 29.5t33 11.5q22 0 33 -12.5t8 -34.5q-3 -18 -17 -30.5t-32 -12.5q-21 0 -33 14t-8 35z" />
<glyph unicode="@" horiz-adv-x="2168" d="M86 218.5q-18 133.5 6 289.5q24 148 87 287t166 258.5t234.5 209t300.5 140.5t355 51q177 0 324.5 -55t244.5 -146t159.5 -207.5t83 -241t1.5 -245.5q-43 -265 -163.5 -402t-280.5 -137q-127 0 -191 70t-49 201q-66 -101 -170.5 -162t-222.5 -61q-171 0 -268 117t-68 307 q30 186 160.5 300.5t300.5 114.5q120 0 205.5 -63t119.5 -164l33 209h47l-94 -588q-15 -112 35 -173.5t162 -61.5q142 0 249 128.5t144 372.5q8 63 8.5 127t-14.5 129t-37.5 127t-60.5 120t-84 108.5t-108 92t-132 71.5t-156 46.5t-180 16.5q-177 0 -338 -48.5t-286 -133.5 t-223 -199t-159 -247.5t-84 -276.5q-27 -171 1.5 -319.5t104 -258t186.5 -188t249.5 -117.5t292.5 -39q258 0 473 74l-10 -51q-212 -72 -463 -72q-135 0 -260 29t-231.5 86t-190.5 140.5t-137.5 192t-71.5 242zM684 485q-27 -168 56 -269t233 -101q127 0 234.5 72.5 t162.5 183.5l37 235q-18 110 -100.5 182t-206.5 72q-155 0 -272.5 -102t-143.5 -273z" />
<glyph unicode="A" horiz-adv-x="1447" d="M-59 0l886 1434h62l430 -1434h-53l-133 440h-861l-274 -440h-57zM299 489h821l-260 863q-7 14 -10 34q-2 -7 -19 -36z" />
<glyph unicode="B" horiz-adv-x="1382" d="M121 0l227 1434h514q104 0 186.5 -21.5t141.5 -64.5q58 -44 84 -114q16 -46 17 -100q0 -30 -5 -63q-16 -96 -68 -164.5t-122 -104t-158 -48.5q49 -8 91.5 -22.5t87 -43.5t73.5 -68q28 -40 42 -102q7 -34 8 -72q0 -31 -5 -65q-12 -70 -40 -127.5t-65 -96t-87 -68t-99 -46 t-108.5 -27t-109 -13.5t-105.5 -3h-500zM180 49h441q63 0 115 4t116.5 15.5t115 36t97 61t77 94.5t42.5 133q5 32 5 60q1 47 -13 87q-22 63 -62 97.5t-99 56t-108 27.5t-102 6h-518zM295 776h536q71 0 136 17t121.5 51.5t96 93.5t52.5 137q5 31 5 59q0 115 -84 175 q-104 75 -304 75h-463z" />
<glyph unicode="C" horiz-adv-x="1329" d="M129 727q23 143 84.5 264t147 205t190 143t212.5 87t216 28q226 0 377 -98l-8 -51q-141 100 -365 100q-103 0 -205.5 -26t-201 -81t-179 -134t-139 -194t-80.5 -251q-10 -66 -10 -128q0 -63 10 -121q22 -115 77 -194.5t135.5 -136t175 -83.5t196.5 -27q216 0 409 102 l-8 -53q-180 -98 -409 -98q-108 0 -208.5 29t-187 90.5t-146.5 148.5q-58 86 -82 210q-12 63 -12 131q0 66 11 138z" />
<glyph unicode="D" horiz-adv-x="1495" d="M121 0l227 1434h400q189 0 328.5 -54t217.5 -151t106 -227q14 -68 15 -145q0 -69 -12 -144q-24 -156 -90.5 -284.5t-173.5 -225t-263 -150t-348 -53.5h-407zM180 49h357q177 0 321.5 49.5t245 139.5t164 212t86.5 271q11 70 11 135q0 70 -13 132q-25 120 -97 209 t-201 138t-306 49h-357z" />
<glyph unicode="E" horiz-adv-x="1282" d="M121 0l227 1434h932l-8 -50h-881l-100 -639h819l-8 -49h-819l-103 -647h893l-8 -49h-944z" />
<glyph unicode="F" horiz-adv-x="1220" d="M121 0l227 1434h934l-8 -50h-883l-102 -653h823l-8 -49h-825l-107 -682h-51z" />
<glyph unicode="G" horiz-adv-x="1454" d="M131 460q-13 61 -13 131.5t13 149.5q24 149 88 271.5t150.5 203t194 135.5t216 79t219.5 24q226 0 400 -94l-6 -49q-75 45 -180 69.5t-212 24.5q-106 0 -209 -22.5t-204.5 -74t-183 -127t-141.5 -191t-83 -257.5q-12 -73 -12 -138t12 -123q24 -114 79.5 -197.5 t140.5 -138t183 -81t205 -26.5q222 0 402 86l100 633h51l-106 -672q-209 -96 -449 -96q-115 0 -220 28.5t-196.5 87.5t-152 149.5t-86.5 214.5z" />
<glyph unicode="H" horiz-adv-x="1570" d="M121 0l227 1434h51l-108 -689h1038l109 689h51l-227 -1434h-52l111 696h-1038l-111 -696h-51z" />
<glyph unicode="I" horiz-adv-x="481" d="M121 0l227 1434h51l-227 -1434h-51z" />
<glyph unicode="J" horiz-adv-x="1073" d="M-12 68l8 51q131 -90 342 -90q393 0 450 354l160 1001h-475l8 50h525l-166 -1055q-31 -201 -161 -300t-335 -99q-223 0 -356 88z" />
<glyph unicode="K" horiz-adv-x="1335" d="M121 0l227 1434h51l-106 -674h442l608 674h60l-631 -701l461 -733h-57l-447 711h-444l-113 -711h-51z" />
<glyph unicode="L" horiz-adv-x="1165" d="M121 0l227 1434h51l-219 -1385h877l-8 -49h-928z" />
<glyph unicode="M" horiz-adv-x="1843" d="M121 0l227 1434h41l512 -971l813 971h47l-227 -1434h-51l211 1333l-781 -930h-36l-492 934l-213 -1337h-51z" />
<glyph unicode="N" horiz-adv-x="1570" d="M121 0l227 1434h41l836 -1348q2 20 7 53t7 47l199 1248h51l-227 -1434h-41l-836 1350q-3 -32 -16 -101l-197 -1249h-51z" />
<glyph unicode="O" horiz-adv-x="1689" d="M117 568v15q0 68 8 138q17 108 64 213t123.5 199t174 165.5t225 113.5t267.5 42q102 0 191 -22.5t155.5 -62.5t121 -95t88 -120t55 -138.5t22.5 -149.5q0 -8 1 -15q0 -68 -9 -138q-17 -108 -63.5 -213t-122.5 -199t-173.5 -165.5t-225.5 -113.5t-269 -42 q-102 0 -191 22.5t-155.5 62.5t-121 95t-88 120t-55 138.5t-22.5 149.5zM168 574q0 -70 19.5 -138t49.5 -128.5t80 -111.5t111.5 -88t144.5 -58t179 -21q133 0 253 39.5t211 107t162.5 156.5t114.5 187t59 200q9 67 9 134q-1 3 -1 7q0 70 -19.5 138t-49 128.5t-79.5 111.5 t-111.5 88t-144.5 58t-179 21q-165 0 -309.5 -60.5t-244 -159.5t-163.5 -220.5t-84 -249.5q-9 -67 -8 -134v-7z" />
<glyph unicode="P" horiz-adv-x="1339" d="M121 0l227 1434h440q99 0 181.5 -13t156 -45t121 -81.5t67.5 -128.5q12 -44 12 -96q0 -40 -7 -85q-70 -440 -666 -440h-395l-86 -545h-51zM266 594h396q546 0 608 399q6 39 6 74q0 45 -10 84q-18 69 -60 112.5t-108.5 71t-140.5 38.5t-164 11h-402z" />
<glyph unicode="Q" horiz-adv-x="1689" d="M117 568v15q0 69 8 138q17 108 64 213t123.5 199t174 165.5t225 113.5t267.5 42q102 0 191 -22.5t155.5 -62.5t121 -95t88 -120t55 -138.5t22.5 -149.5v-15q0 -69 -8 -138q-25 -156 -111 -303t-219 -252l207 -244l-37 -31l-209 246q-217 -149 -485 -149q-102 0 -191 22.5 t-155.5 62.5t-121 95t-88 120t-55 138.5t-22.5 149.5zM168 574q0 -71 19.5 -138.5t49.5 -128t80 -111.5t111.5 -88t144.5 -58t179 -21q253 0 452 139l-278 328l37 32l280 -331q125 97 205 235.5t104 286.5q9 67 9 134q0 4 -1 7q0 71 -19.5 138.5t-49 128t-79.5 111.5 t-111.5 88t-144.5 58t-179 21q-165 0 -309.5 -60.5t-244 -159.5t-163.5 -220.5t-84 -249.5q-9 -67 -9 -134q0 -4 1 -7z" />
<glyph unicode="R" horiz-adv-x="1396" d="M121 0l227 1434h531q75 0 143 -13.5t130.5 -45t105 -78.5t61.5 -120q11 -41 11 -87q0 -36 -7 -76q-16 -103 -67.5 -182.5t-125.5 -126.5t-155.5 -71.5t-171.5 -29.5l450 -604h-59l-451 602h-477l-94 -602h-51zM276 651h488q67 0 131 11.5t128 39t114.5 69t87.5 106 t49 145.5q6 35 6 67q0 40 -10 75q-16 63 -53.5 103.5t-92.5 67.5t-115.5 38t-127.5 11h-490z" />
<glyph unicode="S" horiz-adv-x="1159" d="M37 98l6 49q200 -118 463 -118q89 0 165 15.5t143 48.5t110.5 92t56.5 139q4 26 4 50q-1 47 -15 86q-22 60 -67.5 99.5t-108.5 71.5t-133.5 57.5t-141.5 51.5t-133 59t-108 74.5t-66 104.5q-13 40 -13 86q0 27 4 56q14 87 65 153.5t125 104.5t155.5 57t166.5 19 q229 0 393 -100l-8 -49q-152 100 -370 100h-13q-81 0 -154.5 -16t-140 -48.5t-111 -91t-57.5 -135.5q-4 -25 -3 -47q-1 -39 9 -71q16 -52 54 -87.5t91 -66.5t114.5 -53t126 -47.5t125.5 -49t113.5 -59t89.5 -77.5t53 -102q9 -36 10 -76q0 -28 -5 -59q-14 -90 -63 -158 t-122.5 -106.5t-158.5 -56.5q-81 -18 -170 -18h-10q-131 0 -255.5 31.5t-215.5 86.5z" />
<glyph unicode="T" horiz-adv-x="1204" d="M150 1384l8 50h1153l-8 -50h-551l-220 -1384h-51l219 1384h-550z" />
<glyph unicode="U" horiz-adv-x="1533" d="M176 324q-2 25 -3 52q0 54 9 118l148 940h51l-150 -940q-9 -58 -9 -108q0 -61 13 -111q24 -92 87 -144.5t150 -77t202 -24.5q524 0 598 467l147 938h51l-149 -942q-21 -139 -79.5 -240.5t-146.5 -159.5t-191 -85t-228 -27q-82 0 -151.5 11.5t-131.5 37t-106.5 65.5 t-74.5 97.5t-36 132.5z" />
<glyph unicode="V" horiz-adv-x="1386" d="M174 1434h53l379 -1375l815 1375h58l-854 -1434h-52z" />
<glyph unicode="W" horiz-adv-x="2013" d="M188 1434h52l219 -1364l661 1347h45l226 -1341l649 1358h53l-684 -1434h-55l-224 1329l-653 -1329h-57z" />
<glyph unicode="X" horiz-adv-x="1236" d="M-74 0l686 739l-426 695h58l403 -658l613 658h63l-651 -703l448 -731h-55l-428 694l-645 -694h-66z" />
<glyph unicode="Y" horiz-adv-x="1277" d="M182 1434h54l405 -801l659 801h62l-700 -852l-93 -582h-51l92 582z" />
<glyph unicode="Z" horiz-adv-x="1159" d="M-47 0l6 45l1186 1339h-934l10 50h1000l-7 -45l-1187 -1340h989l-8 -49h-1055z" />
<glyph unicode="[" horiz-adv-x="481" d="M31 -225l297 1884h282l-6 -49h-231l-285 -1786h231l-6 -49h-282z" />
<glyph unicode="\" horiz-adv-x="817" d="M238 1550h41l344 -1667h-41z" />
<glyph unicode="]" horiz-adv-x="481" d="M-90 -225l6 49h234l282 1786h-231l6 49h282l-296 -1884h-283z" />
<glyph unicode="^" horiz-adv-x="989" d="M158 827l452 607h45l260 -607h-53l-235 553l-412 -553h-57z" />
<glyph unicode="_" horiz-adv-x="874" d="M-135 -260l8 49h875l-9 -49h-874z" />
<glyph unicode="`" horiz-adv-x="337" d="M299 1866h57l140 -273h-54z" />
<glyph unicode="a" d="M86 504q36 227 196.5 363.5t368.5 136.5q146 0 256.5 -79.5t151.5 -201.5l41 260h47l-156 -983h-47l41 254q-80 -122 -209.5 -198t-279.5 -76q-104 0 -189 37.5t-140 105t-77 165.5q-12 53 -13 113q0 49 9 103zM133 498q-8 -49 -8 -95q1 -53 11 -101q20 -90 69 -150 t124.5 -93.5t168.5 -33.5q156 0 291 89t204 222l49 307q-25 134 -132.5 224.5t-256.5 90.5q-192 0 -339.5 -123.5t-180.5 -336.5z" />
<glyph unicode="b" d="M78 0l227 1434h49l-110 -705q78 121 209 198t276 77q97 0 180.5 -38t141 -105t82.5 -167q14 -57 14 -118q0 -47 -8 -97q-24 -152 -105 -266.5t-200 -173.5t-261 -59q-152 0 -258 78.5t-147 207.5l-45 -266h-45zM180 342q27 -137 131.5 -227t257.5 -90q200 0 344 122.5 t177 337.5q7 46 7 89q0 56 -12 106q-22 90 -73.5 150t-125.5 94t-161 34q-156 0 -291 -90.5t-207 -228.5z" />
<glyph unicode="c" horiz-adv-x="1009" d="M84 496q16 104 61 190.5t106 144t136.5 97.5t151 58t151.5 18q173 0 281 -82l-8 -48q-103 84 -271 84q-71 0 -141 -16.5t-139 -53.5t-124.5 -90t-97 -133t-57.5 -176q-8 -48 -8 -93q0 -59 14 -110q24 -90 81 -146t135 -85.5t171 -29.5q177 0 324 81l-6 -51 q-142 -75 -324 -75q-100 0 -185.5 32t-149.5 93.5t-92 162.5q-17 60 -17 130q0 47 8 98z" />
<glyph unicode="d" d="M86 504q24 152 105.5 266.5t200.5 174t257 59.5q151 0 260 -79t148 -206l112 715h50l-228 -1434h-45l41 258q-79 -124 -209.5 -201t-281.5 -77q-208 0 -328 146q-91 111 -91 273q0 50 9 105zM133 498q-8 -51 -9 -98q0 -146 81 -244q106 -130 293 -131q157 0 292 90.5 t205 228.5l47 297q-26 137 -131 227t-258 90q-197 0 -342 -122.5t-178 -337.5z" />
<glyph unicode="e" horiz-adv-x="1110" d="M84 494q19 119 72.5 217.5t128.5 161.5t164.5 97t183.5 34q102 0 180 -34.5t122 -90.5t66 -127q20 -64 20 -130q-1 -8 -1 -16q-2 -74 -25 -145h-866q-5 -36 -4 -69q0 -50 10 -95q18 -74 57.5 -123.5t97 -83.5t122 -49.5t135.5 -15.5q184 0 336 79l-11 -51 q-134 -73 -329 -73q-80 0 -153 18.5t-137 59t-107.5 99t-61.5 145.5q-9 44 -8 93q0 47 8 99zM135 506h823q14 48 16 100v15q0 44 -8 88q-10 51 -35.5 95.5t-64 79t-98 54.5t-133.5 20q-116 0 -218.5 -51t-179 -155t-102.5 -246z" />
<glyph unicode="f" horiz-adv-x="716" d="M106 936l7 47h168l28 174q25 156 121.5 226.5t237.5 70.5q129 0 225 -47l-8 -47q-84 49 -213 49q-127 0 -210.5 -60.5t-105.5 -193.5l-26 -172h436l-6 -47h-436l-150 -936h-49l149 936h-168z" />
<glyph unicode="g" d="M47 -377l8 49q149 -98 348 -98q96 0 181 23.5t160 72t126.5 133.5t69.5 199l41 250q-78 -120 -208 -196t-279 -76q-214 0 -331 145q-88 109 -88 270q0 52 9 109q24 152 106 266.5t201.5 174t257.5 59.5q151 0 258 -79.5t150 -209.5l41 268h47l-156 -985 q-16 -101 -57 -181.5t-96.5 -133.5t-126.5 -88.5t-145.5 -50.5t-155.5 -15q-213 0 -361 94zM131 498q-9 -54 -9 -102q0 -144 78 -241q104 -130 296 -130q157 0 292 89.5t205 225.5l47 301q-26 137 -131 227t-258 90q-195 0 -341 -123t-179 -337z" />
<glyph unicode="h" horiz-adv-x="1175" d="M78 0l227 1434h49l-106 -670q36 43 79.5 81.5t101 76t128 60t143.5 22.5q164 0 256 -108q70 -83 71 -209q0 -39 -7 -83l-96 -604h-50l97 602q7 42 7 80q0 112 -60 182q-80 94 -226 94q-138 0 -259.5 -79.5t-196.5 -186.5l-109 -692h-49z" />
<glyph unicode="i" horiz-adv-x="409" d="M86 0l156 983h49l-156 -983h-49zM268 1264q6 36 45 36q18 0 29 -11q9 -9 9 -23q0 -4 -1 -9q-6 -36 -45 -36q-18 0 -29 11q-9 9 -9 23q0 5 1 9z" />
<glyph unicode="j" horiz-adv-x="407" d="M-317 -446l8 45q58 -25 127 -25q95 0 154 44.5t77 150.5l191 1214h49l-193 -1223q-38 -231 -272 -231q-77 0 -141 25zM268 1264q6 36 45 36q18 0 29 -11q9 -9 9 -23q0 -4 -1 -9q-6 -36 -45 -36q-18 0 -29 11q-9 9 -9 23q0 5 1 9z" />
<glyph unicode="k" horiz-adv-x="1001" d="M78 0l227 1434h49l-143 -897h272l457 446h59l-485 -477l385 -506h-57l-371 489h-266l-78 -489h-49z" />
<glyph unicode="l" horiz-adv-x="407" d="M84 0l238 1495h49l-238 -1495h-49z" />
<glyph unicode="m" horiz-adv-x="1830" d="M78 0l155 983h46l-33 -213q33 41 75.5 79.5t96.5 74.5t120 58t132 22q117 0 194.5 -61t96.5 -165q49 57 107.5 104t144.5 84.5t171 37.5q155 0 237 -103q62 -78 62 -189q0 -35 -6 -73l-100 -639h-49l102 639q5 34 5 65q0 96 -51 164q-68 90 -204 90q-64 0 -127 -21 t-115.5 -56.5t-93.5 -74t-75 -81.5q0 -39 -6 -86l-101 -639h-49l102 639q5 34 5 65q0 96 -50 164q-68 90 -204 90q-127 0 -238.5 -75.5t-187.5 -175.5l-113 -707h-49z" />
<glyph unicode="n" horiz-adv-x="1175" d="M78 0l155 983h46l-35 -223q36 44 79.5 83t102 77.5t130.5 61t146 22.5q162 0 254 -108q70 -83 71 -210q0 -39 -7 -82l-96 -604h-50l97 602q7 42 7 80q0 112 -60 182q-80 94 -226 94q-138 0 -259.5 -79.5t-196.5 -186.5l-109 -692h-49z" />
<glyph unicode="o" horiz-adv-x="1212" d="M84 504q15 95 55.5 177t97.5 140.5t128 100t148.5 62t156.5 20.5q96 0 181 -36.5t147 -101.5t90 -166q16 -60 16 -126q0 -46 -8 -95q-19 -118 -76 -214.5t-137.5 -157.5t-175.5 -94t-195 -33q-96 0 -181 36t-147 102t-90 166q-17 61 -17 129q0 44 7 91zM133 496 q-7 -44 -7 -85q0 -58 14 -111q24 -90 78.5 -149t130.5 -91.5t163 -32.5q93 0 181 30.5t161.5 87t125 145t67.5 197.5q7 44 7 85q0 58 -14 111q-24 90 -78.5 149t-130.5 91.5t-163 32.5q-93 0 -181 -30.5t-161.5 -87t-125 -145t-67.5 -197.5z" />
<glyph unicode="p" d="M6 -451l227 1434h46l-41 -260q82 126 212.5 203.5t278.5 77.5q206 0 327 -146q92 -113 92 -275q0 -49 -9 -104q-36 -229 -194 -364t-372 -135q-152 0 -258 78t-147 206l-113 -715h-49zM180 342q27 -137 131.5 -227t257.5 -90q197 0 342 122.5t179 337.5q8 51 8 97 q0 146 -81 245q-107 131 -294 131q-152 0 -289 -91.5t-207 -227.5z" />
<glyph unicode="q" d="M86 504q36 227 196.5 363.5t368.5 136.5q146 0 256.5 -79.5t151.5 -203.5l41 262h47l-227 -1434h-50l111 701q-77 -119 -206 -194.5t-279 -75.5q-104 0 -189 37.5t-140 105t-77 165.5q-13 54 -13 113q0 49 9 103zM133 498q-8 -49 -8 -95q0 -53 11 -101 q19 -89 68.5 -149.5t125 -94t168.5 -33.5q156 0 291 89t204 222l49 307q-25 134 -132.5 224.5t-256.5 90.5q-192 0 -339.5 -123.5t-180.5 -336.5z" />
<glyph unicode="r" horiz-adv-x="692" d="M78 0l155 983h46l-48 -301q73 140 203 232q126 90 287 90h10l-8 -50h-11q-80 0 -158 -29q-82 -31 -146 -84t-112 -118.5t-77 -136.5l-92 -586h-49z" />
<glyph unicode="s" horiz-adv-x="931" d="M29 80l8 47q65 -46 161.5 -74t190.5 -28q90 0 163.5 20.5t126.5 68t64 117.5q3 16 3 31q0 32 -12 58q-18 38 -54.5 62.5t-86 43.5t-105.5 34t-111.5 31t-104.5 38t-85 51q-35 29 -53 75q-12 30 -12 66q0 19 3 39q10 63 48.5 112t94 76.5t118.5 41.5t130 14 q92 0 178 -23.5t144 -62.5l-7 -46q-56 39 -141.5 62.5t-173.5 23.5q-82 0 -152.5 -20t-124.5 -67.5t-65 -116.5q-2 -16 -2 -30q0 -32 12 -60q18 -40 55 -64.5t86.5 -43.5t105.5 -34t111.5 -30.5t104.5 -37.5t85 -50.5t53 -73.5q11 -29 12 -64q0 -19 -4 -39 q-13 -84 -75 -141.5t-145 -81.5t-182 -24q-101 0 -201.5 28t-160.5 72z" />
<glyph unicode="t" horiz-adv-x="729" d="M74 936l6 47h184l51 322l52 18l-54 -340h441l-9 -47h-438l-106 -664q-5 -33 -6 -61q0 -77 40 -123q54 -63 173 -63q124 0 221 51l-6 -47q-85 -49 -224 -49q-134 0 -202 76q-51 56 -51 148q0 31 6 66l106 666h-184z" />
<glyph unicode="u" horiz-adv-x="1177" d="M125 381l96 602h49l-96 -602q-6 -42 -6 -79q0 -112 58 -182q78 -94 225 -95q141 0 262 80t194 188l111 690h49l-156 -983h-45l35 223q-74 -95 -194.5 -169t-257.5 -74q-166 0 -259 108q-71 83 -71 212q0 38 6 81z" />
<glyph unicode="v" horiz-adv-x="1064" d="M106 983h52l286 -928l584 928h55l-618 -983h-53z" />
<glyph unicode="w" horiz-adv-x="1630" d="M117 983h49l207 -913l479 897h47l188 -899l498 915h53l-534 -983h-47l-189 901l-481 -901h-49z" />
<glyph unicode="x" horiz-adv-x="987" d="M-59 0l510 506l-330 477h57l305 -442l451 442h61l-485 -479l348 -504h-55l-326 469l-475 -469h-61z" />
<glyph unicode="y" horiz-adv-x="1085" d="M-68 -459l7 43q41 -10 90 -10q91 0 165.5 63t159.5 205l97 158l-355 983h51l334 -932l563 932h56l-705 -1163q-98 -160 -181.5 -225.5t-180.5 -65.5q-51 0 -101 12z" />
<glyph unicode="z" horiz-adv-x="899" d="M-37 0l6 39l836 899h-664l6 45h732l-9 -39l-833 -899h715l-9 -45h-780z" />
<glyph unicode="{" horiz-adv-x="526" d="M72 694l6 45q76 0 140.5 53.5t80.5 153.5l84 529q18 110 73.5 157.5t159.5 26.5l-6 -45q-84 16 -124 -23t-56 -135l-82 -520q-14 -90 -64.5 -146t-119.5 -75q60 -17 94.5 -72t20.5 -147l-82 -523q-14 -93 12.5 -130t116.5 -23l-7 -45q-113 -18 -153.5 30.5t-22.5 157.5 l84 529q16 99 -31 150.5t-124 51.5z" />
<glyph unicode="|" horiz-adv-x="370" d="M33 -205l295 1864h51l-295 -1864h-51z" />
<glyph unicode="}" horiz-adv-x="526" d="M-51 -225l6 47q83 -17 123.5 20.5t54.5 128.5l84 531q14 92 67 147t124 70q-63 17 -99 73t-22 148l84 522q14 93 -12.5 130.5t-118.5 23.5l6 43q110 20 152 -30t24 -159l-84 -528q-14 -100 34 -151.5t122 -51.5l-7 -45q-75 0 -140 -53.5t-81 -153.5l-84 -528 q-18 -109 -73 -157t-160 -27z" />
<glyph unicode="~" horiz-adv-x="1173" d="M156 600q9 76 61 123t131 47q53 0 125 -22.5t131.5 -49t129 -49t118.5 -22.5q62 0 101.5 34t45.5 89h48q-8 -76 -60 -123t-133 -47q-51 0 -122.5 22.5t-132 49t-131 49t-118.5 22.5q-61 0 -100 -34.5t-47 -88.5h-47z" />
<glyph unicode="&#xa1;" horiz-adv-x="368" d="M-8 -442l176 1089h45l-170 -1089h-51zM195 963q3 18 17 29.5t30 11.5q22 0 33.5 -13.5t7.5 -34.5q-3 -19 -17 -31t-33 -12q-20 0 -31 14t-7 36z" />
<glyph unicode="&#xa2;" horiz-adv-x="1048" d="M92 496q15 100 57 183.5t99 140.5t128.5 98t143.5 61.5t146 24.5l34 225h45l-34 -225q163 -3 268 -82l-8 -48q-103 84 -269 84l-147 -933q166 7 303 81l-6 -51q-138 -72 -305 -75l-35 -226h-45l35 226q-95 4 -176 38t-141 95.5t-85.5 160.5t-7.5 222zM141 489 q-18 -109 4 -197.5t75.5 -144.5t127.5 -87t162 -35l147 931q-86 -6 -167 -36.5t-153.5 -85.5t-125 -144t-70.5 -201z" />
<glyph unicode="&#xa3;" horiz-adv-x="1241" d="M-12 0l8 49h63q80 0 132 51.5t69 149.5l66 420h-166l8 49h166l37 233q15 100 52.5 180t87.5 132t113 86t127.5 48.5t133.5 14.5q158 0 276 -80l-8 -49q-113 80 -268 80q-62 0 -120 -12.5t-115.5 -43t-102.5 -77t-79 -118.5t-48 -163l-35 -231h524l-8 -49h-524l-68 -422 q-23 -159 -127 -199h881l-8 -49h-1067z" />
<glyph unicode="&#xa4;" horiz-adv-x="1171" d="M123 324l153 133q-89 105 -63 264q24 157 145 260l-110 129l41 35l110 -133q118 86 265 86q141 0 243 -86l154 133l29 -35l-154 -133q89 -102 63 -264q-20 -151 -143 -260l109 -129l-39 -35l-111 133q-121 -86 -266 -86q-143 0 -242 86l-155 -133zM262 713 q-15 -97 21 -173.5t106.5 -116.5t161.5 -40q144 0 260.5 93.5t140.5 244.5q23 145 -62 237.5t-226 92.5q-146 0 -261 -93t-141 -245z" />
<glyph unicode="&#xa5;" horiz-adv-x="1284" d="M182 332l8 45h388l32 201h-389l8 45h363l-391 770h55l385 -766l631 766h55l-635 -770h365l-8 -45h-387l-33 -201h389l-8 -45h-389l-54 -332h-49l51 332h-387z" />
<glyph unicode="&#xa6;" horiz-adv-x="407" d="M51 -205l113 703h49l-111 -703h-51zM236 956l110 703h49l-108 -703h-51z" />
<glyph unicode="&#xa7;" horiz-adv-x="991" d="M68 20l6 50q140 -95 325 -95q134 0 231.5 54.5t110.5 146.5q9 56 -8 97t-65 69t-89.5 43.5t-117.5 36.5q-149 42 -205 72q-132 72 -114 209q1 3 1 6q16 93 90 161t168 107q-86 36 -128.5 90.5t-28.5 144.5q19 113 125.5 177.5t244.5 64.5q167 0 308 -80l-7 -47 q-131 82 -299 82q-125 0 -216.5 -54.5t-106.5 -148.5q-7 -46 8.5 -82.5t36.5 -58t74.5 -43.5t82.5 -30.5t100 -26.5q5 -1 7 -2q57 -16 96.5 -30t84 -38t69.5 -51.5t38 -70t5 -93.5q-29 -168 -274 -264q199 -75 170 -248q-18 -111 -130 -174.5t-260 -63.5q-96 0 -183.5 24.5 t-149.5 65.5zM191.5 654.5q1.5 -23.5 12.5 -43.5t24 -35.5t34.5 -29t43 -24t49.5 -20t54 -17.5t57 -17q7 -2 11 -3q14 -4 44 -13t46 -14q44 14 84.5 32t83.5 47t73 71.5t38 93.5q7 44 -4.5 78.5t-32 57.5t-60 43t-73.5 31t-88 26q-18 5 -63.5 17.5t-69.5 20.5 q-54 -17 -105.5 -46t-98.5 -83.5t-58 -119.5q-3 -29 -1.5 -52.5z" />
<glyph unicode="&#xa8;" horiz-adv-x="565" d="M262 1714q1 17 16.5 30t32.5 13q23 0 34.5 -14t8.5 -35q-3 -19 -17.5 -32t-33.5 -13q-22 0 -34 15.5t-7 35.5zM672 1714q1 17 16.5 30t32.5 13q23 0 34.5 -14t8.5 -35q-3 -19 -17.5 -32t-33.5 -13q-22 0 -34 15.5t-7 35.5z" />
<glyph unicode="&#xa9;" horiz-adv-x="1751" d="M135 729q22 141 85.5 261.5t151.5 204.5t195.5 143.5t218.5 87.5t220 28q90 0 177 -21t166.5 -63t143.5 -105t107.5 -146t58.5 -187t-4 -227q-22 -141 -85.5 -261.5t-152 -204.5t-196 -143.5t-218.5 -87.5t-219 -28q-109 0 -212.5 30t-193 92t-152 149t-88.5 211t-3 267z M164 725q-21 -135 3 -253t82.5 -201.5t143 -144t183 -89.5t202.5 -29q106 0 214.5 27t212.5 84t189.5 138t147.5 198t84 254q21 136 -3.5 253.5t-83 201t-143 143.5t-183.5 89t-203 29q-106 0 -214.5 -27t-212.5 -84t-189.5 -137.5t-147 -197.5t-82.5 -254zM518 713 q14 86 50.5 156.5t86 117.5t110 79t121 46t120.5 14q144 0 237 -71l-4 -39q-94 69 -227 69q-72 0 -141.5 -21.5t-134 -64t-111.5 -118.5t-62 -174q-14 -88 5.5 -158.5t64 -113t104.5 -65t129 -22.5q144 0 277 70l-6 -43q-136 -68 -277 -68q-76 0 -143 25.5t-118 74t-74 128 t-7 178.5z" />
<glyph unicode="&#xab;" horiz-adv-x="849" d="M90 483l2 19l295 340h57l-305 -353l193 -348h-51zM395 483l2 19l295 340h58l-306 -353l193 -348h-51z" />
<glyph unicode="&#xac;" horiz-adv-x="1187" d="M207 936l6 47h870l-57 -365h-49l51 318h-821z" />
<glyph unicode="&#xad;" horiz-adv-x="997" d="M129 473l6 47h705l-9 -47h-702z" />
<glyph unicode="&#xae;" horiz-adv-x="1751" d="M135 729q22 141 85.5 261.5t151.5 204.5t195.5 143.5t218.5 87.5t220 28q90 0 177 -21t166.5 -63t143.5 -105t107.5 -146t58.5 -187t-4 -227q-22 -141 -85.5 -261.5t-152 -204.5t-196 -143.5t-218.5 -87.5t-219 -28q-109 0 -212.5 30t-193 92t-152 149t-88.5 211t-3 267z M164 725q-21 -135 3 -253t82.5 -201.5t143 -144t183 -89.5t202.5 -29q106 0 214.5 27t212.5 84t189.5 138t147.5 198t84 254q21 136 -3.5 253.5t-83 201t-143 143.5t-183.5 89t-203 29q-106 0 -214.5 -27t-212.5 -84t-189.5 -137.5t-147 -197.5t-82.5 -254zM567 305l127 809 h307q35 0 70.5 -6t75 -23t67 -43.5t41.5 -73t5 -106.5q-31 -182 -226 -219l185 -338h-45l-181 332q-27 -4 -69 -4h-265l-51 -328h-41zM666 674h264q258 0 289 194q8 51 -4 89.5t-35 60t-57.5 34.5t-64.5 17t-63 4h-266z" />
<glyph unicode="&#xaf;" horiz-adv-x="606" d="M266 1661l6 47h516l-6 -47h-516z" />
<glyph unicode="&#xb0;" horiz-adv-x="796" d="M193 1190q15 86 67.5 151t122.5 97t145 32q120 0 197.5 -81.5t56.5 -212.5q-21 -129 -119 -206t-217 -77q-120 0 -197 81.5t-56 215.5zM233 1184q-18 -111 46 -181.5t167 -70.5q106 0 191.5 67t103.5 181q18 111 -45.5 181.5t-163.5 70.5q-107 0 -194 -67t-105 -181z" />
<glyph unicode="&#xb1;" horiz-adv-x="1196" d="M80 0l8 47h870l-8 -47h-870zM193 707l6 47h411l66 411h49l-68 -411h412l-6 -47h-412l-65 -412h-47l65 412h-411z" />
<glyph unicode="&#xb4;" horiz-adv-x="337" d="M268 1593l221 273h62l-227 -273h-56z" />
<glyph unicode="&#xb6;" horiz-adv-x="1208" d="M141 1024q31 193 165 301.5t339 108.5h518l-299 -1885h-51l291 1835h-416l-291 -1835h-49l168 1057q-205 0 -305.5 110.5t-69.5 307.5z" />
<glyph unicode="&#xb7;" horiz-adv-x="382" d="M129 494q3 18 17 29.5t32 11.5q22 0 34 -13.5t9 -36.5q-3 -18 -17 -29.5t-32 -11.5q-21 0 -33.5 13.5t-9.5 36.5z" />
<glyph unicode="&#xb8;" horiz-adv-x="430" d="M-113 -426l9 43q82 -45 194 -45q96 0 147 31.5t56 81.5q10 66 -70 88.5t-176 -9.5l92 236h45l-78 -195q61 12 115.5 5.5t89.5 -42t27 -90.5q-9 -68 -72 -108.5t-172 -40.5q-119 0 -207 45z" />
<glyph unicode="&#xbb;" horiz-adv-x="849" d="M68 141l305 353l-193 348h53l189 -342l-2 -19l-295 -340h-57zM373 141l305 353l-193 348h54l188 -342l-2 -19l-295 -340h-57z" />
<glyph unicode="&#xbc;" horiz-adv-x="1918" d="M109 557l8 43h209l118 743l-202 -71l6 43l215 78h33l-125 -793h161l-8 -43h-415zM326 -23l1167 1477h37l-1168 -1477h-36zM1071 205l6 39l580 592h47l-92 -590h176l-4 -41h-178l-33 -205h-45l33 205h-490zM1135 246h432l82 524z" />
<glyph unicode="&#xbd;" horiz-adv-x="1812" d="M98 557l8 43h209l119 743l-203 -71l7 43l215 78h32l-125 -793h162l-8 -43h-416zM315 -23l1168 1477h37l-1168 -1477h-37zM1069 0l4 27q6 42 21.5 80t31.5 66t46 57t50.5 46t60.5 41t61 35.5t65 34.5q55 29 81.5 44t66.5 42t59.5 49t37.5 53.5t23 67.5q13 75 -42 118.5 t-152 43.5q-134 0 -269 -78l9 49q124 72 262 72q115 0 184.5 -57.5t52.5 -153.5q-8 -49 -32.5 -90.5t-67 -76.5t-83.5 -60.5t-103 -57.5q-131 -70 -176 -104q-111 -83 -132 -205h512l-8 -43h-563z" />
<glyph unicode="&#xbe;" horiz-adv-x="2017" d="M125 606l8 45q107 -55 258 -55q124 0 202 50.5t93 146.5q14 93 -46.5 137.5t-168.5 44.5h-123l6 43h117q107 0 170.5 51.5t73.5 124.5q12 75 -43 125.5t-156 50.5q-136 0 -264 -55l8 47q121 51 262 51q117 0 184.5 -65t53.5 -160q-11 -66 -61.5 -119.5t-133.5 -71.5 q81 -12 129.5 -67t34.5 -148q-17 -109 -108 -169t-228 -60q-156 0 -268 53zM475 -23l1167 1477h37l-1167 -1477h-37zM1167 205l7 39l579 592h47l-92 -590h176l-4 -41h-178l-33 -205h-45l33 205h-490zM1231 246h432l82 524z" />
<glyph unicode="&#xbf;" horiz-adv-x="980" d="M-39 -131q13 81 68.5 163.5t126.5 151.5t142 136t125.5 142t65.5 146h50q-10 -66 -51 -133.5t-95 -122t-117 -116t-117 -116t-95.5 -122t-51.5 -133.5q-22 -131 71 -205t273 -74q204 0 412 117l-8 -51q-197 -115 -410 -115q-197 0 -305 89t-84 243zM526 963q3 19 16.5 30 t32.5 11q21 0 32.5 -13.5t8.5 -36.5q-3 -17 -18 -29t-31 -12q-22 0 -33.5 14t-7.5 36z" />
<glyph unicode="&#xc0;" horiz-adv-x="1447" d="M-59 0l886 1434h62l430 -1434h-53l-133 440h-861l-274 -440h-57zM299 489h821l-260 863q-7 14 -10 34q-2 -7 -19 -36zM743 1866h58l139 -273h-53z" />
<glyph unicode="&#xc1;" horiz-adv-x="1447" d="M-59 0l886 1434h62l430 -1434h-53l-133 440h-861l-274 -440h-57zM299 489h821l-260 863q-7 14 -10 34q-2 -7 -19 -36zM819 1593l221 273h62l-228 -273h-55z" />
<glyph unicode="&#xc2;" horiz-adv-x="1447" d="M-59 0l886 1434h62l430 -1434h-53l-133 440h-861l-274 -440h-57zM299 489h821l-260 863q-7 14 -10 34q-2 -7 -19 -36zM602 1593l297 256h43l219 -256h-55l-186 217l-256 -217h-62z" />
<glyph unicode="&#xc3;" horiz-adv-x="1447" d="M-59 0l886 1434h62l430 -1434h-53l-133 440h-861l-274 -440h-57zM299 489h821l-260 863q-7 14 -10 34q-2 -7 -19 -36zM590 1626q0 65 39.5 107.5t97.5 42.5q47 0 108.5 -29t120.5 -57.5t99 -28.5q46 0 70 27t26 75h45q-2 -66 -39 -106.5t-98 -40.5q-48 0 -109 29 t-119 57.5t-98 28.5q-44 0 -71 -29t-27 -76h-45z" />
<glyph unicode="&#xc4;" horiz-adv-x="1447" d="M-59 0l886 1434h62l430 -1434h-53l-133 440h-861l-274 -440h-57zM299 489h821l-260 863q-7 14 -10 34q-2 -7 -19 -36zM647 1714q1 17 16.5 30t32.5 13q23 0 34.5 -14t8.5 -35q-3 -19 -17.5 -32t-33.5 -13q-22 0 -34 15.5t-7 35.5zM1057 1714q1 17 16.5 30t32.5 13 q23 0 34.5 -14t8.5 -35q-3 -19 -17.5 -32t-33.5 -13q-22 0 -34 15.5t-7 35.5z" />
<glyph unicode="&#xc5;" horiz-adv-x="1447" d="M-59 0l886 1434h62l430 -1434h-53l-133 440h-861l-274 -440h-57zM299 489h821l-260 863q-7 14 -10 34q-2 -7 -19 -36zM731 1724q10 71 68 117.5t127 46.5q72 0 117 -48.5t32 -123.5q-12 -73 -68.5 -118.5t-125.5 -45.5q-72 0 -117.5 48.5t-32.5 123.5zM770 1718 q-9 -56 25 -91.5t84 -35.5q57 0 102 35t55 94q9 57 -23.5 93t-84.5 36q-55 0 -101.5 -36t-56.5 -95z" />
<glyph unicode="&#xc6;" horiz-adv-x="2037" d="M-109 0l1256 1434h893l-8 -50h-820l-100 -639h758l-8 -49h-758l-103 -647h832l-8 -49h-881l70 442h-674l-385 -442h-64zM383 489h639l141 893z" />
<glyph unicode="&#xc7;" horiz-adv-x="1329" d="M128.5 465.5q-22.5 116.5 0.5 261.5q23 143 85 264t147.5 205t190 143t213 87t216.5 28q224 0 375 -98l-8 -51q-138 100 -363 100q-103 0 -205.5 -26t-201.5 -81t-179.5 -134t-139 -194t-79.5 -251q-21 -134 0.5 -249t76.5 -194.5t135.5 -136t174.5 -83.5t195 -27 q219 0 412 102l-11 -53q-182 -98 -399 -98l-70 -175q61 12 115.5 5.5t89.5 -42t27 -90.5q-8 -68 -70.5 -108.5t-171.5 -40.5q-122 0 -207 45l6 43q85 -45 197 -45q96 0 146.5 31t56.5 82q10 66 -70.5 88.5t-177.5 -9.5l86 216q-104 5 -200 37.5t-178 93t-137 149.5 t-77.5 205.5z" />
<glyph unicode="&#xc8;" horiz-adv-x="1282" d="M121 0l227 1434h932l-8 -50h-881l-100 -639h819l-8 -49h-819l-103 -647h893l-8 -49h-944zM702 1866h58l139 -273h-53z" />
<glyph unicode="&#xc9;" horiz-adv-x="1282" d="M121 0l227 1434h932l-8 -50h-881l-100 -639h819l-8 -49h-819l-103 -647h893l-8 -49h-944zM778 1593l221 273h62l-227 -273h-56z" />
<glyph unicode="&#xca;" horiz-adv-x="1282" d="M121 0l227 1434h932l-8 -50h-881l-100 -639h819l-8 -49h-819l-103 -647h893l-8 -49h-944zM561 1593l297 256h43l219 -256h-55l-186 217l-256 -217h-62z" />
<glyph unicode="&#xcb;" horiz-adv-x="1282" d="M121 0l227 1434h932l-8 -50h-881l-100 -639h819l-8 -49h-819l-103 -647h893l-8 -49h-944zM606 1714q1 17 16.5 30t32.5 13q23 0 34.5 -14t8.5 -35q-3 -19 -17.5 -32t-33.5 -13q-22 0 -34 15.5t-7 35.5zM1016 1714q1 17 16.5 30t32.5 13q23 0 34.5 -14t8.5 -35 q-3 -19 -17.5 -32t-33.5 -13q-22 0 -34 15.5t-7 35.5z" />
<glyph unicode="&#xcc;" horiz-adv-x="481" d="M121 0l227 1434h51l-227 -1434h-51zM258 1866h57l140 -273h-54z" />
<glyph unicode="&#xcd;" horiz-adv-x="481" d="M121 0l227 1434h51l-227 -1434h-51zM334 1593l221 273h61l-227 -273h-55z" />
<glyph unicode="&#xce;" horiz-adv-x="481" d="M117 1593l297 256h43l219 -256h-55l-187 217l-256 -217h-61zM121 0l227 1434h51l-227 -1434h-51z" />
<glyph unicode="&#xcf;" horiz-adv-x="481" d="M121 0l227 1434h51l-227 -1434h-51zM162 1714q1 17 16.5 30t32.5 13q23 0 34.5 -14t8.5 -35q-3 -19 -17.5 -32t-33.5 -13q-22 0 -34 15.5t-7 35.5zM571 1714q1 17 16.5 30t33.5 13q23 0 34.5 -14t8.5 -35q-3 -19 -18 -32t-34 -13q-22 0 -34 15.5t-7 35.5z" />
<glyph unicode="&#xd0;" horiz-adv-x="1497" d="M102 692l7 47h131l110 695h400q189 0 328.5 -54t218 -151t106 -227.5t2.5 -288.5q-24 -156 -90.5 -284.5t-173.5 -225t-263 -150t-348 -53.5h-407l108 692h-129zM180 49h357q177 0 321.5 49.5t245 139.5t164 212t86.5 271q23 147 -2 267t-97 209t-201 138t-306 49h-357 l-102 -645h530l-6 -47h-530z" />
<glyph unicode="&#xd1;" horiz-adv-x="1570" d="M121 0l227 1434h41l836 -1348q2 20 7 53t7 47l199 1248h51l-227 -1434h-41l-836 1350q-3 -32 -16 -101l-197 -1249h-51zM653 1626q0 65 40 107.5t98 42.5q47 0 108.5 -29t120 -57.5t98.5 -28.5q46 0 70 27t26 75h46q-2 -66 -39.5 -106.5t-98.5 -40.5q-48 0 -109 29 t-118.5 57.5t-97.5 28.5q-44 0 -71.5 -29t-27.5 -76h-45z" />
<glyph unicode="&#xd2;" horiz-adv-x="1689" d="M117 568q-1 76 8 153q17 108 64 213t123.5 199t174 165.5t225 113.5t267.5 42q102 0 191 -22.5t155.5 -62.5t121 -95t88 -120t55 -138.5t22.5 -149.5t-8 -153q-17 -108 -63.5 -213t-122.5 -199t-173.5 -165.5t-225.5 -113.5t-269 -42q-102 0 -191 22.5t-155.5 62.5 t-121 95t-88 120t-55 138.5t-22.5 149.5zM167.5 573.5q0.5 -70.5 20 -138t49.5 -128t80 -111.5t111.5 -88t144.5 -58t179 -21q133 0 253 39.5t211 107t162.5 156.5t114.5 187t59 200q9 71 8.5 141.5t-20 138t-49 128t-79.5 111.5t-111.5 88t-144.5 58t-179 21 q-165 0 -309.5 -60.5t-244 -159.5t-163.5 -220.5t-84 -249.5q-9 -71 -8.5 -141.5zM864 1866h58l139 -273h-53z" />
<glyph unicode="&#xd3;" horiz-adv-x="1689" d="M117 568q-1 76 8 153q17 108 64 213t123.5 199t174 165.5t225 113.5t267.5 42q102 0 191 -22.5t155.5 -62.5t121 -95t88 -120t55 -138.5t22.5 -149.5t-8 -153q-17 -108 -63.5 -213t-122.5 -199t-173.5 -165.5t-225.5 -113.5t-269 -42q-102 0 -191 22.5t-155.5 62.5 t-121 95t-88 120t-55 138.5t-22.5 149.5zM167.5 573.5q0.5 -70.5 20 -138t49.5 -128t80 -111.5t111.5 -88t144.5 -58t179 -21q133 0 253 39.5t211 107t162.5 156.5t114.5 187t59 200q9 71 8.5 141.5t-20 138t-49 128t-79.5 111.5t-111.5 88t-144.5 58t-179 21 q-165 0 -309.5 -60.5t-244 -159.5t-163.5 -220.5t-84 -249.5q-9 -71 -8.5 -141.5zM940 1593l221 273h62l-228 -273h-55z" />
<glyph unicode="&#xd4;" horiz-adv-x="1689" d="M117 568q-1 76 8 153q17 108 64 213t123.5 199t174 165.5t225 113.5t267.5 42q102 0 191 -22.5t155.5 -62.5t121 -95t88 -120t55 -138.5t22.5 -149.5t-8 -153q-17 -108 -63.5 -213t-122.5 -199t-173.5 -165.5t-225.5 -113.5t-269 -42q-102 0 -191 22.5t-155.5 62.5 t-121 95t-88 120t-55 138.5t-22.5 149.5zM167.5 573.5q0.5 -70.5 20 -138t49.5 -128t80 -111.5t111.5 -88t144.5 -58t179 -21q133 0 253 39.5t211 107t162.5 156.5t114.5 187t59 200q9 71 8.5 141.5t-20 138t-49 128t-79.5 111.5t-111.5 88t-144.5 58t-179 21 q-165 0 -309.5 -60.5t-244 -159.5t-163.5 -220.5t-84 -249.5q-9 -71 -8.5 -141.5zM723 1593l297 256h43l219 -256h-55l-187 217l-256 -217h-61z" />
<glyph unicode="&#xd5;" horiz-adv-x="1689" d="M117 568q-1 76 8 153q17 108 64 213t123.5 199t174 165.5t225 113.5t267.5 42q102 0 191 -22.5t155.5 -62.5t121 -95t88 -120t55 -138.5t22.5 -149.5t-8 -153q-17 -108 -63.5 -213t-122.5 -199t-173.5 -165.5t-225.5 -113.5t-269 -42q-102 0 -191 22.5t-155.5 62.5 t-121 95t-88 120t-55 138.5t-22.5 149.5zM167.5 573.5q0.5 -70.5 20 -138t49.5 -128t80 -111.5t111.5 -88t144.5 -58t179 -21q133 0 253 39.5t211 107t162.5 156.5t114.5 187t59 200q9 71 8.5 141.5t-20 138t-49 128t-79.5 111.5t-111.5 88t-144.5 58t-179 21 q-165 0 -309.5 -60.5t-244 -159.5t-163.5 -220.5t-84 -249.5q-9 -71 -8.5 -141.5zM711 1626q0 65 39.5 107.5t97.5 42.5q47 0 108.5 -29t120.5 -57.5t99 -28.5q46 0 70 27t26 75h45q-2 -66 -39 -106.5t-98 -40.5q-48 0 -109 29t-119 57.5t-98 28.5q-44 0 -71 -29t-27 -76 h-45z" />
<glyph unicode="&#xd6;" horiz-adv-x="1689" d="M117 568q-1 76 8 153q17 108 64 213t123.5 199t174 165.5t225 113.5t267.5 42q102 0 191 -22.5t155.5 -62.5t121 -95t88 -120t55 -138.5t22.5 -149.5t-8 -153q-17 -108 -63.5 -213t-122.5 -199t-173.5 -165.5t-225.5 -113.5t-269 -42q-102 0 -191 22.5t-155.5 62.5 t-121 95t-88 120t-55 138.5t-22.5 149.5zM167.5 573.5q0.5 -70.5 20 -138t49.5 -128t80 -111.5t111.5 -88t144.5 -58t179 -21q133 0 253 39.5t211 107t162.5 156.5t114.5 187t59 200q9 71 8.5 141.5t-20 138t-49 128t-79.5 111.5t-111.5 88t-144.5 58t-179 21 q-165 0 -309.5 -60.5t-244 -159.5t-163.5 -220.5t-84 -249.5q-9 -71 -8.5 -141.5zM768 1714q1 17 16.5 30t32.5 13q23 0 34.5 -14t8.5 -35q-3 -19 -17.5 -32t-33.5 -13q-22 0 -34 15.5t-7 35.5zM1178 1714q1 17 16.5 30t32.5 13q23 0 34.5 -14t8.5 -35q-3 -19 -17.5 -32 t-33.5 -13q-22 0 -34 15.5t-7 35.5z" />
<glyph unicode="&#xd7;" horiz-adv-x="909" d="M121 442l319 275l-233 276l37 31l231 -274l322 276l26 -33l-319 -276l231 -277l-35 -32l-231 278l-319 -278z" />
<glyph unicode="&#xd8;" horiz-adv-x="1689" d="M117 -98l198 225q-120 106 -167.5 265t-20.5 329q17 108 63 213t122.5 199t174 165.5t225 113.5t267.5 42q241 0 405 -121l177 199h53l-199 -225q120 -106 168 -265.5t21 -328.5q-17 -108 -62.5 -213t-122 -199t-173.5 -165.5t-225 -113.5t-269 -42q-244 0 -406 120 l-176 -198h-53zM178 715q-24 -159 19 -306t155 -243l1000 1128q-146 111 -373 111q-133 0 -253.5 -39.5t-211.5 -107t-162.5 -156.5t-114.5 -187t-59 -200zM381 139q145 -110 373 -110q133 0 253 39.5t211 107t162 156.5t113.5 187t58.5 200q26 158 -17 305.5t-155 243.5z " />
<glyph unicode="&#xd9;" horiz-adv-x="1533" d="M175.5 324q-6.5 75 6.5 170l148 940h51l-150 -940q-20 -127 4 -219t87 -144.5t150 -77t202 -24.5q524 0 598 467l147 938h51l-149 -942q-21 -139 -79.5 -240.5t-146.5 -159.5t-191 -85t-228 -27q-82 0 -151.5 11.5t-131.5 37t-106.5 65.5t-74.5 97.5t-36.5 132.5z M780 1866h58l139 -273h-53z" />
<glyph unicode="&#xda;" horiz-adv-x="1533" d="M175.5 324q-6.5 75 6.5 170l148 940h51l-150 -940q-20 -127 4 -219t87 -144.5t150 -77t202 -24.5q524 0 598 467l147 938h51l-149 -942q-21 -139 -79.5 -240.5t-146.5 -159.5t-191 -85t-228 -27q-82 0 -151.5 11.5t-131.5 37t-106.5 65.5t-74.5 97.5t-36.5 132.5z M856 1593l221 273h62l-228 -273h-55z" />
<glyph unicode="&#xdb;" horiz-adv-x="1533" d="M175.5 324q-6.5 75 6.5 170l148 940h51l-150 -940q-20 -127 4 -219t87 -144.5t150 -77t202 -24.5q524 0 598 467l147 938h51l-149 -942q-21 -139 -79.5 -240.5t-146.5 -159.5t-191 -85t-228 -27q-82 0 -151.5 11.5t-131.5 37t-106.5 65.5t-74.5 97.5t-36.5 132.5z M639 1593l297 256h43l219 -256h-55l-187 217l-256 -217h-61z" />
<glyph unicode="&#xdc;" horiz-adv-x="1533" d="M175.5 324q-6.5 75 6.5 170l148 940h51l-150 -940q-20 -127 4 -219t87 -144.5t150 -77t202 -24.5q524 0 598 467l147 938h51l-149 -942q-21 -139 -79.5 -240.5t-146.5 -159.5t-191 -85t-228 -27q-82 0 -151.5 11.5t-131.5 37t-106.5 65.5t-74.5 97.5t-36.5 132.5z M684 1714q1 17 16.5 30t32.5 13q23 0 34.5 -14t8.5 -35q-3 -19 -17.5 -32t-33.5 -13q-22 0 -34 15.5t-7 35.5zM1094 1714q1 17 16.5 30t32.5 13q23 0 34.5 -14t8.5 -35q-3 -19 -17.5 -32t-33.5 -13q-22 0 -34 15.5t-7 35.5z" />
<glyph unicode="&#xdd;" horiz-adv-x="1277" d="M182 1434h54l405 -801l659 801h62l-700 -852l-93 -582h-51l92 582zM729 1593l221 273h62l-228 -273h-55z" />
<glyph unicode="&#xde;" horiz-adv-x="1331" d="M121 0l227 1434h51l-43 -273h387q101 0 184 -12.5t157 -44.5t121 -82t67 -128.5t4 -180.5q-71 -441 -666 -441h-395l-43 -272h-51zM223 322h395q547 0 609 399q14 89 -4 158t-60 112.5t-108 71t-141 38.5t-166 11h-400z" />
<glyph unicode="&#xdf;" horiz-adv-x="1204" d="M78 0l164 1034q32 196 163.5 308t319.5 112q161 1 253.5 -91t74.5 -204q-8 -50 -31.5 -92.5t-52.5 -72t-57.5 -56.5t-50.5 -59t-27 -66q-4 -28 9.5 -57.5t37.5 -58.5t54 -60t58.5 -67.5t51 -75.5t32.5 -88.5t2 -102.5q-13 -81 -58 -144.5t-110 -101.5t-140 -57.5 t-155 -19.5q-157 0 -262 65l6 45q103 -65 250 -65q102 0 188.5 28.5t151 95.5t80.5 164q9 56 -6.5 109.5t-45 93t-65.5 80.5t-67 73.5t-49 70.5t-13 73q6 37 28.5 70.5t51 61.5t57.5 57.5t52.5 71t30.5 89.5q14 95 -63.5 170.5t-215.5 75.5q-169 0 -287.5 -100.5 t-146.5 -272.5l-164 -1036h-49z" />
<glyph unicode="&#xe0;" d="M86 504q36 227 196.5 363.5t368.5 136.5q146 0 256.5 -79.5t151.5 -201.5l41 260h47l-156 -983h-47l41 254q-80 -122 -209.5 -198t-279.5 -76q-104 0 -189 37.5t-140 105t-77.5 166t-3.5 215.5zM133 498q-17 -106 2.5 -195.5t69 -150t125 -94t168.5 -33.5q156 0 291 89 t204 222l49 307q-25 134 -132.5 224.5t-256.5 90.5q-192 0 -339.5 -123.5t-180.5 -336.5zM569 1415h58l139 -272h-53z" />
<glyph unicode="&#xe1;" d="M86 504q36 227 196.5 363.5t368.5 136.5q146 0 256.5 -79.5t151.5 -201.5l41 260h47l-156 -983h-47l41 254q-80 -122 -209.5 -198t-279.5 -76q-104 0 -189 37.5t-140 105t-77.5 166t-3.5 215.5zM133 498q-17 -106 2.5 -195.5t69 -150t125 -94t168.5 -33.5q156 0 291 89 t204 222l49 307q-25 134 -132.5 224.5t-256.5 90.5q-192 0 -339.5 -123.5t-180.5 -336.5zM645 1143l221 272h62l-228 -272h-55z" />
<glyph unicode="&#xe2;" d="M86 504q36 227 196.5 363.5t368.5 136.5q146 0 256.5 -79.5t151.5 -201.5l41 260h47l-156 -983h-47l41 254q-80 -122 -209.5 -198t-279.5 -76q-104 0 -189 37.5t-140 105t-77.5 166t-3.5 215.5zM133 498q-17 -106 2.5 -195.5t69 -150t125 -94t168.5 -33.5q156 0 291 89 t204 222l49 307q-25 134 -132.5 224.5t-256.5 90.5q-192 0 -339.5 -123.5t-180.5 -336.5zM428 1143l297 256h43l219 -256h-55l-187 217l-256 -217h-61z" />
<glyph unicode="&#xe3;" d="M86 504q36 227 196.5 363.5t368.5 136.5q146 0 256.5 -79.5t151.5 -201.5l41 260h47l-156 -983h-47l41 254q-80 -122 -209.5 -198t-279.5 -76q-104 0 -189 37.5t-140 105t-77.5 166t-3.5 215.5zM133 498q-17 -106 2.5 -195.5t69 -150t125 -94t168.5 -33.5q156 0 291 89 t204 222l49 307q-25 134 -132.5 224.5t-256.5 90.5q-192 0 -339.5 -123.5t-180.5 -336.5zM416 1176q0 65 39.5 107t97.5 42q47 0 108.5 -28.5t120.5 -57.5t99 -29q46 0 70 27t26 76h45q-2 -67 -39 -107.5t-98 -40.5q-48 0 -109 28.5t-119 57.5t-98 29q-44 0 -71 -28.5 t-27 -75.5h-45z" />
<glyph unicode="&#xe4;" d="M86 504q36 227 196.5 363.5t368.5 136.5q146 0 256.5 -79.5t151.5 -201.5l41 260h47l-156 -983h-47l41 254q-80 -122 -209.5 -198t-279.5 -76q-104 0 -189 37.5t-140 105t-77.5 166t-3.5 215.5zM133 498q-17 -106 2.5 -195.5t69 -150t125 -94t168.5 -33.5q156 0 291 89 t204 222l49 307q-25 134 -132.5 224.5t-256.5 90.5q-192 0 -339.5 -123.5t-180.5 -336.5zM473 1264q1 17 16.5 30t32.5 13q23 0 34.5 -14.5t8.5 -35.5q-3 -19 -17.5 -32t-33.5 -13q-21 0 -33.5 15.5t-7.5 36.5zM883 1264q1 17 16.5 30t32.5 13q23 0 34.5 -14.5t8.5 -35.5 q-3 -19 -17.5 -32t-33.5 -13q-21 0 -33.5 15.5t-7.5 36.5z" />
<glyph unicode="&#xe5;" d="M86 504q36 227 196.5 363.5t368.5 136.5q146 0 256.5 -79.5t151.5 -201.5l41 260h47l-156 -983h-47l41 254q-80 -122 -209.5 -198t-279.5 -76q-104 0 -189 37.5t-140 105t-77.5 166t-3.5 215.5zM133 498q-17 -106 2.5 -195.5t69 -150t125 -94t168.5 -33.5q156 0 291 89 t204 222l49 307q-25 134 -132.5 224.5t-256.5 90.5q-192 0 -339.5 -123.5t-180.5 -336.5zM557 1274q10 71 68 117.5t127 46.5q72 0 117 -48.5t32 -123.5q-12 -73 -68.5 -118.5t-125.5 -45.5q-72 0 -117.5 48.5t-32.5 123.5zM596 1268q-9 -56 25 -91.5t84 -35.5q57 0 102 35 t55 94q9 57 -23.5 93t-84.5 36q-55 0 -101.5 -36t-56.5 -95z" />
<glyph unicode="&#xe6;" horiz-adv-x="2050" d="M86 504q36 227 196.5 363.5t368.5 136.5q146 0 256.5 -79.5t151.5 -201.5l41 260h47l-47 -295q72 150 203.5 233t281.5 83q104 0 181.5 -34.5t119.5 -90t61.5 -127.5t15 -146t-27.5 -145h-864q-15 -111 15 -197.5t92.5 -137t141.5 -76t169 -25.5q184 0 332 79l-9 -51 q-134 -73 -329 -73q-105 0 -196 32t-160.5 106.5t-88.5 182.5l-47 -301h-47l41 250q-81 -120 -209 -195t-280 -75q-102 0 -186.5 37.5t-140.5 105t-79 166.5t-4 215zM135 498q-17 -106 2.5 -195.5t69 -150t125 -94t168.5 -33.5q156 0 291 89t204 222l49 307 q-25 133 -134.5 224t-254.5 91q-194 0 -340.5 -123.5t-179.5 -336.5zM1075 506h823q16 60 17 121t-17 121t-55 106.5t-104.5 75t-157.5 28.5q-187 0 -332 -128.5t-174 -323.5z" />
<glyph unicode="&#xe7;" horiz-adv-x="1009" d="M84 496q16 104 61 190.5t106 144t136.5 97.5t151 58t151.5 18q170 0 281 -82l-10 -48q-103 84 -269 84q-71 0 -141.5 -16.5t-139.5 -53.5t-125 -90t-97 -133t-56 -176q-18 -113 5.5 -203t80 -146t135 -85.5t170.5 -29.5q179 0 326 81l-8 -51q-136 -75 -312 -75l-69 -175 q61 12 115.5 5.5t89 -42t26.5 -90.5q-9 -68 -71.5 -108.5t-171.5 -40.5q-119 0 -207 45l8 43q82 -45 194 -45q96 0 147 31.5t56 81.5q10 66 -70 88.5t-176 -9.5l86 216q-95 5 -174.5 39t-138 95.5t-83.5 160t-7 221.5z" />
<glyph unicode="&#xe8;" horiz-adv-x="1110" d="M84 494q19 119 72.5 217.5t128.5 161.5t164.5 97t183.5 34q102 0 180 -34.5t122 -90.5t66 -127t19.5 -145.5t-25.5 -145.5h-866q-12 -90 6 -164t57.5 -123.5t97 -83.5t122 -49.5t135.5 -15.5q184 0 336 79l-11 -51q-134 -73 -329 -73q-80 0 -153 18.5t-137 59t-107.5 99 t-61 145.5t-0.5 192zM135 506h823q14 49 15.5 100.5t-8 102.5t-35 95.5t-64 79t-98 54.5t-133.5 20q-116 0 -218.5 -51t-179 -155t-102.5 -246zM528 1415h58l139 -272h-53z" />
<glyph unicode="&#xe9;" horiz-adv-x="1110" d="M84 494q19 119 72.5 217.5t128.5 161.5t164.5 97t183.5 34q102 0 180 -34.5t122 -90.5t66 -127t19.5 -145.5t-25.5 -145.5h-866q-12 -90 6 -164t57.5 -123.5t97 -83.5t122 -49.5t135.5 -15.5q184 0 336 79l-11 -51q-134 -73 -329 -73q-80 0 -153 18.5t-137 59t-107.5 99 t-61 145.5t-0.5 192zM135 506h823q14 49 15.5 100.5t-8 102.5t-35 95.5t-64 79t-98 54.5t-133.5 20q-116 0 -218.5 -51t-179 -155t-102.5 -246zM604 1143l221 272h62l-228 -272h-55z" />
<glyph unicode="&#xea;" horiz-adv-x="1110" d="M84 494q19 119 72.5 217.5t128.5 161.5t164.5 97t183.5 34q102 0 180 -34.5t122 -90.5t66 -127t19.5 -145.5t-25.5 -145.5h-866q-12 -90 6 -164t57.5 -123.5t97 -83.5t122 -49.5t135.5 -15.5q184 0 336 79l-11 -51q-134 -73 -329 -73q-80 0 -153 18.5t-137 59t-107.5 99 t-61 145.5t-0.5 192zM135 506h823q14 49 15.5 100.5t-8 102.5t-35 95.5t-64 79t-98 54.5t-133.5 20q-116 0 -218.5 -51t-179 -155t-102.5 -246zM387 1143l297 256h43l219 -256h-55l-186 217l-256 -217h-62z" />
<glyph unicode="&#xeb;" horiz-adv-x="1110" d="M84 494q19 119 72.5 217.5t128.5 161.5t164.5 97t183.5 34q102 0 180 -34.5t122 -90.5t66 -127t19.5 -145.5t-25.5 -145.5h-866q-12 -90 6 -164t57.5 -123.5t97 -83.5t122 -49.5t135.5 -15.5q184 0 336 79l-11 -51q-134 -73 -329 -73q-80 0 -153 18.5t-137 59t-107.5 99 t-61 145.5t-0.5 192zM135 506h823q14 49 15.5 100.5t-8 102.5t-35 95.5t-64 79t-98 54.5t-133.5 20q-116 0 -218.5 -51t-179 -155t-102.5 -246zM432 1264q1 17 16.5 30t32.5 13q23 0 34.5 -14.5t8.5 -35.5q-3 -19 -17.5 -32t-33.5 -13q-21 0 -33.5 15.5t-7.5 36.5zM842 1264 q1 17 16.5 30t32.5 13q23 0 34.5 -14.5t8.5 -35.5q-3 -19 -17.5 -32t-33.5 -13q-21 0 -33.5 15.5t-7.5 36.5z" />
<glyph unicode="&#xec;" horiz-adv-x="409" d="M86 0l156 983h49l-156 -983h-49zM178 1415h58l92 -272h-49z" />
<glyph unicode="&#xed;" horiz-adv-x="409" d="M86 0l156 983h49l-156 -983h-49zM229 1143l222 272h61l-227 -272h-56z" />
<glyph unicode="&#xee;" horiz-adv-x="409" d="M37 1143l272 256h43l195 -256h-55l-162 217l-232 -217h-61zM86 0l156 983h49l-156 -983h-49z" />
<glyph unicode="&#xef;" horiz-adv-x="409" d="M86 0l156 983h49l-156 -983h-49zM117 1264q1 17 15.5 29t31.5 12q21 0 32.5 -13.5t8.5 -34.5q-3 -18 -17 -30.5t-32 -12.5q-20 0 -31.5 15t-7.5 35zM412 1264q1 17 15.5 29t31.5 12q21 0 32.5 -13.5t8.5 -34.5q-3 -18 -17 -30.5t-32 -12.5q-20 0 -31.5 15t-7.5 35z" />
<glyph unicode="&#xf0;" horiz-adv-x="1218" d="M78 463q32 198 191 327.5t354 129.5q81 0 154 -24.5t132.5 -71t94.5 -122t36 -170.5q5 22 9 54q13 112 10 202t-28.5 166t-59 133.5t-83 104t-100.5 78t-110 55.5l-285 -246l-26 31l266 227q-130 49 -303 49l8 48q175 0 336 -60l200 174l27 -30l-188 -162 q63 -26 117 -61.5t105 -87t86 -115.5t59.5 -147.5t25.5 -182.5t-16 -221q-41 -256 -202.5 -408.5t-387.5 -152.5q-104 0 -190 34t-143.5 95.5t-81.5 153t-7 200.5zM127 455q-30 -193 76 -310.5t297 -117.5q179 0 313 103.5t195 281.5q16 113 -10 203t-81.5 145t-129.5 83.5 t-158 28.5q-184 0 -328.5 -116.5t-173.5 -300.5z" />
<glyph unicode="&#xf1;" horiz-adv-x="1175" d="M78 0l155 983h46l-35 -223q36 44 79.5 83t102 77.5t130.5 61t146 22.5q163 0 254.5 -108.5t63.5 -291.5l-96 -604h-50l97 602q27 167 -53 261.5t-226 94.5q-138 0 -259.5 -79.5t-196.5 -186.5l-109 -692h-49zM373 1176q0 65 39.5 107t97.5 42q47 0 108.5 -28.5 t120.5 -57.5t99 -29q46 0 70 27t26 76h45q-2 -67 -39 -107.5t-98 -40.5q-48 0 -109 28.5t-119 57.5t-98 29q-44 0 -71 -28.5t-27 -75.5h-45z" />
<glyph unicode="&#xf2;" horiz-adv-x="1212" d="M84 504q15 95 55.5 177t97.5 140.5t128 100t148.5 62t156.5 20.5q96 0 181 -36.5t147 -101.5t89.5 -166t8.5 -221q-19 -118 -76 -214.5t-137.5 -157.5t-175.5 -94t-195 -33q-96 0 -181 36t-147 101.5t-90 166t-10 220.5zM133 496q-17 -106 7 -196t78.5 -149t130.5 -91.5 t163 -32.5q93 0 181 30.5t161.5 87t125 145t67.5 197.5q17 106 -7 196t-78.5 149t-130.5 91.5t-163 32.5q-93 0 -181 -30.5t-161.5 -87t-125 -145t-67.5 -197.5zM555 1399h57l140 -273h-54z" />
<glyph unicode="&#xf3;" horiz-adv-x="1212" d="M84 504q15 95 55.5 177t97.5 140.5t128 100t148.5 62t156.5 20.5q96 0 181 -36.5t147 -101.5t89.5 -166t8.5 -221q-19 -118 -76 -214.5t-137.5 -157.5t-175.5 -94t-195 -33q-96 0 -181 36t-147 101.5t-90 166t-10 220.5zM133 496q-17 -106 7 -196t78.5 -149t130.5 -91.5 t163 -32.5q93 0 181 30.5t161.5 87t125 145t67.5 197.5q17 106 -7 196t-78.5 149t-130.5 91.5t-163 32.5q-93 0 -181 -30.5t-161.5 -87t-125 -145t-67.5 -197.5zM631 1126l221 273h61l-227 -273h-55z" />
<glyph unicode="&#xf4;" horiz-adv-x="1212" d="M84 504q15 95 55.5 177t97.5 140.5t128 100t148.5 62t156.5 20.5q96 0 181 -36.5t147 -101.5t89.5 -166t8.5 -221q-19 -118 -76 -214.5t-137.5 -157.5t-175.5 -94t-195 -33q-96 0 -181 36t-147 101.5t-90 166t-10 220.5zM133 496q-17 -106 7 -196t78.5 -149t130.5 -91.5 t163 -32.5q93 0 181 30.5t161.5 87t125 145t67.5 197.5q17 106 -7 196t-78.5 149t-130.5 91.5t-163 32.5q-93 0 -181 -30.5t-161.5 -87t-125 -145t-67.5 -197.5zM414 1126l297 256h43l219 -256h-55l-187 217l-256 -217h-61z" />
<glyph unicode="&#xf5;" horiz-adv-x="1212" d="M84 504q15 95 55.5 177t97.5 140.5t128 100t148.5 62t156.5 20.5q96 0 181 -36.5t147 -101.5t89.5 -166t8.5 -221q-19 -118 -76 -214.5t-137.5 -157.5t-175.5 -94t-195 -33q-96 0 -181 36t-147 101.5t-90 166t-10 220.5zM133 496q-17 -106 7 -196t78.5 -149t130.5 -91.5 t163 -32.5q93 0 181 30.5t161.5 87t125 145t67.5 197.5q17 106 -7 196t-78.5 149t-130.5 91.5t-163 32.5q-93 0 -181 -30.5t-161.5 -87t-125 -145t-67.5 -197.5zM401 1159q0 65 40 107.5t98 42.5q47 0 108.5 -28.5t120 -57.5t98.5 -29q46 0 70.5 27t26.5 75h45 q-2 -66 -39.5 -106.5t-98.5 -40.5q-38 0 -85 18t-84 39.5t-80.5 39.5t-75.5 18q-44 0 -71.5 -29t-27.5 -76h-45z" />
<glyph unicode="&#xf6;" horiz-adv-x="1212" d="M84 504q15 95 55.5 177t97.5 140.5t128 100t148.5 62t156.5 20.5q96 0 181 -36.5t147 -101.5t89.5 -166t8.5 -221q-19 -118 -76 -214.5t-137.5 -157.5t-175.5 -94t-195 -33q-96 0 -181 36t-147 101.5t-90 166t-10 220.5zM133 496q-17 -106 7 -196t78.5 -149t130.5 -91.5 t163 -32.5q93 0 181 30.5t161.5 87t125 145t67.5 197.5q17 106 -7 196t-78.5 149t-130.5 91.5t-163 32.5q-93 0 -181 -30.5t-161.5 -87t-125 -145t-67.5 -197.5zM459 1247q1 17 16.5 30t32.5 13q23 0 34.5 -14t8.5 -35q-3 -19 -17.5 -32t-33.5 -13q-22 0 -34 15.5t-7 35.5z M868 1247q1 17 16.5 30t33.5 13q23 0 34.5 -14t8.5 -35q-3 -19 -18 -32t-34 -13q-22 0 -34 15.5t-7 35.5z" />
<glyph unicode="&#xf7;" horiz-adv-x="1318" d="M184 692l6 49h984l-7 -49h-983zM559 260q3 18 17 29.5t32 11.5q22 0 33 -13t8 -36q-1 -18 -15 -29.5t-32 -11.5q-22 0 -34 13.5t-9 35.5zM707 1176q3 18 17 29.5t32 11.5q22 0 33 -13.5t8 -36.5q-3 -18 -17 -29.5t-32 -11.5q-22 0 -33.5 14t-7.5 36z" />
<glyph unicode="&#xf8;" horiz-adv-x="1214" d="M78 -119l153 195q-87 69 -127 178t-18 250q15 95 55.5 177t97.5 140.5t128 100t148.5 62t156.5 20.5q139 0 246 -70l139 178h47l-158 -199q89 -70 131.5 -181t20.5 -253q-19 -118 -76 -214.5t-137.5 -157.5t-175.5 -94t-195 -33q-139 0 -254 73l-135 -172h-47zM133 496 q-20 -124 15 -222t112 -161l623 784q-92 59 -215 59q-126 0 -237.5 -51.5t-193 -158t-104.5 -250.5zM291 90q97 -63 223 -63t237.5 51.5t193 158t104.5 250.5q21 127 -16.5 227t-117.5 160z" />
<glyph unicode="&#xf9;" horiz-adv-x="1177" d="M125 381l96 602h49l-96 -602q-26 -167 52.5 -261.5t224.5 -94.5q141 0 262 80t194 188l111 690h49l-156 -983h-45l35 223q-74 -95 -194.5 -169t-257.5 -74q-166 0 -259 108.5t-65 292.5zM524 1415h58l139 -272h-53z" />
<glyph unicode="&#xfa;" horiz-adv-x="1177" d="M125 381l96 602h49l-96 -602q-26 -167 52.5 -261.5t224.5 -94.5q141 0 262 80t194 188l111 690h49l-156 -983h-45l35 223q-74 -95 -194.5 -169t-257.5 -74q-166 0 -259 108.5t-65 292.5zM600 1143l221 272h62l-228 -272h-55z" />
<glyph unicode="&#xfb;" horiz-adv-x="1177" d="M125 381l96 602h49l-96 -602q-26 -167 52.5 -261.5t224.5 -94.5q141 0 262 80t194 188l111 690h49l-156 -983h-45l35 223q-74 -95 -194.5 -169t-257.5 -74q-166 0 -259 108.5t-65 292.5zM383 1143l297 256h43l219 -256h-55l-187 217l-256 -217h-61z" />
<glyph unicode="&#xfc;" horiz-adv-x="1177" d="M125 381l96 602h49l-96 -602q-26 -167 52.5 -261.5t224.5 -94.5q141 0 262 80t194 188l111 690h49l-156 -983h-45l35 223q-74 -95 -194.5 -169t-257.5 -74q-166 0 -259 108.5t-65 292.5zM428 1264q1 17 16.5 30t32.5 13q23 0 34.5 -14.5t8.5 -35.5q-3 -19 -17.5 -32 t-33.5 -13q-21 0 -33.5 15.5t-7.5 36.5zM838 1264q1 17 16.5 30t32.5 13q23 0 34.5 -14.5t8.5 -35.5q-3 -19 -17.5 -32t-33.5 -13q-21 0 -33.5 15.5t-7.5 36.5z" />
<glyph unicode="&#xfd;" horiz-adv-x="1085" d="M-68 -459l7 43q41 -10 90 -10q91 0 165.5 63t159.5 205l97 158l-355 983h51l334 -932l563 932h56l-705 -1163q-98 -160 -181.5 -225.5t-180.5 -65.5q-51 0 -101 12zM543 1143l221 272h61l-227 -272h-55z" />
<glyph unicode="&#xfe;" d="M6 -451l299 1885h49l-112 -707q81 123 210.5 200t276.5 77q206 0 326.5 -146.5t83.5 -378.5q-36 -229 -194 -364t-372 -135q-152 0 -258 78t-147 206l-113 -715h-49zM180 342q27 -137 131.5 -227t257.5 -90q197 0 342 122.5t179 337.5q34 211 -73 342t-294 131 q-152 0 -289 -91.5t-207 -227.5z" />
<glyph unicode="&#xff;" horiz-adv-x="1085" d="M-68 -459l7 43q41 -10 90 -10q91 0 165.5 63t159.5 205l97 158l-355 983h51l334 -932l563 932h56l-705 -1163q-98 -160 -181.5 -225.5t-180.5 -65.5q-51 0 -101 12zM371 1264q1 17 16.5 30t32.5 13q23 0 34.5 -14.5t8.5 -35.5q-3 -19 -17.5 -32t-33.5 -13 q-21 0 -33.5 15.5t-7.5 36.5zM780 1264q1 17 16.5 30t32.5 13q23 0 34.5 -14.5t8.5 -35.5q-3 -19 -17.5 -32t-33.5 -13q-21 0 -33.5 15.5t-7.5 36.5z" />
<glyph unicode="&#x152;" horiz-adv-x="2093" d="M117.5 574.5q-0.5 77.5 9.5 156.5q17 107 63.5 210.5t122.5 196t173 163t223 112t264 41.5q154 0 248 -20h874l-8 -50h-819l-101 -639h760l-10 -49h-758l-102 -647h833l-10 -49h-881q-95 -20 -243 -20q-103 0 -193 22.5t-157.5 62.5t-122.5 95.5t-88 121.5t-55 140.5 t-22.5 152zM168.5 577.5q0.5 -72.5 20 -141t50 -129.5t81 -112t113 -88t146 -57.5t179.5 -20.5q155 0 248 22l211 1333q-89 21 -246 21q-162 0 -305 -60t-242 -158t-163 -218t-83 -246q-10 -73 -9.5 -145.5z" />
<glyph unicode="&#x153;" horiz-adv-x="2031" d="M84 506q18 117 75.5 213.5t137 157.5t172.5 94t188 33q164 0 281 -100t135 -273q61 176 195.5 274.5t292.5 98.5q102 0 179 -34.5t120 -90.5t64 -128.5t17.5 -148t-26.5 -149.5h-842q-12 -87 5.5 -159.5t56.5 -121.5t94.5 -83t117.5 -49t128 -15q175 0 327 79l-10 -51 q-137 -73 -324 -73q-79 0 -152 21.5t-135.5 64t-103 114.5t-47.5 164q-70 -176 -208.5 -270t-319.5 -94q-92 0 -175 36t-144.5 101.5t-89 167t-9.5 221.5zM133 498q-17 -106 7 -196.5t77 -149.5t127.5 -92t157.5 -33q132 0 241.5 52.5t184.5 158t98 251.5q17 107 -5.5 196 t-75 147.5t-127.5 91t-163 32.5q-89 0 -174 -30t-157 -86t-123.5 -145t-67.5 -197zM1079 498h799q16 63 17 126t-17.5 123.5t-56 107t-104 75t-154.5 28.5q-83 0 -161 -30t-143 -86.5t-113 -145t-67 -198.5z" />
<glyph unicode="&#x178;" horiz-adv-x="1277" d="M182 1434h54l405 -801l659 801h62l-700 -852l-93 -582h-51l92 582zM557 1714q1 17 16.5 30t32.5 13q23 0 34.5 -14t8.5 -35q-3 -19 -17.5 -32t-33.5 -13q-22 0 -34 15.5t-7 35.5zM967 1714q1 17 16.5 30t32.5 13q23 0 34.5 -14t8.5 -35q-3 -19 -17.5 -32t-33.5 -13 q-22 0 -34 15.5t-7 35.5z" />
<glyph unicode="&#x2c6;" horiz-adv-x="528" d="M193 1593l296 256h43l220 -256h-56l-186 217l-256 -217h-61z" />
<glyph unicode="&#x2dc;" horiz-adv-x="630" d="M238 1626q0 65 39.5 107.5t97.5 42.5q47 0 108.5 -29t120 -57.5t98.5 -28.5q46 0 70.5 27t26.5 75h45q-2 -66 -39 -106.5t-98 -40.5q-48 0 -109 29t-119 57.5t-98 28.5q-44 0 -71 -29t-27 -76h-45z" />
<glyph unicode="&#x2000;" horiz-adv-x="944" />
<glyph unicode="&#x2001;" horiz-adv-x="1888" />
<glyph unicode="&#x2002;" horiz-adv-x="944" />
<glyph unicode="&#x2003;" horiz-adv-x="1888" />
<glyph unicode="&#x2004;" horiz-adv-x="629" />
<glyph unicode="&#x2005;" horiz-adv-x="472" />
<glyph unicode="&#x2006;" horiz-adv-x="314" />
<glyph unicode="&#x2007;" horiz-adv-x="314" />
<glyph unicode="&#x2008;" horiz-adv-x="236" />
<glyph unicode="&#x2009;" horiz-adv-x="377" />
<glyph unicode="&#x200a;" horiz-adv-x="104" />
<glyph unicode="&#x2010;" horiz-adv-x="997" d="M129 473l6 47h705l-9 -47h-702z" />
<glyph unicode="&#x2011;" horiz-adv-x="997" d="M129 473l6 47h705l-9 -47h-702z" />
<glyph unicode="&#x2012;" horiz-adv-x="997" d="M129 473l6 47h705l-9 -47h-702z" />
<glyph unicode="&#x2013;" horiz-adv-x="1165" d="M129 473l6 47h871l-7 -47h-870z" />
<glyph unicode="&#x2014;" horiz-adv-x="1538" d="M129 473l6 47h1243l-6 -47h-1243z" />
<glyph unicode="&#x2018;" horiz-adv-x="376" d="M184 995l181 439h43l-172 -439h-52z" />
<glyph unicode="&#x2019;" horiz-adv-x="374" d="M184 995l172 439h52l-181 -439h-43z" />
<glyph unicode="&#x201a;" horiz-adv-x="342" d="M-66 -291l172 438h52l-181 -438h-43z" />
<glyph unicode="&#x201c;" horiz-adv-x="630" d="M184 995l181 439h43l-172 -439h-52zM438 995l180 439h44l-173 -439h-51z" />
<glyph unicode="&#x201d;" horiz-adv-x="628" d="M184 995l172 439h52l-181 -439h-43zM438 995l172 439h52l-181 -439h-43z" />
<glyph unicode="&#x201e;" horiz-adv-x="595" d="M-66 -291l172 438h52l-181 -438h-43zM188 -291l172 438h52l-181 -438h-43z" />
<glyph unicode="&#x2022;" horiz-adv-x="579" d="M225 721q4 34 30.5 56t59.5 22q36 0 58 -23.5t16 -62.5q-6 -34 -32.5 -56t-59.5 -22q-36 0 -57 23.5t-15 62.5z" />
<glyph unicode="&#x2026;" horiz-adv-x="886" d="M49 37q1 18 16 29.5t33 11.5q22 0 33 -12.5t8 -34.5q-3 -18 -17 -30.5t-32 -12.5q-21 0 -33 14t-8 35zM322 37q1 18 16 29.5t33 11.5q22 0 33 -12.5t8 -34.5q-3 -18 -17.5 -30.5t-32.5 -12.5q-21 0 -32.5 14t-7.5 35zM594 37q1 18 16 29.5t33 11.5q22 0 33 -12.5t8 -34.5 q-3 -18 -17 -30.5t-32 -12.5q-21 0 -33 14t-8 35z" />
<glyph unicode="&#x202f;" horiz-adv-x="377" />
<glyph unicode="&#x2039;" horiz-adv-x="544" d="M90 483l2 19l295 340h57l-305 -353l193 -348h-51z" />
<glyph unicode="&#x203a;" horiz-adv-x="544" d="M68 141l305 353l-193 348h53l189 -342l-2 -19l-295 -340h-57z" />
<glyph unicode="&#x205f;" horiz-adv-x="472" />
<glyph unicode="&#x20ac;" horiz-adv-x="1507" d="M84 524l8 45h168q-3 70 10 158q9 49 21 96h-160l8 45h166q36 109 101 200.5t143.5 154t170 106.5t182.5 64t179 20q230 0 385 -100l-8 -49q-156 100 -375 100q-83 0 -167.5 -18t-169 -57.5t-157.5 -96.5t-134 -140.5t-97 -183.5h826l-8 -45h-832q-11 -37 -22 -100 q-14 -90 -11 -154h826l-9 -45h-813q23 -230 184 -362.5t386 -132.5q248 0 413 100l-8 -51q-162 -98 -409 -98q-159 0 -292.5 62.5t-222 187.5t-104.5 294h-178z" />
<glyph unicode="&#x2122;" horiz-adv-x="1331" d="M211 1399l6 35h418l-6 -35h-191l-76 -479h-36l75 479h-190zM664 920l81 514h41l179 -326l284 326h41l-82 -514h-34l73 460l-276 -311h-23l-174 311l-74 -460h-36z" />
<glyph unicode="&#x25fc;" horiz-adv-x="983" d="M0 0v983h983v-983h-983z" />
<glyph unicode="&#xfb01;" horiz-adv-x="1079" d="M106 936l7 47h168l26 156q24 153 130 234t249 81q170 0 309 -92l-8 -49q-135 96 -295 96q-133 0 -224.5 -72t-111.5 -200l-26 -154h631l-156 -983h-49l147 936h-579l-150 -936h-49l149 936h-168z" />
<glyph unicode="&#xfb02;" horiz-adv-x="1099" d="M106 936l7 47h168l26 156q24 154 129.5 234.5t251.5 80.5q168 0 305 -80l8 51l54 17l-230 -1442h-49l209 1327q-131 82 -295 82q-136 0 -225 -72t-109 -200l-26 -154h399l-6 -47h-399l-150 -936h-49l149 936h-168z" />
<glyph unicode="&#xfb03;" horiz-adv-x="1714" d="M106 936l7 47h168l20 119q24 154 133 234.5t262 80.5q170 0 312 -108q54 74 136.5 111.5t178.5 37.5q168 0 307 -92l-8 -49q-131 96 -295 96q-133 0 -224.5 -72.5t-111.5 -203.5l-26 -154h630l-155 -983h-49l147 936h-580l-149 -936h-49l149 936h-585l-150 -936h-49 l149 936h-168zM330 983h585l27 156q8 64 43 133q-134 100 -285 100q-143 0 -235.5 -71t-114.5 -201z" />
<glyph unicode="&#xfb04;" horiz-adv-x="1734" d="M106 936l7 47h168l20 119q24 154 134 234.5t261 80.5q170 0 312 -108q54 73 137.5 111t175.5 38q174 0 309 -82l8 54l52 16l-230 -1446h-49l211 1329q-128 84 -297 84q-132 0 -223 -72.5t-111 -203.5l-26 -154h399l-6 -47h-400l-149 -936h-49l149 936h-585l-150 -936h-49 l149 936h-168zM330 983h585l27 156q8 66 43 131q-66 51 -133 76.5t-152 25.5q-142 0 -235 -71.5t-115 -200.5z" />
</font>
</defs>
</svg>
