<?xml version="1.0" standalone="no"?>
<!DOCTYPE svg PUBLIC "-//W3C//DTD SVG 1.1//EN" "http://www.w3.org/Graphics/SVG/1.1/DTD/svg11.dtd" >
<svg xmlns="http://www.w3.org/2000/svg">
<metadata></metadata>
<defs>
<font id="mullerblack" horiz-adv-x="1218" >
<font-face units-per-em="2048" ascent="1597" descent="-451" />
<missing-glyph horiz-adv-x="372" />
<glyph horiz-adv-x="0" />
<glyph horiz-adv-x="682" />
<glyph unicode=" "  horiz-adv-x="372" />
<glyph unicode="&#x09;" horiz-adv-x="372" />
<glyph unicode="&#xa0;" horiz-adv-x="372" />
<glyph unicode="!" horiz-adv-x="632" d="M78 199q0 112 68.5 171.5t170.5 59.5q103 0 171.5 -59t68.5 -172t-68.5 -172.5t-171.5 -59.5q-102 0 -170.5 59.5t-68.5 172.5zM86 1434h461l-49 -871h-363z" />
<glyph unicode="&#x22;" horiz-adv-x="995" d="M84 887v547h375l-70 -547h-305zM571 887v547h375l-69 -547h-306z" />
<glyph unicode="#" horiz-adv-x="1495" d="M57 258v291h195l70 297h-162v291h231l62 258h376l-59 -258h166l59 258h379l-61 -258h125v-291h-193l-71 -297h161v-291h-229l-62 -258h-378l61 258h-166l-61 -258h-377l59 258h-125zM629 549h166l69 297h-164z" />
<glyph unicode="$" horiz-adv-x="1302" d="M76 981q0 182 111.5 292.5t297.5 139.5v223h324v-223q211 -29 356 -106v-410q-104 66 -229.5 102t-245.5 35q-127 0 -127 -63q0 -26 29.5 -46.5t77.5 -33t110 -29.5t126 -35t126 -51t110 -76t77.5 -112t29.5 -156q0 -111 -32.5 -194.5t-93 -136t-137.5 -82.5t-177 -42 v-221h-324v219q-228 27 -405 127v428q128 -84 264 -126t256 -42q92 0 128 16.5t36 53.5q0 23 -23.5 41t-63.5 31.5t-91.5 26.5t-108.5 30t-114 38t-108.5 55t-91.5 77t-63.5 107.5t-23.5 142.5z" />
<glyph unicode="%" horiz-adv-x="1968" d="M47 1077q0 95 33 170.5t90.5 122.5t132 71.5t160.5 24.5q85 0 159 -24.5t131.5 -71.5t90.5 -122.5t33 -170.5t-33 -170.5t-90.5 -122.5t-131.5 -71.5t-159 -24.5q-86 0 -160.5 24.5t-132 71.5t-90.5 122.5t-33 170.5zM360 1077q0 -44 23 -75t78 -31t77.5 31t22.5 75 t-23 75.5t-77 31.5q-55 0 -78 -31.5t-23 -75.5zM438 -123l838 1679h260l-838 -1679h-260zM1092 356q0 95 33 171t90 123.5t131 72.5t159 25q86 0 160.5 -25t132 -72.5t90.5 -123.5t33 -171t-33 -170.5t-90.5 -122.5t-132 -71.5t-160.5 -24.5q-115 0 -206.5 41.5t-149 131.5 t-57.5 216zM1405 356q0 -44 22.5 -75t77.5 -31t78 31t23 75t-23.5 76.5t-77.5 32.5t-77 -32t-23 -77z" />
<glyph unicode="&#x26;" horiz-adv-x="1533" d="M57 350q0 72 23 133.5t65 108.5t88 82t105 67q-156 168 -156 322q0 178 142 290.5t374 112.5q216 0 348 -109t132 -274q0 -54 -18.5 -104t-47.5 -89.5t-72 -77.5t-84.5 -65t-91.5 -55l170 -170q60 102 60 215h376q0 -118 -49 -238.5t-141 -224.5l274 -274h-448l-80 76 q-207 -109 -461 -109q-233 0 -370.5 106.5t-137.5 276.5zM469 395q0 -55 42 -84.5t120 -29.5q77 0 153 30l-225 217q-90 -61 -90 -133zM565 1061q0 -36 22 -72.5t68 -87.5q144 86 144 174q0 44 -28 71.5t-79 27.5q-58 0 -92.5 -33.5t-34.5 -79.5z" />
<glyph unicode="'" horiz-adv-x="507" d="M84 887v547h375l-70 -547h-305z" />
<glyph unicode="(" horiz-adv-x="714" d="M53 717q0 246 87 496.5t235 449.5h313q-213 -477 -213 -946t213 -946h-313q-148 199 -235 449.5t-87 496.5z" />
<glyph unicode=")" horiz-adv-x="714" d="M27 -229q96 212 154.5 455.5t58.5 490.5t-58.5 490.5t-154.5 455.5h315q146 -200 233 -450.5t87 -495.5t-87 -495.5t-233 -450.5h-315z" />
<glyph unicode="*" horiz-adv-x="1091" d="M51 956l137 357l207 -125l-41 246h383l-39 -246l205 125l137 -357l-235 -47l168 -153l-309 -211l-117 246l-119 -246l-309 211l170 153z" />
<glyph unicode="+" horiz-adv-x="1130" d="M57 547v344h336v334h344v-334h336v-344h-336v-336h-344v336h-336z" />
<glyph unicode="," horiz-adv-x="585" d="M-25 -293l146 629h414l-236 -629h-324z" />
<glyph unicode="-" horiz-adv-x="983" d="M92 326v333h799v-333h-799z" />
<glyph unicode="." horiz-adv-x="581" d="M51 199q0 112 69 171.5t171 59.5q103 0 171 -59t68 -172t-68 -172.5t-171 -59.5q-102 0 -171 59.5t-69 172.5z" />
<glyph unicode="/" horiz-adv-x="1021" d="M39 -125l647 1684h301l-647 -1684h-301z" />
<glyph unicode="0" horiz-adv-x="1447" d="M66 696q0 120 23 226t74 199t126.5 160t186.5 105.5t249 38.5q137 0 248 -38.5t186.5 -105.5t126 -160t73.5 -199t23 -226t-23 -226t-73.5 -199t-126 -160t-186.5 -105.5t-248 -38.5q-138 0 -249 38.5t-186.5 105.5t-126.5 160t-74 199t-23 226zM537 696q0 -169 45 -245 t143 -76q96 0 141 76t45 245t-45 245.5t-141 76.5q-97 0 -142.5 -76.5t-45.5 -245.5z" />
<glyph unicode="1" horiz-adv-x="1034" d="M86 0v387h238v559l-226 -84v402l338 129h344v-1006h215v-387h-909z" />
<glyph unicode="2" horiz-adv-x="1271" d="M70 2v191q1 82 24.5 154t52 118.5t88 99.5t94 77.5t107.5 71.5q19 13 29 19q33 22 87.5 54t79.5 48.5t46.5 43.5t21.5 57q0 43 -35 65.5t-98 22.5q-219 0 -454 -176v428q236 149 522 149q113 0 209 -25t174 -77t123 -141t45 -207q0 -59 -15 -111.5t-38 -92t-59 -78 t-69.5 -65t-78.5 -57.5q-24 -16 -75 -49.5t-75 -50.5t-53.5 -41t-44.5 -43h510v-385h-1118z" />
<glyph unicode="3" horiz-adv-x="1241" d="M82 55v406q199 -107 455 -107q194 3 194 101q0 37 -32 57t-91 20h-248l2 351h203q113 -3 113 67q0 84 -166 84q-90 0 -205 -34.5t-201 -90.5v396q95 57 222.5 88.5t259.5 31.5q110 0 204 -23t169 -69t118 -125t43 -182t-57 -183t-162 -116q122 -32 199.5 -118t77.5 -224 q0 -90 -33 -162.5t-88.5 -119.5t-132.5 -78t-160.5 -44.5t-177.5 -13.5q-273 0 -506 88z" />
<glyph unicode="4" horiz-adv-x="1386" d="M37 186v377l655 830h463v-840h174v-367h-174v-186h-426v186h-692zM469 553h260v326z" />
<glyph unicode="5" horiz-adv-x="1239" d="M76 61v385q68 -45 175.5 -72.5t209.5 -27.5q109 0 176.5 32t67.5 95q0 64 -71.5 95.5t-203.5 29.5q-173 0 -307 -41l49 836h946v-385l-534 2l-11 -142q75 11 123 11q78 0 146.5 -14t130.5 -46.5t106.5 -82t70.5 -124t26 -168.5q0 -104 -36.5 -187.5t-97.5 -136.5 t-144.5 -88.5t-172.5 -50t-188 -14.5q-122 0 -244 25t-217 69z" />
<glyph unicode="6" horiz-adv-x="1376" d="M66 702q0 150 38 272t103.5 205t156 139t192.5 81.5t216 25.5q244 0 430 -92v-366q-163 96 -334 96q-69 0 -122 -11t-98.5 -37t-76 -73t-45.5 -115q146 82 320 82q76 0 145.5 -17t130 -53t104.5 -88t69.5 -126t25.5 -162q0 -126 -46.5 -223t-127 -155.5t-181.5 -88 t-218 -29.5q-350 0 -516 191t-166 544zM524 528q19 -117 70 -166t129 -49q65 0 108 34.5t43 96.5q0 69 -48 102.5t-124 33.5q-85 0 -178 -52z" />
<glyph unicode="7" horiz-adv-x="1210" d="M45 1008v385h1137v-299l-520 -1094h-510l479 1008h-586z" />
<glyph unicode="8" horiz-adv-x="1368" d="M61 381q0 109 60 197.5t143 134.5q-151 119 -151 297q0 78 33 150t99.5 132.5t180 96.5t260.5 36q141 0 254 -35.5t180 -94t101.5 -127.5t33.5 -142q-1 -101 -45 -166t-127 -121q105 -56 164.5 -138.5t59.5 -207.5q0 -86 -36.5 -160.5t-109.5 -135t-196.5 -95.5 t-284.5 -35q-133 0 -239.5 23t-176.5 62t-116.5 93t-66.5 112.5t-20 123.5zM522 442q2 -56 46 -94.5t132 -38.5q68 0 106 27t38 67q0 46 -34 71t-103 50q-114 35 -142 45q-43 -54 -43 -127zM547 999q0 -45 36.5 -69t110.5 -47q89 -29 90 -29q40 69 37 127q-2 45 -38.5 73.5 t-108.5 28.5q-60 0 -93.5 -24.5t-33.5 -59.5z" />
<glyph unicode="9" horiz-adv-x="1376" d="M55 930q0 125 47 222.5t128 155.5t182 87.5t217 29.5q350 0 516 -191t166 -544q0 -150 -38 -272t-103.5 -205t-156 -139t-192.5 -81.5t-217 -25.5q-246 0 -428 92v367q159 -96 332 -96q142 0 227.5 52t114.5 183q-146 -82 -320 -82q-96 0 -180 28t-151 81.5t-105.5 140.5 t-38.5 197zM504 948q0 -69 47 -102t123 -33q87 0 178 51q-19 118 -69.5 166.5t-129.5 48.5q-64 0 -106.5 -34.5t-42.5 -96.5z" />
<glyph unicode=":" horiz-adv-x="604" d="M72 190q0 108 66 166t163 58q100 0 165.5 -57.5t65.5 -166.5q0 -110 -65.5 -166.5t-165.5 -56.5q-98 0 -163.5 57t-65.5 166zM72 760q0 109 65.5 166t163.5 57q100 0 165.5 -56.5t65.5 -166.5q0 -109 -65.5 -166t-165.5 -57q-97 0 -163 57.5t-66 165.5z" />
<glyph unicode=";" horiz-adv-x="626" d="M-10 -293l145 629h414l-236 -629h-323zM84 772q0 113 69 172.5t171 59.5q103 0 171 -59.5t68 -172.5t-68 -172t-171 -59q-102 0 -171 59.5t-69 171.5z" />
<glyph unicode="&#x3c;" horiz-adv-x="1048" d="M66 502v430l870 276v-374l-520 -117l520 -117v-375z" />
<glyph unicode="=" horiz-adv-x="1284" d="M127 319v332h1030v-332h-1030zM127 782v332h1030v-332h-1030z" />
<glyph unicode="&#x3e;" horiz-adv-x="1048" d="M113 225v375l522 117l-522 117v374l870 -276v-430z" />
<glyph unicode="?" horiz-adv-x="1040" d="M70 975v401q188 90 409 90q82 0 152.5 -10t138.5 -36t115.5 -67t76.5 -107t29 -152q0 -77 -34.5 -150t-83.5 -128.5t-98 -105t-83.5 -97.5t-34.5 -87h-401q0 58 19.5 112.5t49 93t63.5 76.5t63.5 65t49 56t19.5 52q0 84 -133 84q-73 0 -162.5 -26.5t-154.5 -63.5z M219 199q0 112 69 171.5t171 59.5q103 0 171 -59t68 -172t-68 -172.5t-171 -59.5q-102 0 -171 59.5t-69 172.5z" />
<glyph unicode="@" horiz-adv-x="2138" d="M55 492q0 152 41 294t126 266t205 216t288.5 145t365.5 53q144 0 271.5 -28.5t226 -78.5t180.5 -118.5t138.5 -148t95.5 -167.5t57 -175.5t18 -174.5q0 -137 -37 -245t-102.5 -176.5t-153 -104t-190.5 -35.5q-268 0 -368 185q-38 -57 -105.5 -94t-161.5 -37 q-78 0 -142.5 26t-107 68t-72 97.5t-42.5 113.5t-13 116q0 59 12.5 116t40.5 112t69 97t103 67.5t138 25.5q161 0 254 -116v92h313v-471q0 -117 94 -117q31 0 53 17t33.5 42t18.5 65t8.5 74t1.5 82q0 79 -22.5 156.5t-73 151.5t-122 130.5t-178.5 91t-235 34.5 q-153 0 -280 -53.5t-208.5 -144t-126 -206.5t-44.5 -243q0 -137 41 -247t111 -183.5t168 -122t208 -70t236 -21.5q204 0 436 72v-328q-207 -73 -448 -73q-181 0 -346 38t-306.5 117.5t-245 193t-162.5 274t-59 350.5zM934 487q0 -59 31.5 -105t99.5 -46q71 0 113 65v174 q-19 31 -49 48.5t-64 17.5q-68 0 -99.5 -46t-31.5 -108z" />
<glyph unicode="A" horiz-adv-x="1566" d="M-6 0l536 1434h508l535 -1434h-479l-62 190h-495l-64 -190h-479zM645 532h281l-101 306q-29 97 -41 184q-10 -74 -39 -184z" />
<glyph unicode="B" horiz-adv-x="1433" d="M109 0v1434h716q508 0 508 -363q0 -230 -205 -309q263 -80 263 -352q0 -410 -584 -410h-698zM582 348h200q67 0 102.5 30t35.5 87t-35.5 87t-102.5 30h-200v-234zM582 874l178 -2q57 0 88 30.5t31 76.5q0 47 -30.5 76.5t-88.5 29.5h-178v-211z" />
<glyph unicode="C" horiz-adv-x="1331" d="M51 702v7q0 154 43 281q44 130 119 217t176.5 146.5t213.5 86t233 26.5q229 0 421 -86v-422q-63 43 -154 71t-183 28q-77 0 -143.5 -20t-121.5 -61t-86.5 -111t-31.5 -163q0 -81 31.5 -144t84.5 -100.5t118 -56t138 -18.5q112 0 208 26.5t151 75.5v-432 q-192 -86 -420 -86q-125 0 -239 26t-216.5 83t-178 141t-119.5 208.5t-44 276.5z" />
<glyph unicode="D" horiz-adv-x="1523" d="M109 0v1434h618q189 0 332.5 -52.5t232.5 -149t133.5 -226t44.5 -289.5t-44.5 -289.5t-133.5 -226t-232.5 -149t-332.5 -52.5h-618zM582 397h133q132 0 201 75.5t69 244.5q0 168 -69 243.5t-201 75.5h-133v-639z" />
<glyph unicode="E" horiz-adv-x="1273" d="M109 0v1434h1085v-373h-612v-166h538v-348h-538v-170h624v-377h-1097z" />
<glyph unicode="F" horiz-adv-x="1232" d="M109 0v1434h1062v-414h-589v-176h530v-402h-530v-442h-473z" />
<glyph unicode="G" horiz-adv-x="1421" d="M49 717q0 153 44 279.5t119.5 212t177.5 144.5t215.5 86t236.5 27q250 0 463 -86v-422q-72 45 -175 71t-202 26q-81 0 -150 -19t-124.5 -58t-87 -106t-31.5 -155q0 -77 22 -137.5t55 -95t76 -57t80 -30.5t72 -8q25 0 57 4v408h442v-738q-246 -96 -487 -96 q-126 0 -242.5 28.5t-219 89t-178 147.5t-119.5 211.5t-44 273.5z" />
<glyph unicode="H" horiz-adv-x="1550" d="M109 0v1434h473v-510h389v510h471v-1434h-471v510h-389v-510h-473z" />
<glyph unicode="I" horiz-adv-x="690" d="M109 0v1434h473v-1434h-473z" />
<glyph unicode="J" horiz-adv-x="1062" d="M31 37v418q117 -52 248 -52q215 0 215 154v463h-330v414h803v-936q0 -117 -32.5 -209t-85.5 -150t-127.5 -95.5t-152.5 -53t-166 -15.5q-221 0 -372 62z" />
<glyph unicode="K" horiz-adv-x="1490" d="M109 0v1434h473v-508h118l287 508h520l-436 -711l445 -723h-521l-305 512h-108v-512h-473z" />
<glyph unicode="L" d="M109 0v1434h473v-1020h612v-414h-1085z" />
<glyph unicode="M" horiz-adv-x="1857" d="M109 0v1434h419l400 -627l401 627h420v-1434h-461v655l-235 -364h-248l-236 366v-657h-460z" />
<glyph unicode="N" horiz-adv-x="1562" d="M109 0v1434h399l485 -674q-12 103 -12 246v428h473v-1434h-399l-486 672q13 -112 13 -242v-430h-473z" />
<glyph unicode="O" horiz-adv-x="1650" d="M49 717q0 156 49.5 291t144 237.5t244.5 161.5t338 59t338 -59t245 -161.5t144.5 -237.5t49.5 -291t-49.5 -291t-144.5 -238t-245 -162t-338 -59t-338 59t-244.5 162t-144 238t-49.5 291zM535 717q0 -149 76.5 -235.5t213.5 -86.5t214 86.5t77 235.5t-77 235t-214 86 t-213.5 -86t-76.5 -235z" />
<glyph unicode="P" horiz-adv-x="1411" d="M109 0v1434h626q643 0 643 -531q0 -528 -643 -528h-153v-375h-473zM582 764h149q178 0 178 139q0 141 -178 141h-149v-280z" />
<glyph unicode="Q" horiz-adv-x="1650" d="M49 717q0 156 49.5 291t144 237.5t244.5 161.5t338 59t338 -59t245 -161.5t144.5 -237.5t49.5 -291q0 -261 -129 -449l129 -129l-273 -241l-139 139q-159 -70 -365 -70q-188 0 -338 59t-244.5 162t-144 238t-49.5 291zM522 717q0 -155 81.5 -243.5t219.5 -88.5q29 0 41 2 l-121 121l236 233l133 -133q14 46 14 109q0 156 -82 245t-221 89q-138 0 -219.5 -89.5t-81.5 -244.5z" />
<glyph unicode="R" horiz-adv-x="1492" d="M109 0v1434h665q96 0 181 -14.5t165 -51t137.5 -93t92 -145.5t34.5 -202q0 -305 -245 -428l368 -500h-520l-295 424h-110v-424h-473zM582 778h182q68 0 106.5 37t38.5 98t-38.5 98.5t-106.5 37.5h-182v-271z" />
<glyph unicode="S" horiz-adv-x="1300" d="M70 1022q0 110 44 196t121.5 139.5t178 81t219.5 27.5q142 0 282 -31t244 -87v-410q-103 66 -229 102q-122 35 -240 35h-6q-127 0 -127 -63q0 -24 24 -43t64 -33.5t92.5 -29.5t110 -34t115 -42.5t110 -59.5t92.5 -81t64 -111t24 -146q0 -107 -31.5 -189t-85 -133.5 t-132 -84t-164 -45.5t-189.5 -13q-327 0 -569 135v428q128 -84 264 -126t258 -42q91 0 126.5 16.5t35.5 53.5q0 29 -38.5 52t-100 42t-135.5 41.5t-148 59t-135.5 85t-100 128.5t-38.5 182z" />
<glyph unicode="T" horiz-adv-x="1290" d="M25 1020v414h1241v-414h-385v-1020h-471v1020h-385z" />
<glyph unicode="U" horiz-adv-x="1515" d="M92 557v877h473v-854q0 -189 193 -189q194 0 194 189v854h471v-877q0 -129 -37 -231t-99 -168t-148.5 -110t-180.5 -62.5t-200 -18.5t-200 18.5t-181 62.5t-149 110t-99 168t-37 231z" />
<glyph unicode="V" horiz-adv-x="1525" d="M-4 1434h502l266 -879l264 879h502l-524 -1434h-484z" />
<glyph unicode="W" horiz-adv-x="2277" d="M8 1434h508l205 -865l223 865h389l221 -865l205 865h510l-432 -1434h-508l-190 723l-189 -723h-510z" />
<glyph unicode="X" horiz-adv-x="1497" d="M-39 0l492 739l-467 695h551l213 -371l211 371h550l-467 -695l492 -739h-551l-235 403l-238 -403h-551z" />
<glyph unicode="Y" horiz-adv-x="1542" d="M-8 1434h534l246 -543l246 543h534l-546 -945v-489h-469v489z" />
<glyph unicode="Z" horiz-adv-x="1323" d="M55 0v301l533 719h-500v414h1149v-301l-532 -719h557v-414h-1207z" />
<glyph unicode="[" horiz-adv-x="788" d="M102 -225v1884h631v-371h-203v-1141h203v-372h-631z" />
<glyph unicode="\" horiz-adv-x="1019" d="M35 1559h301l647 -1684h-301z" />
<glyph unicode="]" horiz-adv-x="788" d="M55 147h203v1141h-203v371h631v-1884h-631v372z" />
<glyph unicode="^" horiz-adv-x="1355" d="M47 659l440 775h381l441 -775h-441l-190 367l-191 -367h-440z" />
<glyph unicode="_" horiz-adv-x="1067" d="M0 -70h1067v-346h-1067v346z" />
<glyph unicode="`" horiz-adv-x="729" d="M49 1876h422l203 -336h-375z" />
<glyph unicode="a" horiz-adv-x="1177" d="M37 264q0 72 26 129t67.5 92t99 58t116 32t123.5 9q105 0 195 -19v23q0 108 -195 108q-164 0 -354 -69v323q218 66 403 66q106 0 188 -13t153 -45.5t116.5 -86t71.5 -137t26 -195.5v-228q0 -53 57 -53q15 0 39 4v-252q-85 -37 -217 -37q-171 0 -245 105 q-136 -111 -328 -111q-146 0 -244 78t-98 219zM455 299q0 -36 27.5 -57t68.5 -21q63 0 113 33v121q-34 12 -86 12q-51 0 -87 -21t-36 -67z" />
<glyph unicode="b" horiz-adv-x="1280" d="M84 0v1434h432v-510q99 92 268 92q113 0 201.5 -43.5t142 -118t80.5 -166.5t27 -196t-27 -196.5t-80.5 -167t-142 -118t-201.5 -43.5q-103 0 -185 42t-136 110v-119h-379zM514 383q16 -29 50.5 -49.5t76.5 -20.5q73 0 111.5 53t38.5 126t-38.5 125.5t-111.5 52.5 q-42 0 -77.5 -21t-49.5 -49v-217z" />
<glyph unicode="c" horiz-adv-x="1001" d="M43 465q0 115 33 209.5t88 157.5t131 106.5t159 62.5t173 19q153 0 303 -59v-355q-110 56 -225 56q-95 0 -156.5 -41t-61.5 -129q0 -85 59 -125.5t150 -40.5q141 0 244 49v-352q-163 -56 -342 -56q-110 0 -207 29t-176 86.5t-125.5 156t-46.5 226.5z" />
<glyph unicode="d" horiz-adv-x="1280" d="M45 492q0 104 27 196t80.5 166.5t142.5 118t203 43.5q166 0 268 -92v510h430v-1434h-379v119q-52 -67 -133.5 -109.5t-185.5 -42.5q-92 0 -168 29t-128 78t-88 116.5t-52.5 143t-16.5 158.5zM492 492q0 -74 37.5 -126.5t111.5 -52.5q42 0 76.5 20.5t50.5 49.5v217 q-16 29 -50.5 49.5t-76.5 20.5q-74 0 -111.5 -52.5t-37.5 -125.5z" />
<glyph unicode="e" horiz-adv-x="1120" d="M43 498q0 111 34 201.5t88.5 148t125.5 96.5t141 55.5t139 16.5q92 0 169.5 -19.5t132.5 -54t96.5 -82t65 -102.5t34.5 -117q9 -52 9 -105v-19q-2 -62 -15 -124h-606q25 -60 102 -91.5t178 -31.5q162 0 283 39v-291q-148 -51 -358 -51q-97 0 -185.5 18.5t-168.5 59.5 t-138 102t-92.5 151t-34.5 200zM453 592h260q2 12 2 23q-1 37 -23 71q-30 44 -98 45q-64 0 -102.5 -39t-38.5 -100z" />
<glyph unicode="f" horiz-adv-x="860" d="M49 639v344h139v82q0 90 26 161t67.5 115t98.5 73t114.5 40.5t119.5 11.5q147 0 250 -39v-329q-56 32 -123 32q-52 0 -86 -24t-34 -76v-47h215v-344h-215v-639h-433v639h-139z" />
<glyph unicode="g" horiz-adv-x="1280" d="M45 504q0 83 16.5 157t52.5 139.5t88 113t128 75t168 27.5q104 0 185.5 -42.5t133.5 -109.5v119h379v-920q0 -118 -33 -212t-89 -156t-133.5 -102.5t-163 -58t-181.5 -17.5q-244 0 -446 84v356q166 -90 368 -90q248 0 248 168v49q-101 -94 -268 -94q-114 0 -203 42 t-142.5 114.5t-80.5 163t-27 194.5zM492 498q0 -74 37.5 -126.5t111.5 -52.5q42 0 76.5 20.5t50.5 49.5v217q-16 29 -50.5 49.5t-76.5 20.5q-74 0 -111.5 -52.5t-37.5 -125.5z" />
<glyph unicode="h" d="M84 0v1434h432v-504q113 86 248 86q97 0 172.5 -32.5t120 -87.5t66.5 -121t22 -140v-635h-432v561q0 47 -26.5 70.5t-68.5 23.5q-64 0 -102 -49v-606h-432z" />
<glyph unicode="i" horiz-adv-x="600" d="M74 1300q0 105 64.5 160.5t160.5 55.5q97 0 161 -55.5t64 -160.5q0 -107 -64 -162t-161 -55q-96 0 -160.5 55t-64.5 162zM84 0v983h432v-983h-432z" />
<glyph unicode="j" horiz-adv-x="600" d="M-104 -102q46 -11 84 -11q104 0 104 109v987h432v-1087q0 -100 -33.5 -175t-92.5 -118.5t-131.5 -64.5t-158.5 -21q-122 0 -204 30v351zM76 1300q0 105 64.5 160.5t160.5 55.5q97 0 161 -55.5t64 -160.5q0 -107 -64 -162t-161 -55q-96 0 -160.5 55t-64.5 162z" />
<glyph unicode="k" horiz-adv-x="1220" d="M84 0v1434h432v-766h64l174 315h469l-303 -485l313 -498h-469l-186 332h-62v-332h-432z" />
<glyph unicode="l" horiz-adv-x="600" d="M84 0v1495h432v-1495h-432z" />
<glyph unicode="m" horiz-adv-x="1771" d="M84 0v983h379v-92q46 51 129 88t172 37q193 0 280 -131q60 60 141 95.5t167 35.5q94 0 163 -32t108 -89t57 -126t18 -151v-618h-426v584q0 35 -20.5 53t-53.5 18q-47 0 -90 -37v-28v-590h-426v584q0 35 -20.5 53t-51.5 18q-56 0 -100 -47v-608h-426z" />
<glyph unicode="n" d="M84 0v983h379v-98q131 131 301 131q97 0 172.5 -32.5t120 -87.5t66.5 -121t22 -140v-635h-432v561q0 47 -26.5 70.5t-68.5 23.5q-64 0 -102 -49v-606h-432z" />
<glyph unicode="o" d="M43 492q0 129 45 230.5t123 165t179 96t218 32.5t218.5 -32.5t180.5 -96t124 -165t45 -230.5q0 -104 -29.5 -190.5t-82 -147.5t-124 -103.5t-155.5 -63t-177 -20.5q-117 0 -218 33t-179 96t-123 165t-45 231zM465 492q0 -75 34 -121.5t109 -46.5q77 0 111.5 46t34.5 122 t-34.5 121.5t-111.5 45.5q-75 0 -109 -46t-34 -121z" />
<glyph unicode="p" horiz-adv-x="1280" d="M84 -451v1434h379v-119q54 68 136 110t185 42q113 0 201.5 -43.5t142 -118t80.5 -166.5t27 -196t-27 -196.5t-80.5 -167t-142 -118t-201.5 -43.5q-166 0 -268 92v-510h-432zM514 383q14 -28 49.5 -49t77.5 -21q73 0 111.5 53t38.5 126t-38.5 125.5t-111.5 52.5 q-42 0 -76.5 -20.5t-50.5 -49.5v-217z" />
<glyph unicode="q" horiz-adv-x="1280" d="M45 492q0 104 27 196t80.5 166.5t142.5 118t203 43.5q104 0 185.5 -42.5t133.5 -109.5v119h379v-1434h-430v510q-102 -92 -268 -92q-92 0 -168 29t-128 78t-88 116.5t-52.5 143t-16.5 158.5zM492 492q0 -74 37.5 -126.5t111.5 -52.5q42 0 76.5 20.5t50.5 49.5v217 q-16 29 -50.5 49.5t-76.5 20.5q-74 0 -111.5 -52.5t-37.5 -125.5z" />
<glyph unicode="r" horiz-adv-x="858" d="M84 0v983h379v-115q105 140 298 141q33 0 68 -5v-406q-54 18 -112 18q-31 0 -63 -6q-92 -14 -138 -63v-547h-432z" />
<glyph unicode="s" horiz-adv-x="1005" d="M57 700q0 70 25 125.5t66 90.5t99.5 58t121 32.5t133.5 9.5q207 0 387 -84v-303q-64 39 -151.5 64.5t-159.5 25.5t-72 -35q0 -21 25.5 -36.5t66 -27.5t89.5 -26t98.5 -37t90 -55t66 -86.5t25.5 -124.5q0 -74 -27 -131t-71.5 -93t-108 -59t-131.5 -32t-148 -9 q-252 0 -411 86v330q77 -55 175 -82t179 -27q53 0 74.5 9t21.5 28t-25.5 34.5t-66.5 27.5t-90 26.5t-98.5 38.5t-90.5 56t-66.5 85t-25.5 121z" />
<glyph unicode="t" horiz-adv-x="890" d="M35 639v344h137v264l432 101v-365h219v-344h-219v-227q0 -93 117 -93q67 0 117 17v-332q-144 -39 -277 -39q-61 0 -114 10t-105 36t-88.5 67t-59 108.5t-22.5 155.5v297h-137z" />
<glyph unicode="u" d="M74 348v635h432v-561q0 -48 25.5 -71t68.5 -23q64 0 102 49v606h433v-983h-379v98q-131 -131 -303 -131q-97 0 -172.5 32.5t-119 87.5t-65.5 121t-22 140z" />
<glyph unicode="v" horiz-adv-x="1226" d="M4 983h455l155 -571l156 571h453l-381 -983h-457z" />
<glyph unicode="w" horiz-adv-x="1728" d="M14 983h441l112 -547l133 547h328l133 -547l113 547h440l-303 -983h-420l-127 485l-127 -485h-420z" />
<glyph unicode="x" horiz-adv-x="1169" d="M-16 0l340 489l-326 494h453l135 -235l133 235h455l-328 -494l340 -489h-463l-137 225l-137 -225h-465z" />
<glyph unicode="y" horiz-adv-x="1236" d="M-8 983h446l203 -539l150 539h438l-375 -1042q-151 -422 -524 -422q-92 0 -215 35v348q82 -21 145 -21q124 0 182 113z" />
<glyph unicode="z" horiz-adv-x="1034" d="M55 0v254l338 385h-307v344h862v-254l-336 -385h365v-344h-922z" />
<glyph unicode="{" horiz-adv-x="841" d="M37 537v362q34 0 56.5 3.5t46.5 14t36 35t12 62.5v291q0 221 161 319.5t435 34.5v-340q-93 18 -130.5 -23.5t-37.5 -140.5v-201q0 -107 -59 -170.5t-149 -66.5q89 -3 148.5 -67t59.5 -171v-200q0 -99 37.5 -140.5t130.5 -23.5v-340q-274 -64 -435 34.5t-161 319.5v291 q0 37 -11.5 61.5t-34.5 36t-47 15.5t-58 4z" />
<glyph unicode="|" horiz-adv-x="632" d="M102 -205v1864h428v-1864h-428z" />
<glyph unicode="}" horiz-adv-x="841" d="M57 115q93 -18 130.5 23.5t37.5 140.5v200q0 107 59.5 171t149.5 67q-90 3 -149.5 66.5t-59.5 170.5v201q0 99 -37.5 140.5t-130.5 23.5v340q274 64 435 -34.5t161 -319.5v-291q0 -38 12 -62.5t36.5 -35t47 -14t56.5 -3.5v-362q-34 0 -58 -4t-47 -15.5t-35 -36t-12 -61.5 v-291q0 -221 -161 -319.5t-435 -34.5v340z" />
<glyph unicode="~" horiz-adv-x="1239" d="M92 479q-14 108 2 190.5t57.5 132.5t98.5 74.5t129 24.5q68 0 151.5 -24.5t150 -49t95.5 -24.5q54 0 43 82h340q28 -209 -54 -314.5t-237 -105.5q-65 0 -149 25t-151.5 49.5t-92.5 23.5q-54 0 -43 -84h-340z" />
<glyph unicode="&#xa1;" horiz-adv-x="614" d="M68 784q0 114 68.5 173t170.5 59q104 0 172 -59t68 -173q0 -113 -68.5 -172t-171.5 -59q-102 0 -170.5 59.5t-68.5 171.5zM76 -451l49 871h362l50 -871h-461z" />
<glyph unicode="&#xa2;" horiz-adv-x="1044" d="M51 465q0 113 31.5 206t85 156t127 106.5t154 64t169.5 22.5v209h191v-230q73 -16 129 -38v-355q-64 31 -129 45v-317q75 11 139 41v-352q-81 -25 -139 -37v-232h-191v213h-12q-110 0 -207 29t-176 86.5t-125.5 156t-46.5 226.5zM496 492q0 -122 122 -156v313 q-122 -34 -122 -157z" />
<glyph unicode="&#xa3;" horiz-adv-x="1247" d="M68 0v369h43q59 0 92 36.5t33 98.5v45h-138v307h140v66q0 128 42 226.5t116 158t169.5 89t208.5 29.5q192 0 359 -71v-357q-112 76 -252 76q-90 0 -142.5 -43.5t-52.5 -126.5v-47h338v-307h-338v-39q0 -91 -59 -141h555v-369h-1114z" />
<glyph unicode="&#xa4;" horiz-adv-x="1146" d="M72 391l110 111q-55 93 -55 215q0 124 55 217l-110 113l172 174l127 -127q93 41 202 41t205 -41l125 129l172 -176l-112 -115q55 -93 55 -215q0 -123 -53 -215l110 -111l-174 -174l-123 123q-93 -41 -205 -41q-111 0 -204 41l-123 -123zM469 717q0 -41 26 -71t78 -30 q50 0 76.5 30t26.5 71t-26.5 71.5t-76.5 30.5q-52 0 -78 -30.5t-26 -71.5z" />
<glyph unicode="&#xa5;" horiz-adv-x="1558" d="M43 1393h504l231 -510l234 510h504l-379 -656h190v-225h-313v-80h313v-225h-313v-207h-469v207h-312v225h312v80h-312v225h189z" />
<glyph unicode="&#xa6;" horiz-adv-x="649" d="M111 -205v799h428v-799h-428zM111 860v799h428v-799h-428z" />
<glyph unicode="&#xa7;" horiz-adv-x="1085" d="M78 659q0 165 149 250q-141 98 -141 242q0 67 24.5 121t67 90t102 59.5t125.5 34t142 10.5q201 0 381 -84v-299q-66 37 -155 61.5t-169 24.5q-67 0 -67 -34q0 -14 12.5 -25.5t37.5 -22t51 -19t66.5 -21t69.5 -23.5q51 -18 90.5 -40t76 -55t56 -80.5t19.5 -107.5 q0 -160 -135 -258q125 -90 125 -233q0 -88 -40 -153t-111 -101t-157 -53t-190 -17q-229 0 -391 86v326q79 -54 172 -80.5t174 -26.5q54 0 75 8.5t21 28.5q0 12 -9 21.5t-32.5 19.5t-41.5 16t-58 17.5t-60 17.5q-46 15 -81.5 31t-74.5 41.5t-64.5 55.5t-42.5 74t-17 97z M428 715q-3 -50 82 -78q34 -15 100 -33q46 34 49 70q3 44 -65 74q-44 20 -115 43q-48 -29 -51 -76z" />
<glyph unicode="&#xa8;" horiz-adv-x="894" d="M14 1708q0 88 56 142.5t141 54.5q86 0 142.5 -54.5t56.5 -142.5t-56.5 -142.5t-142.5 -54.5q-85 0 -141 54.5t-56 142.5zM487 1708q0 88 56 142.5t141 54.5q86 0 142.5 -54.5t56.5 -142.5t-56.5 -142.5t-142.5 -54.5q-85 0 -141 54.5t-56 142.5z" />
<glyph unicode="&#xa9;" horiz-adv-x="1697" d="M61 717q0 182 64 327t173.5 236t250 138.5t299.5 47.5q127 0 243 -29.5t215.5 -90.5t173 -148.5t115 -211t41.5 -269.5t-41.5 -269.5t-115 -211t-173 -149t-215.5 -91t-243 -29.5q-159 0 -299.5 48t-250 138.5t-173.5 236t-64 327.5zM211 717q0 -119 34.5 -220t94.5 -173 t140.5 -122.5t173.5 -75t194 -24.5t194.5 24.5t174.5 75t141 122.5t94.5 173t34.5 220q0 148 -52.5 267t-142 193.5t-203.5 114t-241 39.5t-240 -39.5t-202.5 -114t-142 -193.5t-52.5 -267zM434 700q0 91 25.5 165t68.5 124t103 84.5t127.5 50t142.5 15.5q168 0 283 -70 v-252q-92 55 -209 55q-51 0 -91 -13.5t-68 -48.5t-28 -89q0 -85 55 -122.5t136 -37.5q119 0 205 57v-253q-76 -40 -140 -55t-167 -15q-80 0 -156 23.5t-141.5 70t-105.5 127t-40 184.5z" />
<glyph unicode="&#xab;" horiz-adv-x="1376" d="M49 455v73l279 390h430l-299 -426l299 -426h-430zM621 455v73l280 390h430l-301 -426l301 -426h-430z" />
<glyph unicode="&#xac;" horiz-adv-x="1185" d="M74 637v346h1013v-580h-356v234h-657z" />
<glyph unicode="&#xad;" horiz-adv-x="983" d="M92 326v333h799v-333h-799z" />
<glyph unicode="&#xae;" horiz-adv-x="1689" d="M61 717q0 145 41.5 267.5t114 210t171.5 149.5t214.5 92t241.5 30q127 0 243 -30t214.5 -92t171.5 -149.5t114 -210t41 -267.5t-41 -267.5t-114 -210.5t-171.5 -150t-214.5 -92t-243 -30q-126 0 -241.5 30t-214.5 92t-171.5 150t-114 210.5t-41.5 267.5zM211 717 q0 -148 51.5 -267t139.5 -193.5t201 -113.5t241 -39q102 0 195.5 24t173.5 74.5t138.5 122t92 172.5t33.5 220t-33.5 220t-92 172.5t-138.5 121.5t-173.5 74t-195.5 24q-128 0 -241 -39t-201 -113t-139.5 -193t-51.5 -267zM508 324v798h401q68 0 126.5 -15.5t107.5 -48 t77.5 -90t28.5 -134.5q0 -179 -141 -244l203 -266h-303l-164 227h-15h-47v-227h-274zM782 754h105q37 0 58.5 17.5t21.5 51.5q0 33 -22 50.5t-58 17.5h-105v-137z" />
<glyph unicode="&#xaf;" horiz-adv-x="737" d="M-6 1530v297h743v-297h-743z" />
<glyph unicode="&#xb0;" horiz-adv-x="911" d="M41 1083q0 179 116.5 281t299.5 102q184 0 298.5 -101.5t114.5 -281.5q0 -190 -114 -291.5t-299 -101.5t-300.5 101.5t-115.5 291.5zM350 1079q0 -48 28 -77t79 -29t77.5 28.5t26.5 77.5q0 48 -26.5 76.5t-77.5 28.5t-79 -29t-28 -76z" />
<glyph unicode="&#xb1;" horiz-adv-x="1191" d="M88 0v344h1016v-344h-1016zM88 752v344h336v311h344v-311h336v-344h-336v-314h-344v314h-336z" />
<glyph unicode="&#xb4;" horiz-adv-x="710" d="M45 1540l201 336h424l-250 -336h-375z" />
<glyph unicode="&#xb6;" horiz-adv-x="1701" d="M47 971q0 218 130.5 340.5t361.5 122.5h1034v-1885h-443v1471h-149v-1471h-442v961q-231 0 -361.5 122t-130.5 339z" />
<glyph unicode="&#xb7;" horiz-adv-x="593" d="M57 487q0 113 69 172.5t171 59.5q103 0 171.5 -59.5t68.5 -172.5t-68.5 -172t-171.5 -59q-102 0 -171 59.5t-69 171.5z" />
<glyph unicode="&#xb8;" horiz-adv-x="471" d="M-41 -231q76 -31 160 -31q117 0 117 51q0 35 -54.5 45.5t-126.5 3.5l47 162h260l-28 -88q188 -25 188 -184q0 -56 -27 -98t-73 -66.5t-102 -36.5t-119 -12q-145 0 -242 39v215z" />
<glyph unicode="&#xbb;" horiz-adv-x="1372" d="M45 66l301 426l-301 426h432l277 -390v-73l-277 -389h-432zM614 66l301 426l-301 426h433l276 -390v-73l-276 -389h-433z" />
<glyph unicode="&#xbc;" horiz-adv-x="1873" d="M74 557v231h159v336l-151 -51v242l219 78h207v-605h141v-231h-575zM389 -33l946 1499h123l-946 -1499h-123zM1049 113v225l393 498h278v-504h103v-219h-103v-113h-256v113h-415zM1309 332h155v196z" />
<glyph unicode="&#xbd;" horiz-adv-x="1810" d="M68 557v231h159v336l-151 -51v242l219 78h207v-605h141v-231h-575zM383 -33l946 1499h123l-946 -1499h-123zM1083 0l2 115q0 52 15.5 97.5t34 74.5t57 62t61 48.5t68.5 44.5q19 12 52.5 31.5t48 29t27.5 25.5t13 33q0 53 -80 53q-134 0 -272 -106v258q142 90 313 90 q68 0 125.5 -15t104.5 -46.5t73.5 -85.5t26.5 -125q0 -82 -41 -136.5t-115 -105.5q-15 -10 -44.5 -29.5t-44.5 -30t-32.5 -25t-27.5 -26.5h305v-231h-670z" />
<glyph unicode="&#xbe;" horiz-adv-x="1976" d="M68 608v244q134 -71 280 -68q47 0 78 15.5t31 44.5q0 47 -74 47h-147l2 211l118 -2q68 0 68 41q0 51 -98 51q-54 0 -123.5 -21t-120.5 -55v238q123 73 289 73q66 0 122.5 -14t101.5 -41.5t71 -74.5t26 -109q0 -63 -34 -111t-99 -69q74 -21 121 -72t47 -133 q0 -67 -29.5 -117.5t-81 -79t-113 -42t-132.5 -13.5q-150 0 -303 57zM492 -33l946 1499h123l-947 -1499h-122zM1151 113v225l393 498h279v-504h102v-219h-102v-113h-256v113h-416zM1411 332h156v196z" />
<glyph unicode="&#xbf;" horiz-adv-x="1026" d="M43 -111q0 77 34.5 150t83.5 128.5t98 105t83.5 97.5t34.5 87h401q0 -58 -19.5 -112.5t-49 -93t-63.5 -76t-63.5 -64.5t-49 -55.5t-19.5 -51.5q0 -86 131 -86q74 0 163.5 26.5t156.5 63.5v-401q-192 -90 -412 -90q-82 0 -152 10t-137.5 36t-115 67t-76.5 107t-29 152z M336 784q0 114 67.5 173t171.5 59q103 0 171.5 -59t68.5 -173q0 -112 -69 -171.5t-171 -59.5q-103 0 -171 59t-68 172z" />
<glyph unicode="&#xc0;" horiz-adv-x="1566" d="M-6 0l536 1434h508l535 -1434h-479l-62 190h-495l-64 -190h-479zM391 1876h422l203 -336h-375zM645 532h281l-101 306q-29 97 -41 184q-10 -74 -39 -184z" />
<glyph unicode="&#xc1;" horiz-adv-x="1566" d="M-6 0l536 1434h508l535 -1434h-479l-62 190h-495l-64 -190h-479zM553 1540l201 336h424l-250 -336h-375zM645 532h281l-101 306q-29 97 -41 184q-10 -74 -39 -184z" />
<glyph unicode="&#xc2;" horiz-adv-x="1566" d="M-6 0l536 1434h508l535 -1434h-479l-62 190h-495l-64 -190h-479zM332 1530l262 350h379l262 -350h-358l-93 117l-92 -117h-360zM645 532h281l-101 306q-29 97 -41 184q-10 -74 -39 -184z" />
<glyph unicode="&#xc3;" horiz-adv-x="1566" d="M-6 0l536 1434h508l535 -1434h-479l-62 190h-495l-64 -190h-479zM371 1516q-40 151 28.5 259.5t204.5 108.5q58 0 115 -21.5t98.5 -43t63.5 -21.5q30 0 38.5 23.5t2.5 50.5h272q40 -151 -29 -260t-204 -109q-59 0 -116 21.5t-99 43t-64 21.5q-29 0 -37.5 -24t-1.5 -49 h-272zM645 532h281l-101 306q-29 97 -41 184q-10 -74 -39 -184z" />
<glyph unicode="&#xc4;" horiz-adv-x="1566" d="M-6 0l536 1434h508l535 -1434h-479l-62 190h-495l-64 -190h-479zM352 1708q0 88 56 142.5t141 54.5q86 0 142.5 -54.5t56.5 -142.5t-56.5 -142.5t-142.5 -54.5q-85 0 -141 54.5t-56 142.5zM645 532h281l-101 306q-29 97 -41 184q-10 -74 -39 -184zM825 1708 q0 88 56 142.5t141 54.5q86 0 142.5 -54.5t56.5 -142.5t-56.5 -142.5t-142.5 -54.5q-85 0 -141 54.5t-56 142.5z" />
<glyph unicode="&#xc5;" horiz-adv-x="1566" d="M-6 0l536 1434h508l535 -1434h-479l-62 190h-495l-64 -190h-479zM500 1755q0 121 83.5 192.5t204.5 71.5q125 0 208 -71t83 -193q0 -128 -82.5 -199t-208.5 -71q-122 0 -205 71t-83 199zM645 532h281l-101 306q-29 97 -41 184q-10 -74 -39 -184zM721 1753q0 -31 18 -51.5 t52 -20.5t51.5 20.5t17.5 51.5t-17.5 50.5t-51.5 19.5t-52 -19.5t-18 -50.5z" />
<glyph unicode="&#xc6;" horiz-adv-x="2105" d="M-31 0l879 1434h1177v-373h-561v-166h488v-348h-488v-170h574v-377h-1034v195h-441l-117 -195h-477zM758 532h248v422z" />
<glyph unicode="&#xc7;" horiz-adv-x="1333" d="M51 702q-1 158 43 288t119 217t176.5 146.5t213.5 86t233 26.5q229 0 421 -86v-422q-63 43 -154 71t-183 28q-77 0 -143.5 -20t-121.5 -61t-86.5 -111t-31.5 -163q0 -81 31.5 -144t84.5 -100.5t118 -56t138 -18.5q112 0 208 26.5t151 75.5v-432q-133 -60 -275 -78 l-20 -63q188 -25 188 -184q0 -73 -48 -123t-118 -70t-157 -20q-143 0 -240 39v215q76 -31 160 -31q116 0 116 51q0 35 -54 45.5t-126 3.5l39 133q-111 12 -210 45.5t-186.5 93.5t-150 142t-99 197.5t-36.5 252.5z" />
<glyph unicode="&#xc8;" horiz-adv-x="1273" d="M109 0v1434h1085v-373h-612v-166h538v-348h-538v-170h624v-377h-1097zM262 1876h422l203 -336h-375z" />
<glyph unicode="&#xc9;" horiz-adv-x="1273" d="M109 0v1434h1085v-373h-612v-166h538v-348h-538v-170h624v-377h-1097zM424 1540l201 336h424l-250 -336h-375z" />
<glyph unicode="&#xca;" horiz-adv-x="1273" d="M109 0v1434h1085v-373h-612v-166h538v-348h-538v-170h624v-377h-1097zM203 1530l262 350h379l262 -350h-358l-93 117l-92 -117h-360z" />
<glyph unicode="&#xcb;" horiz-adv-x="1273" d="M109 0v1434h1085v-373h-612v-166h538v-348h-538v-170h624v-377h-1097zM223 1708q0 88 56 142.5t141 54.5q86 0 142 -54.5t56 -142.5t-56 -142.5t-142 -54.5q-85 0 -141 54.5t-56 142.5zM696 1708q0 88 56 142.5t141 54.5q86 0 142.5 -54.5t56.5 -142.5t-56.5 -142.5 t-142.5 -54.5q-85 0 -141 54.5t-56 142.5z" />
<glyph unicode="&#xcc;" horiz-adv-x="690" d="M-49 1876h422l202 -336h-374zM109 0v1434h473v-1434h-473z" />
<glyph unicode="&#xcd;" horiz-adv-x="690" d="M109 0v1434h473v-1434h-473zM113 1540l200 336h424l-250 -336h-374z" />
<glyph unicode="&#xce;" horiz-adv-x="690" d="M-109 1530l263 350h378l263 -350h-359l-92 117l-92 -117h-361zM109 0v1434h473v-1434h-473z" />
<glyph unicode="&#xcf;" horiz-adv-x="690" d="M-88 1708q0 88 56 142.5t141 54.5q86 0 142 -54.5t56 -142.5t-56 -142.5t-142 -54.5q-85 0 -141 54.5t-56 142.5zM109 0v1434h473v-1434h-473zM385 1708q0 88 56 142.5t141 54.5q86 0 142 -54.5t56 -142.5t-56 -142.5t-142 -54.5q-85 0 -141 54.5t-56 142.5z" />
<glyph unicode="&#xd0;" horiz-adv-x="1554" d="M16 575v279h121v580h619q189 0 332.5 -52.5t233 -149t134.5 -226t45 -289.5t-45 -289.5t-134.5 -226t-233 -149t-332.5 -52.5h-619v575h-121zM610 397h133q132 0 201.5 76t69.5 244t-69.5 243.5t-201.5 75.5h-133v-182h207v-279h-207v-178z" />
<glyph unicode="&#xd1;" horiz-adv-x="1562" d="M109 0v1434h399l485 -674q-12 103 -12 246v428h473v-1434h-399l-486 672q13 -112 13 -242v-430h-473zM356 1516q-40 151 29 259.5t205 108.5q58 0 115 -21.5t98 -43t63 -21.5q30 0 38.5 23.5t2.5 50.5h273q40 -151 -29.5 -260t-204.5 -109q-59 0 -116 21.5t-98.5 43 t-63.5 21.5q-29 0 -37.5 -24t-1.5 -49h-273z" />
<glyph unicode="&#xd2;" horiz-adv-x="1650" d="M49 717q0 156 49.5 291t144 237.5t244.5 161.5t338 59t338 -59t245 -161.5t144.5 -237.5t49.5 -291t-49.5 -291t-144.5 -238t-245 -162t-338 -59t-338 59t-244.5 162t-144 238t-49.5 291zM430 1876h422l203 -336h-375zM535 717q0 -149 76.5 -235.5t213.5 -86.5t214 86.5 t77 235.5t-77 235t-214 86t-213.5 -86t-76.5 -235z" />
<glyph unicode="&#xd3;" horiz-adv-x="1650" d="M49 717q0 156 49.5 291t144 237.5t244.5 161.5t338 59t338 -59t245 -161.5t144.5 -237.5t49.5 -291t-49.5 -291t-144.5 -238t-245 -162t-338 -59t-338 59t-244.5 162t-144 238t-49.5 291zM535 717q0 -149 76.5 -235.5t213.5 -86.5t214 86.5t77 235.5t-77 235t-214 86 t-213.5 -86t-76.5 -235zM592 1540l201 336h424l-250 -336h-375z" />
<glyph unicode="&#xd4;" horiz-adv-x="1650" d="M49 717q0 156 49.5 291t144 237.5t244.5 161.5t338 59t338 -59t245 -161.5t144.5 -237.5t49.5 -291t-49.5 -291t-144.5 -238t-245 -162t-338 -59t-338 59t-244.5 162t-144 238t-49.5 291zM371 1530l262 350h379l262 -350h-359l-92 117l-92 -117h-360zM535 717 q0 -149 76.5 -235.5t213.5 -86.5t214 86.5t77 235.5t-77 235t-214 86t-213.5 -86t-76.5 -235z" />
<glyph unicode="&#xd5;" horiz-adv-x="1650" d="M49 717q0 156 49.5 291t144 237.5t244.5 161.5t338 59t338 -59t245 -161.5t144.5 -237.5t49.5 -291t-49.5 -291t-144.5 -238t-245 -162t-338 -59t-338 59t-244.5 162t-144 238t-49.5 291zM410 1516q-40 151 28.5 259.5t204.5 108.5q58 0 115 -21.5t98.5 -43t63.5 -21.5 q30 0 38.5 23.5t2.5 50.5h272q40 -151 -29.5 -260t-204.5 -109q-59 0 -116 21.5t-98.5 43t-63.5 21.5q-29 0 -37.5 -24t-1.5 -49h-272zM535 717q0 -149 76.5 -235.5t213.5 -86.5t214 86.5t77 235.5t-77 235t-214 86t-213.5 -86t-76.5 -235z" />
<glyph unicode="&#xd6;" horiz-adv-x="1650" d="M49 717q0 156 49.5 291t144 237.5t244.5 161.5t338 59t338 -59t245 -161.5t144.5 -237.5t49.5 -291t-49.5 -291t-144.5 -238t-245 -162t-338 -59t-338 59t-244.5 162t-144 238t-49.5 291zM391 1708q0 88 56 142.5t141 54.5q86 0 142 -54.5t56 -142.5t-56 -142.5 t-142 -54.5q-85 0 -141 54.5t-56 142.5zM535 717q0 -149 76.5 -235.5t213.5 -86.5t214 86.5t77 235.5t-77 235t-214 86t-213.5 -86t-76.5 -235zM864 1708q0 88 56 142.5t141 54.5q86 0 142.5 -54.5t56.5 -142.5t-56.5 -142.5t-142.5 -54.5q-85 0 -141 54.5t-56 142.5z" />
<glyph unicode="&#xd7;" horiz-adv-x="1077" d="M61 465l250 250l-250 252l226 225l252 -250l249 250l228 -225l-252 -252l252 -250l-228 -225l-249 249l-252 -249z" />
<glyph unicode="&#xd8;" horiz-adv-x="1650" d="M49 717q0 156 49.5 291t144 237.5t244.5 161.5t338 59q218 0 373 -73l98 139h226l-168 -236q122 -101 185 -251t63 -328q0 -156 -49.5 -291t-144.5 -238t-245 -162t-338 -59q-206 0 -370 74l-99 -139h-225l168 233q-123 103 -186.5 254t-63.5 328zM535 717 q0 -110 45 -189l352 494q-53 16 -107 16q-137 0 -213.5 -86t-76.5 -235zM721 414q49 -19 102 -19q137 0 214 86.5t77 235.5q0 113 -45 184z" />
<glyph unicode="&#xd9;" horiz-adv-x="1515" d="M92 557v877h473v-854q0 -189 193 -189q194 0 194 189v854h471v-877q0 -129 -37 -231t-99 -168t-148.5 -110t-180.5 -62.5t-200 -18.5t-200 18.5t-181 62.5t-149 110t-99 168t-37 231zM365 1876h421l203 -336h-375z" />
<glyph unicode="&#xda;" horiz-adv-x="1515" d="M92 557v877h473v-854q0 -189 193 -189q194 0 194 189v854h471v-877q0 -129 -37 -231t-99 -168t-148.5 -110t-180.5 -62.5t-200 -18.5t-200 18.5t-181 62.5t-149 110t-99 168t-37 231zM526 1540l201 336h424l-250 -336h-375z" />
<glyph unicode="&#xdb;" horiz-adv-x="1515" d="M92 557v877h473v-854q0 -189 193 -189q194 0 194 189v854h471v-877q0 -129 -37 -231t-99 -168t-148.5 -110t-180.5 -62.5t-200 -18.5t-200 18.5t-181 62.5t-149 110t-99 168t-37 231zM305 1530l262 350h379l262 -350h-358l-92 117l-92 -117h-361z" />
<glyph unicode="&#xdc;" horiz-adv-x="1515" d="M92 557v877h473v-854q0 -189 193 -189q194 0 194 189v854h471v-877q0 -129 -37 -231t-99 -168t-148.5 -110t-180.5 -62.5t-200 -18.5t-200 18.5t-181 62.5t-149 110t-99 168t-37 231zM326 1708q0 88 55.5 142.5t140.5 54.5q86 0 142.5 -54.5t56.5 -142.5t-56.5 -142.5 t-142.5 -54.5q-85 0 -140.5 54.5t-55.5 142.5zM799 1708q0 88 55.5 142.5t140.5 54.5q86 0 142.5 -54.5t56.5 -142.5t-56.5 -142.5t-142.5 -54.5q-85 0 -140.5 54.5t-55.5 142.5z" />
<glyph unicode="&#xdd;" horiz-adv-x="1542" d="M-8 1434h534l246 -543l246 543h534l-546 -945v-489h-469v489zM530 1540l201 336h424l-250 -336h-375z" />
<glyph unicode="&#xde;" horiz-adv-x="1413" d="M109 0v1434h473v-187h153q643 0 643 -530q0 -527 -643 -531h-153v-186h-473zM582 578h149q178 0 178 139t-178 139h-149v-278z" />
<glyph unicode="&#xdf;" horiz-adv-x="1265" d="M84 0v973q0 228 135.5 360t386.5 133q101 1 185.5 -21t139 -57.5t92.5 -81.5t54.5 -92.5t16.5 -91.5q0 -54 -22.5 -106t-49.5 -85t-49.5 -72.5t-22.5 -72.5q0 -34 30 -75t73 -84t85.5 -92t72.5 -115.5t30 -136.5q0 -80 -29.5 -142t-82 -99.5t-118.5 -56t-143 -18.5 q-124 0 -260 49v334q57 -31 117 -31q42 0 68 18t26 52q0 25 -23 57t-56.5 65.5t-66.5 69t-56 79t-23 85.5q0 43 16 82t36 64t36 62.5t16 78.5q0 40 -24 64t-64 24q-44 0 -69 -26t-25 -70v-1024h-432z" />
<glyph unicode="&#xe0;" horiz-adv-x="1177" d="M37 264q0 72 26 129t67.5 92t99 58t116 32t123.5 9q105 0 195 -19v23q0 108 -195 108q-164 0 -354 -69v323q218 66 403 66q106 0 188 -13t153 -45.5t116.5 -86t71.5 -137t26 -195.5v-228q0 -53 57 -53q15 0 39 4v-252q-85 -37 -217 -37q-171 0 -245 105 q-136 -111 -328 -111q-146 0 -244 78t-98 219zM162 1446h422l202 -336h-374zM455 299q0 -36 27.5 -57t68.5 -21q63 0 113 33v121q-34 12 -86 12q-51 0 -87 -21t-36 -67z" />
<glyph unicode="&#xe1;" horiz-adv-x="1177" d="M37 264q0 72 26 129t67.5 92t99 58t116 32t123.5 9q105 0 195 -19v23q0 108 -195 108q-164 0 -354 -69v323q218 66 403 66q106 0 188 -13t153 -45.5t116.5 -86t71.5 -137t26 -195.5v-228q0 -53 57 -53q15 0 39 4v-252q-85 -37 -217 -37q-171 0 -245 105 q-136 -111 -328 -111q-146 0 -244 78t-98 219zM324 1110l200 336h424l-250 -336h-374zM455 299q0 -36 27.5 -57t68.5 -21q63 0 113 33v121q-34 12 -86 12q-51 0 -87 -21t-36 -67z" />
<glyph unicode="&#xe2;" horiz-adv-x="1177" d="M37 264q0 72 26 129t67.5 92t99 58t116 32t123.5 9q105 0 195 -19v23q0 108 -195 108q-164 0 -354 -69v323q218 66 403 66q106 0 188 -13t153 -45.5t116.5 -86t71.5 -137t26 -195.5v-228q0 -53 57 -53q15 0 39 4v-252q-85 -37 -217 -37q-171 0 -245 105 q-136 -111 -328 -111q-146 0 -244 78t-98 219zM102 1100l263 350h378l263 -350h-359l-92 117l-92 -117h-361zM455 299q0 -36 27.5 -57t68.5 -21q63 0 113 33v121q-34 12 -86 12q-51 0 -87 -21t-36 -67z" />
<glyph unicode="&#xe3;" horiz-adv-x="1177" d="M37 264q0 72 26 129t67.5 92t99 58t116 32t123.5 9q105 0 195 -19v23q0 108 -195 108q-164 0 -354 -69v323q218 66 403 66q106 0 188 -13t153 -45.5t116.5 -86t71.5 -137t26 -195.5v-228q0 -53 57 -53q15 0 39 4v-252q-85 -37 -217 -37q-171 0 -245 105 q-136 -111 -328 -111q-146 0 -244 78t-98 219zM141 1085q-40 151 29 260t205 109q58 0 115 -21.5t98 -43t63 -21.5q30 0 38.5 23.5t2.5 50.5h273q40 -151 -29.5 -260t-204.5 -109q-59 0 -116 21.5t-98.5 43t-63.5 21.5q-29 0 -37.5 -24.5t-1.5 -49.5h-273zM455 299 q0 -36 27.5 -57t68.5 -21q63 0 113 33v121q-34 12 -86 12q-51 0 -87 -21t-36 -67z" />
<glyph unicode="&#xe4;" horiz-adv-x="1177" d="M37 264q0 72 26 129t67.5 92t99 58t116 32t123.5 9q105 0 195 -19v23q0 108 -195 108q-164 0 -354 -69v323q218 66 403 66q106 0 188 -13t153 -45.5t116.5 -86t71.5 -137t26 -195.5v-228q0 -53 57 -53q15 0 39 4v-252q-85 -37 -217 -37q-171 0 -245 105 q-136 -111 -328 -111q-146 0 -244 78t-98 219zM123 1278q0 88 55.5 142.5t140.5 54.5q86 0 142.5 -54.5t56.5 -142.5t-56.5 -142.5t-142.5 -54.5q-85 0 -140.5 54.5t-55.5 142.5zM455 299q0 -36 27.5 -57t68.5 -21q63 0 113 33v121q-34 12 -86 12q-51 0 -87 -21t-36 -67z M596 1278q0 88 56 142.5t141 54.5q86 0 142 -54.5t56 -142.5t-56 -142.5t-142 -54.5q-85 0 -141 54.5t-56 142.5z" />
<glyph unicode="&#xe5;" horiz-adv-x="1177" d="M37 264q0 72 26 129t67.5 92t99 58t116 32t123.5 9q105 0 195 -19v23q0 108 -195 108q-164 0 -354 -69v323q218 66 403 66q106 0 188 -13t153 -45.5t116.5 -86t71.5 -137t26 -195.5v-228q0 -53 57 -53q15 0 39 4v-252q-85 -37 -217 -37q-171 0 -245 105 q-136 -111 -328 -111q-146 0 -244 78t-98 219zM270 1325q0 121 84 192.5t205 71.5q125 0 208 -71t83 -193q0 -128 -82.5 -199t-208.5 -71q-122 0 -205.5 71t-83.5 199zM455 299q0 -36 27.5 -57t68.5 -21q63 0 113 33v121q-34 12 -86 12q-51 0 -87 -21t-36 -67zM492 1323 q0 -31 17.5 -51.5t51.5 -20.5t52 20.5t18 51.5t-18 50.5t-52 19.5t-51.5 -19.5t-17.5 -50.5z" />
<glyph unicode="&#xe6;" horiz-adv-x="1710" d="M35 264q0 74 25.5 131t67.5 92.5t100.5 58t119.5 31.5t131 9q105 0 205 -21v23q0 106 -205 106q-170 0 -360 -69v325q214 66 405 66q246 0 346 -111q137 111 326 111q83 0 154 -20t122.5 -55t91 -82.5t62.5 -103t34.5 -117t9.5 -123.5t-15 -122h-606q25 -60 102 -91.5 t178 -31.5q169 0 281 37v-291q-152 -49 -355 -49q-267 0 -413 137q-96 -70 -200 -103.5t-247 -33.5q-97 0 -177 32t-131.5 101t-51.5 164zM465 299q0 -37 27 -56.5t67 -19.5q84 0 166 56q-19 62 -25 98q-58 12 -102 12q-54 0 -93.5 -21t-39.5 -69zM1042 594h261q9 49 -21 94 t-98 45q-63 0 -102.5 -39.5t-39.5 -99.5z" />
<glyph unicode="&#xe7;" horiz-adv-x="1001" d="M43 465q0 115 33 209.5t88 157.5t131 106.5t159 62.5t173 19q153 0 303 -59v-355q-110 56 -225 56q-95 0 -156.5 -41t-61.5 -129q0 -85 59 -125.5t150 -40.5q141 0 244 49v-352q-132 -39 -192 -46l-21 -65q191 -26 191 -184q0 -73 -48.5 -123t-119 -70t-156.5 -20 q-142 0 -242 39v215q76 -31 162 -31q115 0 115 51q0 35 -54 45.5t-126 3.5l40 135q-94 14 -172.5 49.5t-141 94t-97.5 147.5t-35 201z" />
<glyph unicode="&#xe8;" horiz-adv-x="1120" d="M43 498q0 111 34 201.5t88.5 148t125.5 96.5t141 55.5t139 16.5q92 0 169.5 -19.5t132.5 -54t96.5 -82t65 -102.5t34.5 -117t9 -124t-15 -124h-606q25 -60 102 -91.5t178 -31.5q162 0 283 39v-291q-148 -51 -358 -51q-97 0 -185.5 18.5t-168.5 59.5t-138 102t-92.5 151 t-34.5 200zM172 1425h422l203 -335h-375zM453 592h260q9 50 -20.5 94.5t-98.5 44.5q-64 0 -102.5 -39t-38.5 -100z" />
<glyph unicode="&#xe9;" horiz-adv-x="1120" d="M43 498q0 111 34 201.5t88.5 148t125.5 96.5t141 55.5t139 16.5q92 0 169.5 -19.5t132.5 -54t96.5 -82t65 -102.5t34.5 -117t9 -124t-15 -124h-606q25 -60 102 -91.5t178 -31.5q162 0 283 39v-291q-148 -51 -358 -51q-97 0 -185.5 18.5t-168.5 59.5t-138 102t-92.5 151 t-34.5 200zM334 1090l201 335h423l-249 -335h-375zM453 592h260q9 50 -20.5 94.5t-98.5 44.5q-64 0 -102.5 -39t-38.5 -100z" />
<glyph unicode="&#xea;" horiz-adv-x="1120" d="M43 498q0 111 34 201.5t88.5 148t125.5 96.5t141 55.5t139 16.5q92 0 169.5 -19.5t132.5 -54t96.5 -82t65 -102.5t34.5 -117t9 -124t-15 -124h-606q25 -60 102 -91.5t178 -31.5q162 0 283 39v-291q-148 -51 -358 -51q-97 0 -185.5 18.5t-168.5 59.5t-138 102t-92.5 151 t-34.5 200zM113 1079l262 351h379l262 -351h-359l-92 117l-92 -117h-360zM453 592h260q9 50 -20.5 94.5t-98.5 44.5q-64 0 -102.5 -39t-38.5 -100z" />
<glyph unicode="&#xeb;" horiz-adv-x="1120" d="M43 498q0 111 34 201.5t88.5 148t125.5 96.5t141 55.5t139 16.5q92 0 169.5 -19.5t132.5 -54t96.5 -82t65 -102.5t34.5 -117t9 -124t-15 -124h-606q25 -60 102 -91.5t178 -31.5q162 0 283 39v-291q-148 -51 -358 -51q-97 0 -185.5 18.5t-168.5 59.5t-138 102t-92.5 151 t-34.5 200zM133 1257q0 88 56 142.5t141 54.5q86 0 142 -54.5t56 -142.5t-56 -142t-142 -54q-85 0 -141 54t-56 142zM453 592h260q9 50 -20.5 94.5t-98.5 44.5q-64 0 -102.5 -39t-38.5 -100zM606 1257q0 88 56 142.5t141 54.5q86 0 142 -54.5t56 -142.5t-56 -142t-142 -54 q-85 0 -141 54t-56 142z" />
<glyph unicode="&#xec;" horiz-adv-x="600" d="M-31 1425h422l119 -335h-375zM84 0v983h432v-983h-432z" />
<glyph unicode="&#xed;" horiz-adv-x="600" d="M66 1090l200 335h424l-250 -335h-374zM84 0v983h432v-983h-432z" />
<glyph unicode="&#xee;" horiz-adv-x="600" d="M-111 1079l222 351h378l220 -351h-338l-72 127l-72 -127h-338zM84 0v983h432v-983h-432z" />
<glyph unicode="&#xef;" horiz-adv-x="600" d="M-111 1257q0 83 53.5 135t133.5 52t133 -52t53 -135t-53 -134.5t-133 -51.5t-133.5 51.5t-53.5 134.5zM84 0v983h432v-983h-432zM319 1257q0 83 53.5 135t133.5 52q81 0 134.5 -52t53.5 -135t-53.5 -134.5t-134.5 -51.5q-80 0 -133.5 51.5t-53.5 134.5z" />
<glyph unicode="&#xf0;" horiz-adv-x="1179" d="M43 440q0 106 33.5 190t91 136.5t130 80t153.5 27.5q190 0 278 -110q0 38 -12 78q-31 126 -160 213l-137 -137l-137 141l79 78q-79 20 -184 20v332q257 0 449 -88l135 135l137 -139l-96 -97q155 -118 239 -297.5t84 -408.5q0 -137 -28.5 -245t-77.5 -179t-118.5 -117 t-147.5 -66t-168 -20q-115 0 -211.5 28.5t-171.5 84.5t-117.5 148t-42.5 212zM457 434q0 -59 31.5 -99t97.5 -40q64 0 95.5 40t31.5 99q0 58 -31.5 97.5t-95.5 39.5q-66 0 -97.5 -39.5t-31.5 -97.5z" />
<glyph unicode="&#xf1;" d="M84 0v983h379v-98q131 131 301 131q97 0 172.5 -32.5t120 -87.5t66.5 -121t22 -140v-635h-432v561q0 47 -26.5 70.5t-68.5 23.5q-64 0 -102 -49v-606h-432zM172 1065q-40 151 29 260t205 109q58 0 115 -21.5t98 -43t63 -21.5q30 0 38.5 23t2.5 50h272q40 -151 -29 -259.5 t-204 -108.5q-59 0 -116 21.5t-99 43t-64 21.5q-29 0 -37.5 -24.5t-1.5 -49.5h-272z" />
<glyph unicode="&#xf2;" d="M43 492q0 129 45 230.5t123 165t179 96t218 32.5t218.5 -32.5t180.5 -96t124 -165t45 -230.5q0 -104 -29.5 -190.5t-82 -147.5t-124 -103.5t-155.5 -63t-177 -20.5q-117 0 -218 33t-179 96t-123 165t-45 231zM215 1417h422l203 -336h-375zM465 492q0 -75 34 -121.5 t109 -46.5q77 0 111.5 46t34.5 122t-34.5 121.5t-111.5 45.5q-75 0 -109 -46t-34 -121z" />
<glyph unicode="&#xf3;" d="M43 492q0 129 45 230.5t123 165t179 96t218 32.5t218.5 -32.5t180.5 -96t124 -165t45 -230.5q0 -104 -29.5 -190.5t-82 -147.5t-124 -103.5t-155.5 -63t-177 -20.5q-117 0 -218 33t-179 96t-123 165t-45 231zM377 1081l201 336h423l-249 -336h-375zM465 492 q0 -75 34 -121.5t109 -46.5q77 0 111.5 46t34.5 122t-34.5 121.5t-111.5 45.5q-75 0 -109 -46t-34 -121z" />
<glyph unicode="&#xf4;" d="M43 492q0 129 45 230.5t123 165t179 96t218 32.5t218.5 -32.5t180.5 -96t124 -165t45 -230.5q0 -104 -29.5 -190.5t-82 -147.5t-124 -103.5t-155.5 -63t-177 -20.5q-117 0 -218 33t-179 96t-123 165t-45 231zM156 1071l262 350h379l262 -350h-359l-92 117l-92 -117h-360z M465 492q0 -75 34 -121.5t109 -46.5q77 0 111.5 46t34.5 122t-34.5 121.5t-111.5 45.5q-75 0 -109 -46t-34 -121z" />
<glyph unicode="&#xf5;" d="M43 492q0 129 45 230.5t123 165t179 96t218 32.5t218.5 -32.5t180.5 -96t124 -165t45 -230.5q0 -104 -29.5 -190.5t-82 -147.5t-124 -103.5t-155.5 -63t-177 -20.5q-117 0 -218 33t-179 96t-123 165t-45 231zM195 1057q-40 151 28.5 259.5t204.5 108.5q58 0 115 -21.5 t98.5 -43t63.5 -21.5q30 0 38 23.5t2 50.5h273q40 -151 -29.5 -260t-204.5 -109q-59 0 -116 21.5t-98.5 43t-63.5 21.5q-29 0 -37.5 -24t-1.5 -49h-272zM465 492q0 -75 34 -121.5t109 -46.5q77 0 111.5 46t34.5 122t-34.5 121.5t-111.5 45.5q-75 0 -109 -46t-34 -121z" />
<glyph unicode="&#xf6;" d="M43 492q0 129 45 230.5t123 165t179 96t218 32.5t218.5 -32.5t180.5 -96t124 -165t45 -230.5q0 -104 -29.5 -190.5t-82 -147.5t-124 -103.5t-155.5 -63t-177 -20.5q-117 0 -218 33t-179 96t-123 165t-45 231zM176 1249q0 88 56 142.5t141 54.5q86 0 142 -54.5t56 -142.5 t-56 -142t-142 -54q-85 0 -141 54t-56 142zM465 492q0 -75 34 -121.5t109 -46.5q77 0 111.5 46t34.5 122t-34.5 121.5t-111.5 45.5q-75 0 -109 -46t-34 -121zM649 1249q0 88 56 142.5t141 54.5q86 0 142 -54.5t56 -142.5t-56 -142t-142 -54q-85 0 -141 54t-56 142z" />
<glyph unicode="&#xf7;" horiz-adv-x="1140" d="M55 551v334h1030v-334h-1030zM332 238q0 112 68.5 170.5t170.5 58.5q104 0 172 -58t68 -171q0 -114 -68 -173t-172 -59q-102 0 -170.5 59t-68.5 173zM332 1200q0 112 68.5 171t170.5 59q104 0 172 -58.5t68 -171.5q0 -114 -68 -172.5t-172 -58.5q-103 0 -171 58.5 t-68 172.5z" />
<glyph unicode="&#xf8;" d="M43 492q0 129 45 230.5t123 165t179 96t218 32.5q145 0 258 -45l90 141h99l-115 -178q111 -66 173.5 -177t62.5 -265q0 -104 -29.5 -190.5t-82 -147.5t-124 -103.5t-155.5 -63t-177 -20.5q-144 0 -254 45l-90 -143h-100l115 180q-110 64 -173 176.5t-63 266.5zM465 492 q0 -64 27 -111l170 270q-19 8 -54 8q-75 0 -109 -46t-34 -121zM559 330q42 -6 51 -6q77 0 111.5 46t34.5 122q0 56 -27 108z" />
<glyph unicode="&#xf9;" d="M74 348v635h432v-561q0 -48 25.5 -71t68.5 -23q64 0 102 49v606h433v-983h-379v98q-131 -131 -303 -131q-97 0 -172.5 32.5t-119 87.5t-65.5 121t-22 140zM211 1425h422l203 -335h-375z" />
<glyph unicode="&#xfa;" d="M74 348v635h432v-561q0 -48 25.5 -71t68.5 -23q64 0 102 49v606h433v-983h-379v98q-131 -131 -303 -131q-97 0 -172.5 32.5t-119 87.5t-65.5 121t-22 140zM373 1090l200 335h424l-249 -335h-375z" />
<glyph unicode="&#xfb;" d="M74 348v635h432v-561q0 -48 25.5 -71t68.5 -23q64 0 102 49v606h433v-983h-379v98q-131 -131 -303 -131q-97 0 -172.5 32.5t-119 87.5t-65.5 121t-22 140zM152 1079l262 351h379l262 -351h-359l-92 117l-92 -117h-360z" />
<glyph unicode="&#xfc;" d="M74 348v635h432v-561q0 -48 25.5 -71t68.5 -23q64 0 102 49v606h433v-983h-379v98q-131 -131 -303 -131q-97 0 -172.5 32.5t-119 87.5t-65.5 121t-22 140zM172 1257q0 88 56 142.5t141 54.5q86 0 142 -54.5t56 -142.5t-56 -142t-142 -54q-85 0 -141 54t-56 142zM645 1257 q0 88 56 142.5t141 54.5q86 0 142 -54.5t56 -142.5t-56 -142t-142 -54q-85 0 -141 54t-56 142z" />
<glyph unicode="&#xfd;" horiz-adv-x="1236" d="M-8 983h446l203 -539l150 539h438l-375 -1042q-151 -422 -524 -422q-92 0 -215 35v348q82 -21 145 -21q124 0 182 113zM371 1090l200 335h424l-250 -335h-374z" />
<glyph unicode="&#xfe;" horiz-adv-x="1280" d="M84 -451v1885h432v-521q106 103 272 103q114 0 202 -44t140 -119t78.5 -166.5t26.5 -194.5q0 -105 -27.5 -198t-81 -167t-140.5 -117t-198 -43q-166 0 -272 99v-517h-432zM514 387q20 -29 54.5 -49t74.5 -21q71 -1 109.5 51t38.5 124q0 73 -37.5 125.5t-110.5 52.5 q-44 0 -79.5 -21.5t-49.5 -52.5v-209z" />
<glyph unicode="&#xff;" horiz-adv-x="1236" d="M-8 983h446l203 -539l150 539h438l-375 -1042q-151 -422 -524 -422q-92 0 -215 35v348q82 -21 145 -21q124 0 182 113zM170 1257q0 88 56 142.5t141 54.5q86 0 142 -54.5t56 -142.5t-56 -142t-142 -54q-85 0 -141 54t-56 142zM643 1257q0 88 56 142.5t141 54.5 q86 0 142 -54.5t56 -142.5t-56 -142t-142 -54q-85 0 -141 54t-56 142z" />
<glyph unicode="&#x152;" horiz-adv-x="2101" d="M49 717q0 155 50.5 291t143 238t234.5 161t314 59q138 0 247 -32h983v-373h-538v-166h465v-348h-465v-170h551v-377h-996q-109 -33 -247 -33t-257.5 38.5t-207.5 107t-151 162t-94.5 206t-31.5 236.5zM532 717q0 -67 18.5 -122.5t49 -92.5t71 -62.5t84.5 -37t89 -11.5 q95 0 182 35v582q-84 34 -182 34q-58 0 -111.5 -18.5t-99.5 -56t-73.5 -102t-27.5 -148.5z" />
<glyph unicode="&#x153;" horiz-adv-x="1843" d="M45 492q0 129 42 230.5t116 165t170.5 96t208.5 32.5q241 0 372 -158q71 82 168 120t203 38q100 0 181 -26.5t135 -73t91 -107t52.5 -131t15.5 -142.5t-16 -143h-604q25 -60 102 -91.5t176 -31.5q174 0 283 39v-291q-151 -51 -344 -51q-293 0 -436 164q-60 -82 -158 -123 t-221 -41q-112 0 -208.5 33t-170.5 96.5t-116 165t-42 230.5zM467 492q0 -75 34 -121.5t109 -46.5q77 0 111.5 46t34.5 122t-34.5 121.5t-111.5 45.5q-75 0 -109 -46t-34 -121zM1174 590h260q9 51 -21 96t-98 45q-63 0 -102 -40t-39 -101z" />
<glyph unicode="&#x178;" horiz-adv-x="1542" d="M-8 1434h534l246 -543l246 543h534l-546 -945v-489h-469v489zM330 1708q0 88 55.5 142.5t140.5 54.5q86 0 142.5 -54.5t56.5 -142.5t-56.5 -142.5t-142.5 -54.5q-85 0 -140.5 54.5t-55.5 142.5zM803 1708q0 88 55.5 142.5t140.5 54.5q86 0 142.5 -54.5t56.5 -142.5 t-56.5 -142.5t-142.5 -54.5q-85 0 -140.5 54.5t-55.5 142.5z" />
<glyph unicode="&#x2c6;" horiz-adv-x="856" d="M-25 1530l263 350h378l263 -350h-359l-92 117l-92 -117h-361z" />
<glyph unicode="&#x2dc;" horiz-adv-x="921" d="M49 1516q-40 151 29 259.5t205 108.5q58 0 115 -21.5t98 -43t63 -21.5q30 0 38.5 23.5t2.5 50.5h272q40 -151 -29 -260t-204 -109q-59 0 -116 21.5t-99 43t-64 21.5q-29 0 -38 -26.5t0 -46.5h-273z" />
<glyph unicode="&#x2000;" horiz-adv-x="1009" />
<glyph unicode="&#x2001;" horiz-adv-x="2019" />
<glyph unicode="&#x2002;" horiz-adv-x="1009" />
<glyph unicode="&#x2003;" horiz-adv-x="2019" />
<glyph unicode="&#x2004;" horiz-adv-x="673" />
<glyph unicode="&#x2005;" horiz-adv-x="504" />
<glyph unicode="&#x2006;" horiz-adv-x="336" />
<glyph unicode="&#x2007;" horiz-adv-x="336" />
<glyph unicode="&#x2008;" horiz-adv-x="252" />
<glyph unicode="&#x2009;" horiz-adv-x="403" />
<glyph unicode="&#x200a;" horiz-adv-x="112" />
<glyph unicode="&#x2010;" horiz-adv-x="983" d="M92 326v333h799v-333h-799z" />
<glyph unicode="&#x2011;" horiz-adv-x="983" d="M92 326v333h799v-333h-799z" />
<glyph unicode="&#x2012;" horiz-adv-x="983" d="M92 326v333h799v-333h-799z" />
<glyph unicode="&#x2013;" horiz-adv-x="1198" d="M92 326v333h1014v-333h-1014z" />
<glyph unicode="&#x2014;" horiz-adv-x="1619" d="M92 326v333h1436v-333h-1436z" />
<glyph unicode="&#x2018;" horiz-adv-x="608" d="M23 805l237 629h322l-144 -629h-415z" />
<glyph unicode="&#x2019;" horiz-adv-x="598" d="M41 805l145 629h414l-235 -629h-324z" />
<glyph unicode="&#x201a;" horiz-adv-x="585" d="M-25 -293l146 629h414l-236 -629h-324z" />
<glyph unicode="&#x201c;" horiz-adv-x="1093" d="M23 805l237 629h322l-144 -629h-415zM508 805l237 629h322l-143 -629h-416z" />
<glyph unicode="&#x201d;" horiz-adv-x="1083" d="M41 805l145 629h414l-235 -629h-324zM526 805l146 629h413l-235 -629h-324z" />
<glyph unicode="&#x201e;" horiz-adv-x="1071" d="M-25 -293l146 629h414l-236 -629h-324zM461 -293l145 629h414l-236 -629h-323z" />
<glyph unicode="&#x2022;" horiz-adv-x="894" d="M98 717q0 84 28.5 150t77.5 105t110.5 59t131.5 20q72 0 134 -20t110.5 -59.5t76.5 -104.5t28 -150q0 -86 -28 -152t-76.5 -106t-110.5 -60t-134 -20q-70 0 -131.5 20t-110.5 60t-77.5 106t-28.5 152z" />
<glyph unicode="&#x2026;" horiz-adv-x="1814" d="M51 199q0 112 69 171.5t171 59.5q103 0 171 -59t68 -172t-68 -172.5t-171 -59.5q-102 0 -171 59.5t-69 172.5zM668 199q0 112 68.5 171.5t170.5 59.5q103 0 171.5 -59t68.5 -172t-68.5 -172.5t-171.5 -59.5q-102 0 -170.5 59.5t-68.5 172.5zM1284 199q0 112 69 171.5 t171 59.5q103 0 171 -59t68 -172t-68 -172.5t-171 -59.5q-102 0 -171 59.5t-69 172.5z" />
<glyph unicode="&#x202f;" horiz-adv-x="403" />
<glyph unicode="&#x2039;" horiz-adv-x="802" d="M49 455v73l279 390h430l-299 -426l299 -426h-430z" />
<glyph unicode="&#x203a;" horiz-adv-x="802" d="M45 66l301 426l-301 426h432l277 -390v-73l-277 -389h-432z" />
<glyph unicode="&#x205f;" horiz-adv-x="504" />
<glyph unicode="&#x20ac;" horiz-adv-x="1478" d="M55 479v183h135v34v35h-135v182h162q26 104 79.5 189.5t124 145t158 99.5t182 59t195.5 19q230 0 422 -86v-409q-62 43 -154 70.5t-186 27.5q-190 0 -290 -115h387v-182h-455q-2 -10 -2 -35q0 -24 2 -34h455v-183h-385q96 -108 280 -108q105 0 199.5 27t148.5 75v-420 q-192 -86 -409 -86q-132 0 -250.5 30.5t-220 91t-175 160.5t-106.5 230h-162z" />
<glyph unicode="&#x2122;" horiz-adv-x="1431" d="M59 1225v209h506v-209h-135v-330h-235v330h-136zM612 895v539h205l154 -222l151 222h207v-539h-225v229l-76 -112h-117l-75 112v-229h-224z" />
<glyph unicode="&#x25fc;" horiz-adv-x="983" d="M0 0v983h983v-983h-983z" />
<glyph unicode="&#xfb01;" horiz-adv-x="1378" d="M49 639v344h139v55q0 115 41 203t114.5 141.5t169.5 80t212 26.5q182 0 395 -68v-336q-168 56 -303 56q-91 0 -143.5 -33t-52.5 -100v-25h673v-983h-430v639h-243v-639h-433v639h-139z" />
<glyph unicode="&#xfb02;" horiz-adv-x="1425" d="M49 639v344h139v64q0 108 36.5 193.5t100.5 139t148 81.5t182 28q160 0 314 -55l372 41v-1475h-432v1112q-68 27 -139 27q-68 -2 -108.5 -32.5t-40.5 -94.5v-29h182v-344h-182v-639h-433v639h-139z" />
<glyph unicode="&#xfb03;" horiz-adv-x="2111" d="M49 639v344h139v47q0 106 37.5 188t102.5 131.5t148 75t179 25.5q190 0 367 -82q142 139 418 139q185 0 395 -67v-336q-165 55 -303 55q-91 0 -144 -33t-53 -100v-43h693v-983h-431v639h-262v-639h-432v639h-282v-639h-433v639h-139zM621 983h284v57v52q-63 32 -149 32 q-61 0 -98 -29.5t-37 -82.5v-29z" />
<glyph unicode="&#xfb04;" horiz-adv-x="2140" d="M49 639v344h139v47q0 106 37.5 188t102.5 131.5t148 75t179 25.5q188 0 365 -82q126 129 350 129q159 0 316 -55l370 41v-1483h-432v1122q-78 28 -139 25q-68 0 -109 -30.5t-41 -94.5v-39h183v-344h-183v-639h-432v639h-282v-639h-433v639h-139zM621 983h284v59v50 q-63 32 -149 32q-61 0 -98 -29.5t-37 -82.5v-29z" />
</font>
</defs>
</svg>
