<svg style="position: absolute; width: 0; height: 0; overflow: hidden;" version="1.1" xmlns="http://www.w3.org/2000/svg" xmlns:xlink="http://www.w3.org/1999/xlink">
<defs>
<symbol id="icon-link-light" viewBox="0 0 32 32">
<title>link-light</title>
<path class="path1" d="M18.986 16.471c0.164 0.018 0.327 0.026 0.49 0.026 1.216 0 2.382-0.481 3.258-1.357l7.405-7.405c0.866-0.866 1.349-2.014 1.356-3.231 0.009-1.22-0.459-2.364-1.316-3.222-0.85-0.85-1.98-1.317-3.188-1.317-0.011 0-0.021 0-0.033 0-1.217 0.008-2.364 0.49-3.23 1.356l-7.405 7.405c-1.095 1.095-1.569 2.649-1.269 4.157 0.058 0.29 0.346 0.479 0.629 0.419 0.29-0.058 0.478-0.339 0.42-0.628-0.231-1.157 0.134-2.351 0.976-3.192l7.405-7.405c0.666-0.667 1.548-1.037 2.482-1.043 0.975 0 1.805 0.35 2.458 1.003s1.010 1.527 1.004 2.458c-0.007 0.935-0.377 1.816-1.044 2.482l-7.405 7.405c-0.764 0.763-1.813 1.133-2.879 1.024-0.285-0.033-0.557 0.181-0.588 0.475-0.032 0.296 0.181 0.559 0.474 0.59zM15.14 23.273c1.148-1.148 1.608-2.769 1.229-4.334-0.069-0.287-0.351-0.466-0.646-0.394-0.287 0.069-0.463 0.358-0.394 0.645 0.291 1.201-0.063 2.444-0.946 3.328l-7.405 7.405c-0.666 0.667-1.548 1.037-2.482 1.043-0.959 0.005-1.805-0.349-2.458-1.003-0.653-0.653-1.010-1.526-1.003-2.458 0.006-0.935 0.377-1.816 1.043-2.483l7.405-7.405c0.771-0.771 1.822-1.144 2.906-1.021 0.288 0.022 0.559-0.177 0.592-0.471 0.033-0.293-0.177-0.558-0.471-0.592-1.404-0.158-2.78 0.324-3.783 1.327l-7.405 7.405c-0.866 0.866-1.348 2.014-1.356 3.231-0.009 1.22 0.459 2.364 1.316 3.222 0.85 0.85 1.98 1.317 3.188 1.317 0.011 0 0.021 0 0.033 0 1.217-0.008 2.364-0.49 3.23-1.356l7.407-7.406zM22.734 8.872c-0.209-0.209-0.547-0.209-0.756 0l-13.5 13.5c-0.209 0.208-0.209 0.547 0 0.756 0.104 0.104 0.241 0.157 0.378 0.157s0.273-0.052 0.378-0.157l13.5-13.5c0.209-0.209 0.209-0.547 0-0.756z"></path>
</symbol>
<symbol id="icon-key" viewBox="0 0 32 32">
<title>key</title>
<path class="path1" d="M18.532 19.468l-4.532 4.532h-3v3h-3v3h-5v-5l10.532-10.532c-0.344-0.924-0.532-1.924-0.532-2.968 0-4.694 3.806-8.5 8.5-8.5s8.5 3.806 8.5 8.5c0 4.694-3.806 8.5-8.5 8.5-1.044 0-2.044-0.188-2.968-0.532v0 0zM13.999 15.501l-9.999 9.999v3.5h3v-3h3v-3h3.5l3.999-3.999c-1.485-0.794-2.706-2.015-3.5-3.5v0 0zM29 11.5c0-4.142-3.358-7.5-7.5-7.5s-7.5 3.358-7.5 7.5c0 4.142 3.358 7.5 7.5 7.5s7.5-3.358 7.5-7.5v0 0zM27 9v0 0c0 1.657-1.343 3-3 3s-3-1.343-3-3c0-1.657 1.343-3 3-3s3 1.343 3 3zM26 9c0-1.105-0.895-2-2-2s-2 0.895-2 2c0 1.105 0.895 2 2 2s2-0.895 2-2v0 0z"></path>
</symbol>
<symbol id="icon-key-hover" viewBox="0 0 32 32">
<title>key-hover</title>
<path class="path1" d="M18.532 19.468l-4.532 4.532h-3v3h-3v3h-5v-5l10.532-10.532c-0.344-0.924-0.532-1.924-0.532-2.968 0-4.694 3.806-8.5 8.5-8.5s8.5 3.806 8.5 8.5c0 4.694-3.806 8.5-8.5 8.5-1.044 0-2.044-0.188-2.968-0.532v0 0zM27 9c0-1.657-1.343-3-3-3s-3 1.343-3 3c0 1.657 1.343 3 3 3s3-1.343 3-3v0z"></path>
</symbol>
<symbol id="icon-info" viewBox="0 0 32 32">
<title>info</title>
<path class="path1" d="M17 22v-7h-3v1h2v6h-2v1h5v-1h-2zM16.5 29v0 0c-6.904 0-12.5-5.596-12.5-12.5s5.596-12.5 12.5-12.5c6.904 0 12.5 5.596 12.5 12.5s-5.596 12.5-12.5 12.5zM16.5 28c6.351 0 11.5-5.149 11.5-11.5s-5.149-11.5-11.5-11.5c-6.351 0-11.5 5.149-11.5 11.5s5.149 11.5 11.5 11.5v0 0zM16.5 13c0.828 0 1.5-0.672 1.5-1.5s-0.672-1.5-1.5-1.5c-0.828 0-1.5 0.672-1.5 1.5s0.672 1.5 1.5 1.5v0 0z"></path>
</symbol>
<symbol id="icon-info-hover" viewBox="0 0 32 32">
<title>info-hover</title>
<path class="path1" d="M16.5 29v0c-6.904 0-12.5-5.596-12.5-12.5s5.596-12.5 12.5-12.5c6.904 0 12.5 5.596 12.5 12.5s-5.596 12.5-12.5 12.5zM17 22v-7h-3v1h2v6h-2v1h5v-1h-2zM16.5 13c0.828 0 1.5-0.672 1.5-1.5s-0.672-1.5-1.5-1.5c-0.828 0-1.5 0.672-1.5 1.5s0.672 1.5 1.5 1.5v0z"></path>
</symbol>
<symbol id="icon-code" viewBox="0 0 32 32">
<title>code</title>
<path class="path1" d="M19.5 3h0.5l6 7v18.009c0 1.093-0.894 1.991-1.997 1.991h-15.005c-1.107 0-1.997-0.899-1.997-2.007v-22.985c0-1.109 0.897-2.007 2.003-2.007h10.497zM19 4h-10.004c-0.55 0-0.996 0.455-0.996 0.995v23.009c0 0.55 0.455 0.995 1 0.995h15c0.552 0 1-0.445 1-0.993v-17.007h-4.002c-1.103 0-1.998-0.887-1.998-2.006v-4.994zM20 4.5v4.491c0 0.557 0.451 1.009 0.997 1.009h3.703l-4.7-5.5zM17 18l-2 8h1l2-8h-1zM13 25l-3-3 3-3 0.7 0.7-2.3 2.3 2.3 2.3-0.7 0.7zM20 25l3-3-3-3-0.7 0.7 2.3 2.3-2.3 2.3 0.7 0.7z"></path>
</symbol>
<symbol id="icon-code-hover" viewBox="0 0 32 32">
<title>code-hover</title>
<path class="path1" d="M19 3v6.002c0 1.111 0.898 1.998 2.006 1.998h4.994v17.003c0 1.107-0.894 1.997-1.997 1.997h-15.005c-1.107 0-1.997-0.899-1.997-2.007v-22.985c0-1.109 0.899-2.007 2.009-2.007h9.991zM20 3v5.997c0 0.554 0.451 1.003 0.991 1.003h5.009l-6-7zM13 26l0.7-0.7-3.3-3.3 3.3-3.3-0.7-0.7-4 4 4 4zM20 26l4-4-4-4-0.7 0.7 3.3 3.3-3.3 3.3 0.7 0.7zM17 18l-2 8h1l2-8h-1z"></path>
</symbol>
<symbol id="icon-copy" viewBox="0 0 32 32">
<title>copy</title>
<path class="path1" d="M23 12.5v13.5h4c0.552 0 1-0.445 1-0.993v-17.007h-4.002c-1.103 0-1.998-0.887-1.998-2.006v-4.994h-10.004c-0.55 0-0.996 0.455-0.996 0.995v3.005h6l6 7v0.5zM10 5v-2.993c0-1.109 0.897-2.007 2.003-2.007h10.997l6 7v18.009c0 1.093-0.894 1.991-1.997 1.991h-4.003v3.009c0 1.093-0.894 1.991-1.997 1.991h-15.005c-1.107 0-1.997-0.899-1.997-2.007v-22.985c0-1.109 0.897-2.007 2.003-2.007h3.997zM23 1.5v4.491c0 0.557 0.451 1.009 0.997 1.009h3.703l-4.7-5.5zM16 6h-10.004c-0.55 0-0.996 0.455-0.996 0.995v23.009c0 0.55 0.455 0.995 1 0.995h15c0.552 0 1-0.445 1-0.993v-17.007h-4.002c-1.103 0-1.998-0.887-1.998-2.006v-4.994zM17 6.5v4.491c0 0.557 0.451 1.009 0.997 1.009h3.703l-4.7-5.5z"></path>
</symbol>
<symbol id="icon-copy-hover" viewBox="0 0 32 32">
<title>copy-hover</title>
<path class="path1" d="M23 27h4.003c1.103 0 1.997-0.891 1.997-1.997v-17.003h-4.994c-1.108 0-2.006-0.887-2.006-1.998v-6.002h-9.991c-1.109 0-2.009 0.898-2.009 2.007v1.993h7.5l6.5 7.6v15.4h-1v-14h-4.994c-1.108 0-2.006-0.887-2.006-1.998v-6.002h-9.991c-1.109 0-2.009 0.898-2.009 2.007v22.985c0 1.109 0.891 2.007 1.997 2.007h15.005c1.103 0 1.997-0.891 1.997-1.997v-3.003zM23 0v5.997c0 0.554 0.451 1.003 0.991 1.003h5.009l-6-7zM17 5v5.997c0 0.554 0.451 1.003 0.991 1.003h5.009l-6-7z"></path>
</symbol>
<symbol id="icon-search" viewBox="0 0 32 32">
<title>search</title>
<path class="path1" d="M19.427 20.427c-1.39 0.99-3.090 1.573-4.927 1.573-4.694 0-8.5-3.806-8.5-8.5s3.806-8.5 8.5-8.5c4.694 0 8.5 3.806 8.5 8.5 0 2.347-0.951 4.472-2.49 6.010l5.997 5.997c0.275 0.275 0.268 0.716-0.008 0.992-0.278 0.278-0.72 0.28-0.992 0.008l-6.081-6.081zM14.5 21c4.142 0 7.5-3.358 7.5-7.5s-3.358-7.5-7.5-7.5c-4.142 0-7.5 3.358-7.5 7.5s3.358 7.5 7.5 7.5v0z"></path>
</symbol>
<symbol id="icon-search-hover" viewBox="0 0 32 32">
<title>search-hover</title>
<path class="path1" d="M19.427 20.427c-1.39 0.99-3.090 1.573-4.927 1.573-4.694 0-8.5-3.806-8.5-8.5s3.806-8.5 8.5-8.5c4.694 0 8.5 3.806 8.5 8.5 0 1.837-0.583 3.537-1.573 4.927l5.585 5.585c0.55 0.55 0.546 1.431-0 1.976l-0.023 0.023c-0.544 0.544-1.431 0.546-1.976 0l-5.585-5.585zM14.5 20c3.59 0 6.5-2.91 6.5-6.5s-2.91-6.5-6.5-6.5c-3.59 0-6.5 2.91-6.5 6.5s2.91 6.5 6.5 6.5v0z"></path>
</symbol>
<symbol id="icon-cert" viewBox="0 0 32 32">
<title>cert</title>
<path class="path1" d="M13 19.95v2.050h12.998c0.554 0 1.002-0.449 1.002-1.007v-12.985c0-0.556-0.439-1.007-1.002-1.007h-19.995c-0.554 0-1.002 0.449-1.002 1.007v12.985c0 0.556 0.439 1.007 1.002 1.007h1.998v-2.050c-0.619-0.631-1-1.496-1-2.45 0-1.933 1.567-3.5 3.5-3.5s3.5 1.567 3.5 3.5c0 0.954-0.381 1.818-1 2.45v0 0zM9 20.663v3.937l1.5-1.5 1.5 1.5v-3.937c-0.455 0.216-0.963 0.337-1.5 0.337s-1.045-0.121-1.5-0.337v0 0zM8 23h-1.995c-1.108 0-2.005-0.895-2.005-2v-13c0-1.11 0.898-2 2.005-2h19.99c1.108 0 2.005 0.895 2.005 2v13c0 1.11-0.898 2-2.005 2h-12.995v4l-2.5-2.5-2.5 2.5v-4zM7 11v1h18v-1h-18zM16 14v1h9v-1h-9zM19 17v1h6v-1h-6zM10.5 20c1.381 0 2.5-1.119 2.5-2.5s-1.119-2.5-2.5-2.5c-1.381 0-2.5 1.119-2.5 2.5s1.119 2.5 2.5 2.5v0z"></path>
</symbol>
<symbol id="icon-cert-hover" viewBox="0 0 32 32">
<title>cert-hover</title>
<path class="path1" d="M13 19.95v0 0c0.619-0.631 1-1.496 1-2.45 0-1.933-1.567-3.5-3.5-3.5s-3.5 1.567-3.5 3.5c0 0.954 0.381 1.818 1 2.45v3.050h-1.995c-1.108 0-2.005-0.895-2.005-2v-13c0-1.11 0.898-2 2.005-2h19.99c1.108 0 2.005 0.895 2.005 2v13c0 1.11-0.898 2-2.005 2h-12.995v-3.050zM9 20.663v4.937l1.5-1.5 1.5 1.5v-4.937c-0.455 0.216-0.963 0.337-1.5 0.337s-1.045-0.121-1.5-0.337v0 0zM7 11v1h18v-1h-18zM16 14v1h9v-1h-9zM19 17v1h6v-1h-6zM10.5 20c1.381 0 2.5-1.119 2.5-2.5s-1.119-2.5-2.5-2.5c-1.381 0-2.5 1.119-2.5 2.5s1.119 2.5 2.5 2.5v0z"></path>
</symbol>
<symbol id="icon-box" viewBox="0 0 32 32">
<title>box</title>
<path class="path1" d="M3 12l5-8h15l5 8v16h-25v-16zM26.775 12l-4.375-7h-13.8l-4.375 7h22.55zM4 13v14h23v-14h-23zM12.997 18h5.005c1.102 0 1.997 0.895 1.997 2 0 1.112-0.894 2-1.997 2h-5.005c-1.102 0-1.997-0.895-1.997-2 0-1.112 0.894-2 1.997-2zM13.003 19c-0.554 0-1.003 0.444-1.003 1 0 0.552 0.438 1 1.003 1h4.994c0.554 0 1.003-0.444 1.003-1 0-0.552-0.438-1-1.003-1h-4.994zM10 6l-0.6 1h12.2l-0.6-1h-11zM8.7 8l-0.6 1h14.8l-0.6-1h-13.6zM7.5 10l-0.6 1h17.2l-0.6-1h-16z"></path>
</symbol>
<symbol id="icon-box-hover" viewBox="0 0 32 32">
<title>box-hover</title>
<path class="path1" d="M3 12l5-8h15l5 8v16h-25v-16zM26.775 12l-4.375-7h-13.8l-4.375 7h22.55zM12.997 18c-1.103 0-1.997 0.888-1.997 2 0 1.105 0.896 2 1.997 2h5.005c1.103 0 1.997-0.888 1.997-2 0-1.105-0.896-2-1.997-2h-5.005zM10 6l-0.6 1h12.2l-0.6-1h-11zM8.7 8l-0.6 1h14.8l-0.6-1h-13.6zM7.5 10l-0.6 1h17.2l-0.6-1h-16z"></path>
</symbol>
<symbol id="icon-clipboard" viewBox="0 0 28 32">
<title>clipboard</title>
<path class="path1" d="M22 28h-20v-18h20v6h2v-10c0-1.094-0.906-2-2-2h-6c0-2.219-1.781-4-4-4s-4 1.781-4 4h-6c-1.094 0-2 0.906-2 2v22c0 1.094 0.906 2 2 2h20c1.094 0 2-0.906 2-2v-4h-2v4zM6 6c0.906 0 0.906 0 2 0s2-0.906 2-2 0.906-2 2-2 2 0.906 2 2 1 2 2 2 1.031 0 2 0 2 0.906 2 2h-16c0-1.219 0.875-2 2-2zM4 22h4v-2h-4v2zM18 18v-4l-8 6 8 6v-4h10v-4h-10zM4 26h6v-2h-6v2zM14 12h-10v2h10v-2zM8 16h-4v2h4v-2z"></path>
</symbol>
<symbol id="icon-facebook-square" viewBox="0 0 32 32">
<title>facebook-square</title>
<path class="path1" d="M29 0h-26c-1.65 0-3 1.35-3 3v26c0 1.65 1.35 3 3 3h13v-14h-4v-4h4v-2c0-3.306 2.694-6 6-6h4v4h-4c-1.1 0-2 0.9-2 2v2h6l-1 4h-5v14h9c1.65 0 3-1.35 3-3v-26c0-1.65-1.35-3-3-3z"></path>
</symbol>
<symbol id="icon-facebook-circle" viewBox="0 0 32 32">
<title>facebook-circle</title>
<path class="path1" d="M16 0.64c-8.483 0-15.36 6.877-15.36 15.36s6.877 15.36 15.36 15.36 15.36-6.877 15.36-15.36-6.877-15.36-15.36-15.36zM19.638 11.254h-2.309c-0.274 0-0.578 0.36-0.578 0.838v1.667h2.888l-0.437 2.378h-2.451v7.138h-2.725v-7.138h-2.472v-2.378h2.472v-1.398c0-2.006 1.392-3.637 3.302-3.637h2.309v2.53z"></path>
</symbol>
<symbol id="icon-github-circle" viewBox="0 0 32 32">
<title>github-circle</title>
<path class="path1" d="M16 0.395c-8.836 0-16 7.163-16 16 0 7.069 4.585 13.067 10.942 15.182 0.8 0.148 1.094-0.347 1.094-0.77 0-0.381-0.015-1.642-0.022-2.979-4.452 0.968-5.391-1.888-5.391-1.888-0.728-1.849-1.776-2.341-1.776-2.341-1.452-0.993 0.11-0.973 0.11-0.973 1.606 0.113 2.452 1.649 2.452 1.649 1.427 2.446 3.743 1.739 4.656 1.33 0.143-1.034 0.558-1.74 1.016-2.14-3.554-0.404-7.29-1.777-7.29-7.907 0-1.747 0.625-3.174 1.649-4.295-0.166-0.403-0.714-2.030 0.155-4.234 0 0 1.344-0.43 4.401 1.64 1.276-0.355 2.645-0.532 4.005-0.539 1.359 0.006 2.729 0.184 4.008 0.539 3.054-2.070 4.395-1.64 4.395-1.64 0.871 2.204 0.323 3.831 0.157 4.234 1.026 1.12 1.647 2.548 1.647 4.295 0 6.145-3.743 7.498-7.306 7.895 0.574 0.497 1.085 1.47 1.085 2.963 0 2.141-0.019 3.864-0.019 4.391 0 0.426 0.288 0.925 1.099 0.768 6.354-2.118 10.933-8.113 10.933-15.18 0-8.837-7.164-16-16-16z"></path>
</symbol>
<symbol id="icon-github" viewBox="0 0 30 32">
<title>github</title>
<path class="path1" d="M11.429 21.714c0 1.304-0.679 3.429-2.286 3.429s-2.286-2.125-2.286-3.429 0.679-3.429 2.286-3.429 2.286 2.125 2.286 3.429zM22.857 21.714c0 1.304-0.679 3.429-2.286 3.429s-2.286-2.125-2.286-3.429 0.679-3.429 2.286-3.429 2.286 2.125 2.286 3.429zM25.714 21.714c0-2.732-1.661-5.143-4.571-5.143-1.179 0-2.304 0.214-3.482 0.375-0.929 0.143-1.857 0.196-2.804 0.196s-1.875-0.054-2.804-0.196c-1.161-0.161-2.304-0.375-3.482-0.375-2.911 0-4.571 2.411-4.571 5.143 0 5.464 5 6.304 9.357 6.304h3c4.357 0 9.357-0.839 9.357-6.304zM29.714 18.571c0 1.982-0.196 4.089-1.089 5.911-2.357 4.768-8.839 5.232-13.482 5.232-4.714 0-11.589-0.411-14.036-5.232-0.911-1.804-1.107-3.929-1.107-5.911 0-2.607 0.714-5.071 2.429-7.071-0.321-0.982-0.482-2.018-0.482-3.036 0-1.339 0.304-2.679 0.911-3.893 2.821 0 4.625 1.232 6.768 2.911 1.804-0.429 3.661-0.625 5.518-0.625 1.679 0 3.375 0.179 5 0.571 2.125-1.661 3.929-2.857 6.714-2.857 0.607 1.214 0.911 2.554 0.911 3.893 0 1.018-0.161 2.036-0.482 3 1.714 2.018 2.429 4.5 2.429 7.107z"></path>
</symbol>
<symbol id="icon-link" viewBox="0 0 32 32">
<title>link</title>
<path class="path1" d="M24 8h-4.313c1.5 1 2.906 2.781 3.344 4h0.938c2.031 0 4 2 4 4s-2.031 4-4 4h-6c-1.969 0-4-2-4-4 0-0.719 0.219-1.406 0.563-2h-4.281c-0.156 0.656-0.25 1.313-0.25 2 0 4 3.969 8 7.969 8s2.031 0 6.031 0 8-4 8-8-4-8-8-8zM8.969 20h-0.938c-2.031 0-4-2-4-4s2.031-4 4-4h6c1.969 0 4 2 4 4 0 0.719-0.219 1.406-0.563 2h4.281c0.156-0.656 0.25-1.313 0.25-2 0-4-3.969-8-7.969-8s-2.031 0-6.031 0-8 4-8 8 4 8 8 8h4.313c-1.5-1-2.906-2.781-3.344-4z"></path>
</symbol>
<symbol id="icon-linkedin" viewBox="0 0 27 32">
<title>linkedin</title>
<path class="path1" d="M6.232 11.161v17.696h-5.893v-17.696h5.893zM6.607 5.696c0.018 1.696-1.268 3.054-3.321 3.054v0h-0.036c-1.982 0-3.25-1.357-3.25-3.054 0-1.732 1.321-3.054 3.321-3.054 2.018 0 3.268 1.321 3.286 3.054zM27.429 18.714v10.143h-5.875v-9.464c0-2.375-0.857-4-2.982-4-1.625 0-2.589 1.089-3.018 2.143-0.143 0.393-0.196 0.911-0.196 1.446v9.875h-5.875c0.071-16.036 0-17.696 0-17.696h5.875v2.571h-0.036c0.768-1.214 2.161-2.982 5.339-2.982 3.875 0 6.768 2.536 6.768 7.964z"></path>
</symbol>
<symbol id="icon-linkedin-square" viewBox="0 0 32 32">
<title>linkedin-square</title>
<path class="path1" d="M29 0h-26c-1.65 0-3 1.35-3 3v26c0 1.65 1.35 3 3 3h26c1.65 0 3-1.35 3-3v-26c0-1.65-1.35-3-3-3zM12 26h-4v-14h4v14zM10 10c-1.106 0-2-0.894-2-2s0.894-2 2-2c1.106 0 2 0.894 2 2s-0.894 2-2 2zM26 26h-4v-8c0-1.106-0.894-2-2-2s-2 0.894-2 2v8h-4v-14h4v2.481c0.825-1.131 2.087-2.481 3.5-2.481 2.488 0 4.5 2.238 4.5 5v9z"></path>
</symbol>
<symbol id="icon-linkedin-circle" viewBox="0 0 32 32">
<title>linkedin-circle</title>
<path class="path1" d="M16 0.64c-8.483 0-15.36 6.877-15.36 15.36s6.877 15.36 15.36 15.36 15.36-6.877 15.36-15.36-6.877-15.36-15.36-15.36zM12.24 22.366h-3.11v-10.010h3.11v10.010zM10.666 11.128c-0.982 0-1.618-0.696-1.618-1.557 0-0.878 0.654-1.554 1.658-1.554s1.618 0.675 1.637 1.554c0 0.861-0.634 1.557-1.677 1.557zM23.6 22.366h-3.11v-5.547c0-1.291-0.451-2.168-1.576-2.168-0.859 0-1.37 0.594-1.595 1.165-0.083 0.203-0.104 0.491-0.104 0.778v5.771h-3.112v-6.816c0-1.25-0.040-2.294-0.082-3.194h2.702l0.142 1.39h0.062c0.41-0.653 1.413-1.616 3.091-1.616 2.046 0 3.581 1.371 3.581 4.318v5.918z"></path>
</symbol>
<symbol id="icon-menu-hover" viewBox="0 0 32 32">
<title>menu-hover</title>
<path class="path1" d="M2 6h28v6h-28zM2 14h28v6h-28zM2 22h28v6h-28z"></path>
</symbol>
<symbol id="icon-menu" viewBox="0 0 32 32">
<title>menu</title>
<path class="path1" d="M4 8h24v2.688h-24v-2.688zM4 17.313v-2.625h24v2.625h-24zM4 24v-2.688h24v2.688h-24z"></path>
</symbol>
<symbol id="icon-search3" viewBox="0 0 30 32">
<title>search3</title>
<path class="path1" d="M30 26l-7.785-7.785c1.111-1.814 1.785-3.929 1.785-6.215 0-6.626-5.375-12-12-12s-12 5.374-12 12c0 6.625 5.374 12 12 12 2.286 0 4.4-0.674 6.215-1.781l7.785 7.781c0.547 0.547 1.453 0.543 2 0l2-2c0.547-0.547 0.547-1.453 0-2zM12 20c-4.418 0-8-3.582-8-8s3.582-8 8-8 8 3.582 8 8-3.582 8-8 8z"></path>
</symbol>
<symbol id="icon-share" viewBox="0 0 32 32">
<title>share</title>
<path class="path1" d="M27 22c-1.411 0-2.685 0.586-3.594 1.526l-13.469-6.734c0.041-0.258 0.063-0.522 0.063-0.791s-0.022-0.534-0.063-0.791l13.469-6.734c0.909 0.94 2.183 1.526 3.594 1.526 2.761 0 5-2.239 5-5s-2.239-5-5-5-5 2.239-5 5c0 0.269 0.022 0.534 0.063 0.791l-13.469 6.734c-0.909-0.94-2.183-1.526-3.594-1.526-2.761 0-5 2.239-5 5s2.239 5 5 5c1.411 0 2.685-0.586 3.594-1.526l13.469 6.734c-0.041 0.258-0.063 0.522-0.063 0.791 0 2.761 2.239 5 5 5s5-2.239 5-5c0-2.761-2.239-5-5-5z"></path>
</symbol>
<symbol id="icon-spinner" viewBox="0 0 32 32">
<title>spinner</title>
<path class="path1" d="M16 32c-4.274 0-8.292-1.664-11.314-4.686s-4.686-7.040-4.686-11.314c0-3.026 0.849-5.973 2.456-8.522 1.563-2.478 3.771-4.48 6.386-5.791l1.344 2.682c-2.126 1.065-3.922 2.693-5.192 4.708-1.305 2.069-1.994 4.462-1.994 6.922 0 7.168 5.832 13 13 13s13-5.832 13-13c0-2.459-0.69-4.853-1.994-6.922-1.271-2.015-3.066-3.643-5.192-4.708l1.344-2.682c2.615 1.31 4.824 3.313 6.386 5.791 1.607 2.549 2.456 5.495 2.456 8.522 0 4.274-1.664 8.292-4.686 11.314s-7.040 4.686-11.314 4.686z"></path>
</symbol>
<symbol id="icon-terminal" viewBox="0 0 28 32">
<title>terminal</title>
<path class="path1" d="M25.969 3.969h-24c-1.105 0-2 0.895-2 2v20c0 1.105 0.895 2 2 2h24c1.105 0 2-0.895 2-2v-20c0-1.105-0.895-2-2-2zM3.969 17.969l4-4-4-4 2-2 6 6-6 6-2-2zM19.969 19.969h-8v-2h8v2z"></path>
</symbol>
<symbol id="icon-twitter" viewBox="0 0 32 32">
<title>twitter</title>
<path class="path1" d="M32 7.075c-1.175 0.525-2.444 0.875-3.769 1.031 1.356-0.813 2.394-2.1 2.887-3.631-1.269 0.75-2.675 1.3-4.169 1.594-1.2-1.275-2.906-2.069-4.794-2.069-3.625 0-6.563 2.938-6.563 6.563 0 0.512 0.056 1.012 0.169 1.494-5.456-0.275-10.294-2.888-13.531-6.862-0.563 0.969-0.887 2.1-0.887 3.3 0 2.275 1.156 4.287 2.919 5.463-1.075-0.031-2.087-0.331-2.975-0.819 0 0.025 0 0.056 0 0.081 0 3.181 2.263 5.838 5.269 6.437-0.55 0.15-1.131 0.231-1.731 0.231-0.425 0-0.831-0.044-1.237-0.119 0.838 2.606 3.263 4.506 6.131 4.563-2.25 1.762-5.075 2.813-8.156 2.813-0.531 0-1.050-0.031-1.569-0.094 2.913 1.869 6.362 2.95 10.069 2.95 12.075 0 18.681-10.006 18.681-18.681 0-0.287-0.006-0.569-0.019-0.85 1.281-0.919 2.394-2.075 3.275-3.394z"></path>
</symbol>
<symbol id="icon-twitter-square" viewBox="0 0 27 32">
<title>twitter-square</title>
<path class="path1" d="M22.857 10.893c-0.679 0.304-1.393 0.5-2.161 0.607 0.786-0.464 1.375-1.214 1.661-2.089-0.732 0.429-1.536 0.75-2.393 0.911-0.679-0.732-1.661-1.179-2.732-1.179-2.071 0-3.75 1.679-3.75 3.75 0 0.286 0.018 0.589 0.089 0.857-3.125-0.161-5.893-1.643-7.75-3.929-0.321 0.554-0.518 1.214-0.518 1.893 0 1.304 0.607 2.446 1.625 3.125-0.625-0.018-1.214-0.196-1.786-0.464v0.036c0 1.821 1.375 3.339 3.089 3.679-0.321 0.089-0.571 0.143-0.911 0.143-0.232 0-0.464-0.036-0.696-0.071 0.482 1.482 1.857 2.571 3.5 2.607-1.286 1-2.893 1.607-4.661 1.607-0.304 0-0.607-0.018-0.893-0.054 1.661 1.054 3.625 1.679 5.75 1.679 6.893 0 10.679-5.714 10.679-10.679 0-0.161 0-0.321-0.018-0.482 0.732-0.518 1.375-1.179 1.875-1.946zM27.429 7.429v17.143c0 2.839-2.304 5.143-5.143 5.143h-17.143c-2.839 0-5.143-2.304-5.143-5.143v-17.143c0-2.839 2.304-5.143 5.143-5.143h17.143c2.839 0 5.143 2.304 5.143 5.143z"></path>
</symbol>
<symbol id="icon-twitter-circle" viewBox="0 0 32 32">
<title>twitter-circle</title>
<path class="path1" d="M16 0.64c-8.483 0-15.36 6.877-15.36 15.36s6.877 15.36 15.36 15.36 15.36-6.877 15.36-15.36-6.877-15.36-15.36-15.36zM22.248 13.222c0.006 0.131 0.008 0.262 0.008 0.39 0 4-3.042 8.61-8.606 8.61-1.709 0-3.299-0.499-4.637-1.36 0.235 0.029 0.477 0.040 0.722 0.040 1.418 0 2.722-0.482 3.757-1.294-1.323-0.026-2.44-0.899-2.826-2.099 0.184 0.034 0.373 0.053 0.568 0.053 0.275 0 0.544-0.037 0.797-0.106-1.384-0.278-2.427-1.501-2.427-2.966v-0.037c0.408 0.226 0.875 0.363 1.371 0.379-0.813-0.544-1.346-1.469-1.346-2.52 0-0.554 0.149-1.075 0.41-1.522 1.493 1.83 3.72 3.034 6.235 3.163-0.053-0.222-0.078-0.453-0.078-0.691 0-1.669 1.354-3.026 3.026-3.026 0.869 0 1.656 0.368 2.208 0.957 0.69-0.138 1.336-0.387 1.92-0.734-0.226 0.706-0.704 1.299-1.33 1.675 0.613-0.075 1.195-0.237 1.738-0.478-0.405 0.606-0.918 1.141-1.509 1.566z"></path>
</symbol>
</defs>
</svg>
