<?xml version="1.0" encoding="utf-8"?><svg xmlns:xlink="http://www.w3.org/1999/xlink" width="1025" height="919" viewBox="0 0 1025 919" xmlns="http://www.w3.org/2000/svg"><svg width="26" height="28" viewBox="-5 -5 26 28" id="attention"><defs><style>.aicon-default{fill:#bb241d;fill-rule:evenodd}</style></defs><path id="aattention" class="aicon-default" d="M140.018 663.148a1.59 1.59 0 0 1 .987 1.571c-.226 3.4-1.785 13.277-8 13.275s-7.775-9.879-8-13.275a1.583 1.583 0 0 1 .986-1.571l6.349-3.044a1.9 1.9 0 0 1 1.329 0zM132 665h2v5h-2v-5zm0 6h2v2h-2v-2z" transform="translate(-125 -660)"/></svg><svg width="88" height="76" viewBox="-5 -5 88 76" id="box" x="26" y="28"><defs><style>.bicon-default{fill:#333;fill-rule:evenodd}</style></defs><path id="bbox" class="bicon-default" d="M134.925 76.069l-4.963-12.088a.99.99 0 0 0-.615-.694l-33-12.225a1 1 0 0 0-.694 0l-33 12.225a.992.992 0 0 0-.615.694l-4.963 12.088a1 1 0 0 0 .578 1.317L62 79v24.777a1 1 0 0 0 .653.938l33 12.224a.988.988 0 0 0 .694 0l33-12.224a1 1 0 0 0 .653-.938V79l4.348-1.611a1 1 0 0 0 .577-1.32zM96 53.066l30.078 11.142L96 75.334 66.012 64.175zM63.577 65.5l31.1 11.529L90.423 87.4l-31.1-11.529zM64 79.74l26.633 9.872a1 1 0 0 0 1.273-.558L95 81.519v33.043l-31-11.483V79.74zm64 23.339l-31 11.484V81.519l3.094 7.536a1 1 0 0 0 1.273.558L128 79.74v23.339zM101.577 87.4l-4.259-10.373 31.1-11.529 4.259 10.374z" transform="translate(-57 -51)"/></svg><svg width="95" height="65" viewBox="-5 -5 95 65" id="cloud" x="114" y="104"><defs><style>.cicon-default{fill:#333;fill-rule:evenodd}</style></defs><path id="ccloud" class="cicon-default" d="M344.925 57a20.847 20.847 0 0 1 17.423 9.4l.885 1.338 1.5-.573a16.321 16.321 0 0 1 16.223 2.635 16.612 16.612 0 0 1 5.448 8.512l.237.9.843.4A14.916 14.916 0 0 1 381.165 108h-51.331a14.921 14.921 0 0 1-6.857-28.127l1.071-.562v-1.359A20.939 20.939 0 0 1 344.925 57m0-2a22.937 22.937 0 0 0-22.877 22.952v.148a16.921 16.921 0 0 0 7.786 31.9h51.331a16.916 16.916 0 0 0 7.173-32.2 18.543 18.543 0 0 0-6.11-9.545 18.319 18.319 0 0 0-18.211-2.964A22.933 22.933 0 0 0 344.925 55zm-5.158 39.989l1.241-3.021h6.959l1.24 3.021h2.307l-5.9-14H343.3l-5.921 14h2.389zm4.481-11c.08-.22.16-.44.26-.78.1.34.181.56.261.78l2.3 5.981h-5.1zM354 80.993V95h1.994v-4.992h2.064c3.321 0 5.981-1.009 5.981-4.414 0-3.561-2.66-4.6-5.981-4.6H354zm8 4.489c0 2.04-1.62 2.521-3.541 2.521h-2.465v-5.01h2.465c1.941 0 3.541.449 3.541 2.489zm5.988-4.489V95h1.994V81h-1.994z" transform="translate(-313 -55)"/></svg><svg width="88" height="65" viewBox="-5 -5 88 65" id="console" x="209" y="169"><defs><style>.dicon-default{fill:#333;fill-rule:evenodd}</style></defs><path id="dconsole" class="dicon-default" d="M260 55h-72a3.009 3.009 0 0 0-3 3v49a3.008 3.008 0 0 0 3 3h72a3.008 3.008 0 0 0 3-3V58a3.009 3.009 0 0 0-3-3zm-72 2h72a1.014 1.014 0 0 1 1 1v5h-74v-5a1 1 0 0 1 1-1zm73 50a1 1 0 0 1-1 1h-72a1 1 0 0 1-1-1V65h74v42zm-47-14a1 1 0 0 1-.707-1.708L218.584 86l-5.293-5.3a1 1 0 1 1 1.414-1.414L221.412 86l-6.707 6.7a1 1 0 0 1-.705.3zm-21-33a1 1 0 1 1-1-1 1 1 0 0 1 1 1zm6 0a1 1 0 1 1-1-1 1 1 0 0 1 1 1zm6 0a1 1 0 1 1-1-1 1 1 0 0 1 1 1zm29 33h-11a1 1 0 1 1 0-2h11a1 1 0 0 1 0 2z" transform="translate(-185 -55)"/></svg><svg width="92" height="76" viewBox="-5 -5 92 76" id="conversation" x="297" y="234"><defs><style>.eicon-default{fill:#333;fill-rule:evenodd}</style></defs><path id="eÑonversation" class="eicon-default" d="M497 50h-46a3.009 3.009 0 0 0-3 3v26a3.008 3.008 0 0 0 3 3h7v8l12-8h8v-2h-8.67l-.53.4L460 86v-6h-9a1.016 1.016 0 0 1-1-1V53a1.016 1.016 0 0 1 1-1h46a1 1 0 0 1 1 1v23h2V53a3 3 0 0 0-3-3zm30 28a1.014 1.014 0 0 1 1 1v26a1.013 1.013 0 0 1-1 1h-9v6l-8.8-5.6-.534-.4H481a1.012 1.012 0 0 1-1-1V79a1 1 0 0 1 1-1h46m0-2h-46a3 3 0 0 0-3 3v26a3.008 3.008 0 0 0 3 3h27l12 8v-8h7a3.009 3.009 0 0 0 3-3V79a3.008 3.008 0 0 0-3-3zm-13 10h-20.027a1 1 0 0 1 0-2H514a1 1 0 0 1 0 2zm0 7h-20.027a1 1 0 0 1 0-2H514a1 1 0 0 1 0 2zm0 7h-20.027a1 1 0 0 1 0-2H514a1 1 0 0 1 0 2z" transform="translate(-448 -50)"/></svg><svg width="69" height="73" viewBox="-5 -5 69 73" id="doc" x="389" y="310"><defs><style>.ficon-default{fill:#333;fill-rule:evenodd}</style></defs><path id="fdoc" class="ficon-default" d="M636 51h-46a3.008 3.008 0 0 0-3 3v4h-4a3.009 3.009 0 0 0-3 3v50a3.009 3.009 0 0 0 3 3h46a2.982 2.982 0 0 0 2.261-1.053A.985.985 0 0 0 632 112v-5h4a2.984 2.984 0 0 0 2.261-1.052A.985.985 0 0 0 639 105V54a3.008 3.008 0 0 0-3-3zm-6 56v4a1 1 0 0 1-1 1h-46a1 1 0 0 1-1-1V61a1 1 0 0 1 1-1h46a1.014 1.014 0 0 1 1 1v46zm7-3a1 1 0 0 1-1 1h-4V61a3.008 3.008 0 0 0-3-3h-40v-4a1 1 0 0 1 1-1h46a1.012 1.012 0 0 1 1 1v50zm-40-18h18a2.982 2.982 0 0 0 2.26-1.052A.987.987 0 0 0 618 84V73a3.009 3.009 0 0 0-3-3h-18a3.009 3.009 0 0 0-3 3v10a3.009 3.009 0 0 0 3 3zm-1-13a1 1 0 0 1 1-1h18a1.013 1.013 0 0 1 1 1v10a1 1 0 0 1-1 1h-18a1 1 0 0 1-1-1V73zm-2 21h24v-2h-24v2zm0 8h24v-2h-24v2z" transform="translate(-580 -51)"/></svg><svg width="66" height="60" viewBox="-5 -5 66 60" id="downloads" x="458" y="383"><defs><style>.gicon-default{fill:#333;fill-rule:evenodd}</style></defs><path id="gdownloads" class="gicon-default" d="M946 109h-48a4 4 0 0 1-4-4V88a1 1 0 1 1 2 0v17a2 2 0 0 0 2 2h48a2 2 0 0 0 2-2V88a1 1 0 0 1 2 0v17a4 4 0 0 1-4 4zm-24-14a1 1 0 0 1-1-1V60a1 1 0 1 1 2 0v34a1 1 0 0 1-1 1zm0 1a1 1 0 0 1-.708-.293l-10-10a1 1 0 0 1 1.413-1.413L922 93.586l9.292-9.293a1 1 0 0 1 1.414 1.413l-10 10A1 1 0 0 1 922 96z" transform="translate(-894 -59)"/></svg><svg width="79" height="60" viewBox="-5 -5 79 60" id="features" x="524" y="443"><defs><style>.hicon-default{fill:#333;fill-rule:evenodd}</style></defs><path id="hfeatures" class="hicon-default" d="M1068 107h-51a1 1 0 1 1 0-2h51a1 1 0 1 1 0 2zm0-22h-51a1 1 0 0 1 0-2h51a1 1 0 0 1 0 2zm0-22h-51a1 1 0 0 1 0-2h51a1 1 0 0 1 0 2zm-65-2a1 1 0 1 1-1 1 1 1 0 0 1 1-1m0-2a3 3 0 1 0 3 3 3.007 3.007 0 0 0-3-3zm0 24a1 1 0 1 1-1 1 1 1 0 0 1 1-1m0-2a3 3 0 1 0 3 3 3.007 3.007 0 0 0-3-3zm0 24a1 1 0 1 1-1 1 1 1 0 0 1 1-1m0-2a3 3 0 1 0 3 3 3.006 3.006 0 0 0-3-3z" transform="translate(-1000 -59)"/></svg><svg width="68" height="68" viewBox="-5 -5 68 68" id="guide" x="603" y="503"><defs><style>.iicon-default{fill:#333;fill-rule:evenodd}</style></defs><path id="iguide" class="iicon-default" d="M1274 57a27 27 0 1 1-27 27 27.029 27.029 0 0 1 27-27m0-2a29 29 0 1 0 29 29 29 29 0 0 0-29-29zM1283.62 74.403L1277 87l-12.6 6.623 6.73-12.491 12.49-6.725m2.32-3.383a1.064 1.064 0 0 0-.5.13l-15.79 8.5-8.5 15.789a1.036 1.036 0 0 0 1.45 1.385l15.88-8.349 8.34-15.876a1.041 1.041 0 0 0-.88-1.581z" transform="translate(-1245 -55)"/></svg><svg width="60" height="68" viewBox="-5 -5 60 68" id="lock" x="671" y="571"><defs><style>.jicon-default{fill:#333;fill-rule:evenodd}</style></defs><path id="jlock" class="jicon-default" d="M736 81a.981.981 0 0 1 1 1v27a.982.982 0 0 1-1 1h-44a.98.98 0 0 1-1-.995V82a.981.981 0 0 1 1-1h44m-.058-2h-43.824a3.029 3.029 0 0 0-3.057 3L689 109a3.029 3.029 0 0 0 3.057 3h43.825a3.029 3.029 0 0 0 3.057-3L739 82a3.03 3.03 0 0 0-3.058-3zM695 81a1 1 0 0 1-1-1v-5.993a20 20 0 1 1 40 0 1 1 0 0 1-2 0 18 18 0 1 0-36 0V80a1 1 0 0 1-1 1zm19 11a1 1 0 0 1 1 1v6a1 1 0 1 1-2 0v-6a1 1 0 0 1 1-1z" transform="translate(-689 -54)"/></svg><svg width="54" height="48" viewBox="-5 -5 54 48" id="logo" x="731" y="639"><defs><style>.kcls-1{fill:#fff;fill-rule:evenodd}</style></defs><path id="klogo.svg" class="kcls-1" d="M53 45.34v-.98a1.033 1.033 0 0 0-.05-.24A1.927 1.927 0 0 0 54 42.41a2 2 0 0 0-3.99 0 1.927 1.927 0 0 0 1.05 1.71.705.705 0 0 0-.06.24v.98a1 1 0 0 0 2 0zm-10.97-.25V34.51A25.475 25.475 0 0 1 52 32.59V30.6a32.936 32.936 0 0 0-8.24 1.11l-2.26-2.28 2.57-2.6-1.82-.93-2.93 2.94-5.45-5.61.44-.45-1.18-1.18c-.03-.04-.51-.52-.51-.52a2.172 2.172 0 0 0-2.1.5 1.849 1.849 0 0 0-.37 2.01l1.58 1.81.43-.43 5.42 5.63-2.63 2.65.92 1.84 1.69-1.71 2.43 2.77v9.21a20.978 20.978 0 0 0 1.67 4l-4.61 5.72V59h4.04l4.07-4.6A16.923 16.923 0 0 0 52 59v-2.6c-4.271-1.37-8.251-5.43-9.971-11.31zm31.45-23.51a2.171 2.171 0 0 0-2.1-.5s-.48.48-.51.52l-1.18 1.18.44.45-5.45 5.61-2.93-2.94-1.82.93 2.57 2.6-2.26 2.28A32.935 32.935 0 0 0 52 30.6v1.99a25.475 25.475 0 0 1 9.97 1.92v10.58c-1.72 5.88-5.7 9.94-9.97 11.31V59a16.923 16.923 0 0 0 6.84-4.6l4.07 4.6h4.04v-3.92l-4.61-5.72a20.964 20.964 0 0 0 1.67-4v-9.21l2.43-2.77 1.69 1.71.92-1.84-2.63-2.65 5.42-5.63.43.43 1.58-1.81a1.848 1.848 0 0 0-.37-2.01z" transform="translate(-30 -21)"/></svg><svg width="26" height="28" viewBox="-5 -5 26 28" id="note" x="785" y="687"><defs><style>.licon-default{fill:#3785ff;fill-rule:evenodd}</style></defs><path id="lnote" class="licon-default" d="M72.018 663.147a1.59 1.59 0 0 1 .986 1.57c-.225 3.4-1.785 13.279-8 13.277s-7.775-9.879-8-13.277a1.59 1.59 0 0 1 .988-1.57l6.347-3.043a1.9 1.9 0 0 1 1.33 0zM64 665h2v5h-2v-5zm0 6h2v2h-2v-2z" transform="translate(-57 -660)"/></svg><svg width="86" height="57" viewBox="-5 -5 86 57" id="source" x="811" y="715"><defs><style>.micon-default{fill:#333;fill-rule:evenodd}</style></defs><path id="msource" class="micon-default" d="M1132.99 100.006a.972.972 0 0 1-.71-.3l-12.15-12.437a3.911 3.911 0 0 1 .01-5.53l12.14-12.428a1 1 0 0 1 1.43 1.4l-12.15 12.438a1.919 1.919 0 0 0-.01 2.72l12.16 12.446a1 1 0 0 1-.72 1.691zm48 0a1.015 1.015 0 0 1-.7-.284 1 1 0 0 1-.01-1.414l12.14-12.437a1.919 1.919 0 0 0 .01-2.72L1180.28 70.7a1 1 0 1 1 1.43-1.4l12.14 12.438a3.911 3.911 0 0 1-.01 5.53L1181.71 99.7a1.011 1.011 0 0 1-.72.306zm-30 8a1 1 0 0 1-.96-1.274l12-45a1.009 1.009 0 0 1 1.24-.687 1 1 0 0 1 .68 1.236l-12 45a.99.99 0 0 1-.96.725z" transform="translate(-1119 -61)"/></svg><svg width="63.84" height="73" viewBox="-5 -5 63.84 73" id="start" x="897" y="772"><defs><style>.nicon-default{fill:#333;fill-rule:evenodd}</style></defs><path id="nstart" class="nicon-default" d="M816.867 54.961a2.928 2.928 0 0 1 1.759.582 3.8 3.8 0 0 1 1.425 2.361 4.692 4.692 0 0 0 4.56 3.924 4.5 4.5 0 0 0 .867-.084l11.1-2.112 5.093 29.026-11.255 2.142a3.051 3.051 0 0 1-.6.06 3.411 3.411 0 0 1-3.233-2.934A4.693 4.693 0 0 0 822.026 84a4.512 4.512 0 0 0-.886.088l-22.955 4.6-.713.1-5.482-29.105 24.249-4.655a3.011 3.011 0 0 1 .628-.066m0-1.994a5.026 5.026 0 0 0-1.038.108l-24.8 4.761a1.524 1.524 0 0 0-.894.578 1.479 1.479 0 0 0-.206 1.082l5.936 31.521 2.652-.355 23.018-4.617a2.538 2.538 0 0 1 .491-.046 2.7 2.7 0 0 1 2.6 2.286 5.4 5.4 0 0 0 5.2 4.572 5.016 5.016 0 0 0 .988-.1l11.75-2.236a1.474 1.474 0 0 0 1.167-1.659L838.435 58.7a1.334 1.334 0 0 0-1.581-1.155l-11.749 2.237a2.538 2.538 0 0 1-.494.049 2.7 2.7 0 0 1-2.6-2.286 5.8 5.8 0 0 0-2.2-3.607 4.934 4.934 0 0 0-2.948-.974zm-16.293 63.006l-5.936-31.522 1.959-.369 5.937 31.521zm25.3-25.627l-5.728-32.22 1.965-.345L827.837 90z" transform="translate(-789.906 -52.969)"/></svg><svg width="64" height="74" viewBox="-5 -5 64 74" id="usecase" x="961" y="845"><defs><style>.ocls-1{fill:#333;fill-rule:evenodd}</style></defs><path id="ousecase.svg" class="ocls-1" d="M900 379h-2v-20a22.028 22.028 0 0 0-13-20.456l-2-.721v-.38a6.015 6.015 0 1 0-12 0v.41l-1 .3c-8.138 2.933-14 11.154-14 20.846v20h-2c-3.034 0-4 1.049-4 4v2c0 2.952 1.008 4 4 4h16.079a6.991 6.991 0 0 0 13.841 0H900c3.04 0 4-.961 4-4v-2c0-2.943-1.012-3.999-4-3.999zm-23-46a4.23 4.23 0 0 1 3.992 4.347 19.127 19.127 0 0 0-3.562-.347h-.857a19.214 19.214 0 0 0-3.563.338A4.227 4.227 0 0 1 877 333zm-19 26c0-11.028 8.331-20 18.573-20h.857c10.238 0 18.57 8.97 18.57 20v20h-38v-20zm19 34a5.12 5.12 0 0 1-5-4h10a5.119 5.119 0 0 1-5 4zm25-8c0 1.887-.015 2-2 2h-46c-1.973 0-2-.027-2-2v-2c0-2.016.028-2 2-2h46c1.985 0 2-.033 2 2v2z" transform="translate(-850 -331)"/></svg></svg>
