<svg xmlns:xlink="http://www.w3.org/1999/xlink" style="position: absolute; width: 0; height: 0; overflow: hidden;" version="1.1" xmlns="http://www.w3.org/2000/svg">
    <style>.front{ fill: currentColor; }</style>
    <defs>
        <symbol id="card-compass" viewBox="0 0 64 64">
            <title>compass</title>
            <path class="back"
                  d="M62.133 32c0 16.642-13.491 30.133-30.133 30.133s-30.133-13.491-30.133-30.133c0-16.642 13.491-30.133 30.133-30.133s30.133 13.491 30.133 30.133z"></path>
            <path class="front"
                  d="M32 63.333v0c-17.333 0-31.333-14-31.333-31.333s14-31.333 31.333-31.333 31.333 14 31.333 31.333-14 31.333-31.333 31.333zM32 60.8c15.933 0 28.8-12.933 28.8-28.8s-12.867-28.8-28.8-28.8-28.8 12.867-28.8 28.8 12.867 28.8 28.8 28.8v0zM36.4 36.4c-4.4 4.467-21.267 12.467-21.267 12.467s8-16.867 12.4-21.267 21.267-12.4 21.267-12.4-7.933 16.8-12.4 21.2v0zM32 5.667c-0.667 0-1.267 0.533-1.267 1.2v7.6c0 0.667 0.6 1.2 1.267 1.2s1.267-0.533 1.267-1.2v-7.533c0-0.733-0.6-1.267-1.267-1.267v0zM58.4 32.133c0-0.667-0.533-1.267-1.2-1.267h-7.6c-0.667 0-1.2 0.6-1.2 1.267s0.533 1.267 1.2 1.267h7.6c0.667-0.067 1.2-0.6 1.2-1.267v0zM32 58.533c0.667 0 1.267-0.533 1.267-1.2v-7.6c0-0.667-0.6-1.2-1.267-1.2s-1.267 0.533-1.267 1.2v7.6c0 0.667 0.6 1.2 1.267 1.2v0zM5.6 32.133c0 0.667 0.533 1.267 1.2 1.267h7.6c0.667 0 1.2-0.6 1.2-1.267s-0.533-1.267-1.2-1.267h-7.6c-0.667 0-1.2 0.6-1.2 1.267v0zM29.333 29.467c-2.667 2.667-8.667 14-8.667 14s11.333-6 14-8.667l-5.333-5.333z"></path>
        </symbol>
        <symbol id="card-box" viewBox="0 0 75 64">
            <title>box</title>
            <path class="back"
                  d="M75.533 24.333l-4.8-11.733c-0.067-0.333-0.267-0.533-0.6-0.667l-32-11.867c-0.067-0.067-0.2-0.067-0.333-0.067s-0.267 0-0.333 0.067l-32 11.867c-0.267 0.133-0.533 0.333-0.6 0.667l-4.8 11.733c-0.067 0.067-0.067 0.2-0.067 0.333 0 0.4 0.267 0.8 0.6 0.933l4.2 1.6v24c0 0.4 0.267 0.8 0.6 0.933l32 11.867c0.133 0.067 0.2 0.067 0.333 0.067s0.267 0 0.333-0.067l32-11.867c0.4-0.133 0.6-0.467 0.6-0.933v0-24l4.2-1.533c0.4-0.133 0.6-0.467 0.6-0.933 0.2-0.2 0.133-0.333 0.067-0.4v0z"></path>
            <path class="front"
                  d="M75.533 24.333l-4.8-11.733c-0.067-0.333-0.267-0.533-0.6-0.667l-32-11.867c-0.067-0.067-0.2-0.067-0.333-0.067s-0.267 0-0.333 0.067l-32 11.867c-0.267 0.133-0.533 0.333-0.6 0.667l-4.8 11.733c-0.067 0.067-0.067 0.2-0.067 0.333 0 0.4 0.267 0.8 0.6 0.933l4.2 1.6v24c0 0.4 0.267 0.8 0.6 0.933l32 11.867c0.133 0.067 0.2 0.067 0.333 0.067s0.267 0 0.333-0.067l32-11.867c0.4-0.133 0.6-0.467 0.6-0.933v0-24l4.2-1.533c0.4-0.133 0.6-0.467 0.6-0.933 0.2-0.2 0.133-0.333 0.067-0.4v0zM37.8 2l29.2 10.8-29.2 10.8-29.067-10.8 29.067-10.8zM6.4 14.067l30.133 11.2-4.133 10.067-30.133-11.2 4.133-10.067zM6.8 27.867l25.8 9.6c0.133 0.067 0.2 0.067 0.333 0.067 0.4 0 0.733-0.267 0.867-0.6l3-7.333v32.067l-30-11.2v-22.6zM68.867 50.467l-30.067 11.2v-32.067l3 7.333c0.133 0.333 0.467 0.6 0.867 0.6 0.133 0 0.267 0 0.333-0.067l25.8-9.6c0.067 0 0.067 22.6 0.067 22.6zM43.2 35.267l-4.133-10.067 30.133-11.2 4.133 10.067-30.133 11.2z"></path>
        </symbol>
        <symbol id="card-shield" viewBox="0 0 57 64">
            <title>shield</title>
            <path class="back"
                  d="M30.867 0.4c-0.733-0.267-1.533-0.467-2.4-0.467s-1.667 0.133-2.333 0.4l-22.667 10.867c-2 0.867-3.467 2.867-3.467 5.2 0 0.133 0 0.267 0 0.4 0.8 12.067 6.333 47.2 28.467 47.2s27.667-35.133 28.467-47.2c0-0.133 0-0.267 0-0.333 0-2.333-1.467-4.4-3.533-5.267l-22.533-10.8z"></path>
            <path class="front"
                  d="M30.867 0.4c-0.733-0.267-1.533-0.467-2.4-0.467s-1.667 0.133-2.333 0.4l-22.667 10.867c-2 0.867-3.467 2.867-3.467 5.2 0 0.133 0 0.267 0 0.4 0.8 12.067 6.333 47.2 28.467 47.2s27.667-35.133 28.467-47.2c0-0.133 0-0.267 0-0.333 0-2.333-1.467-4.4-3.533-5.267l-22.533-10.8zM24.867 17.8h7.133v17.8h-7.133v-17.8zM24.867 39.133h7.133v7.133h-7.133v-7.133z"></path>
        </symbol>
        <symbol id="card-api" viewBox="0 0 128 64">
            <title>api</title>
            <path class="back"
                  d="M51.667 0c-14.733 0.067-26.6 12-26.6 26.667v0 0.2c-6.333 3.333-10.533 9.933-10.533 17.4 0 10.867 8.733 19.667 19.6 19.667h59.733c10.8-0.067 19.6-8.867 19.6-19.667 0-7.8-4.533-14.533-11.133-17.733-1.333-4.533-3.8-8.333-7.2-11.133-3.667-3.067-8.4-4.867-13.6-4.867-2.733 0-5.4 0.533-7.8 1.467-4.667-7.267-12.8-12-22.067-12v0 0z"></path>
            <path class="front"
                  d="M51.667 2.333c8.467 0 15.867 4.333 20.2 10.867l1.067 1.667 1.733-0.667c2-0.8 4.333-1.267 6.8-1.267 4.6 0 8.8 1.667 12.133 4.333 3 2.467 5.2 5.867 6.267 9.733l0.333 1.2 1 0.467c5.933 2.867 9.933 8.8 9.933 15.667 0 9.533-7.733 17.333-17.267 17.333h-59.733c-9.533-0.067-17.267-7.8-17.267-17.333 0-6.667 3.733-12.4 9.2-15.333l1.333-0.667v-1.6c0-13.467 10.867-24.333 24.267-24.4v0zM51.667 0c-14.733 0.067-26.6 12-26.6 26.667v0 0.2c-6.333 3.333-10.533 9.933-10.533 17.4 0 10.867 8.733 19.667 19.6 19.667h59.733c10.8-0.067 19.6-8.867 19.6-19.667 0-7.8-4.533-14.533-11.133-17.733-1.333-4.533-3.8-8.333-7.2-11.133-3.667-3.067-8.4-4.867-13.6-4.867-2.733 0-5.4 0.533-7.8 1.467-4.667-7.267-12.8-12-22.067-12v0 0zM45.667 46.533l1.467-3.533h8.067l1.467 3.533h2.667l-6.867-16.267h-2.667l-6.933 16.267h2.8zM50.867 33.733c0.067-0.267 0.2-0.533 0.333-0.933 0.133 0.4 0.2 0.667 0.333 0.933l2.667 6.933h-5.933l2.6-6.933zM62.2 30.267v16.267h2.333v-5.8h2.4c3.867 0 6.933-1.2 6.933-5.133 0-4.133-3.067-5.333-6.933-5.333h-4.733zM71.533 35.467c0 2.4-1.867 2.933-4.133 2.933h-2.867v-5.8h2.867c2.267 0 4.133 0.467 4.133 2.867v0zM78.467 30.267v16.267h2.333v-16.267h-2.333z"></path>
        </symbol>
        <symbol id="card-talk" viewBox="0 0 79 64">
            <title>talk</title>
            <path class="back"
                  d="M76.6 25.2v0h-26.2v-22.267c0-1.6-1.333-2.933-2.933-2.933v0h-44.533c-1.6 0-2.933 1.333-2.933 2.933v25.2c0 1.6 1.333 2.933 2.933 2.933h6.8v7.733l11.6-7.8h7.733v22.333c0 1.6 1.333 2.933 2.933 2.933h26.2l11.6 7.733v-7.733h6.8c1.6 0 2.933-1.333 2.933-2.933v-25.2c0-1.6-1.333-2.933-2.933-2.933z"></path>
            <path class="front"
                  d="M64 34.933h-19.4c-0.533 0-1-0.467-1-1s0.467-1 1-1h19.4c0.533 0 1 0.467 1 1s-0.467 1-1 1zM64 41.667h-19.4c-0.533 0-1-0.467-1-1s0.467-1 1-1h19.4c0.533 0 1 0.467 1 1s-0.467 1-1 1zM64 48.467h-19.4c-0.533 0-1-0.467-1-1s0.467-1 1-1h19.4c0.533 0 1 0.467 1 1s-0.467 1-1 1zM47.533 0.2h-44.6c-1.6 0-2.933 1.267-2.933 2.867v25.2c0 1.6 1.333 2.933 2.933 2.933h6.8v7.733l11.6-7.733h7.733v-1.933h-8.4l-0.533 0.4-8.533 5.4v-5.8h-8.667c-0.533 0-0.933-0.467-1-1v-25.2c0-0.533 0.467-0.933 1-1h44.6c0.533 0 1 0.467 1 1v22.333h1.933v-22.333c-0.067-1.6-1.333-2.867-2.933-2.867v0zM76.6 27.333c0.533 0 0.933 0.467 1 1v25.2c0 0.533-0.467 0.933-1 1h-8.733v5.8l-8.533-5.467-0.533-0.4h-26.8c-0.533 0-0.933-0.467-1-1v-25.133c0-0.533 0.467-1 1-1h44.6zM76.6 25.4h-44.6c-1.6 0-2.933 1.333-2.933 2.933v25.2c0 1.6 1.333 2.933 2.933 2.933h26.2l11.667 7.733v-7.8h6.8c1.6 0 2.933-1.333 2.933-2.933v-25.133c-0.067-1.667-1.4-2.933-3-2.933v0z"></path>
        </symbol>
        <symbol id="card-docs" viewBox="0 0 60 64">
            <title>docs</title>
            <path class="back"
                  d="M56.2 0.933h-45.333c-1.6 0-2.933 1.333-2.933 2.933v3.933h-4c-1.6 0-2.933 1.333-2.933 2.933v49.267c0 1.6 1.333 2.933 2.933 2.933h45.333c0.867 0 1.667-0.4 2.2-1.067 0.4-0.133 0.733-0.467 0.733-0.933v-4.933h3.933c0.867 0 1.667-0.4 2.2-1 0.4-0.133 0.733-0.467 0.733-0.933v-50.2c0.067-1.6-1.267-2.933-2.867-2.933v0z"></path>
            <path class="front"
                  d="M56.867 0h-46.733c-1.667 0-3.067 1.333-3.067 3.067v4.067h-4c-1.733 0-3.067 1.333-3.067 3v50.8c0 1.733 1.4 3.067 3.067 3.067h46.733c0.933 0 1.733-0.4 2.267-1.067 0.467-0.133 0.733-0.533 0.733-0.933v-5.067h4.067c0.933 0 1.733-0.4 2.267-1.067 0.467-0.133 0.733-0.533 0.733-0.933v-51.867c0.067-1.733-1.267-3.067-3-3.067v0zM50.8 56.867v4.067c0 0.533-0.467 1-1 1h-46.733c-0.6 0.067-1.067-0.4-1.067-1v-50.8c0-0.533 0.467-1 1-1h46.733c0.533 0 1 0.467 1 1l0.067 46.733zM57.933 53.867c0 0.533-0.467 1-1 1h-4.067v-44.667c0-1.667-1.333-3.067-3.067-3.067h-40.667v-4.067c0-0.533 0.467-1 1-1h46.733c0.533 0 1 0.467 1 1 0.067 0 0.067 50.8 0.067 50.8zM38.6 34.2c0 0.733-0.533 1.333-1.2 1.333h-21.933c-0.667 0-1.2-0.6-1.2-1.333v-13.533c0-0.733 0.533-1.333 1.2-1.333h21.933c0.667 0 1.2 0.6 1.2 1.333v13.533zM36.6 22.333c0-0.533-0.467-1-1-1h-18.333c-0.533 0-1 0.467-1 1v10.133c0 0.533 0.467 1 1 1h18.267c0.533 0 1-0.467 1-1v-10.133h0.067zM14.2 41.667v2h24.4v-2h-24.4zM14.2 49.8v2h24.4v-2h-24.4z"></path>
        </symbol>
        <symbol id="card-flag" viewBox="0 0 55 64">
            <title>flag</title>
            <path class="back"
                  d="M30.8 5.733l4.8 26.933c-0.8-0.667-1.8-1.067-2.933-1.067-0.333 0-0.667 0-0.933 0.067l-23.267 4.667-0.733 0.067-0.867-4.8-4.667-24.8 24.667-4.733c0.2-0.067 0.4-0.067 0.667-0.067v0 0 0c0.667 0 1.267 0.2 1.8 0.6 0.733 0.6 1.267 1.4 1.467 2.4-0.133 0.267-0.067 0.467 0 0.733zM47.4 6.8l-11.267 2.133c-0.267 0.067-0.6 0.067-0.933 0.067v0c-0.667 0-1.333-0.133-1.867-0.4l5.133 29.067h-0.133c0.6 0.467 1.333 0.8 2.133 0.867 0.2 0 0.4 0 0.6-0.067l11.467-2.2-5.133-29.467z"></path>
            <path class="front"
                  d="M54.667 36.467l-5.4-30.667c-0.067-0.667-0.667-1.2-1.333-1.2-0.067 0-0.2 0-0.267 0l-11.933 2.267c-0.133 0-0.333 0.067-0.533 0.067-1.133 0-2.067-0.733-2.467-1.733-0.067-0.133-0.067-0.2-0.133-0.333 0-0.067-0.067-0.133-0.067-0.2-0.267-1.533-1.067-2.8-2.2-3.667-0.8-0.6-1.8-1-2.933-1v0 0 0c-0.4 0-0.733 0.067-1.067 0.133l-25.2 4.8c-0.4 0.067-0.667 0.267-0.933 0.6-0.133 0.2-0.2 0.533-0.2 0.8 0 0.133 0 0.2 0 0.333l10.8 56.933 2-0.4-4.733-24.8 0.667-0.067 23.4-4.667c0.133 0 0.333-0.067 0.467-0.067v0c1.333 0.067 2.467 1 2.667 2.333 0.4 2.6 2.6 4.6 5.267 4.667 0.333 0 0.733-0.067 1.067-0.133l11.933-2.267c0.667-0.133 1.2-0.733 1.2-1.467-0.067-0.133-0.067-0.2-0.067-0.267zM32.667 31.533c-0.333 0-0.667 0-0.933 0.067l-23.267 4.667-0.667 0.067-5.667-29.533 24.667-4.733c0.2-0.067 0.4-0.067 0.667-0.067v0 0 0c0.667 0 1.267 0.2 1.8 0.6 0.733 0.6 1.267 1.4 1.467 2.4 0.067 0.267 0.133 0.467 0.2 0.733l4.8 26.933c-0.933-0.733-2-1.133-3.067-1.133zM41.133 38.4c-0.2 0.067-0.4 0.067-0.6 0.067-0.733 0-1.4-0.333-1.933-0.733l-5.2-29.2c0.6 0.267 1.2 0.4 1.867 0.4v0c0.333 0 0.6 0 0.933-0.067l11.267-2.133 5.2 29.467-11.533 2.2z"></path>
        </symbol>
        <symbol id="card-terminal" viewBox="0 0 91 64">
            <title>terminal</title>
            <path class="back"
                  d="M87.2 0v0h-83.733c-1.933 0-3.533 1.533-3.533 3.467v57c0 1.933 1.533 3.467 3.467 3.467h83.8c1.933 0 3.467-1.533 3.467-3.467v-57c0.067-1.933-1.533-3.467-3.467-3.467z"></path>
            <path class="front"
                  d="M43.067 43.067c0-0.667 0.533-1.133 1.133-1.133h12.8c0.667 0 1.133 0.533 1.133 1.133 0 0.667-0.533 1.133-1.133 1.133h-12.8c-0.6 0-1.133-0.533-1.133-1.133zM39.067 36.067l-6.133 6.133c-0.2 0.2-0.333 0.533-0.333 0.8 0 0.667 0.533 1.133 1.133 1.133v0c0.333 0 0.6-0.133 0.8-0.333l7.8-7.8-7.8-7.733c-0.2-0.2-0.533-0.333-0.867-0.333-0.667 0-1.133 0.533-1.133 1.133 0 0.333 0.133 0.6 0.333 0.867l6.2 6.133zM87.267 0v0h-83.8c-1.933 0-3.467 1.533-3.467 3.467v57c0 2 1.533 3.533 3.467 3.533h83.8c1.933 0 3.467-1.533 3.467-3.467v-57.067c0-1.933-1.533-3.467-3.467-3.467zM2.333 3.467c0-0.667 0.533-1.133 1.133-1.133v0h83.8c0.667 0 1.133 0.533 1.133 1.133v5.867h-86.067v-5.867zM88.467 60.533v0c0 0.667-0.533 1.133-1.133 1.133h-83.867c-0.667 0-1.133-0.533-1.133-1.133v-48.867h86.133v48.867zM9.333 5.8c0 0.667-0.533 1.133-1.133 1.133s-1.133-0.533-1.133-1.133 0.467-1.133 1.067-1.133 1.2 0.533 1.2 1.133zM15.133 4.667c-0.667 0-1.133 0.533-1.133 1.133s0.533 1.133 1.133 1.133c0.667 0 1.133-0.533 1.133-1.133s-0.467-1.133-1.133-1.133zM22.133 4.667c-0.667 0-1.133 0.533-1.133 1.133s0.533 1.133 1.133 1.133 1.133-0.533 1.133-1.133-0.533-1.133-1.133-1.133z"></path>
        </symbol>
        <symbol id="card-lock" viewBox="0 0 55 64">
            <title>lock</title>
            <path class="back"
                  d="M50.533 28.4h-46.333c-1.733 0-3.2 1.4-3.2 3.133l-0.133 28.333c0 1.733 1.467 3.133 3.2 3.133v0h46.4c1.733 0 3.2-1.4 3.2-3.133l0.067-28.333c0.067-1.733-1.4-3.133-3.2-3.133 0.067 0 0 0 0 0v0z"></path>
            <path class="front"
                  d="M51.8 27.6v0 0h-44.067v-5.533c0-11 8.867-19.867 19.867-19.867s19.867 8.867 19.867 19.867c0 0.6 0.467 1.133 1.133 1.133s1.133-0.467 1.133-1.133c-0.067-12.2-9.933-22.067-22.133-22.067s-22.067 9.867-22.067 22.067v5.533h-2.067c-1.867 0-3.333 1.467-3.333 3.333l-0.133 29.733c0 1.8 1.533 3.333 3.333 3.333v0h48.333c1.867 0 3.333-1.467 3.333-3.333l0.067-29.8c0.067-1.8-1.4-3.267-3.267-3.267zM52.933 30.867v29.8c0 0.6-0.467 1.067-1.067 1.067v0h-48.533c-0.6 0-1.067-0.467-1.067-1.067v0-29.8c0-0.6 0.467-1.067 1.067-1.067v0h48.467c0.667 0 1.133 0.467 1.133 1.067v0zM28.667 43.067v6.6c0 0.6-0.467 1.133-1.133 1.133s-1.133-0.467-1.133-1.133v-6.6c0-0.6 0.467-1.133 1.133-1.133s1.133 0.467 1.133 1.133z"></path>
        </symbol>
        <symbol id="card-download" viewBox="0 0 72 64">
            <title>download</title>
            <path class="front"
                  d="M71.667 37.133v21.733c0 2.8-2.267 5.133-5.133 5.133h-61.4c-2.867 0-5.133-2.267-5.133-5.133v-21.733c0-0.733 0.6-1.267 1.267-1.267s1.267 0.6 1.267 1.267v21.733c0 1.4 1.133 2.533 2.533 2.533h61.467c1.4 0 2.533-1.133 2.533-2.533v-21.733c0-0.733 0.6-1.267 1.267-1.267s1.333 0.533 1.333 1.267zM34.933 47c0.2 0.2 0.533 0.4 0.933 0.4v0 0c0.333 0 0.667-0.133 0.933-0.4l12.8-12.8c0.2-0.2 0.333-0.533 0.333-0.867 0-0.733-0.6-1.267-1.267-1.267-0.333 0-0.667 0.133-0.867 0.333l-10.667 10.6v-41.733c0-0.733-0.6-1.267-1.267-1.267s-1.267 0.6-1.267 1.267v41.733l-10.667-10.6c-0.2-0.2-0.533-0.333-0.867-0.333-0.733 0-1.267 0.6-1.267 1.267 0 0.333 0.133 0.667 0.333 0.867l12.8 12.8z"></path>
        </symbol>
        <symbol id="card-source" viewBox="0 0 103 64">
            <title>source</title>
            <path class="front"
                  d="M19.067 53.133c0 0 0 0 0 0-0.4 0-0.733-0.133-1-0.4l-16.533-16.933c-0.933-1-1.533-2.333-1.533-3.8s0.6-2.8 1.533-3.8l16.533-16.867c0.267-0.267 0.6-0.4 1-0.4 0.733 0 1.333 0.6 1.333 1.333 0 0.4-0.133 0.733-0.4 0.933l-16.533 16.933c-0.467 0.533-0.733 1.133-0.733 1.867s0.267 1.4 0.733 1.867l16.533 16.933c0.267 0.267 0.4 0.6 0.4 0.933 0 0.8-0.6 1.4-1.333 1.4v0zM84.4 53.133c-0.4 0-0.733-0.133-0.933-0.4-0.267-0.267-0.4-0.6-0.4-1s0.133-0.733 0.4-0.933l16.533-16.933c0.467-0.467 0.8-1.133 0.8-1.867s-0.267-1.4-0.733-1.867l-16.533-16.933c-0.267-0.267-0.4-0.6-0.4-0.933 0-0.733 0.6-1.333 1.333-1.333 0.4 0 0.733 0.133 1 0.4l16.533 16.933c0.933 0.933 1.533 2.267 1.533 3.733s-0.6 2.8-1.533 3.8l-16.6 16.867c-0.267 0.267-0.6 0.467-1 0.467v0zM43.533 64c-0.733 0-1.333-0.6-1.333-1.333 0-0.133 0-0.267 0.067-0.4l16.333-61.267c0.2-0.6 0.667-1 1.333-1 0.133 0 0.267 0 0.4 0.067 0.533 0.2 1 0.667 1 1.333 0 0.133 0 0.267-0.067 0.4l-16.4 61.2c-0.133 0.6-0.667 1-1.333 1 0.067 0 0 0 0 0z"></path>
        </symbol>
        <symbol id="card-list" viewBox="0 0 88 64">
            <title>list</title>
            <path class="front"
                  d="M87.067 61.467h-65.333c-0.733 0-1.267-0.6-1.267-1.267s0.6-1.267 1.267-1.267h65.267c0.733 0 1.267 0.6 1.267 1.267s-0.533 1.267-1.2 1.267zM87.067 33.267h-65.333c-0.733 0-1.267-0.6-1.267-1.267s0.6-1.267 1.267-1.267h65.267c0.733 0 1.267 0.6 1.267 1.267s-0.533 1.267-1.2 1.267zM87.067 5.133h-65.333c-0.733 0-1.267-0.6-1.267-1.267s0.6-1.267 1.267-1.267h65.267c0.733 0 1.267 0.6 1.267 1.267s-0.533 1.267-1.2 1.267zM3.867 2.533c0.733 0 1.267 0.6 1.267 1.267s-0.6 1.333-1.267 1.333-1.333-0.6-1.333-1.267 0.6-1.333 1.333-1.333zM3.867 0c-2.133 0-3.867 1.733-3.867 3.867s1.733 3.867 3.867 3.867 3.867-1.733 3.867-3.867c-0.067-2.133-1.8-3.867-3.867-3.867 0 0 0 0 0 0zM3.867 30.733c0.733 0 1.267 0.6 1.267 1.267s-0.6 1.267-1.267 1.267-1.333-0.533-1.333-1.267 0.6-1.267 1.333-1.267zM3.867 28.133c-2.133 0-3.867 1.733-3.867 3.867s1.733 3.867 3.867 3.867 3.867-1.733 3.867-3.867c-0.067-2.133-1.8-3.867-3.867-3.867 0 0 0 0 0 0zM3.867 58.867c0.733 0 1.267 0.6 1.267 1.267s-0.6 1.267-1.267 1.267-1.267-0.6-1.267-1.267 0.533-1.267 1.267-1.267zM3.867 56.333c-2.133 0-3.867 1.733-3.867 3.867s1.733 3.8 3.867 3.8 3.867-1.733 3.867-3.867c-0.067-2.067-1.8-3.8-3.867-3.8 0 0 0 0 0 0z"></path>
        </symbol>
        <symbol id="virgil-logo" viewBox="0 0 50 58">
            <path class="front" d="M736,81a0.981,0.981,0,0,1,1,1v27a0.982,0.982,0,0,1-1,1H692a0.98,0.98,0,0,1-1-.995V82a0.981,0.981,0,0,1,1-1h44m-0.058-2H692.118a3.029,3.029,0,0,0-3.057,3L689,109a3.029,3.029,0,0,0,3.057,3h43.825a3.029,3.029,0,0,0,3.057-3L739,82a3.03,3.03,0,0,0-3.058-3h0ZM695,81a1,1,0,0,1-1-1V74.007a20,20,0,1,1,40,0,1,1,0,0,1-2,0,18,18,0,1,0-36,0V80A1,1,0,0,1,695,81Zm19,11a1,1,0,0,1,1,1v6a1,1,0,1,1-2,0V93A1,1,0,0,1,714,92Z"></path>
        </symbol>
    </defs>
</svg>
